<!DOCTYPE svg PUBLIC "-//W3C//DTD SVG 1.1//EN" "http://www.w3.org/Graphics/SVG/1.1/DTD/svg11.dtd">
<svg xmlns="http://www.w3.org/2000/svg" version="1.1" width="52.0mm" height="52.0mm" viewBox="99000000.0 49000000.0 52000000.0 52000000.0">
            <title>Picture generated by PcbDraw </title>
            <desc>Picture generated by PcbDraw</desc>
        <defs><clipPath id="cut-off"><path d=" M 100000000.0 50000000.0 L 100000000.0 100000000.0 L 150000000.0 100000000.0 L 150000000.0 50000000.0 L 100000000.0 50000000.0 " style="fill-rule: evenodd;"/></clipPath><mask id="pads-mask"><g style="fill:#ffffff; fill-opacity:0.0;  stroke:#ffffff; stroke-width:0.000000; stroke-opacity:1;  stroke-linecap:round; stroke-linejoin:round;">
<g style="fill:#ffffff; fill-opacity:1.0;  stroke:#ffffff; stroke-width:1.000000; stroke-opacity:1;  stroke-linecap:round; stroke-linejoin:round;">
<circle cx="129547500.000000" cy="73798500.000000" r="400000.000000"/> 
<circle cx="124067500.000000" cy="71788500.000000" r="325000.000000"/> 
</g>
<g style="fill:#ffffff; fill-opacity:0.0;  stroke:#ffffff; stroke-width:1800000.000000; stroke-opacity:1;  stroke-linecap:round; stroke-linejoin:round;">
<path d="M122526500 72756500 L124426500 72756500 "/>
<path d="M129587500 72756500 L131487500 72756500 "/>
</g>
<g style="fill:#ffffff; fill-opacity:1.0;  stroke:#ffffff; stroke-width:1.000000; stroke-opacity:1;  stroke-linecap:round; stroke-linejoin:round;">
<circle cx="124547500.000000" cy="73798500.000000" r="400000.000000"/> 
<circle cx="129847500.000000" cy="71788500.000000" r="325000.000000"/> 
</g>
<g style="fill:#ffffff; fill-opacity:1.0;  stroke:#ffffff; stroke-width:1.000000; stroke-opacity:1;  stroke-linecap:round; stroke-linejoin:round;">
<path style="fill:#ffffff; fill-opacity:1.0;  stroke:#ffffff; stroke-width:1.000000; stroke-opacity:1;  stroke-linecap:round; stroke-linejoin:round;fill-rule:evenodd;" d="M 125925300.000000,73713500.000000 125525300.000000,73713500.000000 125525300.000000,72063500.000000 125925300.000000,72063500.000000 Z"/> 
<path style="fill:#ffffff; fill-opacity:1.0;  stroke:#ffffff; stroke-width:1.000000; stroke-opacity:1;  stroke-linecap:round; stroke-linejoin:round;fill-rule:evenodd;" d="M 126587500.000000,73713500.000000 126187500.000000,73713500.000000 126187500.000000,72063500.000000 126587500.000000,72063500.000000 Z"/> 
<path style="fill:#ffffff; fill-opacity:1.0;  stroke:#ffffff; stroke-width:1.000000; stroke-opacity:1;  stroke-linecap:round; stroke-linejoin:round;fill-rule:evenodd;" d="M 127237500.000000,73713500.000000 126837500.000000,73713500.000000 126837500.000000,72063500.000000 127237500.000000,72063500.000000 Z"/> 
<path style="fill:#ffffff; fill-opacity:1.0;  stroke:#ffffff; stroke-width:1.000000; stroke-opacity:1;  stroke-linecap:round; stroke-linejoin:round;fill-rule:evenodd;" d="M 127887500.000000,73713500.000000 127487500.000000,73713500.000000 127487500.000000,72063500.000000 127887500.000000,72063500.000000 Z"/> 
<path style="fill:#ffffff; fill-opacity:1.0;  stroke:#ffffff; stroke-width:1.000000; stroke-opacity:1;  stroke-linecap:round; stroke-linejoin:round;fill-rule:evenodd;" d="M 128537500.000000,73713500.000000 128137500.000000,73713500.000000 128137500.000000,72063500.000000 128537500.000000,72063500.000000 Z"/> 
<path style="fill:#ffffff; fill-opacity:1.0;  stroke:#ffffff; stroke-width:1.000000; stroke-opacity:1;  stroke-linecap:round; stroke-linejoin:round;fill-rule:evenodd;" d="M 128537500.000000,73713500.000000 128137500.000000,73713500.000000 128137500.000000,72063500.000000 128537500.000000,72063500.000000 Z"/> 
</g>
<g style="fill:#ffffff; fill-opacity:0.0;  stroke:#ffffff; stroke-width:2800000.000000; stroke-opacity:1;  stroke-linecap:round; stroke-linejoin:round;">
<path d="M123177500 75606500 L123177500 77506500 "/>
<path d="M130237500 75606500 L130237500 76306500 "/>
<path d="M130837500 75606500 L130837500 77506500 "/>
<path d="M123777500 75606500 L123777500 76306500 "/>
</g>
<g style="fill:#ffffff; fill-opacity:1.0;  stroke:#ffffff; stroke-width:1.000000; stroke-opacity:1;  stroke-linecap:round; stroke-linejoin:round;">
<path style="fill:#ffffff; fill-opacity:1.0;  stroke:#ffffff; stroke-width:1.000000; stroke-opacity:1;  stroke-linecap:round; stroke-linejoin:round;fill-rule:evenodd;" d="M 123407500.000000,71068500.000000 123407500.000000,69618500.000000 124007500.000000,69618500.000000 124007500.000000,71068500.000000 Z"/> 
<path style="fill:#ffffff; fill-opacity:1.0;  stroke:#ffffff; stroke-width:1.000000; stroke-opacity:1;  stroke-linecap:round; stroke-linejoin:round;fill-rule:evenodd;" d="M 124207500.000000,71068500.000000 124207500.000000,69618500.000000 124807500.000000,69618500.000000 124807500.000000,71068500.000000 Z"/> 
<path style="fill:#ffffff; fill-opacity:1.0;  stroke:#ffffff; stroke-width:1.000000; stroke-opacity:1;  stroke-linecap:round; stroke-linejoin:round;fill-rule:evenodd;" d="M 125557500.000000,71068500.000000 125557500.000000,69618500.000000 125857500.000000,69618500.000000 125857500.000000,71068500.000000 Z"/> 
<path style="fill:#ffffff; fill-opacity:1.0;  stroke:#ffffff; stroke-width:1.000000; stroke-opacity:1;  stroke-linecap:round; stroke-linejoin:round;fill-rule:evenodd;" d="M 126557500.000000,71068500.000000 126557500.000000,69618500.000000 126857500.000000,69618500.000000 126857500.000000,71068500.000000 Z"/> 
<path style="fill:#ffffff; fill-opacity:1.0;  stroke:#ffffff; stroke-width:1.000000; stroke-opacity:1;  stroke-linecap:round; stroke-linejoin:round;fill-rule:evenodd;" d="M 127057500.000000,71068500.000000 127057500.000000,69618500.000000 127357500.000000,69618500.000000 127357500.000000,71068500.000000 Z"/> 
<path style="fill:#ffffff; fill-opacity:1.0;  stroke:#ffffff; stroke-width:1.000000; stroke-opacity:1;  stroke-linecap:round; stroke-linejoin:round;fill-rule:evenodd;" d="M 128057500.000000,71068500.000000 128057500.000000,69618500.000000 128357500.000000,69618500.000000 128357500.000000,71068500.000000 Z"/> 
<path style="fill:#ffffff; fill-opacity:1.0;  stroke:#ffffff; stroke-width:1.000000; stroke-opacity:1;  stroke-linecap:round; stroke-linejoin:round;fill-rule:evenodd;" d="M 129107500.000000,71068500.000000 129107500.000000,69618500.000000 129707500.000000,69618500.000000 129707500.000000,71068500.000000 Z"/> 
<path style="fill:#ffffff; fill-opacity:1.0;  stroke:#ffffff; stroke-width:1.000000; stroke-opacity:1;  stroke-linecap:round; stroke-linejoin:round;fill-rule:evenodd;" d="M 129907500.000000,71068500.000000 129907500.000000,69618500.000000 130507500.000000,69618500.000000 130507500.000000,71068500.000000 Z"/> 
<path style="fill:#ffffff; fill-opacity:1.0;  stroke:#ffffff; stroke-width:1.000000; stroke-opacity:1;  stroke-linecap:round; stroke-linejoin:round;fill-rule:evenodd;" d="M 129907500.000000,71068500.000000 129907500.000000,69618500.000000 130507500.000000,69618500.000000 130507500.000000,71068500.000000 Z"/> 
<path style="fill:#ffffff; fill-opacity:1.0;  stroke:#ffffff; stroke-width:1.000000; stroke-opacity:1;  stroke-linecap:round; stroke-linejoin:round;fill-rule:evenodd;" d="M 129107500.000000,71068500.000000 129107500.000000,69618500.000000 129707500.000000,69618500.000000 129707500.000000,71068500.000000 Z"/> 
<path style="fill:#ffffff; fill-opacity:1.0;  stroke:#ffffff; stroke-width:1.000000; stroke-opacity:1;  stroke-linecap:round; stroke-linejoin:round;fill-rule:evenodd;" d="M 128557500.000000,71068500.000000 128557500.000000,69618500.000000 128857500.000000,69618500.000000 128857500.000000,71068500.000000 Z"/> 
<path style="fill:#ffffff; fill-opacity:1.0;  stroke:#ffffff; stroke-width:1.000000; stroke-opacity:1;  stroke-linecap:round; stroke-linejoin:round;fill-rule:evenodd;" d="M 127557500.000000,71068500.000000 127557500.000000,69618500.000000 127857500.000000,69618500.000000 127857500.000000,71068500.000000 Z"/> 
<path style="fill:#ffffff; fill-opacity:1.0;  stroke:#ffffff; stroke-width:1.000000; stroke-opacity:1;  stroke-linecap:round; stroke-linejoin:round;fill-rule:evenodd;" d="M 126057500.000000,71068500.000000 126057500.000000,69618500.000000 126357500.000000,69618500.000000 126357500.000000,71068500.000000 Z"/> 
<path style="fill:#ffffff; fill-opacity:1.0;  stroke:#ffffff; stroke-width:1.000000; stroke-opacity:1;  stroke-linecap:round; stroke-linejoin:round;fill-rule:evenodd;" d="M 125057500.000000,71068500.000000 125057500.000000,69618500.000000 125357500.000000,69618500.000000 125357500.000000,71068500.000000 Z"/> 
<path style="fill:#ffffff; fill-opacity:1.0;  stroke:#ffffff; stroke-width:1.000000; stroke-opacity:1;  stroke-linecap:round; stroke-linejoin:round;fill-rule:evenodd;" d="M 124207500.000000,71068500.000000 124207500.000000,69618500.000000 124807500.000000,69618500.000000 124807500.000000,71068500.000000 Z"/> 
<path style="fill:#ffffff; fill-opacity:1.0;  stroke:#ffffff; stroke-width:1.000000; stroke-opacity:1;  stroke-linecap:round; stroke-linejoin:round;fill-rule:evenodd;" d="M 123407500.000000,71068500.000000 123407500.000000,69618500.000000 124007500.000000,69618500.000000 124007500.000000,71068500.000000 Z"/> 
</g>
<g style="fill:#ffffff; fill-opacity:0.0;  stroke:#ffffff; stroke-width:1000000.000000; stroke-opacity:1;  stroke-linecap:round; stroke-linejoin:round;">
<path d="M122637500 75138500 L122637500 75738500 "/>
<path d="M122637500 70708500 L122637500 71808500 "/>
<path d="M131277500 75138500 L131277500 75738500 "/>
<path d="M131277500 70708500 L131277500 71808500 "/>
</g>
</g> 
</mask><mask id="pads-mask-silkscreen"><rect x="99950000" y="49950000" width="50100000" height="50100000" fill="white"/><g style="fill:#000000; fill-opacity:0.0;  stroke:#000000; stroke-width:0.000000; stroke-opacity:1;  stroke-linecap:round; stroke-linejoin:round;">
<g style="fill:#000000; fill-opacity:1.0;  stroke:#000000; stroke-width:1.000000; stroke-opacity:1;  stroke-linecap:round; stroke-linejoin:round;">
<circle cx="129547500.000000" cy="73798500.000000" r="400000.000000"/> 
<circle cx="124067500.000000" cy="71788500.000000" r="325000.000000"/> 
</g>
<g style="fill:#000000; fill-opacity:0.0;  stroke:#000000; stroke-width:1800000.000000; stroke-opacity:1;  stroke-linecap:round; stroke-linejoin:round;">
<path d="M122526500 72756500 L124426500 72756500 "/>
<path d="M129587500 72756500 L131487500 72756500 "/>
</g>
<g style="fill:#000000; fill-opacity:1.0;  stroke:#000000; stroke-width:1.000000; stroke-opacity:1;  stroke-linecap:round; stroke-linejoin:round;">
<circle cx="124547500.000000" cy="73798500.000000" r="400000.000000"/> 
<circle cx="129847500.000000" cy="71788500.000000" r="325000.000000"/> 
</g>
<g style="fill:#000000; fill-opacity:1.0;  stroke:#000000; stroke-width:1.000000; stroke-opacity:1;  stroke-linecap:round; stroke-linejoin:round;">
<path style="fill:#000000; fill-opacity:1.0;  stroke:#000000; stroke-width:1.000000; stroke-opacity:1;  stroke-linecap:round; stroke-linejoin:round;fill-rule:evenodd;" d="M 125925300.000000,73713500.000000 125525300.000000,73713500.000000 125525300.000000,72063500.000000 125925300.000000,72063500.000000 Z"/> 
<path style="fill:#000000; fill-opacity:1.0;  stroke:#000000; stroke-width:1.000000; stroke-opacity:1;  stroke-linecap:round; stroke-linejoin:round;fill-rule:evenodd;" d="M 126587500.000000,73713500.000000 126187500.000000,73713500.000000 126187500.000000,72063500.000000 126587500.000000,72063500.000000 Z"/> 
<path style="fill:#000000; fill-opacity:1.0;  stroke:#000000; stroke-width:1.000000; stroke-opacity:1;  stroke-linecap:round; stroke-linejoin:round;fill-rule:evenodd;" d="M 127237500.000000,73713500.000000 126837500.000000,73713500.000000 126837500.000000,72063500.000000 127237500.000000,72063500.000000 Z"/> 
<path style="fill:#000000; fill-opacity:1.0;  stroke:#000000; stroke-width:1.000000; stroke-opacity:1;  stroke-linecap:round; stroke-linejoin:round;fill-rule:evenodd;" d="M 127887500.000000,73713500.000000 127487500.000000,73713500.000000 127487500.000000,72063500.000000 127887500.000000,72063500.000000 Z"/> 
<path style="fill:#000000; fill-opacity:1.0;  stroke:#000000; stroke-width:1.000000; stroke-opacity:1;  stroke-linecap:round; stroke-linejoin:round;fill-rule:evenodd;" d="M 128537500.000000,73713500.000000 128137500.000000,73713500.000000 128137500.000000,72063500.000000 128537500.000000,72063500.000000 Z"/> 
<path style="fill:#000000; fill-opacity:1.0;  stroke:#000000; stroke-width:1.000000; stroke-opacity:1;  stroke-linecap:round; stroke-linejoin:round;fill-rule:evenodd;" d="M 128537500.000000,73713500.000000 128137500.000000,73713500.000000 128137500.000000,72063500.000000 128537500.000000,72063500.000000 Z"/> 
</g>
<g style="fill:#000000; fill-opacity:0.0;  stroke:#000000; stroke-width:2800000.000000; stroke-opacity:1;  stroke-linecap:round; stroke-linejoin:round;">
<path d="M123177500 75606500 L123177500 77506500 "/>
<path d="M130237500 75606500 L130237500 76306500 "/>
<path d="M130837500 75606500 L130837500 77506500 "/>
<path d="M123777500 75606500 L123777500 76306500 "/>
</g>
<g style="fill:#000000; fill-opacity:1.0;  stroke:#000000; stroke-width:1.000000; stroke-opacity:1;  stroke-linecap:round; stroke-linejoin:round;">
<path style="fill:#000000; fill-opacity:1.0;  stroke:#000000; stroke-width:1.000000; stroke-opacity:1;  stroke-linecap:round; stroke-linejoin:round;fill-rule:evenodd;" d="M 123407500.000000,71068500.000000 123407500.000000,69618500.000000 124007500.000000,69618500.000000 124007500.000000,71068500.000000 Z"/> 
<path style="fill:#000000; fill-opacity:1.0;  stroke:#000000; stroke-width:1.000000; stroke-opacity:1;  stroke-linecap:round; stroke-linejoin:round;fill-rule:evenodd;" d="M 124207500.000000,71068500.000000 124207500.000000,69618500.000000 124807500.000000,69618500.000000 124807500.000000,71068500.000000 Z"/> 
<path style="fill:#000000; fill-opacity:1.0;  stroke:#000000; stroke-width:1.000000; stroke-opacity:1;  stroke-linecap:round; stroke-linejoin:round;fill-rule:evenodd;" d="M 125557500.000000,71068500.000000 125557500.000000,69618500.000000 125857500.000000,69618500.000000 125857500.000000,71068500.000000 Z"/> 
<path style="fill:#000000; fill-opacity:1.0;  stroke:#000000; stroke-width:1.000000; stroke-opacity:1;  stroke-linecap:round; stroke-linejoin:round;fill-rule:evenodd;" d="M 126557500.000000,71068500.000000 126557500.000000,69618500.000000 126857500.000000,69618500.000000 126857500.000000,71068500.000000 Z"/> 
<path style="fill:#000000; fill-opacity:1.0;  stroke:#000000; stroke-width:1.000000; stroke-opacity:1;  stroke-linecap:round; stroke-linejoin:round;fill-rule:evenodd;" d="M 127057500.000000,71068500.000000 127057500.000000,69618500.000000 127357500.000000,69618500.000000 127357500.000000,71068500.000000 Z"/> 
<path style="fill:#000000; fill-opacity:1.0;  stroke:#000000; stroke-width:1.000000; stroke-opacity:1;  stroke-linecap:round; stroke-linejoin:round;fill-rule:evenodd;" d="M 128057500.000000,71068500.000000 128057500.000000,69618500.000000 128357500.000000,69618500.000000 128357500.000000,71068500.000000 Z"/> 
<path style="fill:#000000; fill-opacity:1.0;  stroke:#000000; stroke-width:1.000000; stroke-opacity:1;  stroke-linecap:round; stroke-linejoin:round;fill-rule:evenodd;" d="M 129107500.000000,71068500.000000 129107500.000000,69618500.000000 129707500.000000,69618500.000000 129707500.000000,71068500.000000 Z"/> 
<path style="fill:#000000; fill-opacity:1.0;  stroke:#000000; stroke-width:1.000000; stroke-opacity:1;  stroke-linecap:round; stroke-linejoin:round;fill-rule:evenodd;" d="M 129907500.000000,71068500.000000 129907500.000000,69618500.000000 130507500.000000,69618500.000000 130507500.000000,71068500.000000 Z"/> 
<path style="fill:#000000; fill-opacity:1.0;  stroke:#000000; stroke-width:1.000000; stroke-opacity:1;  stroke-linecap:round; stroke-linejoin:round;fill-rule:evenodd;" d="M 129907500.000000,71068500.000000 129907500.000000,69618500.000000 130507500.000000,69618500.000000 130507500.000000,71068500.000000 Z"/> 
<path style="fill:#000000; fill-opacity:1.0;  stroke:#000000; stroke-width:1.000000; stroke-opacity:1;  stroke-linecap:round; stroke-linejoin:round;fill-rule:evenodd;" d="M 129107500.000000,71068500.000000 129107500.000000,69618500.000000 129707500.000000,69618500.000000 129707500.000000,71068500.000000 Z"/> 
<path style="fill:#000000; fill-opacity:1.0;  stroke:#000000; stroke-width:1.000000; stroke-opacity:1;  stroke-linecap:round; stroke-linejoin:round;fill-rule:evenodd;" d="M 128557500.000000,71068500.000000 128557500.000000,69618500.000000 128857500.000000,69618500.000000 128857500.000000,71068500.000000 Z"/> 
<path style="fill:#000000; fill-opacity:1.0;  stroke:#000000; stroke-width:1.000000; stroke-opacity:1;  stroke-linecap:round; stroke-linejoin:round;fill-rule:evenodd;" d="M 127557500.000000,71068500.000000 127557500.000000,69618500.000000 127857500.000000,69618500.000000 127857500.000000,71068500.000000 Z"/> 
<path style="fill:#000000; fill-opacity:1.0;  stroke:#000000; stroke-width:1.000000; stroke-opacity:1;  stroke-linecap:round; stroke-linejoin:round;fill-rule:evenodd;" d="M 126057500.000000,71068500.000000 126057500.000000,69618500.000000 126357500.000000,69618500.000000 126357500.000000,71068500.000000 Z"/> 
<path style="fill:#000000; fill-opacity:1.0;  stroke:#000000; stroke-width:1.000000; stroke-opacity:1;  stroke-linecap:round; stroke-linejoin:round;fill-rule:evenodd;" d="M 125057500.000000,71068500.000000 125057500.000000,69618500.000000 125357500.000000,69618500.000000 125357500.000000,71068500.000000 Z"/> 
<path style="fill:#000000; fill-opacity:1.0;  stroke:#000000; stroke-width:1.000000; stroke-opacity:1;  stroke-linecap:round; stroke-linejoin:round;fill-rule:evenodd;" d="M 124207500.000000,71068500.000000 124207500.000000,69618500.000000 124807500.000000,69618500.000000 124807500.000000,71068500.000000 Z"/> 
<path style="fill:#000000; fill-opacity:1.0;  stroke:#000000; stroke-width:1.000000; stroke-opacity:1;  stroke-linecap:round; stroke-linejoin:round;fill-rule:evenodd;" d="M 123407500.000000,71068500.000000 123407500.000000,69618500.000000 124007500.000000,69618500.000000 124007500.000000,71068500.000000 Z"/> 
</g>
<g style="fill:#000000; fill-opacity:0.0;  stroke:#000000; stroke-width:1000000.000000; stroke-opacity:1;  stroke-linecap:round; stroke-linejoin:round;">
<path d="M122637500 75138500 L122637500 75738500 "/>
<path d="M122637500 70708500 L122637500 71808500 "/>
<path d="M131277500 75138500 L131277500 75738500 "/>
<path d="M131277500 70708500 L131277500 71808500 "/>
</g>
</g> 
</mask><mask id="hole-mask"><g><rect x="99950000" y="49950000" fill="white" width="50100000" height="50100000"/><polyline stroke-linecap="round" stroke="black" stroke-width="800000" points="0.0 0 0.0 0" transform="translate(129547500 73798500) rotate(-0.0)"/><polyline stroke-linecap="round" stroke="black" stroke-width="650000" points="0.0 0 0.0 0" transform="translate(124067500 71788500) rotate(-0.0)"/><polyline stroke-linecap="round" stroke="black" stroke-width="1800000" points="-950000.0 0 950000.0 0" transform="translate(123476500 72756500) rotate(-0.0)"/><polyline stroke-linecap="round" stroke="black" stroke-width="1800000" points="-950000.0 0 950000.0 0" transform="translate(130537500 72756500) rotate(-0.0)"/><polyline stroke-linecap="round" stroke="black" stroke-width="800000" points="0.0 0 0.0 0" transform="translate(124547500 73798500) rotate(-0.0)"/><polyline stroke-linecap="round" stroke="black" stroke-width="650000" points="0.0 0 0.0 0" transform="translate(129847500 71788500) rotate(-0.0)"/><polyline stroke-linecap="round" stroke="black" stroke-width="1800000" points="0 -950000.0 0 950000.0" transform="translate(123177500 76556500) rotate(-0.0)"/><polyline stroke-linecap="round" stroke="black" stroke-width="1800000" points="0 -350000.0 0 350000.0" transform="translate(130237500 75956500) rotate(-0.0)"/><polyline stroke-linecap="round" stroke="black" stroke-width="1800000" points="0 -950000.0 0 950000.0" transform="translate(130837500 76556500) rotate(-0.0)"/><polyline stroke-linecap="round" stroke="black" stroke-width="1800000" points="0 -350000.0 0 350000.0" transform="translate(123777500 75956500) rotate(-0.0)"/><polyline stroke-linecap="round" stroke="black" stroke-width="600000" points="0 -300000.0 0 300000.0" transform="translate(122637500 75438500) rotate(-0.0)"/><polyline stroke-linecap="round" stroke="black" stroke-width="600000" points="0 -550000.0 0 550000.0" transform="translate(122637500 71258500) rotate(-0.0)"/><polyline stroke-linecap="round" stroke="black" stroke-width="600000" points="0 -300000.0 0 300000.0" transform="translate(131277500 75438500) rotate(-0.0)"/><polyline stroke-linecap="round" stroke="black" stroke-width="600000" points="0 -550000.0 0 550000.0" transform="translate(131277500 71258500) rotate(-0.0)"/></g></mask></defs><g transform="" id="boardContainer"><g id="substrate" clip-path="url(#cut-off)" mask="url(#hole-mask)"><g id="substrate-board" style="fill:#4ca06c; stroke:#4ca06c;"><path d=" M 100000000.0 50000000.0 L 100000000.0 100000000.0 L 150000000.0 100000000.0 L 150000000.0 50000000.0 L 100000000.0 50000000.0 " style="fill-rule: evenodd;"/><g style="fill-opacity: 0.0;stroke-width: 100000.000000;stroke-opacity: 1;stroke-linecap: round;stroke-linejoin: round">
<path d="M150000000 50000000 L100000000 50000000 "/>
<path d="M150000000 100000000 L150000000 50000000 "/>
<path d="M100000000 50000000 L100000000 100000000 "/>
<path d="M100000000 100000000 L150000000 100000000 "/>
</g> 
</g><g id="substrate-clad" style="fill:#9c6b28; stroke:#9c6b28;"><g style="fill-opacity: 0.0;stroke-width: 0.000000;stroke-opacity: 1;stroke-linecap: round;stroke-linejoin: round">
<g style="fill-opacity: 1.0;stroke-width: 1.000000;stroke-opacity: 1;stroke-linecap: round;stroke-linejoin: round">
<circle cx="129547500.000000" cy="73798500.000000" r="400000.000000"/> 
<circle cx="124067500.000000" cy="71788500.000000" r="325000.000000"/> 
</g>
<g style="fill-opacity: 0.0;stroke-width: 1800000.000000;stroke-opacity: 1;stroke-linecap: round;stroke-linejoin: round">
<path d="M122526500 72756500 L124426500 72756500 "/>
<path d="M129587500 72756500 L131487500 72756500 "/>
</g>
<g style="fill-opacity: 1.0;stroke-width: 1.000000;stroke-opacity: 1;stroke-linecap: round;stroke-linejoin: round">
<circle cx="124547500.000000" cy="73798500.000000" r="400000.000000"/> 
<circle cx="129847500.000000" cy="71788500.000000" r="325000.000000"/> 
</g>
<g style="fill-opacity: 1.0;stroke-width: 1.000000;stroke-opacity: 1;stroke-linecap: round;stroke-linejoin: round">
<path style="fill-opacity: 1.0;stroke-width: 1.000000;stroke-opacity: 1;stroke-linecap: round;stroke-linejoin: round;fill-rule: evenodd" d="M 125925300.000000,73713500.000000 125525300.000000,73713500.000000 125525300.000000,72063500.000000 125925300.000000,72063500.000000 Z"/> 
<path style="fill-opacity: 1.0;stroke-width: 1.000000;stroke-opacity: 1;stroke-linecap: round;stroke-linejoin: round;fill-rule: evenodd" d="M 126587500.000000,73713500.000000 126187500.000000,73713500.000000 126187500.000000,72063500.000000 126587500.000000,72063500.000000 Z"/> 
<path style="fill-opacity: 1.0;stroke-width: 1.000000;stroke-opacity: 1;stroke-linecap: round;stroke-linejoin: round;fill-rule: evenodd" d="M 127237500.000000,73713500.000000 126837500.000000,73713500.000000 126837500.000000,72063500.000000 127237500.000000,72063500.000000 Z"/> 
<path style="fill-opacity: 1.0;stroke-width: 1.000000;stroke-opacity: 1;stroke-linecap: round;stroke-linejoin: round;fill-rule: evenodd" d="M 127887500.000000,73713500.000000 127487500.000000,73713500.000000 127487500.000000,72063500.000000 127887500.000000,72063500.000000 Z"/> 
<path style="fill-opacity: 1.0;stroke-width: 1.000000;stroke-opacity: 1;stroke-linecap: round;stroke-linejoin: round;fill-rule: evenodd" d="M 128537500.000000,73713500.000000 128137500.000000,73713500.000000 128137500.000000,72063500.000000 128537500.000000,72063500.000000 Z"/> 
<path style="fill-opacity: 1.0;stroke-width: 1.000000;stroke-opacity: 1;stroke-linecap: round;stroke-linejoin: round;fill-rule: evenodd" d="M 128537500.000000,73713500.000000 128137500.000000,73713500.000000 128137500.000000,72063500.000000 128537500.000000,72063500.000000 Z"/> 
</g>
<g style="fill-opacity: 0.0;stroke-width: 2800000.000000;stroke-opacity: 1;stroke-linecap: round;stroke-linejoin: round">
<path d="M123177500 75606500 L123177500 77506500 "/>
<path d="M130237500 75606500 L130237500 76306500 "/>
<path d="M130837500 75606500 L130837500 77506500 "/>
<path d="M123777500 75606500 L123777500 76306500 "/>
</g>
<g style="fill-opacity: 1.0;stroke-width: 1.000000;stroke-opacity: 1;stroke-linecap: round;stroke-linejoin: round">
<path style="fill-opacity: 1.0;stroke-width: 1.000000;stroke-opacity: 1;stroke-linecap: round;stroke-linejoin: round;fill-rule: evenodd" d="M 123407500.000000,71068500.000000 123407500.000000,69618500.000000 124007500.000000,69618500.000000 124007500.000000,71068500.000000 Z"/> 
<path style="fill-opacity: 1.0;stroke-width: 1.000000;stroke-opacity: 1;stroke-linecap: round;stroke-linejoin: round;fill-rule: evenodd" d="M 124207500.000000,71068500.000000 124207500.000000,69618500.000000 124807500.000000,69618500.000000 124807500.000000,71068500.000000 Z"/> 
<path style="fill-opacity: 1.0;stroke-width: 1.000000;stroke-opacity: 1;stroke-linecap: round;stroke-linejoin: round;fill-rule: evenodd" d="M 125557500.000000,71068500.000000 125557500.000000,69618500.000000 125857500.000000,69618500.000000 125857500.000000,71068500.000000 Z"/> 
<path style="fill-opacity: 1.0;stroke-width: 1.000000;stroke-opacity: 1;stroke-linecap: round;stroke-linejoin: round;fill-rule: evenodd" d="M 126557500.000000,71068500.000000 126557500.000000,69618500.000000 126857500.000000,69618500.000000 126857500.000000,71068500.000000 Z"/> 
<path style="fill-opacity: 1.0;stroke-width: 1.000000;stroke-opacity: 1;stroke-linecap: round;stroke-linejoin: round;fill-rule: evenodd" d="M 127057500.000000,71068500.000000 127057500.000000,69618500.000000 127357500.000000,69618500.000000 127357500.000000,71068500.000000 Z"/> 
<path style="fill-opacity: 1.0;stroke-width: 1.000000;stroke-opacity: 1;stroke-linecap: round;stroke-linejoin: round;fill-rule: evenodd" d="M 128057500.000000,71068500.000000 128057500.000000,69618500.000000 128357500.000000,69618500.000000 128357500.000000,71068500.000000 Z"/> 
<path style="fill-opacity: 1.0;stroke-width: 1.000000;stroke-opacity: 1;stroke-linecap: round;stroke-linejoin: round;fill-rule: evenodd" d="M 129107500.000000,71068500.000000 129107500.000000,69618500.000000 129707500.000000,69618500.000000 129707500.000000,71068500.000000 Z"/> 
<path style="fill-opacity: 1.0;stroke-width: 1.000000;stroke-opacity: 1;stroke-linecap: round;stroke-linejoin: round;fill-rule: evenodd" d="M 129907500.000000,71068500.000000 129907500.000000,69618500.000000 130507500.000000,69618500.000000 130507500.000000,71068500.000000 Z"/> 
<path style="fill-opacity: 1.0;stroke-width: 1.000000;stroke-opacity: 1;stroke-linecap: round;stroke-linejoin: round;fill-rule: evenodd" d="M 129907500.000000,71068500.000000 129907500.000000,69618500.000000 130507500.000000,69618500.000000 130507500.000000,71068500.000000 Z"/> 
<path style="fill-opacity: 1.0;stroke-width: 1.000000;stroke-opacity: 1;stroke-linecap: round;stroke-linejoin: round;fill-rule: evenodd" d="M 129107500.000000,71068500.000000 129107500.000000,69618500.000000 129707500.000000,69618500.000000 129707500.000000,71068500.000000 Z"/> 
<path style="fill-opacity: 1.0;stroke-width: 1.000000;stroke-opacity: 1;stroke-linecap: round;stroke-linejoin: round;fill-rule: evenodd" d="M 128557500.000000,71068500.000000 128557500.000000,69618500.000000 128857500.000000,69618500.000000 128857500.000000,71068500.000000 Z"/> 
<path style="fill-opacity: 1.0;stroke-width: 1.000000;stroke-opacity: 1;stroke-linecap: round;stroke-linejoin: round;fill-rule: evenodd" d="M 127557500.000000,71068500.000000 127557500.000000,69618500.000000 127857500.000000,69618500.000000 127857500.000000,71068500.000000 Z"/> 
<path style="fill-opacity: 1.0;stroke-width: 1.000000;stroke-opacity: 1;stroke-linecap: round;stroke-linejoin: round;fill-rule: evenodd" d="M 126057500.000000,71068500.000000 126057500.000000,69618500.000000 126357500.000000,69618500.000000 126357500.000000,71068500.000000 Z"/> 
<path style="fill-opacity: 1.0;stroke-width: 1.000000;stroke-opacity: 1;stroke-linecap: round;stroke-linejoin: round;fill-rule: evenodd" d="M 125057500.000000,71068500.000000 125057500.000000,69618500.000000 125357500.000000,69618500.000000 125357500.000000,71068500.000000 Z"/> 
<path style="fill-opacity: 1.0;stroke-width: 1.000000;stroke-opacity: 1;stroke-linecap: round;stroke-linejoin: round;fill-rule: evenodd" d="M 124207500.000000,71068500.000000 124207500.000000,69618500.000000 124807500.000000,69618500.000000 124807500.000000,71068500.000000 Z"/> 
<path style="fill-opacity: 1.0;stroke-width: 1.000000;stroke-opacity: 1;stroke-linecap: round;stroke-linejoin: round;fill-rule: evenodd" d="M 123407500.000000,71068500.000000 123407500.000000,69618500.000000 124007500.000000,69618500.000000 124007500.000000,71068500.000000 Z"/> 
</g>
<g style="fill-opacity: 0.0;stroke-width: 1000000.000000;stroke-opacity: 1;stroke-linecap: round;stroke-linejoin: round">
<path d="M122637500 75138500 L122637500 75738500 "/>
<path d="M122637500 70708500 L122637500 71808500 "/>
<path d="M131277500 75138500 L131277500 75738500 "/>
<path d="M131277500 70708500 L131277500 71808500 "/>
</g>
</g> 
</g><g id="substrate-copper" style="fill:#417e5a; stroke:#417e5a;"><g style="fill-opacity: 0.0;stroke-width: 0.000000;stroke-opacity: 1;stroke-linecap: round;stroke-linejoin: round">
<g style="fill-opacity: 1.0;stroke-width: 1.000000;stroke-opacity: 1;stroke-linecap: round;stroke-linejoin: round">
<path style="fill-opacity: 1.0;stroke-width: 1.000000;stroke-opacity: 1;stroke-linecap: round;stroke-linejoin: round;fill-rule: evenodd" d="M 125925300.000000,73713500.000000 125525300.000000,73713500.000000 125525300.000000,72063500.000000 125925300.000000,72063500.000000 Z"/> 
<path style="fill-opacity: 1.0;stroke-width: 1.000000;stroke-opacity: 1;stroke-linecap: round;stroke-linejoin: round;fill-rule: evenodd" d="M 126587500.000000,73713500.000000 126187500.000000,73713500.000000 126187500.000000,72063500.000000 126587500.000000,72063500.000000 Z"/> 
<path style="fill-opacity: 1.0;stroke-width: 1.000000;stroke-opacity: 1;stroke-linecap: round;stroke-linejoin: round;fill-rule: evenodd" d="M 127237500.000000,73713500.000000 126837500.000000,73713500.000000 126837500.000000,72063500.000000 127237500.000000,72063500.000000 Z"/> 
<path style="fill-opacity: 1.0;stroke-width: 1.000000;stroke-opacity: 1;stroke-linecap: round;stroke-linejoin: round;fill-rule: evenodd" d="M 127887500.000000,73713500.000000 127487500.000000,73713500.000000 127487500.000000,72063500.000000 127887500.000000,72063500.000000 Z"/> 
<path style="fill-opacity: 1.0;stroke-width: 1.000000;stroke-opacity: 1;stroke-linecap: round;stroke-linejoin: round;fill-rule: evenodd" d="M 128537500.000000,73713500.000000 128137500.000000,73713500.000000 128137500.000000,72063500.000000 128537500.000000,72063500.000000 Z"/> 
<path style="fill-opacity: 1.0;stroke-width: 1.000000;stroke-opacity: 1;stroke-linecap: round;stroke-linejoin: round;fill-rule: evenodd" d="M 128537500.000000,73713500.000000 128137500.000000,73713500.000000 128137500.000000,72063500.000000 128537500.000000,72063500.000000 Z"/> 
</g>
<g style="fill-opacity: 0.0;stroke-width: 2800000.000000;stroke-opacity: 1;stroke-linecap: round;stroke-linejoin: round">
<path d="M123177500 75606500 L123177500 77506500 "/>
<path d="M130237500 75606500 L130237500 76306500 "/>
<path d="M130837500 75606500 L130837500 77506500 "/>
<path d="M123777500 75606500 L123777500 76306500 "/>
</g>
<g style="fill-opacity: 1.0;stroke-width: 1.000000;stroke-opacity: 1;stroke-linecap: round;stroke-linejoin: round">
<path style="fill-opacity: 1.0;stroke-width: 1.000000;stroke-opacity: 1;stroke-linecap: round;stroke-linejoin: round;fill-rule: evenodd" d="M 123407500.000000,71068500.000000 123407500.000000,69618500.000000 124007500.000000,69618500.000000 124007500.000000,71068500.000000 Z"/> 
<path style="fill-opacity: 1.0;stroke-width: 1.000000;stroke-opacity: 1;stroke-linecap: round;stroke-linejoin: round;fill-rule: evenodd" d="M 124207500.000000,71068500.000000 124207500.000000,69618500.000000 124807500.000000,69618500.000000 124807500.000000,71068500.000000 Z"/> 
<path style="fill-opacity: 1.0;stroke-width: 1.000000;stroke-opacity: 1;stroke-linecap: round;stroke-linejoin: round;fill-rule: evenodd" d="M 125557500.000000,71068500.000000 125557500.000000,69618500.000000 125857500.000000,69618500.000000 125857500.000000,71068500.000000 Z"/> 
<path style="fill-opacity: 1.0;stroke-width: 1.000000;stroke-opacity: 1;stroke-linecap: round;stroke-linejoin: round;fill-rule: evenodd" d="M 126557500.000000,71068500.000000 126557500.000000,69618500.000000 126857500.000000,69618500.000000 126857500.000000,71068500.000000 Z"/> 
<path style="fill-opacity: 1.0;stroke-width: 1.000000;stroke-opacity: 1;stroke-linecap: round;stroke-linejoin: round;fill-rule: evenodd" d="M 127057500.000000,71068500.000000 127057500.000000,69618500.000000 127357500.000000,69618500.000000 127357500.000000,71068500.000000 Z"/> 
<path style="fill-opacity: 1.0;stroke-width: 1.000000;stroke-opacity: 1;stroke-linecap: round;stroke-linejoin: round;fill-rule: evenodd" d="M 128057500.000000,71068500.000000 128057500.000000,69618500.000000 128357500.000000,69618500.000000 128357500.000000,71068500.000000 Z"/> 
<path style="fill-opacity: 1.0;stroke-width: 1.000000;stroke-opacity: 1;stroke-linecap: round;stroke-linejoin: round;fill-rule: evenodd" d="M 129107500.000000,71068500.000000 129107500.000000,69618500.000000 129707500.000000,69618500.000000 129707500.000000,71068500.000000 Z"/> 
<path style="fill-opacity: 1.0;stroke-width: 1.000000;stroke-opacity: 1;stroke-linecap: round;stroke-linejoin: round;fill-rule: evenodd" d="M 129907500.000000,71068500.000000 129907500.000000,69618500.000000 130507500.000000,69618500.000000 130507500.000000,71068500.000000 Z"/> 
<path style="fill-opacity: 1.0;stroke-width: 1.000000;stroke-opacity: 1;stroke-linecap: round;stroke-linejoin: round;fill-rule: evenodd" d="M 129907500.000000,71068500.000000 129907500.000000,69618500.000000 130507500.000000,69618500.000000 130507500.000000,71068500.000000 Z"/> 
<path style="fill-opacity: 1.0;stroke-width: 1.000000;stroke-opacity: 1;stroke-linecap: round;stroke-linejoin: round;fill-rule: evenodd" d="M 129107500.000000,71068500.000000 129107500.000000,69618500.000000 129707500.000000,69618500.000000 129707500.000000,71068500.000000 Z"/> 
<path style="fill-opacity: 1.0;stroke-width: 1.000000;stroke-opacity: 1;stroke-linecap: round;stroke-linejoin: round;fill-rule: evenodd" d="M 128557500.000000,71068500.000000 128557500.000000,69618500.000000 128857500.000000,69618500.000000 128857500.000000,71068500.000000 Z"/> 
<path style="fill-opacity: 1.0;stroke-width: 1.000000;stroke-opacity: 1;stroke-linecap: round;stroke-linejoin: round;fill-rule: evenodd" d="M 127557500.000000,71068500.000000 127557500.000000,69618500.000000 127857500.000000,69618500.000000 127857500.000000,71068500.000000 Z"/> 
<path style="fill-opacity: 1.0;stroke-width: 1.000000;stroke-opacity: 1;stroke-linecap: round;stroke-linejoin: round;fill-rule: evenodd" d="M 126057500.000000,71068500.000000 126057500.000000,69618500.000000 126357500.000000,69618500.000000 126357500.000000,71068500.000000 Z"/> 
<path style="fill-opacity: 1.0;stroke-width: 1.000000;stroke-opacity: 1;stroke-linecap: round;stroke-linejoin: round;fill-rule: evenodd" d="M 125057500.000000,71068500.000000 125057500.000000,69618500.000000 125357500.000000,69618500.000000 125357500.000000,71068500.000000 Z"/> 
<path style="fill-opacity: 1.0;stroke-width: 1.000000;stroke-opacity: 1;stroke-linecap: round;stroke-linejoin: round;fill-rule: evenodd" d="M 124207500.000000,71068500.000000 124207500.000000,69618500.000000 124807500.000000,69618500.000000 124807500.000000,71068500.000000 Z"/> 
<path style="fill-opacity: 1.0;stroke-width: 1.000000;stroke-opacity: 1;stroke-linecap: round;stroke-linejoin: round;fill-rule: evenodd" d="M 123407500.000000,71068500.000000 123407500.000000,69618500.000000 124007500.000000,69618500.000000 124007500.000000,71068500.000000 Z"/> 
</g>
<g style="fill-opacity: 0.0;stroke-width: 1000000.000000;stroke-opacity: 1;stroke-linecap: round;stroke-linejoin: round">
<path d="M122637500 75138500 L122637500 75738500 "/>
<path d="M122637500 70708500 L122637500 71808500 "/>
<path d="M131277500 75138500 L131277500 75738500 "/>
<path d="M131277500 70708500 L131277500 71808500 "/>
</g>
</g> 
</g><g id="substrate-pads" style="fill:#b5ae30; stroke:#b5ae30;" mask="url(#pads-mask)"><g style="fill-opacity: 0.0;stroke-width: 0.000000;stroke-opacity: 1;stroke-linecap: round;stroke-linejoin: round">
<g style="fill-opacity: 1.0;stroke-width: 1.000000;stroke-opacity: 1;stroke-linecap: round;stroke-linejoin: round">
<path style="fill-opacity: 1.0;stroke-width: 1.000000;stroke-opacity: 1;stroke-linecap: round;stroke-linejoin: round;fill-rule: evenodd" d="M 125925300.000000,73713500.000000 125525300.000000,73713500.000000 125525300.000000,72063500.000000 125925300.000000,72063500.000000 Z"/> 
<path style="fill-opacity: 1.0;stroke-width: 1.000000;stroke-opacity: 1;stroke-linecap: round;stroke-linejoin: round;fill-rule: evenodd" d="M 126587500.000000,73713500.000000 126187500.000000,73713500.000000 126187500.000000,72063500.000000 126587500.000000,72063500.000000 Z"/> 
<path style="fill-opacity: 1.0;stroke-width: 1.000000;stroke-opacity: 1;stroke-linecap: round;stroke-linejoin: round;fill-rule: evenodd" d="M 127237500.000000,73713500.000000 126837500.000000,73713500.000000 126837500.000000,72063500.000000 127237500.000000,72063500.000000 Z"/> 
<path style="fill-opacity: 1.0;stroke-width: 1.000000;stroke-opacity: 1;stroke-linecap: round;stroke-linejoin: round;fill-rule: evenodd" d="M 127887500.000000,73713500.000000 127487500.000000,73713500.000000 127487500.000000,72063500.000000 127887500.000000,72063500.000000 Z"/> 
<path style="fill-opacity: 1.0;stroke-width: 1.000000;stroke-opacity: 1;stroke-linecap: round;stroke-linejoin: round;fill-rule: evenodd" d="M 128537500.000000,73713500.000000 128137500.000000,73713500.000000 128137500.000000,72063500.000000 128537500.000000,72063500.000000 Z"/> 
<path style="fill-opacity: 1.0;stroke-width: 1.000000;stroke-opacity: 1;stroke-linecap: round;stroke-linejoin: round;fill-rule: evenodd" d="M 128537500.000000,73713500.000000 128137500.000000,73713500.000000 128137500.000000,72063500.000000 128537500.000000,72063500.000000 Z"/> 
</g>
<g style="fill-opacity: 0.0;stroke-width: 2800000.000000;stroke-opacity: 1;stroke-linecap: round;stroke-linejoin: round">
<path d="M123177500 75606500 L123177500 77506500 "/>
<path d="M130237500 75606500 L130237500 76306500 "/>
<path d="M130837500 75606500 L130837500 77506500 "/>
<path d="M123777500 75606500 L123777500 76306500 "/>
</g>
<g style="fill-opacity: 1.0;stroke-width: 1.000000;stroke-opacity: 1;stroke-linecap: round;stroke-linejoin: round">
<path style="fill-opacity: 1.0;stroke-width: 1.000000;stroke-opacity: 1;stroke-linecap: round;stroke-linejoin: round;fill-rule: evenodd" d="M 123407500.000000,71068500.000000 123407500.000000,69618500.000000 124007500.000000,69618500.000000 124007500.000000,71068500.000000 Z"/> 
<path style="fill-opacity: 1.0;stroke-width: 1.000000;stroke-opacity: 1;stroke-linecap: round;stroke-linejoin: round;fill-rule: evenodd" d="M 124207500.000000,71068500.000000 124207500.000000,69618500.000000 124807500.000000,69618500.000000 124807500.000000,71068500.000000 Z"/> 
<path style="fill-opacity: 1.0;stroke-width: 1.000000;stroke-opacity: 1;stroke-linecap: round;stroke-linejoin: round;fill-rule: evenodd" d="M 125557500.000000,71068500.000000 125557500.000000,69618500.000000 125857500.000000,69618500.000000 125857500.000000,71068500.000000 Z"/> 
<path style="fill-opacity: 1.0;stroke-width: 1.000000;stroke-opacity: 1;stroke-linecap: round;stroke-linejoin: round;fill-rule: evenodd" d="M 126557500.000000,71068500.000000 126557500.000000,69618500.000000 126857500.000000,69618500.000000 126857500.000000,71068500.000000 Z"/> 
<path style="fill-opacity: 1.0;stroke-width: 1.000000;stroke-opacity: 1;stroke-linecap: round;stroke-linejoin: round;fill-rule: evenodd" d="M 127057500.000000,71068500.000000 127057500.000000,69618500.000000 127357500.000000,69618500.000000 127357500.000000,71068500.000000 Z"/> 
<path style="fill-opacity: 1.0;stroke-width: 1.000000;stroke-opacity: 1;stroke-linecap: round;stroke-linejoin: round;fill-rule: evenodd" d="M 128057500.000000,71068500.000000 128057500.000000,69618500.000000 128357500.000000,69618500.000000 128357500.000000,71068500.000000 Z"/> 
<path style="fill-opacity: 1.0;stroke-width: 1.000000;stroke-opacity: 1;stroke-linecap: round;stroke-linejoin: round;fill-rule: evenodd" d="M 129107500.000000,71068500.000000 129107500.000000,69618500.000000 129707500.000000,69618500.000000 129707500.000000,71068500.000000 Z"/> 
<path style="fill-opacity: 1.0;stroke-width: 1.000000;stroke-opacity: 1;stroke-linecap: round;stroke-linejoin: round;fill-rule: evenodd" d="M 129907500.000000,71068500.000000 129907500.000000,69618500.000000 130507500.000000,69618500.000000 130507500.000000,71068500.000000 Z"/> 
<path style="fill-opacity: 1.0;stroke-width: 1.000000;stroke-opacity: 1;stroke-linecap: round;stroke-linejoin: round;fill-rule: evenodd" d="M 129907500.000000,71068500.000000 129907500.000000,69618500.000000 130507500.000000,69618500.000000 130507500.000000,71068500.000000 Z"/> 
<path style="fill-opacity: 1.0;stroke-width: 1.000000;stroke-opacity: 1;stroke-linecap: round;stroke-linejoin: round;fill-rule: evenodd" d="M 129107500.000000,71068500.000000 129107500.000000,69618500.000000 129707500.000000,69618500.000000 129707500.000000,71068500.000000 Z"/> 
<path style="fill-opacity: 1.0;stroke-width: 1.000000;stroke-opacity: 1;stroke-linecap: round;stroke-linejoin: round;fill-rule: evenodd" d="M 128557500.000000,71068500.000000 128557500.000000,69618500.000000 128857500.000000,69618500.000000 128857500.000000,71068500.000000 Z"/> 
<path style="fill-opacity: 1.0;stroke-width: 1.000000;stroke-opacity: 1;stroke-linecap: round;stroke-linejoin: round;fill-rule: evenodd" d="M 127557500.000000,71068500.000000 127557500.000000,69618500.000000 127857500.000000,69618500.000000 127857500.000000,71068500.000000 Z"/> 
<path style="fill-opacity: 1.0;stroke-width: 1.000000;stroke-opacity: 1;stroke-linecap: round;stroke-linejoin: round;fill-rule: evenodd" d="M 126057500.000000,71068500.000000 126057500.000000,69618500.000000 126357500.000000,69618500.000000 126357500.000000,71068500.000000 Z"/> 
<path style="fill-opacity: 1.0;stroke-width: 1.000000;stroke-opacity: 1;stroke-linecap: round;stroke-linejoin: round;fill-rule: evenodd" d="M 125057500.000000,71068500.000000 125057500.000000,69618500.000000 125357500.000000,69618500.000000 125357500.000000,71068500.000000 Z"/> 
<path style="fill-opacity: 1.0;stroke-width: 1.000000;stroke-opacity: 1;stroke-linecap: round;stroke-linejoin: round;fill-rule: evenodd" d="M 124207500.000000,71068500.000000 124207500.000000,69618500.000000 124807500.000000,69618500.000000 124807500.000000,71068500.000000 Z"/> 
<path style="fill-opacity: 1.0;stroke-width: 1.000000;stroke-opacity: 1;stroke-linecap: round;stroke-linejoin: round;fill-rule: evenodd" d="M 123407500.000000,71068500.000000 123407500.000000,69618500.000000 124007500.000000,69618500.000000 124007500.000000,71068500.000000 Z"/> 
</g>
<g style="fill-opacity: 0.0;stroke-width: 1000000.000000;stroke-opacity: 1;stroke-linecap: round;stroke-linejoin: round">
<path d="M122637500 75138500 L122637500 75738500 "/>
<path d="M122637500 70708500 L122637500 71808500 "/>
<path d="M131277500 75138500 L131277500 75738500 "/>
<path d="M131277500 70708500 L131277500 71808500 "/>
</g>
</g> 
</g><g id="substrate-silk" style="fill:#f0f0f0; stroke:#f0f0f0;" mask="url(#pads-mask-silkscreen)"><g style="fill-opacity: 0.0;stroke-width: 150000.000000;stroke-opacity: 1;stroke-linecap: round;stroke-linejoin: round">
<text x="127417500.000000" y="67288500.000000" textLength="2000001.000000" font-size="1333333.000000" lengthAdjust="spacingAndGlyphs" text-anchor="middle" opacity="0">U1</text>
<g class="stroked-text"><desc>U1</desc>
<path d="M126655595 66240880 L126655595 67050404 L126703214 67145642 L126750833 67193261 L126846071 67240880 L127036547 67240880 L127131785 67193261 L127179404 67145642 L127227023 67050404 L127227023 66240880 "/>
<path d="M128227023 67240880 L127655595 67240880 "/>
<path d="M127941309 67240880 L127941309 66240880 L127846071 66383738 L127750833 66478976 L127655595 66526595 "/>
</g></g>
<g style="fill-opacity: 0.0;stroke-width: 120000.000000;stroke-opacity: 1;stroke-linecap: round;stroke-linejoin: round">
<path d="M122257500 72488500 L122257500 74488500 "/>
<path d="M131657500 72488500 L131657500 74488500 "/>
<path d="M131657500 76388500 L131657500 78288500 "/>
<path d="M122257500 78288500 L131657500 78288500 "/>
<path d="M122257500 76388500 L122257500 78288500 "/>
</g> 
</g><g id="substrate-outline" style="fill:#000000; stroke:#000000; stroke-width: 150000"><g style="fill-opacity: 0.0;stroke-opacity: 1;stroke-linecap: round;stroke-linejoin: round">
<path d="M150000000 50000000 L100000000 50000000 "/>
<path d="M150000000 100000000 L150000000 50000000 "/>
<path d="M100000000 50000000 L100000000 100000000 "/>
<path d="M100000000 100000000 L150000000 100000000 "/>
</g> 
<path d="M -400000.0 0.0 A 400000.0 400000.0 0 1 1 400000.0 0.0 L 400000.0 0.0 A 400000.0 400000.0 0 1 1 -400000.0 0.0 Z" transform="translate(129547500 73798500) rotate(-0.0)"/><path d="M -325000.0 0.0 A 325000.0 325000.0 0 1 1 325000.0 0.0 L 325000.0 0.0 A 325000.0 325000.0 0 1 1 -325000.0 0.0 Z" transform="translate(124067500 71788500) rotate(-0.0)"/><path d="M -950000.0 -900000.0 A 900000.0 900000.0 0 1 1 -950000.0 900000.0 L 950000.0 900000.0 A 900000.0 900000.0 0 1 1 950000.0 -900000.0 Z" transform="translate(123476500 72756500) rotate(-0.0)"/><path d="M -950000.0 -900000.0 A 900000.0 900000.0 0 1 1 -950000.0 900000.0 L 950000.0 900000.0 A 900000.0 900000.0 0 1 1 950000.0 -900000.0 Z" transform="translate(130537500 72756500) rotate(-0.0)"/><path d="M -400000.0 0.0 A 400000.0 400000.0 0 1 1 400000.0 0.0 L 400000.0 0.0 A 400000.0 400000.0 0 1 1 -400000.0 0.0 Z" transform="translate(124547500 73798500) rotate(-0.0)"/><path d="M -325000.0 0.0 A 325000.0 325000.0 0 1 1 325000.0 0.0 L 325000.0 0.0 A 325000.0 325000.0 0 1 1 -325000.0 0.0 Z" transform="translate(129847500 71788500) rotate(-0.0)"/><path d="M -900000.0 950000.0 A 900000.0 900000.0 0 1 1 900000.0 950000.0 L 900000.0 -950000.0 A 900000.0 900000.0 0 1 1 -900000.0 -950000.0 Z" transform="translate(123177500 76556500) rotate(-0.0)"/><path d="M -900000.0 350000.0 A 900000.0 900000.0 0 1 1 900000.0 350000.0 L 900000.0 -350000.0 A 900000.0 900000.0 0 1 1 -900000.0 -350000.0 Z" transform="translate(130237500 75956500) rotate(-0.0)"/><path d="M -900000.0 950000.0 A 900000.0 900000.0 0 1 1 900000.0 950000.0 L 900000.0 -950000.0 A 900000.0 900000.0 0 1 1 -900000.0 -950000.0 Z" transform="translate(130837500 76556500) rotate(-0.0)"/><path d="M -900000.0 350000.0 A 900000.0 900000.0 0 1 1 900000.0 350000.0 L 900000.0 -350000.0 A 900000.0 900000.0 0 1 1 -900000.0 -350000.0 Z" transform="translate(123777500 75956500) rotate(-0.0)"/><path d="M -300000.0 300000.0 A 300000.0 300000.0 0 1 1 300000.0 300000.0 L 300000.0 -300000.0 A 300000.0 300000.0 0 1 1 -300000.0 -300000.0 Z" transform="translate(122637500 75438500) rotate(-0.0)"/><path d="M -300000.0 550000.0 A 300000.0 300000.0 0 1 1 300000.0 550000.0 L 300000.0 -550000.0 A 300000.0 300000.0 0 1 1 -300000.0 -550000.0 Z" transform="translate(122637500 71258500) rotate(-0.0)"/><path d="M -300000.0 300000.0 A 300000.0 300000.0 0 1 1 300000.0 300000.0 L 300000.0 -300000.0 A 300000.0 300000.0 0 1 1 -300000.0 -300000.0 Z" transform="translate(131277500 75438500) rotate(-0.0)"/><path d="M -300000.0 550000.0 A 300000.0 300000.0 0 1 1 300000.0 550000.0 L 300000.0 -550000.0 A 300000.0 300000.0 0 1 1 -300000.0 -550000.0 Z" transform="translate(131277500 71258500) rotate(-0.0)"/></g></g></g></svg>