<?xml version="1.0" standalone="no"?>
 <!DOCTYPE svg PUBLIC "-//W3C//DTD SVG 1.1//EN" 
 "http://www.w3.org/Graphics/SVG/1.1/DTD/svg11.dtd"> 
<svg
  xmlns:svg="http://www.w3.org/2000/svg"
  xmlns="http://www.w3.org/2000/svg"
  xmlns:xlink="http://www.w3.org/1999/xlink"
  version="1.1"
  width="29.700220cm" height="21.000720cm" viewBox="0 0 297002200 210007200">
<title>SVG Picture created as MODULE-DADB-MCUU-K328-01-F_Silkscreen.svg date 2022/10/12 14:19:53 </title>
  <desc>Picture generated by PCBNEW </desc>
<g style="fill:#000000; fill-opacity:1.000000;stroke:#000000; stroke-opacity:1.000000;
stroke-linecap:round; stroke-linejoin:round;"
 transform="translate(0 0) scale(1 1)">
</g>
<g style="fill:#000000; fill-opacity:0.0; 
stroke:#000000; stroke-width:0.000000; stroke-opacity:1; 
stroke-linecap:round; stroke-linejoin:round;">
</g>
<g style="fill:#000000; fill-opacity:0.0; 
stroke:#000000; stroke-width:21200.000000; stroke-opacity:1; 
stroke-linecap:round; stroke-linejoin:round;">
</g>
<g style="fill:#000000; fill-opacity:0.0; 
stroke:#000000; stroke-width:150000.000000; stroke-opacity:1; 
stroke-linecap:round; stroke-linejoin:round;">
<rect x="177002200.000000" y="166007200.000000" width="108000000.000000" height="32000000.000000" rx="0.000000" />
</g>
<g style="fill:#000000; fill-opacity:0.0; 
stroke:#000000; stroke-width:21200.000000; stroke-opacity:1; 
stroke-linecap:round; stroke-linejoin:round;">
</g>
<g style="fill:#000000; fill-opacity:0.0; 
stroke:#000000; stroke-width:150000.000000; stroke-opacity:1; 
stroke-linecap:round; stroke-linejoin:round;">
<rect x="10000000.000000" y="10000000.000000" width="277002200.000000" height="190007200.000000" rx="0.000000" />
</g>
<g style="fill:#000000; fill-opacity:0.0; 
stroke:#000000; stroke-width:21200.000000; stroke-opacity:1; 
stroke-linecap:round; stroke-linejoin:round;">
</g>
<g style="fill:#000000; fill-opacity:0.0; 
stroke:#000000; stroke-width:150000.000000; stroke-opacity:1; 
stroke-linecap:round; stroke-linejoin:round;">
<rect x="12000000.000000" y="12000000.000000" width="273002200.000000" height="186007200.000000" rx="0.000000" />
</g>
<g style="fill:#000000; fill-opacity:0.0; 
stroke:#000000; stroke-width:21200.000000; stroke-opacity:1; 
stroke-linecap:round; stroke-linejoin:round;">
</g>
<g style="fill:#000000; fill-opacity:0.0; 
stroke:#000000; stroke-width:150000.000000; stroke-opacity:1; 
stroke-linecap:round; stroke-linejoin:round;">
<path d="M60000000 12000000
L60000000 10000000
" />
</g>
<g style="fill:#000000; fill-opacity:0.0; 
stroke:#000000; stroke-width:21200.000000; stroke-opacity:1; 
stroke-linecap:round; stroke-linejoin:round;">
</g>
<g style="fill:#000000; fill-opacity:0.0; 
stroke:#000000; stroke-width:150000.000000; stroke-opacity:1; 
stroke-linecap:round; stroke-linejoin:round;">
<path d="M110000000 12000000
L110000000 10000000
" />
</g>
<g style="fill:#000000; fill-opacity:0.0; 
stroke:#000000; stroke-width:21200.000000; stroke-opacity:1; 
stroke-linecap:round; stroke-linejoin:round;">
</g>
<g style="fill:#000000; fill-opacity:0.0; 
stroke:#000000; stroke-width:150000.000000; stroke-opacity:1; 
stroke-linecap:round; stroke-linejoin:round;">
<path d="M160000000 12000000
L160000000 10000000
" />
</g>
<g style="fill:#000000; fill-opacity:0.0; 
stroke:#000000; stroke-width:21200.000000; stroke-opacity:1; 
stroke-linecap:round; stroke-linejoin:round;">
</g>
<g style="fill:#000000; fill-opacity:0.0; 
stroke:#000000; stroke-width:150000.000000; stroke-opacity:1; 
stroke-linecap:round; stroke-linejoin:round;">
<path d="M210000000 12000000
L210000000 10000000
" />
</g>
<g style="fill:#000000; fill-opacity:0.0; 
stroke:#000000; stroke-width:21200.000000; stroke-opacity:1; 
stroke-linecap:round; stroke-linejoin:round;">
</g>
<g style="fill:#000000; fill-opacity:0.0; 
stroke:#000000; stroke-width:150000.000000; stroke-opacity:1; 
stroke-linecap:round; stroke-linejoin:round;">
<path d="M260000000 12000000
L260000000 10000000
" />
</g>
<g style="fill:#000000; fill-opacity:0.0; 
stroke:#000000; stroke-width:21200.000000; stroke-opacity:1; 
stroke-linecap:round; stroke-linejoin:round;">
</g>
<g style="fill:#000000; fill-opacity:0.0; 
stroke:#000000; stroke-width:150000.000000; stroke-opacity:1; 
stroke-linecap:round; stroke-linejoin:round;">
<text x="35000000.000000" y="11650000.000000"
textLength="1388095.000000" font-size="1733333.000000" lengthAdjust="spacingAndGlyphs"
text-anchor="start" opacity="0">1</text>
<g class="stroked-text"><desc>1</desc>
<path d="M36065476 11588095
L35322619 11588095
" />
<path d="M35694047 11588095
L35694047 10288095
L35570238 10473809
L35446428 10597619
L35322619 10659523
" />
</g></g>
<g style="fill:#000000; fill-opacity:0.0; 
stroke:#000000; stroke-width:21200.000000; stroke-opacity:1; 
stroke-linecap:round; stroke-linejoin:round;">
</g>
<g style="fill:#000000; fill-opacity:0.0; 
stroke:#000000; stroke-width:150000.000000; stroke-opacity:1; 
stroke-linecap:round; stroke-linejoin:round;">
<text x="85000000.000000" y="11650000.000000"
textLength="1388095.000000" font-size="1733333.000000" lengthAdjust="spacingAndGlyphs"
text-anchor="start" opacity="0">2</text>
<g class="stroked-text"><desc>2</desc>
<path d="M85322619 10411904
L85384523 10350000
L85508333 10288095
L85817857 10288095
L85941666 10350000
L86003571 10411904
L86065476 10535714
L86065476 10659523
L86003571 10845238
L85260714 11588095
L86065476 11588095
" />
</g></g>
<g style="fill:#000000; fill-opacity:0.0; 
stroke:#000000; stroke-width:21200.000000; stroke-opacity:1; 
stroke-linecap:round; stroke-linejoin:round;">
</g>
<g style="fill:#000000; fill-opacity:0.0; 
stroke:#000000; stroke-width:150000.000000; stroke-opacity:1; 
stroke-linecap:round; stroke-linejoin:round;">
<text x="135000000.000000" y="11650000.000000"
textLength="1388095.000000" font-size="1733333.000000" lengthAdjust="spacingAndGlyphs"
text-anchor="start" opacity="0">3</text>
<g class="stroked-text"><desc>3</desc>
<path d="M135260714 10288095
L136065476 10288095
L135632142 10783333
L135817857 10783333
L135941666 10845238
L136003571 10907142
L136065476 11030952
L136065476 11340476
L136003571 11464285
L135941666 11526190
L135817857 11588095
L135446428 11588095
L135322619 11526190
L135260714 11464285
" />
</g></g>
<g style="fill:#000000; fill-opacity:0.0; 
stroke:#000000; stroke-width:21200.000000; stroke-opacity:1; 
stroke-linecap:round; stroke-linejoin:round;">
</g>
<g style="fill:#000000; fill-opacity:0.0; 
stroke:#000000; stroke-width:150000.000000; stroke-opacity:1; 
stroke-linecap:round; stroke-linejoin:round;">
<text x="185000000.000000" y="11650000.000000"
textLength="1388095.000000" font-size="1733333.000000" lengthAdjust="spacingAndGlyphs"
text-anchor="start" opacity="0">4</text>
<g class="stroked-text"><desc>4</desc>
<path d="M185941666 10721428
L185941666 11588095
" />
<path d="M185632142 10226190
L185322619 11154761
L186127380 11154761
" />
</g></g>
<g style="fill:#000000; fill-opacity:0.0; 
stroke:#000000; stroke-width:21200.000000; stroke-opacity:1; 
stroke-linecap:round; stroke-linejoin:round;">
</g>
<g style="fill:#000000; fill-opacity:0.0; 
stroke:#000000; stroke-width:150000.000000; stroke-opacity:1; 
stroke-linecap:round; stroke-linejoin:round;">
<text x="235000000.000000" y="11650000.000000"
textLength="1388095.000000" font-size="1733333.000000" lengthAdjust="spacingAndGlyphs"
text-anchor="start" opacity="0">5</text>
<g class="stroked-text"><desc>5</desc>
<path d="M236003571 10288095
L235384523 10288095
L235322619 10907142
L235384523 10845238
L235508333 10783333
L235817857 10783333
L235941666 10845238
L236003571 10907142
L236065476 11030952
L236065476 11340476
L236003571 11464285
L235941666 11526190
L235817857 11588095
L235508333 11588095
L235384523 11526190
L235322619 11464285
" />
</g></g>
<g style="fill:#000000; fill-opacity:0.0; 
stroke:#000000; stroke-width:21200.000000; stroke-opacity:1; 
stroke-linecap:round; stroke-linejoin:round;">
</g>
<g style="fill:#000000; fill-opacity:0.0; 
stroke:#000000; stroke-width:150000.000000; stroke-opacity:1; 
stroke-linecap:round; stroke-linejoin:round;">
<text x="285000000.000000" y="11650000.000000"
textLength="1388095.000000" font-size="1733333.000000" lengthAdjust="spacingAndGlyphs"
text-anchor="start" opacity="0">6</text>
<g class="stroked-text"><desc>6</desc>
<path d="M285941666 10288095
L285694047 10288095
L285570238 10350000
L285508333 10411904
L285384523 10597619
L285322619 10845238
L285322619 11340476
L285384523 11464285
L285446428 11526190
L285570238 11588095
L285817857 11588095
L285941666 11526190
L286003571 11464285
L286065476 11340476
L286065476 11030952
L286003571 10907142
L285941666 10845238
L285817857 10783333
L285570238 10783333
L285446428 10845238
L285384523 10907142
L285322619 11030952
" />
</g></g>
<g style="fill:#000000; fill-opacity:0.0; 
stroke:#000000; stroke-width:21200.000000; stroke-opacity:1; 
stroke-linecap:round; stroke-linejoin:round;">
</g>
<g style="fill:#000000; fill-opacity:0.0; 
stroke:#000000; stroke-width:150000.000000; stroke-opacity:1; 
stroke-linecap:round; stroke-linejoin:round;">
<path d="M60000000 198007200
L60000000 200007200
" />
</g>
<g style="fill:#000000; fill-opacity:0.0; 
stroke:#000000; stroke-width:21200.000000; stroke-opacity:1; 
stroke-linecap:round; stroke-linejoin:round;">
</g>
<g style="fill:#000000; fill-opacity:0.0; 
stroke:#000000; stroke-width:150000.000000; stroke-opacity:1; 
stroke-linecap:round; stroke-linejoin:round;">
<path d="M110000000 198007200
L110000000 200007200
" />
</g>
<g style="fill:#000000; fill-opacity:0.0; 
stroke:#000000; stroke-width:21200.000000; stroke-opacity:1; 
stroke-linecap:round; stroke-linejoin:round;">
</g>
<g style="fill:#000000; fill-opacity:0.0; 
stroke:#000000; stroke-width:150000.000000; stroke-opacity:1; 
stroke-linecap:round; stroke-linejoin:round;">
<path d="M160000000 198007200
L160000000 200007200
" />
</g>
<g style="fill:#000000; fill-opacity:0.0; 
stroke:#000000; stroke-width:21200.000000; stroke-opacity:1; 
stroke-linecap:round; stroke-linejoin:round;">
</g>
<g style="fill:#000000; fill-opacity:0.0; 
stroke:#000000; stroke-width:150000.000000; stroke-opacity:1; 
stroke-linecap:round; stroke-linejoin:round;">
<path d="M210000000 198007200
L210000000 200007200
" />
</g>
<g style="fill:#000000; fill-opacity:0.0; 
stroke:#000000; stroke-width:21200.000000; stroke-opacity:1; 
stroke-linecap:round; stroke-linejoin:round;">
</g>
<g style="fill:#000000; fill-opacity:0.0; 
stroke:#000000; stroke-width:150000.000000; stroke-opacity:1; 
stroke-linecap:round; stroke-linejoin:round;">
<path d="M260000000 198007200
L260000000 200007200
" />
</g>
<g style="fill:#000000; fill-opacity:0.0; 
stroke:#000000; stroke-width:21200.000000; stroke-opacity:1; 
stroke-linecap:round; stroke-linejoin:round;">
</g>
<g style="fill:#000000; fill-opacity:0.0; 
stroke:#000000; stroke-width:150000.000000; stroke-opacity:1; 
stroke-linecap:round; stroke-linejoin:round;">
<text x="35000000.000000" y="199657200.000000"
textLength="1388095.000000" font-size="1733333.000000" lengthAdjust="spacingAndGlyphs"
text-anchor="start" opacity="0">1</text>
<g class="stroked-text"><desc>1</desc>
<path d="M36065476 199595295
L35322619 199595295
" />
<path d="M35694047 199595295
L35694047 198295295
L35570238 198481009
L35446428 198604819
L35322619 198666723
" />
</g></g>
<g style="fill:#000000; fill-opacity:0.0; 
stroke:#000000; stroke-width:21200.000000; stroke-opacity:1; 
stroke-linecap:round; stroke-linejoin:round;">
</g>
<g style="fill:#000000; fill-opacity:0.0; 
stroke:#000000; stroke-width:150000.000000; stroke-opacity:1; 
stroke-linecap:round; stroke-linejoin:round;">
<text x="85000000.000000" y="199657200.000000"
textLength="1388095.000000" font-size="1733333.000000" lengthAdjust="spacingAndGlyphs"
text-anchor="start" opacity="0">2</text>
<g class="stroked-text"><desc>2</desc>
<path d="M85322619 198419104
L85384523 198357200
L85508333 198295295
L85817857 198295295
L85941666 198357200
L86003571 198419104
L86065476 198542914
L86065476 198666723
L86003571 198852438
L85260714 199595295
L86065476 199595295
" />
</g></g>
<g style="fill:#000000; fill-opacity:0.0; 
stroke:#000000; stroke-width:21200.000000; stroke-opacity:1; 
stroke-linecap:round; stroke-linejoin:round;">
</g>
<g style="fill:#000000; fill-opacity:0.0; 
stroke:#000000; stroke-width:150000.000000; stroke-opacity:1; 
stroke-linecap:round; stroke-linejoin:round;">
<text x="135000000.000000" y="199657200.000000"
textLength="1388095.000000" font-size="1733333.000000" lengthAdjust="spacingAndGlyphs"
text-anchor="start" opacity="0">3</text>
<g class="stroked-text"><desc>3</desc>
<path d="M135260714 198295295
L136065476 198295295
L135632142 198790533
L135817857 198790533
L135941666 198852438
L136003571 198914342
L136065476 199038152
L136065476 199347676
L136003571 199471485
L135941666 199533390
L135817857 199595295
L135446428 199595295
L135322619 199533390
L135260714 199471485
" />
</g></g>
<g style="fill:#000000; fill-opacity:0.0; 
stroke:#000000; stroke-width:21200.000000; stroke-opacity:1; 
stroke-linecap:round; stroke-linejoin:round;">
</g>
<g style="fill:#000000; fill-opacity:0.0; 
stroke:#000000; stroke-width:150000.000000; stroke-opacity:1; 
stroke-linecap:round; stroke-linejoin:round;">
<text x="185000000.000000" y="199657200.000000"
textLength="1388095.000000" font-size="1733333.000000" lengthAdjust="spacingAndGlyphs"
text-anchor="start" opacity="0">4</text>
<g class="stroked-text"><desc>4</desc>
<path d="M185941666 198728628
L185941666 199595295
" />
<path d="M185632142 198233390
L185322619 199161961
L186127380 199161961
" />
</g></g>
<g style="fill:#000000; fill-opacity:0.0; 
stroke:#000000; stroke-width:21200.000000; stroke-opacity:1; 
stroke-linecap:round; stroke-linejoin:round;">
</g>
<g style="fill:#000000; fill-opacity:0.0; 
stroke:#000000; stroke-width:150000.000000; stroke-opacity:1; 
stroke-linecap:round; stroke-linejoin:round;">
<text x="235000000.000000" y="199657200.000000"
textLength="1388095.000000" font-size="1733333.000000" lengthAdjust="spacingAndGlyphs"
text-anchor="start" opacity="0">5</text>
<g class="stroked-text"><desc>5</desc>
<path d="M236003571 198295295
L235384523 198295295
L235322619 198914342
L235384523 198852438
L235508333 198790533
L235817857 198790533
L235941666 198852438
L236003571 198914342
L236065476 199038152
L236065476 199347676
L236003571 199471485
L235941666 199533390
L235817857 199595295
L235508333 199595295
L235384523 199533390
L235322619 199471485
" />
</g></g>
<g style="fill:#000000; fill-opacity:0.0; 
stroke:#000000; stroke-width:21200.000000; stroke-opacity:1; 
stroke-linecap:round; stroke-linejoin:round;">
</g>
<g style="fill:#000000; fill-opacity:0.0; 
stroke:#000000; stroke-width:150000.000000; stroke-opacity:1; 
stroke-linecap:round; stroke-linejoin:round;">
<text x="285000000.000000" y="199657200.000000"
textLength="1388095.000000" font-size="1733333.000000" lengthAdjust="spacingAndGlyphs"
text-anchor="start" opacity="0">6</text>
<g class="stroked-text"><desc>6</desc>
<path d="M285941666 198295295
L285694047 198295295
L285570238 198357200
L285508333 198419104
L285384523 198604819
L285322619 198852438
L285322619 199347676
L285384523 199471485
L285446428 199533390
L285570238 199595295
L285817857 199595295
L285941666 199533390
L286003571 199471485
L286065476 199347676
L286065476 199038152
L286003571 198914342
L285941666 198852438
L285817857 198790533
L285570238 198790533
L285446428 198852438
L285384523 198914342
L285322619 199038152
" />
</g></g>
<g style="fill:#000000; fill-opacity:0.0; 
stroke:#000000; stroke-width:21200.000000; stroke-opacity:1; 
stroke-linecap:round; stroke-linejoin:round;">
</g>
<g style="fill:#000000; fill-opacity:0.0; 
stroke:#000000; stroke-width:150000.000000; stroke-opacity:1; 
stroke-linecap:round; stroke-linejoin:round;">
<path d="M10000000 60000000
L12000000 60000000
" />
</g>
<g style="fill:#000000; fill-opacity:0.0; 
stroke:#000000; stroke-width:21200.000000; stroke-opacity:1; 
stroke-linecap:round; stroke-linejoin:round;">
</g>
<g style="fill:#000000; fill-opacity:0.0; 
stroke:#000000; stroke-width:150000.000000; stroke-opacity:1; 
stroke-linecap:round; stroke-linejoin:round;">
<path d="M10000000 110000000
L12000000 110000000
" />
</g>
<g style="fill:#000000; fill-opacity:0.0; 
stroke:#000000; stroke-width:21200.000000; stroke-opacity:1; 
stroke-linecap:round; stroke-linejoin:round;">
</g>
<g style="fill:#000000; fill-opacity:0.0; 
stroke:#000000; stroke-width:150000.000000; stroke-opacity:1; 
stroke-linecap:round; stroke-linejoin:round;">
<path d="M10000000 160000000
L12000000 160000000
" />
</g>
<g style="fill:#000000; fill-opacity:0.0; 
stroke:#000000; stroke-width:21200.000000; stroke-opacity:1; 
stroke-linecap:round; stroke-linejoin:round;">
</g>
<g style="fill:#000000; fill-opacity:0.0; 
stroke:#000000; stroke-width:150000.000000; stroke-opacity:1; 
stroke-linecap:round; stroke-linejoin:round;">
<text x="11000000.000000" y="35650000.000000"
textLength="1264286.000000" font-size="1733333.000000" lengthAdjust="spacingAndGlyphs"
text-anchor="middle" opacity="0">A</text>
<g class="stroked-text"><desc>A</desc>
<path d="M10690476 35216666
L11309523 35216666
" />
<path d="M10566666 35588095
L11000000 34288095
L11433333 35588095
" />
</g></g>
<g style="fill:#000000; fill-opacity:0.0; 
stroke:#000000; stroke-width:21200.000000; stroke-opacity:1; 
stroke-linecap:round; stroke-linejoin:round;">
</g>
<g style="fill:#000000; fill-opacity:0.0; 
stroke:#000000; stroke-width:150000.000000; stroke-opacity:1; 
stroke-linecap:round; stroke-linejoin:round;">
<text x="11000000.000000" y="85650000.000000"
textLength="1450000.000000" font-size="1733333.000000" lengthAdjust="spacingAndGlyphs"
text-anchor="middle" opacity="0">B</text>
<g class="stroked-text"><desc>B</desc>
<path d="M11092857 84907142
L11278571 84969047
L11340476 85030952
L11402380 85154761
L11402380 85340476
L11340476 85464285
L11278571 85526190
L11154761 85588095
L10659523 85588095
L10659523 84288095
L11092857 84288095
L11216666 84350000
L11278571 84411904
L11340476 84535714
L11340476 84659523
L11278571 84783333
L11216666 84845238
L11092857 84907142
L10659523 84907142
" />
</g></g>
<g style="fill:#000000; fill-opacity:0.0; 
stroke:#000000; stroke-width:21200.000000; stroke-opacity:1; 
stroke-linecap:round; stroke-linejoin:round;">
</g>
<g style="fill:#000000; fill-opacity:0.0; 
stroke:#000000; stroke-width:150000.000000; stroke-opacity:1; 
stroke-linecap:round; stroke-linejoin:round;">
<text x="11000000.000000" y="135650000.000000"
textLength="1450000.000000" font-size="1733333.000000" lengthAdjust="spacingAndGlyphs"
text-anchor="middle" opacity="0">C</text>
<g class="stroked-text"><desc>C</desc>
<path d="M11402380 135464285
L11340476 135526190
L11154761 135588095
L11030952 135588095
L10845238 135526190
L10721428 135402380
L10659523 135278571
L10597619 135030952
L10597619 134845238
L10659523 134597619
L10721428 134473809
L10845238 134350000
L11030952 134288095
L11154761 134288095
L11340476 134350000
L11402380 134411904
" />
</g></g>
<g style="fill:#000000; fill-opacity:0.0; 
stroke:#000000; stroke-width:21200.000000; stroke-opacity:1; 
stroke-linecap:round; stroke-linejoin:round;">
</g>
<g style="fill:#000000; fill-opacity:0.0; 
stroke:#000000; stroke-width:150000.000000; stroke-opacity:1; 
stroke-linecap:round; stroke-linejoin:round;">
<text x="11000000.000000" y="185650000.000000"
textLength="1450000.000000" font-size="1733333.000000" lengthAdjust="spacingAndGlyphs"
text-anchor="middle" opacity="0">D</text>
<g class="stroked-text"><desc>D</desc>
<path d="M10659523 185588095
L10659523 184288095
L10969047 184288095
L11154761 184350000
L11278571 184473809
L11340476 184597619
L11402380 184845238
L11402380 185030952
L11340476 185278571
L11278571 185402380
L11154761 185526190
L10969047 185588095
L10659523 185588095
" />
</g></g>
<g style="fill:#000000; fill-opacity:0.0; 
stroke:#000000; stroke-width:21200.000000; stroke-opacity:1; 
stroke-linecap:round; stroke-linejoin:round;">
</g>
<g style="fill:#000000; fill-opacity:0.0; 
stroke:#000000; stroke-width:150000.000000; stroke-opacity:1; 
stroke-linecap:round; stroke-linejoin:round;">
<path d="M287002200 60000000
L285002200 60000000
" />
</g>
<g style="fill:#000000; fill-opacity:0.0; 
stroke:#000000; stroke-width:21200.000000; stroke-opacity:1; 
stroke-linecap:round; stroke-linejoin:round;">
</g>
<g style="fill:#000000; fill-opacity:0.0; 
stroke:#000000; stroke-width:150000.000000; stroke-opacity:1; 
stroke-linecap:round; stroke-linejoin:round;">
<path d="M287002200 110000000
L285002200 110000000
" />
</g>
<g style="fill:#000000; fill-opacity:0.0; 
stroke:#000000; stroke-width:21200.000000; stroke-opacity:1; 
stroke-linecap:round; stroke-linejoin:round;">
</g>
<g style="fill:#000000; fill-opacity:0.0; 
stroke:#000000; stroke-width:150000.000000; stroke-opacity:1; 
stroke-linecap:round; stroke-linejoin:round;">
<path d="M287002200 160000000
L285002200 160000000
" />
</g>
<g style="fill:#000000; fill-opacity:0.0; 
stroke:#000000; stroke-width:21200.000000; stroke-opacity:1; 
stroke-linecap:round; stroke-linejoin:round;">
</g>
<g style="fill:#000000; fill-opacity:0.0; 
stroke:#000000; stroke-width:150000.000000; stroke-opacity:1; 
stroke-linecap:round; stroke-linejoin:round;">
<text x="286002200.000000" y="35650000.000000"
textLength="1264286.000000" font-size="1733333.000000" lengthAdjust="spacingAndGlyphs"
text-anchor="middle" opacity="0">A</text>
<g class="stroked-text"><desc>A</desc>
<path d="M285692676 35216666
L286311723 35216666
" />
<path d="M285568866 35588095
L286002200 34288095
L286435533 35588095
" />
</g></g>
<g style="fill:#000000; fill-opacity:0.0; 
stroke:#000000; stroke-width:21200.000000; stroke-opacity:1; 
stroke-linecap:round; stroke-linejoin:round;">
</g>
<g style="fill:#000000; fill-opacity:0.0; 
stroke:#000000; stroke-width:150000.000000; stroke-opacity:1; 
stroke-linecap:round; stroke-linejoin:round;">
<text x="286002200.000000" y="85650000.000000"
textLength="1450000.000000" font-size="1733333.000000" lengthAdjust="spacingAndGlyphs"
text-anchor="middle" opacity="0">B</text>
<g class="stroked-text"><desc>B</desc>
<path d="M286095057 84907142
L286280771 84969047
L286342676 85030952
L286404580 85154761
L286404580 85340476
L286342676 85464285
L286280771 85526190
L286156961 85588095
L285661723 85588095
L285661723 84288095
L286095057 84288095
L286218866 84350000
L286280771 84411904
L286342676 84535714
L286342676 84659523
L286280771 84783333
L286218866 84845238
L286095057 84907142
L285661723 84907142
" />
</g></g>
<g style="fill:#000000; fill-opacity:0.0; 
stroke:#000000; stroke-width:21200.000000; stroke-opacity:1; 
stroke-linecap:round; stroke-linejoin:round;">
</g>
<g style="fill:#000000; fill-opacity:0.0; 
stroke:#000000; stroke-width:150000.000000; stroke-opacity:1; 
stroke-linecap:round; stroke-linejoin:round;">
<text x="286002200.000000" y="135650000.000000"
textLength="1450000.000000" font-size="1733333.000000" lengthAdjust="spacingAndGlyphs"
text-anchor="middle" opacity="0">C</text>
<g class="stroked-text"><desc>C</desc>
<path d="M286404580 135464285
L286342676 135526190
L286156961 135588095
L286033152 135588095
L285847438 135526190
L285723628 135402380
L285661723 135278571
L285599819 135030952
L285599819 134845238
L285661723 134597619
L285723628 134473809
L285847438 134350000
L286033152 134288095
L286156961 134288095
L286342676 134350000
L286404580 134411904
" />
</g></g>
<g style="fill:#000000; fill-opacity:0.0; 
stroke:#000000; stroke-width:21200.000000; stroke-opacity:1; 
stroke-linecap:round; stroke-linejoin:round;">
</g>
<g style="fill:#000000; fill-opacity:0.0; 
stroke:#000000; stroke-width:150000.000000; stroke-opacity:1; 
stroke-linecap:round; stroke-linejoin:round;">
<text x="286002200.000000" y="185650000.000000"
textLength="1450000.000000" font-size="1733333.000000" lengthAdjust="spacingAndGlyphs"
text-anchor="middle" opacity="0">D</text>
<g class="stroked-text"><desc>D</desc>
<path d="M285661723 185588095
L285661723 184288095
L285971247 184288095
L286156961 184350000
L286280771 184473809
L286342676 184597619
L286404580 184845238
L286404580 185030952
L286342676 185278571
L286280771 185402380
L286156961 185526190
L285971247 185588095
L285661723 185588095
" />
</g></g>
<g style="fill:#000000; fill-opacity:0.0; 
stroke:#000000; stroke-width:21200.000000; stroke-opacity:1; 
stroke-linecap:round; stroke-linejoin:round;">
</g>
<g style="fill:#000000; fill-opacity:0.0; 
stroke:#000000; stroke-width:150000.000000; stroke-opacity:1; 
stroke-linecap:round; stroke-linejoin:round;">
<text x="200002200.000000" y="193857200.000000"
textLength="7007143.000000" font-size="2000000.000000" lengthAdjust="spacingAndGlyphs"
text-anchor="start" opacity="0">Date: </text>
<g class="stroked-text"><desc>Date: </desc>
<path d="M200434342 193785771
L200434342 192285771
L200791485 192285771
L201005771 192357200
L201148628 192500057
L201220057 192642914
L201291485 192928628
L201291485 193142914
L201220057 193428628
L201148628 193571485
L201005771 193714342
L200791485 193785771
L200434342 193785771
" />
<path d="M202577200 193785771
L202577200 193000057
L202505771 192857200
L202362914 192785771
L202077200 192785771
L201934342 192857200
" />
<path d="M202577200 193714342
L202434342 193785771
L202077200 193785771
L201934342 193714342
L201862914 193571485
L201862914 193428628
L201934342 193285771
L202077200 193214342
L202434342 193214342
L202577200 193142914
" />
<path d="M203077200 192785771
L203648628 192785771
" />
<path d="M203291485 192285771
L203291485 193571485
L203362914 193714342
L203505771 193785771
L203648628 193785771
" />
<path d="M204720057 193714342
L204577200 193785771
L204291485 193785771
L204148628 193714342
L204077200 193571485
L204077200 193000057
L204148628 192857200
L204291485 192785771
L204577200 192785771
L204720057 192857200
L204791485 193000057
L204791485 193142914
L204077200 193285771
" />
<path d="M205434342 193642914
L205505771 193714342
L205434342 193785771
L205362914 193714342
L205434342 193642914
L205434342 193785771
" />
<path d="M205434342 192857200
L205505771 192928628
L205434342 193000057
L205362914 192928628
L205434342 192857200
L205434342 193000057
" />
</g></g>
<g style="fill:#000000; fill-opacity:0.0; 
stroke:#000000; stroke-width:21200.000000; stroke-opacity:1; 
stroke-linecap:round; stroke-linejoin:round;">
</g>
<g style="fill:#000000; fill-opacity:0.0; 
stroke:#000000; stroke-width:150000.000000; stroke-opacity:1; 
stroke-linecap:round; stroke-linejoin:round;">
<path d="M177002200 194507200
L285002200 194507200
" />
</g>
<g style="fill:#000000; fill-opacity:0.0; 
stroke:#000000; stroke-width:21200.000000; stroke-opacity:1; 
stroke-linecap:round; stroke-linejoin:round;">
</g>
<g style="fill:#000000; fill-opacity:0.0; 
stroke:#000000; stroke-width:150000.000000; stroke-opacity:1; 
stroke-linecap:round; stroke-linejoin:round;">
<text x="178002200.000000" y="196657200.000000"
textLength="33364286.000000" font-size="2000000.000000" lengthAdjust="spacingAndGlyphs"
text-anchor="start" opacity="0">KiCad E.D.A.  pcbnew (6.0.6)</text>
<g class="stroked-text"><desc>KiCad E.D.A.  pcbnew (6.0.6)</desc>
<path d="M178434342 196585771
L178434342 195085771
" />
<path d="M179291485 196585771
L178648628 195728628
" />
<path d="M179291485 195085771
L178434342 195942914
" />
<path d="M179934342 196585771
L179934342 195585771
" />
<path d="M179934342 195085771
L179862914 195157200
L179934342 195228628
L180005771 195157200
L179934342 195085771
L179934342 195228628
" />
<path d="M181505771 196442914
L181434342 196514342
L181220057 196585771
L181077200 196585771
L180862914 196514342
L180720057 196371485
L180648628 196228628
L180577200 195942914
L180577200 195728628
L180648628 195442914
L180720057 195300057
L180862914 195157200
L181077200 195085771
L181220057 195085771
L181434342 195157200
L181505771 195228628
" />
<path d="M182791485 196585771
L182791485 195800057
L182720057 195657200
L182577200 195585771
L182291485 195585771
L182148628 195657200
" />
<path d="M182791485 196514342
L182648628 196585771
L182291485 196585771
L182148628 196514342
L182077200 196371485
L182077200 196228628
L182148628 196085771
L182291485 196014342
L182648628 196014342
L182791485 195942914
" />
<path d="M184148628 196585771
L184148628 195085771
" />
<path d="M184148628 196514342
L184005771 196585771
L183720057 196585771
L183577200 196514342
L183505771 196442914
L183434342 196300057
L183434342 195871485
L183505771 195728628
L183577200 195657200
L183720057 195585771
L184005771 195585771
L184148628 195657200
" />
<path d="M186005771 195800057
L186505771 195800057
" />
<path d="M186720057 196585771
L186005771 196585771
L186005771 195085771
L186720057 195085771
" />
<path d="M187362914 196442914
L187434342 196514342
L187362914 196585771
L187291485 196514342
L187362914 196442914
L187362914 196585771
" />
<path d="M188077200 196585771
L188077200 195085771
L188434342 195085771
L188648628 195157200
L188791485 195300057
L188862914 195442914
L188934342 195728628
L188934342 195942914
L188862914 196228628
L188791485 196371485
L188648628 196514342
L188434342 196585771
L188077200 196585771
" />
<path d="M189577200 196442914
L189648628 196514342
L189577200 196585771
L189505771 196514342
L189577200 196442914
L189577200 196585771
" />
<path d="M190220057 196157200
L190934342 196157200
" />
<path d="M190077200 196585771
L190577200 195085771
L191077200 196585771
" />
<path d="M191577200 196442914
L191648628 196514342
L191577200 196585771
L191505771 196514342
L191577200 196442914
L191577200 196585771
" />
<path d="M194577200 195585771
L194577200 197085771
" />
<path d="M194577200 195657200
L194720057 195585771
L195005771 195585771
L195148628 195657200
L195220057 195728628
L195291485 195871485
L195291485 196300057
L195220057 196442914
L195148628 196514342
L195005771 196585771
L194720057 196585771
L194577200 196514342
" />
<path d="M196577200 196514342
L196434342 196585771
L196148628 196585771
L196005771 196514342
L195934342 196442914
L195862914 196300057
L195862914 195871485
L195934342 195728628
L196005771 195657200
L196148628 195585771
L196434342 195585771
L196577200 195657200
" />
<path d="M197220057 196585771
L197220057 195085771
" />
<path d="M197220057 195657200
L197362914 195585771
L197648628 195585771
L197791485 195657200
L197862914 195728628
L197934342 195871485
L197934342 196300057
L197862914 196442914
L197791485 196514342
L197648628 196585771
L197362914 196585771
L197220057 196514342
" />
<path d="M198577200 195585771
L198577200 196585771
" />
<path d="M198577200 195728628
L198648628 195657200
L198791485 195585771
L199005771 195585771
L199148628 195657200
L199220057 195800057
L199220057 196585771
" />
<path d="M200505771 196514342
L200362914 196585771
L200077200 196585771
L199934342 196514342
L199862914 196371485
L199862914 195800057
L199934342 195657200
L200077200 195585771
L200362914 195585771
L200505771 195657200
L200577200 195800057
L200577200 195942914
L199862914 196085771
" />
<path d="M201077200 195585771
L201362914 196585771
L201648628 195871485
L201934342 196585771
L202220057 195585771
" />
<path d="M204362914 197157200
L204291485 197085771
L204148628 196871485
L204077200 196728628
L204005771 196514342
L203934342 196157200
L203934342 195871485
L204005771 195514342
L204077200 195300057
L204148628 195157200
L204291485 194942914
L204362914 194871485
" />
<path d="M205577200 195085771
L205291485 195085771
L205148628 195157200
L205077200 195228628
L204934342 195442914
L204862914 195728628
L204862914 196300057
L204934342 196442914
L205005771 196514342
L205148628 196585771
L205434342 196585771
L205577200 196514342
L205648628 196442914
L205720057 196300057
L205720057 195942914
L205648628 195800057
L205577200 195728628
L205434342 195657200
L205148628 195657200
L205005771 195728628
L204934342 195800057
L204862914 195942914
" />
<path d="M206362914 196442914
L206434342 196514342
L206362914 196585771
L206291485 196514342
L206362914 196442914
L206362914 196585771
" />
<path d="M207362914 195085771
L207505771 195085771
L207648628 195157200
L207720057 195228628
L207791485 195371485
L207862914 195657200
L207862914 196014342
L207791485 196300057
L207720057 196442914
L207648628 196514342
L207505771 196585771
L207362914 196585771
L207220057 196514342
L207148628 196442914
L207077200 196300057
L207005771 196014342
L207005771 195657200
L207077200 195371485
L207148628 195228628
L207220057 195157200
L207362914 195085771
" />
<path d="M208505771 196442914
L208577200 196514342
L208505771 196585771
L208434342 196514342
L208505771 196442914
L208505771 196585771
" />
<path d="M209862914 195085771
L209577200 195085771
L209434342 195157200
L209362914 195228628
L209220057 195442914
L209148628 195728628
L209148628 196300057
L209220057 196442914
L209291485 196514342
L209434342 196585771
L209720057 196585771
L209862914 196514342
L209934342 196442914
L210005771 196300057
L210005771 195942914
L209934342 195800057
L209862914 195728628
L209720057 195657200
L209434342 195657200
L209291485 195728628
L209220057 195800057
L209148628 195942914
" />
<path d="M210505771 197157200
L210577200 197085771
L210720057 196871485
L210791485 196728628
L210862914 196514342
L210934342 196157200
L210934342 195871485
L210862914 195514342
L210791485 195300057
L210720057 195157200
L210577200 194942914
L210505771 194871485
" />
</g></g>
<g style="fill:#000000; fill-opacity:0.0; 
stroke:#000000; stroke-width:21200.000000; stroke-opacity:1; 
stroke-linecap:round; stroke-linejoin:round;">
</g>
<g style="fill:#000000; fill-opacity:0.0; 
stroke:#000000; stroke-width:150000.000000; stroke-opacity:1; 
stroke-linecap:round; stroke-linejoin:round;">
<path d="M177002200 191507200
L285002200 191507200
" />
</g>
<g style="fill:#000000; fill-opacity:0.0; 
stroke:#000000; stroke-width:21200.000000; stroke-opacity:1; 
stroke-linecap:round; stroke-linejoin:round;">
</g>
<g style="fill:#000000; fill-opacity:0.0; 
stroke:#000000; stroke-width:300000.000000; stroke-opacity:1; 
stroke-linecap:round; stroke-linejoin:round;">
<text x="263002200.000000" y="193857200.000000"
textLength="5935714.000000" font-size="2000000.000000" lengthAdjust="spacingAndGlyphs"
text-anchor="start" opacity="0">Rev: </text>
<g class="stroked-text"><desc>Rev: </desc>
<path d="M264411485 193785771
L263911485 193071485
" />
<path d="M263554342 193785771
L263554342 192285771
L264125771 192285771
L264268628 192357200
L264340057 192428628
L264411485 192571485
L264411485 192785771
L264340057 192928628
L264268628 193000057
L264125771 193071485
L263554342 193071485
" />
<path d="M265625771 193714342
L265482914 193785771
L265197200 193785771
L265054342 193714342
L264982914 193571485
L264982914 193000057
L265054342 192857200
L265197200 192785771
L265482914 192785771
L265625771 192857200
L265697200 193000057
L265697200 193142914
L264982914 193285771
" />
<path d="M266197200 192785771
L266554342 193785771
L266911485 192785771
" />
<path d="M267482914 193642914
L267554342 193714342
L267482914 193785771
L267411485 193714342
L267482914 193642914
L267482914 193785771
" />
<path d="M267482914 192857200
L267554342 192928628
L267482914 193000057
L267411485 192928628
L267482914 192857200
L267482914 193000057
" />
</g></g>
<g style="fill:#000000; fill-opacity:0.0; 
stroke:#000000; stroke-width:21200.000000; stroke-opacity:1; 
stroke-linecap:round; stroke-linejoin:round;">
</g>
<g style="fill:#000000; fill-opacity:0.0; 
stroke:#000000; stroke-width:150000.000000; stroke-opacity:1; 
stroke-linecap:round; stroke-linejoin:round;">
<text x="178002200.000000" y="193857200.000000"
textLength="9604286.000000" font-size="2000000.000000" lengthAdjust="spacingAndGlyphs"
text-anchor="start" opacity="0">Size: A4</text>
<g class="stroked-text"><desc>Size: A4</desc>
<path d="M178362914 193714342
L178577200 193785771
L178934342 193785771
L179077200 193714342
L179148628 193642914
L179220057 193500057
L179220057 193357200
L179148628 193214342
L179077200 193142914
L178934342 193071485
L178648628 193000057
L178505771 192928628
L178434342 192857200
L178362914 192714342
L178362914 192571485
L178434342 192428628
L178505771 192357200
L178648628 192285771
L179005771 192285771
L179220057 192357200
" />
<path d="M179862914 193785771
L179862914 192785771
" />
<path d="M179862914 192285771
L179791485 192357200
L179862914 192428628
L179934342 192357200
L179862914 192285771
L179862914 192428628
" />
<path d="M180434342 192785771
L181220057 192785771
L180434342 193785771
L181220057 193785771
" />
<path d="M182362914 193714342
L182220057 193785771
L181934342 193785771
L181791485 193714342
L181720057 193571485
L181720057 193000057
L181791485 192857200
L181934342 192785771
L182220057 192785771
L182362914 192857200
L182434342 193000057
L182434342 193142914
L181720057 193285771
" />
<path d="M183077200 193642914
L183148628 193714342
L183077200 193785771
L183005771 193714342
L183077200 193642914
L183077200 193785771
" />
<path d="M183077200 192857200
L183148628 192928628
L183077200 193000057
L183005771 192928628
L183077200 192857200
L183077200 193000057
" />
<path d="M184862914 193357200
L185577200 193357200
" />
<path d="M184720057 193785771
L185220057 192285771
L185720057 193785771
" />
<path d="M186862914 192785771
L186862914 193785771
" />
<path d="M186505771 192214342
L186148628 193285771
L187077200 193285771
" />
</g></g>
<g style="fill:#000000; fill-opacity:0.0; 
stroke:#000000; stroke-width:21200.000000; stroke-opacity:1; 
stroke-linecap:round; stroke-linejoin:round;">
</g>
<g style="fill:#000000; fill-opacity:0.0; 
stroke:#000000; stroke-width:150000.000000; stroke-opacity:1; 
stroke-linecap:round; stroke-linejoin:round;">
<text x="263002200.000000" y="196657200.000000"
textLength="8507143.000000" font-size="2000000.000000" lengthAdjust="spacingAndGlyphs"
text-anchor="start" opacity="0">Id: 1/1</text>
<g class="stroked-text"><desc>Id: 1/1</desc>
<path d="M263434342 196585771
L263434342 195085771
" />
<path d="M264791485 196585771
L264791485 195085771
" />
<path d="M264791485 196514342
L264648628 196585771
L264362914 196585771
L264220057 196514342
L264148628 196442914
L264077200 196300057
L264077200 195871485
L264148628 195728628
L264220057 195657200
L264362914 195585771
L264648628 195585771
L264791485 195657200
" />
<path d="M265505771 196442914
L265577200 196514342
L265505771 196585771
L265434342 196514342
L265505771 196442914
L265505771 196585771
" />
<path d="M265505771 195657200
L265577200 195728628
L265505771 195800057
L265434342 195728628
L265505771 195657200
L265505771 195800057
" />
<path d="M268148628 196585771
L267291485 196585771
" />
<path d="M267720057 196585771
L267720057 195085771
L267577200 195300057
L267434342 195442914
L267291485 195514342
" />
<path d="M269862914 195014342
L268577200 196942914
" />
<path d="M271148628 196585771
L270291485 196585771
" />
<path d="M270720057 196585771
L270720057 195085771
L270577200 195300057
L270434342 195442914
L270291485 195514342
" />
</g></g>
<g style="fill:#000000; fill-opacity:0.0; 
stroke:#000000; stroke-width:21200.000000; stroke-opacity:1; 
stroke-linecap:round; stroke-linejoin:round;">
</g>
<g style="fill:#000000; fill-opacity:0.0; 
stroke:#000000; stroke-width:150000.000000; stroke-opacity:1; 
stroke-linecap:round; stroke-linejoin:round;">
<path d="M177002200 187507200
L285002200 187507200
" />
</g>
<g style="fill:#000000; fill-opacity:0.0; 
stroke:#000000; stroke-width:21200.000000; stroke-opacity:1; 
stroke-linecap:round; stroke-linejoin:round;">
</g>
<g style="fill:#000000; fill-opacity:0.0; 
stroke:#000000; stroke-width:400000.000000; stroke-opacity:1; 
stroke-linecap:round; stroke-linejoin:round;">
<text x="178002200.000000" y="190307200.000000"
textLength="9409643.000000" font-size="2666666.000000" lengthAdjust="spacingAndGlyphs"
text-anchor="start" opacity="0">Title: </text>
<g class="stroked-text"><desc>Title: </desc>
<path d="M178714580 188211961
L179857438 188211961
" />
<path d="M179036009 190211961
L179286009 188211961
" />
<path d="M180274104 190211961
L180440771 188878628
" />
<path d="M180524104 188211961
L180416961 188307200
L180500295 188402438
L180607438 188307200
L180524104 188211961
L180500295 188402438
" />
<path d="M181107438 188878628
L181869342 188878628
" />
<path d="M181476485 188211961
L181262200 189926247
L181333628 190116723
L181512200 190211961
L181702676 190211961
" />
<path d="M182655057 190211961
L182476485 190116723
L182405057 189926247
L182619342 188211961
" />
<path d="M184190771 190116723
L183988390 190211961
L183607438 190211961
L183428866 190116723
L183357438 189926247
L183452676 189164342
L183571723 188973866
L183774104 188878628
L184155057 188878628
L184333628 188973866
L184405057 189164342
L184381247 189354819
L183405057 189545295
" />
<path d="M185155057 190021485
L185238390 190116723
L185131247 190211961
L185047914 190116723
L185155057 190021485
L185131247 190211961
" />
<path d="M185286009 188973866
L185369342 189069104
L185262200 189164342
L185178866 189069104
L185286009 188973866
L185262200 189164342
" />
</g></g>
<g style="fill:#000000; fill-opacity:0.0; 
stroke:#000000; stroke-width:21200.000000; stroke-opacity:1; 
stroke-linecap:round; stroke-linejoin:round;">
</g>
<g style="fill:#000000; fill-opacity:0.0; 
stroke:#000000; stroke-width:150000.000000; stroke-opacity:1; 
stroke-linecap:round; stroke-linejoin:round;">
<text x="178002200.000000" y="186457200.000000"
textLength="55377143.000000" font-size="2000000.000000" lengthAdjust="spacingAndGlyphs"
text-anchor="start" opacity="0">File: MODULE-DADB-MCUU-K328-01.kicad_pcb</text>
<g class="stroked-text"><desc>File: MODULE-DADB-MCUU-K328-01.kicad_pcb</desc>
<path d="M178934342 185600057
L178434342 185600057
" />
<path d="M178434342 186385771
L178434342 184885771
L179148628 184885771
" />
<path d="M179720057 186385771
L179720057 185385771
" />
<path d="M179720057 184885771
L179648628 184957200
L179720057 185028628
L179791485 184957200
L179720057 184885771
L179720057 185028628
" />
<path d="M180648628 186385771
L180505771 186314342
L180434342 186171485
L180434342 184885771
" />
<path d="M181791485 186314342
L181648628 186385771
L181362914 186385771
L181220057 186314342
L181148628 186171485
L181148628 185600057
L181220057 185457200
L181362914 185385771
L181648628 185385771
L181791485 185457200
L181862914 185600057
L181862914 185742914
L181148628 185885771
" />
<path d="M182505771 186242914
L182577200 186314342
L182505771 186385771
L182434342 186314342
L182505771 186242914
L182505771 186385771
" />
<path d="M182505771 185457200
L182577200 185528628
L182505771 185600057
L182434342 185528628
L182505771 185457200
L182505771 185600057
" />
<path d="M184362914 186385771
L184362914 184885771
L184862914 185957200
L185362914 184885771
L185362914 186385771
" />
<path d="M186362914 184885771
L186648628 184885771
L186791485 184957200
L186934342 185100057
L187005771 185385771
L187005771 185885771
L186934342 186171485
L186791485 186314342
L186648628 186385771
L186362914 186385771
L186220057 186314342
L186077200 186171485
L186005771 185885771
L186005771 185385771
L186077200 185100057
L186220057 184957200
L186362914 184885771
" />
<path d="M187648628 186385771
L187648628 184885771
L188005771 184885771
L188220057 184957200
L188362914 185100057
L188434342 185242914
L188505771 185528628
L188505771 185742914
L188434342 186028628
L188362914 186171485
L188220057 186314342
L188005771 186385771
L187648628 186385771
" />
<path d="M189148628 184885771
L189148628 186100057
L189220057 186242914
L189291485 186314342
L189434342 186385771
L189720057 186385771
L189862914 186314342
L189934342 186242914
L190005771 186100057
L190005771 184885771
" />
<path d="M191434342 186385771
L190720057 186385771
L190720057 184885771
" />
<path d="M191934342 185600057
L192434342 185600057
" />
<path d="M192648628 186385771
L191934342 186385771
L191934342 184885771
L192648628 184885771
" />
<path d="M193291485 185814342
L194434342 185814342
" />
<path d="M195148628 186385771
L195148628 184885771
L195505771 184885771
L195720057 184957200
L195862914 185100057
L195934342 185242914
L196005771 185528628
L196005771 185742914
L195934342 186028628
L195862914 186171485
L195720057 186314342
L195505771 186385771
L195148628 186385771
" />
<path d="M196577200 185957200
L197291485 185957200
" />
<path d="M196434342 186385771
L196934342 184885771
L197434342 186385771
" />
<path d="M197934342 186385771
L197934342 184885771
L198291485 184885771
L198505771 184957200
L198648628 185100057
L198720057 185242914
L198791485 185528628
L198791485 185742914
L198720057 186028628
L198648628 186171485
L198505771 186314342
L198291485 186385771
L197934342 186385771
" />
<path d="M199934342 185600057
L200148628 185671485
L200220057 185742914
L200291485 185885771
L200291485 186100057
L200220057 186242914
L200148628 186314342
L200005771 186385771
L199434342 186385771
L199434342 184885771
L199934342 184885771
L200077200 184957200
L200148628 185028628
L200220057 185171485
L200220057 185314342
L200148628 185457200
L200077200 185528628
L199934342 185600057
L199434342 185600057
" />
<path d="M200934342 185814342
L202077200 185814342
" />
<path d="M202791485 186385771
L202791485 184885771
L203291485 185957200
L203791485 184885771
L203791485 186385771
" />
<path d="M205362914 186242914
L205291485 186314342
L205077200 186385771
L204934342 186385771
L204720057 186314342
L204577200 186171485
L204505771 186028628
L204434342 185742914
L204434342 185528628
L204505771 185242914
L204577200 185100057
L204720057 184957200
L204934342 184885771
L205077200 184885771
L205291485 184957200
L205362914 185028628
" />
<path d="M206005771 184885771
L206005771 186100057
L206077200 186242914
L206148628 186314342
L206291485 186385771
L206577200 186385771
L206720057 186314342
L206791485 186242914
L206862914 186100057
L206862914 184885771
" />
<path d="M207577200 184885771
L207577200 186100057
L207648628 186242914
L207720057 186314342
L207862914 186385771
L208148628 186385771
L208291485 186314342
L208362914 186242914
L208434342 186100057
L208434342 184885771
" />
<path d="M209148628 185814342
L210291485 185814342
" />
<path d="M211005771 186385771
L211005771 184885771
" />
<path d="M211862914 186385771
L211220057 185528628
" />
<path d="M211862914 184885771
L211005771 185742914
" />
<path d="M212362914 184885771
L213291485 184885771
L212791485 185457200
L213005771 185457200
L213148628 185528628
L213220057 185600057
L213291485 185742914
L213291485 186100057
L213220057 186242914
L213148628 186314342
L213005771 186385771
L212577200 186385771
L212434342 186314342
L212362914 186242914
" />
<path d="M213862914 185028628
L213934342 184957200
L214077200 184885771
L214434342 184885771
L214577200 184957200
L214648628 185028628
L214720057 185171485
L214720057 185314342
L214648628 185528628
L213791485 186385771
L214720057 186385771
" />
<path d="M215577200 185528628
L215434342 185457200
L215362914 185385771
L215291485 185242914
L215291485 185171485
L215362914 185028628
L215434342 184957200
L215577200 184885771
L215862914 184885771
L216005771 184957200
L216077200 185028628
L216148628 185171485
L216148628 185242914
L216077200 185385771
L216005771 185457200
L215862914 185528628
L215577200 185528628
L215434342 185600057
L215362914 185671485
L215291485 185814342
L215291485 186100057
L215362914 186242914
L215434342 186314342
L215577200 186385771
L215862914 186385771
L216005771 186314342
L216077200 186242914
L216148628 186100057
L216148628 185814342
L216077200 185671485
L216005771 185600057
L215862914 185528628
" />
<path d="M216791485 185814342
L217934342 185814342
" />
<path d="M218934342 184885771
L219077200 184885771
L219220057 184957200
L219291485 185028628
L219362914 185171485
L219434342 185457200
L219434342 185814342
L219362914 186100057
L219291485 186242914
L219220057 186314342
L219077200 186385771
L218934342 186385771
L218791485 186314342
L218720057 186242914
L218648628 186100057
L218577200 185814342
L218577200 185457200
L218648628 185171485
L218720057 185028628
L218791485 184957200
L218934342 184885771
" />
<path d="M220862914 186385771
L220005771 186385771
" />
<path d="M220434342 186385771
L220434342 184885771
L220291485 185100057
L220148628 185242914
L220005771 185314342
" />
<path d="M221505771 186242914
L221577199 186314342
L221505771 186385771
L221434342 186314342
L221505771 186242914
L221505771 186385771
" />
<path d="M222220057 186385771
L222220057 184885771
" />
<path d="M222362914 185814342
L222791485 186385771
" />
<path d="M222791485 185385771
L222220057 185957200
" />
<path d="M223434342 186385771
L223434342 185385771
" />
<path d="M223434342 184885771
L223362914 184957200
L223434342 185028628
L223505771 184957200
L223434342 184885771
L223434342 185028628
" />
<path d="M224791485 186314342
L224648628 186385771
L224362914 186385771
L224220057 186314342
L224148628 186242914
L224077200 186100057
L224077200 185671485
L224148628 185528628
L224220057 185457200
L224362914 185385771
L224648628 185385771
L224791485 185457200
" />
<path d="M226077200 186385771
L226077200 185600057
L226005771 185457200
L225862914 185385771
L225577200 185385771
L225434342 185457200
" />
<path d="M226077200 186314342
L225934342 186385771
L225577200 186385771
L225434342 186314342
L225362914 186171485
L225362914 186028628
L225434342 185885771
L225577200 185814342
L225934342 185814342
L226077200 185742914
" />
<path d="M227434342 186385771
L227434342 184885771
" />
<path d="M227434342 186314342
L227291485 186385771
L227005771 186385771
L226862914 186314342
L226791485 186242914
L226720057 186100057
L226720057 185671485
L226791485 185528628
L226862914 185457200
L227005771 185385771
L227291485 185385771
L227434342 185457200
" />
<path d="M227791485 186528628
L228934342 186528628
" />
<path d="M229291485 185385771
L229291485 186885771
" />
<path d="M229291485 185457200
L229434342 185385771
L229720057 185385771
L229862914 185457200
L229934342 185528628
L230005771 185671485
L230005771 186100057
L229934342 186242914
L229862914 186314342
L229720057 186385771
L229434342 186385771
L229291485 186314342
" />
<path d="M231291485 186314342
L231148628 186385771
L230862914 186385771
L230720057 186314342
L230648628 186242914
L230577200 186100057
L230577200 185671485
L230648628 185528628
L230720057 185457200
L230862914 185385771
L231148628 185385771
L231291485 185457200
" />
<path d="M231934342 186385771
L231934342 184885771
" />
<path d="M231934342 185457200
L232077200 185385771
L232362914 185385771
L232505771 185457200
L232577200 185528628
L232648628 185671485
L232648628 186100057
L232577200 186242914
L232505771 186314342
L232362914 186385771
L232077200 186385771
L231934342 186314342
" />
</g></g>
<g style="fill:#000000; fill-opacity:0.0; 
stroke:#000000; stroke-width:21200.000000; stroke-opacity:1; 
stroke-linecap:round; stroke-linejoin:round;">
</g>
<g style="fill:#000000; fill-opacity:0.0; 
stroke:#000000; stroke-width:150000.000000; stroke-opacity:1; 
stroke-linecap:round; stroke-linejoin:round;">
<path d="M177002200 181507200
L285002200 181507200
" />
</g>
<g style="fill:#000000; fill-opacity:0.0; 
stroke:#000000; stroke-width:21200.000000; stroke-opacity:1; 
stroke-linecap:round; stroke-linejoin:round;">
</g>
<g style="fill:#000000; fill-opacity:0.0; 
stroke:#000000; stroke-width:150000.000000; stroke-opacity:1; 
stroke-linecap:round; stroke-linejoin:round;">
<text x="178002200.000000" y="183757200.000000"
textLength="8221429.000000" font-size="2000000.000000" lengthAdjust="spacingAndGlyphs"
text-anchor="start" opacity="0">Sheet: </text>
<g class="stroked-text"><desc>Sheet: </desc>
<path d="M178362914 183614342
L178577200 183685771
L178934342 183685771
L179077200 183614342
L179148628 183542914
L179220057 183400057
L179220057 183257200
L179148628 183114342
L179077200 183042914
L178934342 182971485
L178648628 182900057
L178505771 182828628
L178434342 182757200
L178362914 182614342
L178362914 182471485
L178434342 182328628
L178505771 182257200
L178648628 182185771
L179005771 182185771
L179220057 182257200
" />
<path d="M179862914 183685771
L179862914 182185771
" />
<path d="M180505771 183685771
L180505771 182900057
L180434342 182757200
L180291485 182685771
L180077200 182685771
L179934342 182757200
L179862914 182828628
" />
<path d="M181791485 183614342
L181648628 183685771
L181362914 183685771
L181220057 183614342
L181148628 183471485
L181148628 182900057
L181220057 182757200
L181362914 182685771
L181648628 182685771
L181791485 182757200
L181862914 182900057
L181862914 183042914
L181148628 183185771
" />
<path d="M183077200 183614342
L182934342 183685771
L182648628 183685771
L182505771 183614342
L182434342 183471485
L182434342 182900057
L182505771 182757200
L182648628 182685771
L182934342 182685771
L183077200 182757200
L183148628 182900057
L183148628 183042914
L182434342 183185771
" />
<path d="M183577200 182685771
L184148628 182685771
" />
<path d="M183791485 182185771
L183791485 183471485
L183862914 183614342
L184005771 183685771
L184148628 183685771
" />
<path d="M184648628 183542914
L184720057 183614342
L184648628 183685771
L184577200 183614342
L184648628 183542914
L184648628 183685771
" />
<path d="M184648628 182757200
L184720057 182828628
L184648628 182900057
L184577200 182828628
L184648628 182757200
L184648628 182900057
" />
</g></g>
<g style="fill:#000000; fill-opacity:0.0; 
stroke:#000000; stroke-width:21200.000000; stroke-opacity:1; 
stroke-linecap:round; stroke-linejoin:round;">
</g>
<g style="fill:#000000; fill-opacity:0.0; 
stroke:#000000; stroke-width:300000.000000; stroke-opacity:1; 
stroke-linecap:round; stroke-linejoin:round;">
<text x="178002200.000000" y="180757200.000000"
textLength="150000.000000" font-size="2000000.000000" lengthAdjust="spacingAndGlyphs"
text-anchor="start" opacity="0"></text>
<g class="stroked-text"><desc></desc>
</g></g>
<g style="fill:#000000; fill-opacity:0.0; 
stroke:#000000; stroke-width:21200.000000; stroke-opacity:1; 
stroke-linecap:round; stroke-linejoin:round;">
</g>
<g style="fill:#000000; fill-opacity:0.0; 
stroke:#000000; stroke-width:150000.000000; stroke-opacity:1; 
stroke-linecap:round; stroke-linejoin:round;">
<text x="178002200.000000" y="177757200.000000"
textLength="300000.000000" font-size="2000000.000000" lengthAdjust="spacingAndGlyphs"
text-anchor="start" opacity="0"></text>
<g class="stroked-text"><desc></desc>
</g></g>
<g style="fill:#000000; fill-opacity:0.0; 
stroke:#000000; stroke-width:21200.000000; stroke-opacity:1; 
stroke-linecap:round; stroke-linejoin:round;">
</g>
<g style="fill:#000000; fill-opacity:0.0; 
stroke:#000000; stroke-width:150000.000000; stroke-opacity:1; 
stroke-linecap:round; stroke-linejoin:round;">
<text x="178002200.000000" y="174757200.000000"
textLength="150000.000000" font-size="2000000.000000" lengthAdjust="spacingAndGlyphs"
text-anchor="start" opacity="0"></text>
<g class="stroked-text"><desc></desc>
</g></g>
<g style="fill:#000000; fill-opacity:0.0; 
stroke:#000000; stroke-width:21200.000000; stroke-opacity:1; 
stroke-linecap:round; stroke-linejoin:round;">
</g>
<g style="fill:#000000; fill-opacity:0.0; 
stroke:#000000; stroke-width:150000.000000; stroke-opacity:1; 
stroke-linecap:round; stroke-linejoin:round;">
<text x="178002200.000000" y="171757200.000000"
textLength="150000.000000" font-size="2000000.000000" lengthAdjust="spacingAndGlyphs"
text-anchor="start" opacity="0"></text>
<g class="stroked-text"><desc></desc>
</g></g>
<g style="fill:#000000; fill-opacity:0.0; 
stroke:#000000; stroke-width:21200.000000; stroke-opacity:1; 
stroke-linecap:round; stroke-linejoin:round;">
</g>
<g style="fill:#000000; fill-opacity:0.0; 
stroke:#000000; stroke-width:150000.000000; stroke-opacity:1; 
stroke-linecap:round; stroke-linejoin:round;">
<text x="178002200.000000" y="168757200.000000"
textLength="150000.000000" font-size="2000000.000000" lengthAdjust="spacingAndGlyphs"
text-anchor="start" opacity="0"></text>
<g class="stroked-text"><desc></desc>
</g></g>
<g style="fill:#000000; fill-opacity:0.0; 
stroke:#000000; stroke-width:21200.000000; stroke-opacity:1; 
stroke-linecap:round; stroke-linejoin:round;">
</g>
<g style="fill:#000000; fill-opacity:0.0; 
stroke:#000000; stroke-width:150000.000000; stroke-opacity:1; 
stroke-linecap:round; stroke-linejoin:round;">
<path d="M197002200 191507200
L197002200 194507200
" />
</g>
<g style="fill:#000000; fill-opacity:0.0; 
stroke:#000000; stroke-width:21200.000000; stroke-opacity:1; 
stroke-linecap:round; stroke-linejoin:round;">
</g>
<g style="fill:#000000; fill-opacity:0.0; 
stroke:#000000; stroke-width:150000.000000; stroke-opacity:1; 
stroke-linecap:round; stroke-linejoin:round;">
<path d="M261002200 191507200
L261002200 198007200
" />
</g>
<g style="fill:#F2EDA1; fill-opacity:0.0; 
stroke:#F2EDA1; stroke-width:150000.000000; stroke-opacity:1; 
stroke-linecap:round; stroke-linejoin:round;">
<text x="5000000.000000" y="-16830000.000000"
textLength="1959524.000000" font-size="1333333.000000" lengthAdjust="spacingAndGlyphs"
text-anchor="middle" opacity="0">Y1</text>
<g class="stroked-text"><desc>Y1</desc>
<path d="M4523809 -17353809
L4523809 -16877619
" />
<path d="M4190476 -17877619
L4523809 -17353809
L4857142 -17877619
" />
<path d="M5714285 -16877619
L5142857 -16877619
" />
<path d="M5428571 -16877619
L5428571 -17877619
L5333333 -17734761
L5238095 -17639523
L5142857 -17591904
" />
</g><text x="-5000000.000000" y="-930000.000000"
textLength="2147381.000000" font-size="1333333.000000" lengthAdjust="spacingAndGlyphs"
text-anchor="middle" opacity="0">C3</text>
<g class="stroked-text"><desc>C3</desc>
<path d="M-5166666 -1072857
L-5214285 -1025238
L-5357142 -977619
L-5452380 -977619
L-5595238 -1025238
L-5690476 -1120476
L-5738095 -1215714
L-5785714 -1406190
L-5785714 -1549047
L-5738095 -1739523
L-5690476 -1834761
L-5595238 -1930000
L-5452380 -1977619
L-5357142 -1977619
L-5214285 -1930000
L-5166666 -1882380
" />
<path d="M-4833333 -1977619
L-4214285 -1977619
L-4547619 -1596666
L-4404761 -1596666
L-4309523 -1549047
L-4261904 -1501428
L-4214285 -1406190
L-4214285 -1168095
L-4261904 -1072857
L-4309523 -1025238
L-4404761 -977619
L-4690476 -977619
L-4785714 -1025238
L-4833333 -1072857
" />
</g><text x="0.000000" y="-3320000.000000"
textLength="2195000.000000" font-size="1333333.000000" lengthAdjust="spacingAndGlyphs"
text-anchor="middle" opacity="0">U3</text>
<g class="stroked-text"><desc>U3</desc>
<path d="M-761904 -4367619
L-761904 -3558095
L-714285 -3462857
L-666666 -3415238
L-571428 -3367619
L-380952 -3367619
L-285714 -3415238
L-238095 -3462857
L-190476 -3558095
L-190476 -4367619
" />
<path d="M190476 -4367619
L809523 -4367619
L476190 -3986666
L619047 -3986666
L714285 -3939047
L761904 -3891428
L809523 -3796190
L809523 -3558095
L761904 -3462857
L714285 -3415238
L619047 -3367619
L333333 -3367619
L238095 -3415238
L190476 -3462857
" />
</g><text x="-5000000.000000" y="-10930000.000000"
textLength="2147381.000000" font-size="1333333.000000" lengthAdjust="spacingAndGlyphs"
text-anchor="middle" opacity="0">C1</text>
<g class="stroked-text"><desc>C1</desc>
<path d="M-5166666 -11072857
L-5214285 -11025238
L-5357142 -10977619
L-5452380 -10977619
L-5595238 -11025238
L-5690476 -11120476
L-5738095 -11215714
L-5785714 -11406190
L-5785714 -11549047
L-5738095 -11739523
L-5690476 -11834761
L-5595238 -11930000
L-5452380 -11977619
L-5357142 -11977619
L-5214285 -11930000
L-5166666 -11882380
" />
<path d="M-4214285 -10977619
L-4785714 -10977619
" />
<path d="M-4500000 -10977619
L-4500000 -11977619
L-4595238 -11834761
L-4690476 -11739523
L-4785714 -11691904
" />
</g><text x="0.000000" y="-10930000.000000"
textLength="2147381.000000" font-size="1333333.000000" lengthAdjust="spacingAndGlyphs"
text-anchor="middle" opacity="0">C2</text>
<g class="stroked-text"><desc>C2</desc>
<path d="M-166666 -11072857
L-214285 -11025238
L-357142 -10977619
L-452380 -10977619
L-595238 -11025238
L-690476 -11120476
L-738095 -11215714
L-785714 -11406190
L-785714 -11549047
L-738095 -11739523
L-690476 -11834761
L-595238 -11930000
L-452380 -11977619
L-357142 -11977619
L-214285 -11930000
L-166666 -11882380
" />
<path d="M214285 -11882380
L261904 -11930000
L357142 -11977619
L595238 -11977619
L690476 -11930000
L738095 -11882380
L785714 -11787142
L785714 -11691904
L738095 -11549047
L166666 -10977619
L785714 -10977619
" />
</g><text x="0.000000" y="-5710000.000000"
textLength="2147381.000000" font-size="1333333.000000" lengthAdjust="spacingAndGlyphs"
text-anchor="middle" opacity="0">C4</text>
<g class="stroked-text"><desc>C4</desc>
<path d="M-166666 -5852857
L-214285 -5805238
L-357142 -5757619
L-452380 -5757619
L-595238 -5805238
L-690476 -5900476
L-738095 -5995714
L-785714 -6186190
L-785714 -6329047
L-738095 -6519523
L-690476 -6614761
L-595238 -6710000
L-452380 -6757619
L-357142 -6757619
L-214285 -6710000
L-166666 -6662380
" />
<path d="M690476 -6424285
L690476 -5757619
" />
<path d="M452380 -6805238
L214285 -6090952
L833333 -6090952
" />
</g><text x="0.000000" y="-8220000.000000"
textLength="2147381.000000" font-size="1333333.000000" lengthAdjust="spacingAndGlyphs"
text-anchor="middle" opacity="0">R4</text>
<g class="stroked-text"><desc>R4</desc>
<path d="M-166666 -8267619
L-500000 -8743809
" />
<path d="M-738095 -8267619
L-738095 -9267619
L-357142 -9267619
L-261904 -9220000
L-214285 -9172380
L-166666 -9077142
L-166666 -8934285
L-214285 -8839047
L-261904 -8791428
L-357142 -8743809
L-738095 -8743809
" />
<path d="M690476 -8934285
L690476 -8267619
" />
<path d="M452380 -9315238
L214285 -8600952
L833333 -8600952
" />
</g><text x="10000000.000000" y="-5710000.000000"
textLength="2147381.000000" font-size="1333333.000000" lengthAdjust="spacingAndGlyphs"
text-anchor="middle" opacity="0">D1</text>
<g class="stroked-text"><desc>D1</desc>
<path d="M9261904 -5757619
L9261904 -6757619
L9500000 -6757619
L9642857 -6710000
L9738095 -6614761
L9785714 -6519523
L9833333 -6329047
L9833333 -6186190
L9785714 -5995714
L9738095 -5900476
L9642857 -5805238
L9500000 -5757619
L9261904 -5757619
" />
<path d="M10785714 -5757619
L10214285 -5757619
" />
<path d="M10500000 -5757619
L10500000 -6757619
L10404761 -6614761
L10309523 -6519523
L10214285 -6471904
" />
</g><text x="-5000000.000000" y="-5930000.000000"
textLength="2147381.000000" font-size="1333333.000000" lengthAdjust="spacingAndGlyphs"
text-anchor="middle" opacity="0">R2</text>
<g class="stroked-text"><desc>R2</desc>
<path d="M-5166666 -5977619
L-5500000 -6453809
" />
<path d="M-5738095 -5977619
L-5738095 -6977619
L-5357142 -6977619
L-5261904 -6930000
L-5214285 -6882380
L-5166666 -6787142
L-5166666 -6644285
L-5214285 -6549047
L-5261904 -6501428
L-5357142 -6453809
L-5738095 -6453809
" />
<path d="M-4785714 -6882380
L-4738095 -6930000
L-4642857 -6977619
L-4404761 -6977619
L-4309523 -6930000
L-4261904 -6882380
L-4214285 -6787142
L-4214285 -6691904
L-4261904 -6549047
L-4833333 -5977619
L-4214285 -5977619
" />
</g><text x="-5000000.000000" y="8000000.000000"
textLength="3242619.000000" font-size="1333333.000000" lengthAdjust="spacingAndGlyphs"
text-anchor="middle" opacity="0">SW1</text>
<g class="stroked-text"><desc>SW1</desc>
<path d="M-6333333 7904761
L-6190476 7952380
L-5952380 7952380
L-5857142 7904761
L-5809523 7857142
L-5761904 7761904
L-5761904 7666666
L-5809523 7571428
L-5857142 7523809
L-5952380 7476190
L-6142857 7428571
L-6238095 7380952
L-6285714 7333333
L-6333333 7238095
L-6333333 7142857
L-6285714 7047619
L-6238095 7000000
L-6142857 6952380
L-5904761 6952380
L-5761904 7000000
" />
<path d="M-5428571 6952380
L-5190476 7952380
L-5000000 7238095
L-4809523 7952380
L-4571428 6952380
" />
<path d="M-3666666 7952380
L-4238095 7952380
" />
<path d="M-3952380 7952380
L-3952380 6952380
L-4047619 7095238
L-4142857 7190476
L-4238095 7238095
" />
</g><text x="-825000.000000" y="-10930000.000000"
textLength="2147381.000000" font-size="1333333.000000" lengthAdjust="spacingAndGlyphs"
text-anchor="middle" opacity="0">R3</text>
<g class="stroked-text"><desc>R3</desc>
<path d="M-991666 -10977619
L-1325000 -11453809
" />
<path d="M-1563095 -10977619
L-1563095 -11977619
L-1182142 -11977619
L-1086904 -11930000
L-1039285 -11882380
L-991666 -11787142
L-991666 -11644285
L-1039285 -11549047
L-1086904 -11501428
L-1182142 -11453809
L-1563095 -11453809
" />
<path d="M-658333 -11977619
L-39285 -11977619
L-372619 -11596666
L-229761 -11596666
L-134523 -11549047
L-86904 -11501428
L-39285 -11406190
L-39285 -11168095
L-86904 -11072857
L-134523 -11025238
L-229761 -10977619
L-515476 -10977619
L-610714 -11025238
L-658333 -11072857
" />
</g><text x="-5000000.000000" y="4070000.000000"
textLength="2147381.000000" font-size="1333333.000000" lengthAdjust="spacingAndGlyphs"
text-anchor="middle" opacity="0">R1</text>
<g class="stroked-text"><desc>R1</desc>
<path d="M-5166666 4022380
L-5500000 3546190
" />
<path d="M-5738095 4022380
L-5738095 3022380
L-5357142 3022380
L-5261904 3070000
L-5214285 3117619
L-5166666 3212857
L-5166666 3355714
L-5214285 3450952
L-5261904 3498571
L-5357142 3546190
L-5738095 3546190
" />
<path d="M-4214285 4022380
L-4785714 4022380
" />
<path d="M-4500000 4022380
L-4500000 3022380
L-4595238 3165238
L-4690476 3260476
L-4785714 3308095
" />
</g></g>
<g style="fill:#F2EDA1; fill-opacity:0.0; 
stroke:#F2EDA1; stroke-width:120000.000000; stroke-opacity:1; 
stroke-linecap:round; stroke-linejoin:round;">
<path d="M3670000 -16330000
L5000000 -16330000
" />
<path d="M3670000 -8590000
L6330000 -8590000
" />
<path d="M3670000 -13730000
L6330000 -13730000
" />
<path d="M3670000 -15000000
L3670000 -16330000
" />
<path d="M6330000 -13730000
L6330000 -8590000
" />
<path d="M3670000 -13730000
L3670000 -8590000
" />
<path d="M-5140580 510000
L-4859420 510000
" />
<path d="M-5140580 -510000
L-4859420 -510000
" />
<path d="M-2610000 2610000
L-2610000 2135000
" />
<path d="M2610000 2610000
L2610000 2135000
" />
<path d="M-2135000 -2610000
L-2610000 -2610000
" />
<path d="M2135000 2610000
L2610000 2610000
" />
<path d="M2135000 -2610000
L2610000 -2610000
" />
<path d="M-2135000 2610000
L-2610000 2610000
" />
<path d="M2610000 -2610000
L2610000 -2135000
" />
<path d="M-5140580 -10510000
L-4859420 -10510000
" />
<path d="M-5140580 -9490000
L-4859420 -9490000
" />
<path d="M-140580 -9490000
L140580 -9490000
" />
<path d="M-140580 -10510000
L140580 -10510000
" />
<path d="M-140580 -5290000
L140580 -5290000
" />
<path d="M-140580 -4270000
L140580 -4270000
" />
<path d="M-237258 -6767500
L237258 -6767500
" />
<path d="M-237258 -7812500
L237258 -7812500
" />
<path d="M8515000 -5515000
L8515000 -4045000
" />
<path d="M8515000 -4045000
L10800000 -4045000
" />
<path d="M10800000 -5515000
L8515000 -5515000
" />
<path d="M-5237258 -4477500
L-4762742 -4477500
" />
<path d="M-5237258 -5522500
L-4762742 -5522500
" />
<path d="M-6650000 11400000
L-3350000 11400000
" />
<path d="M-6650000 11100000
L-6650000 11400000
" />
<path d="M-3350000 11400000
L-3350000 11100000
" />
<path d="M-6650000 8600000
L-3350000 8600000
" />
<path d="M-3350000 8600000
L-3350000 8900000
" />
<path d="M-6650000 8900000
L-6650000 8600000
" />
<path d="M-1062258 -10522500
L-587742 -10522500
" />
<path d="M-1062258 -9477500
L-587742 -9477500
" />
<path d="M-5237258 5522500
L-4762742 5522500
" />
<path d="M-5237258 4477500
L-4762742 4477500
" />
<g >
</g>
<g >
</g>
<g >
</g>
<g >
</g>
<g >
</g>
<g >
</g>
<g >
</g>
<g >
</g>
<g >
</g>
<g >
</g>
<g >
</g>
<g >
</g>
<g >
</g>
<g >
</g>
<g >
</g>
<g >
</g>
<g >
</g>
<g >
</g>
</g>
<g style="fill:#000000; fill-opacity:0.0; 
stroke:#000000; stroke-width:120000.000000; stroke-opacity:1; 
stroke-linecap:round; stroke-linejoin:round;">
<g >
</g>
<g >
</g>
<g >
</g>
<g >
</g>
<g >
</g>
<g >
</g>
<g >
</g>
<g >
</g>
<g >
</g>
<g >
</g>
<g >
</g>
<g >
</g>
<g >
</g>
<g >
</g>
<g >
</g>
<g >
</g>
<g >
</g>
<g >
</g>
</g> 
</svg>
