<!DOCTYPE svg PUBLIC "-//W3C//DTD SVG 1.1//EN" "http://www.w3.org/Graphics/SVG/1.1/DTD/svg11.dtd">
<svg xmlns="http://www.w3.org/2000/svg" version="1.1" width="52.0mm" height="52.0mm" viewBox="123460000.0 67580000.0 52000000.0 52000000.0">
            <title>Picture generated by PcbDraw </title>
            <desc>Picture generated by PcbDraw</desc>
        <defs><clipPath id="cut-off"><path d=" M 124460000.0 118580000.0 L 124460000.0 68580000.0 L 174460000.0 68580000.0 L 174460000.0 118580000.0 L 124460000.0 118580000.0 " style="fill-rule: evenodd;"/></clipPath><mask id="pads-mask"><g style="fill:#ffffff; fill-opacity:0.0;  stroke:#ffffff; stroke-width:0.000000; stroke-opacity:1;  stroke-linecap:round; stroke-linejoin:round;">
<g style="fill:#ffffff; fill-opacity:1.0;  stroke:#ffffff; stroke-width:1.000000; stroke-opacity:1;  stroke-linecap:round; stroke-linejoin:round;">
<path style="fill:#ffffff; fill-opacity:1.0;  stroke:#ffffff; stroke-width:1.000000; stroke-opacity:1;  stroke-linecap:round; stroke-linejoin:round;fill-rule:evenodd;" d="M 163310000.000000,93490000.000000 163310000.000000,91790000.000000 165010000.000000,91790000.000000 165010000.000000,93490000.000000 Z"/> 
<circle cx="164160000.000000" cy="95180000.000000" r="850000.000000"/> 
<circle cx="164160000.000000" cy="97720000.000000" r="850000.000000"/> 
</g>
<g style="fill:#ffffff; fill-opacity:1.0;  stroke:#ffffff; stroke-width:1.000000; stroke-opacity:1;  stroke-linecap:round; stroke-linejoin:round;">
<path style="fill:#ffffff; fill-opacity:1.0;  stroke:#ffffff; stroke-width:1.000000; stroke-opacity:1;  stroke-linecap:round; stroke-linejoin:round;fill-rule:evenodd;" d="M 137910000.000000,93490000.000000 137910000.000000,91790000.000000 139610000.000000,91790000.000000 139610000.000000,93490000.000000 Z"/> 
<circle cx="138760000.000000" cy="95180000.000000" r="850000.000000"/> 
<circle cx="138760000.000000" cy="97720000.000000" r="850000.000000"/> 
</g>
</g> 
</mask><mask id="pads-mask-silkscreen"><rect x="124410000" y="68530000" width="51277381" height="50100000" fill="white"/><g style="fill:#000000; fill-opacity:0.0;  stroke:#000000; stroke-width:0.000000; stroke-opacity:1;  stroke-linecap:round; stroke-linejoin:round;">
<g style="fill:#000000; fill-opacity:1.0;  stroke:#000000; stroke-width:1.000000; stroke-opacity:1;  stroke-linecap:round; stroke-linejoin:round;">
<path style="fill:#000000; fill-opacity:1.0;  stroke:#000000; stroke-width:1.000000; stroke-opacity:1;  stroke-linecap:round; stroke-linejoin:round;fill-rule:evenodd;" d="M 163310000.000000,93490000.000000 163310000.000000,91790000.000000 165010000.000000,91790000.000000 165010000.000000,93490000.000000 Z"/> 
<circle cx="164160000.000000" cy="95180000.000000" r="850000.000000"/> 
<circle cx="164160000.000000" cy="97720000.000000" r="850000.000000"/> 
</g>
<g style="fill:#000000; fill-opacity:1.0;  stroke:#000000; stroke-width:1.000000; stroke-opacity:1;  stroke-linecap:round; stroke-linejoin:round;">
<path style="fill:#000000; fill-opacity:1.0;  stroke:#000000; stroke-width:1.000000; stroke-opacity:1;  stroke-linecap:round; stroke-linejoin:round;fill-rule:evenodd;" d="M 137910000.000000,93490000.000000 137910000.000000,91790000.000000 139610000.000000,91790000.000000 139610000.000000,93490000.000000 Z"/> 
<circle cx="138760000.000000" cy="95180000.000000" r="850000.000000"/> 
<circle cx="138760000.000000" cy="97720000.000000" r="850000.000000"/> 
</g>
</g> 
</mask><mask id="hole-mask"><g><rect x="124410000" y="68530000" fill="white" width="51277381" height="50100000"/><polyline stroke-linecap="round" stroke="black" stroke-width="1000000" points="0.0 0 0.0 0" transform="translate(164160000 92640000) rotate(-0.0)"/><polyline stroke-linecap="round" stroke="black" stroke-width="1000000" points="0.0 0 0.0 0" transform="translate(164160000 95180000) rotate(-0.0)"/><polyline stroke-linecap="round" stroke="black" stroke-width="1000000" points="0.0 0 0.0 0" transform="translate(164160000 97720000) rotate(-0.0)"/><polyline stroke-linecap="round" stroke="black" stroke-width="1000000" points="0.0 0 0.0 0" transform="translate(138760000 92640000) rotate(-0.0)"/><polyline stroke-linecap="round" stroke="black" stroke-width="1000000" points="0.0 0 0.0 0" transform="translate(138760000 95180000) rotate(-0.0)"/><polyline stroke-linecap="round" stroke="black" stroke-width="1000000" points="0.0 0 0.0 0" transform="translate(138760000 97720000) rotate(-0.0)"/></g></mask></defs><g transform="" id="boardContainer"><g id="substrate" clip-path="url(#cut-off)" mask="url(#hole-mask)"><g id="substrate-board" style="fill:#4ca06c; stroke:#4ca06c;"><path d=" M 124460000.0 118580000.0 L 124460000.0 68580000.0 L 174460000.0 68580000.0 L 174460000.0 118580000.0 L 124460000.0 118580000.0 " style="fill-rule: evenodd;"/><g style="fill-opacity: 0.0;stroke-width: 100000.000000;stroke-opacity: 1;stroke-linecap: round;stroke-linejoin: round">
<path d="M174460000 118580000 L124460000 118580000 "/>
<path d="M174460000 68580000 L174460000 118580000 "/>
<path d="M124460000 118580000 L124460000 68580000 "/>
<path d="M124460000 68580000 L174460000 68580000 "/>
</g> 
</g><g id="substrate-clad" style="fill:#9c6b28; stroke:#9c6b28;"><g style="fill-opacity: 0.0;stroke-width: 0.000000;stroke-opacity: 1;stroke-linecap: round;stroke-linejoin: round">
<g style="fill-opacity: 1.0;stroke-width: 1.000000;stroke-opacity: 1;stroke-linecap: round;stroke-linejoin: round">
<path style="fill-opacity: 1.0;stroke-width: 1.000000;stroke-opacity: 1;stroke-linecap: round;stroke-linejoin: round;fill-rule: evenodd" d="M 163310000.000000,93490000.000000 163310000.000000,91790000.000000 165010000.000000,91790000.000000 165010000.000000,93490000.000000 Z"/> 
<circle cx="164160000.000000" cy="95180000.000000" r="850000.000000"/> 
<circle cx="164160000.000000" cy="97720000.000000" r="850000.000000"/> 
</g>
<g style="fill-opacity: 1.0;stroke-width: 1.000000;stroke-opacity: 1;stroke-linecap: round;stroke-linejoin: round">
<path style="fill-opacity: 1.0;stroke-width: 1.000000;stroke-opacity: 1;stroke-linecap: round;stroke-linejoin: round;fill-rule: evenodd" d="M 137910000.000000,93490000.000000 137910000.000000,91790000.000000 139610000.000000,91790000.000000 139610000.000000,93490000.000000 Z"/> 
<circle cx="138760000.000000" cy="95180000.000000" r="850000.000000"/> 
<circle cx="138760000.000000" cy="97720000.000000" r="850000.000000"/> 
</g>
</g> 
</g><g id="substrate-copper" style="fill:#417e5a; stroke:#417e5a;"><g style="fill-opacity: 0.0;stroke-width: 0.000000;stroke-opacity: 1;stroke-linecap: round;stroke-linejoin: round">
<g style="fill-opacity: 1.0;stroke-width: 1.000000;stroke-opacity: 1;stroke-linecap: round;stroke-linejoin: round">
<path style="fill-opacity: 1.0;stroke-width: 1.000000;stroke-opacity: 1;stroke-linecap: round;stroke-linejoin: round;fill-rule: evenodd" d="M 163310000.000000,93490000.000000 163310000.000000,91790000.000000 165010000.000000,91790000.000000 165010000.000000,93490000.000000 Z"/> 
<circle cx="164160000.000000" cy="95180000.000000" r="850000.000000"/> 
<circle cx="164160000.000000" cy="97720000.000000" r="850000.000000"/> 
</g>
<g style="fill-opacity: 1.0;stroke-width: 1.000000;stroke-opacity: 1;stroke-linecap: round;stroke-linejoin: round">
<path style="fill-opacity: 1.0;stroke-width: 1.000000;stroke-opacity: 1;stroke-linecap: round;stroke-linejoin: round;fill-rule: evenodd" d="M 137910000.000000,93490000.000000 137910000.000000,91790000.000000 139610000.000000,91790000.000000 139610000.000000,93490000.000000 Z"/> 
<circle cx="138760000.000000" cy="95180000.000000" r="850000.000000"/> 
<circle cx="138760000.000000" cy="97720000.000000" r="850000.000000"/> 
</g>
</g> 
</g><g id="substrate-pads" style="fill:#b5ae30; stroke:#b5ae30;" mask="url(#pads-mask)"><g style="fill-opacity: 0.0;stroke-width: 0.000000;stroke-opacity: 1;stroke-linecap: round;stroke-linejoin: round">
<g style="fill-opacity: 1.0;stroke-width: 1.000000;stroke-opacity: 1;stroke-linecap: round;stroke-linejoin: round">
<path style="fill-opacity: 1.0;stroke-width: 1.000000;stroke-opacity: 1;stroke-linecap: round;stroke-linejoin: round;fill-rule: evenodd" d="M 163310000.000000,93490000.000000 163310000.000000,91790000.000000 165010000.000000,91790000.000000 165010000.000000,93490000.000000 Z"/> 
<circle cx="164160000.000000" cy="95180000.000000" r="850000.000000"/> 
<circle cx="164160000.000000" cy="97720000.000000" r="850000.000000"/> 
</g>
<g style="fill-opacity: 1.0;stroke-width: 1.000000;stroke-opacity: 1;stroke-linecap: round;stroke-linejoin: round">
<path style="fill-opacity: 1.0;stroke-width: 1.000000;stroke-opacity: 1;stroke-linecap: round;stroke-linejoin: round;fill-rule: evenodd" d="M 137910000.000000,93490000.000000 137910000.000000,91790000.000000 139610000.000000,91790000.000000 139610000.000000,93490000.000000 Z"/> 
<circle cx="138760000.000000" cy="95180000.000000" r="850000.000000"/> 
<circle cx="138760000.000000" cy="97720000.000000" r="850000.000000"/> 
</g>
</g> 
</g><g id="substrate-silk" style="fill:#f0f0f0; stroke:#f0f0f0;" mask="url(#pads-mask-silkscreen)"><g style="fill-opacity: 0.0;stroke-width: 150000.000000;stroke-opacity: 1;stroke-linecap: round;stroke-linejoin: round">
<text x="164160000.000000" y="88060000.000000" textLength="2666668.000000" font-size="1333333.000000" lengthAdjust="spacingAndGlyphs" text-anchor="middle" opacity="0">J10</text>
<g class="stroked-text"><desc>J10</desc>
<path d="M163350476 87012380 L163350476 87726666 L163302857 87869523 L163207619 87964761 L163064761 88012380 L162969523 88012380 "/>
<path d="M164350476 88012380 L163779047 88012380 "/>
<path d="M164064761 88012380 L164064761 87012380 L163969523 87155238 L163874285 87250476 L163779047 87298095 "/>
<path d="M164969523 87012380 L165064761 87012380 L165160000 87060000 L165207619 87107619 L165255238 87202857 L165302857 87393333 L165302857 87631428 L165255238 87821904 L165207619 87917142 L165160000 87964761 L165064761 88012380 L164969523 88012380 L164874285 87964761 L164826666 87917142 L164779047 87821904 L164731428 87631428 L164731428 87393333 L164779047 87202857 L164826666 87107619 L164874285 87060000 L164969523 87012380 "/>
</g><text x="138760000.000000" y="90810000.000000" textLength="1909286.000000" font-size="1333333.000000" lengthAdjust="spacingAndGlyphs" text-anchor="middle" opacity="0">J1</text>
<g class="stroked-text"><desc>J1</desc>
<path d="M138426666 89762380 L138426666 90476666 L138379047 90619523 L138283809 90714761 L138140952 90762380 L138045714 90762380 "/>
<path d="M139426666 90762380 L138855238 90762380 "/>
<path d="M139140952 90762380 L139140952 89762380 L139045714 89905238 L138950476 90000476 L138855238 90048095 "/>
</g></g>
<g style="fill-opacity: 0.0;stroke-width: 120000.000000;stroke-opacity: 1;stroke-linecap: round;stroke-linejoin: round">
<path d="M162830000 99050000 L165490000 99050000 "/>
<path d="M162830000 93910000 L162830000 99050000 "/>
<path d="M162830000 92640000 L162830000 91310000 "/>
<path d="M162830000 91310000 L164160000 91310000 "/>
<path d="M165490000 93910000 L165490000 99050000 "/>
<path d="M162830000 93910000 L165490000 93910000 "/>
<path d="M163390000 89330000 L164930000 89330000 "/>
<path d="M164930000 89330000 L164930000 90870000 "/>
<path d="M164930000 90870000 L163390000 90870000 "/>
<path d="M163390000 90870000 L163390000 89330000 "/>
</g>
<g style="fill-opacity: 1.0;stroke-width: 21200.000000;stroke-opacity: 1;stroke-linecap: round;stroke-linejoin: round">
<path style="fill-opacity: 1.0;stroke-width: 21200.000000;stroke-opacity: 1;stroke-linecap: round;stroke-linejoin: round;fill-rule: evenodd" d="M 163390000.000000,89330000.000000 164930000.000000,89330000.000000 164930000.000000,90870000.000000 163390000.000000,90870000.000000 "/> 
</g>
<g style="fill-opacity: 0.0;stroke-width: 120000.000000;stroke-opacity: 1;stroke-linecap: round;stroke-linejoin: round">
<path d="M137430000 99050000 L140090000 99050000 "/>
<path d="M137430000 93910000 L137430000 99050000 "/>
<path d="M140090000 93910000 L140090000 99050000 "/>
<path d="M137430000 91310000 L138760000 91310000 "/>
<path d="M137430000 92640000 L137430000 91310000 "/>
<path d="M137430000 93910000 L140090000 93910000 "/>
</g> 
</g><g id="substrate-outline" style="fill:#000000; stroke:#000000; stroke-width: 150000"><g style="fill-opacity: 0.0;stroke-opacity: 1;stroke-linecap: round;stroke-linejoin: round">
<path d="M174460000 118580000 L124460000 118580000 "/>
<path d="M174460000 68580000 L174460000 118580000 "/>
<path d="M124460000 118580000 L124460000 68580000 "/>
<path d="M124460000 68580000 L174460000 68580000 "/>
</g> 
<path d="M -500000.0 0.0 A 500000.0 500000.0 0 1 1 500000.0 0.0 L 500000.0 0.0 A 500000.0 500000.0 0 1 1 -500000.0 0.0 Z" transform="translate(164160000 92640000) rotate(-0.0)"/><path d="M -500000.0 0.0 A 500000.0 500000.0 0 1 1 500000.0 0.0 L 500000.0 0.0 A 500000.0 500000.0 0 1 1 -500000.0 0.0 Z" transform="translate(164160000 95180000) rotate(-0.0)"/><path d="M -500000.0 0.0 A 500000.0 500000.0 0 1 1 500000.0 0.0 L 500000.0 0.0 A 500000.0 500000.0 0 1 1 -500000.0 0.0 Z" transform="translate(164160000 97720000) rotate(-0.0)"/><path d="M -500000.0 0.0 A 500000.0 500000.0 0 1 1 500000.0 0.0 L 500000.0 0.0 A 500000.0 500000.0 0 1 1 -500000.0 0.0 Z" transform="translate(138760000 92640000) rotate(-0.0)"/><path d="M -500000.0 0.0 A 500000.0 500000.0 0 1 1 500000.0 0.0 L 500000.0 0.0 A 500000.0 500000.0 0 1 1 -500000.0 0.0 Z" transform="translate(138760000 95180000) rotate(-0.0)"/><path d="M -500000.0 0.0 A 500000.0 500000.0 0 1 1 500000.0 0.0 L 500000.0 0.0 A 500000.0 500000.0 0 1 1 -500000.0 0.0 Z" transform="translate(138760000 97720000) rotate(-0.0)"/></g></g></g></svg>