<!DOCTYPE svg PUBLIC "-//W3C//DTD SVG 1.1//EN" "http://www.w3.org/Graphics/SVG/1.1/DTD/svg11.dtd">
<svg xmlns="http://www.w3.org/2000/svg" version="1.1" width="52.0mm" height="52.0mm" viewBox="-175460000.0 67580000.0 52000000.0 52000000.0">
            <title>Picture generated by PcbDraw </title>
            <desc>Picture generated by PcbDraw</desc>
        <defs><clipPath id="cut-off"><path d=" M 124460000.0 118580000.0 L 124460000.0 68580000.0 L 174460000.0 68580000.0 L 174460000.0 118580000.0 L 124460000.0 118580000.0 " style="fill-rule: evenodd;"/></clipPath><mask id="pads-mask"><g style="fill:#ffffff; fill-opacity:0.0;  stroke:#ffffff; stroke-width:0.000000; stroke-opacity:1;  stroke-linecap:round; stroke-linejoin:round;">
<g style="fill:#ffffff; fill-opacity:1.0;  stroke:#ffffff; stroke-width:1.000000; stroke-opacity:1;  stroke-linecap:round; stroke-linejoin:round;">
<path style="fill:#ffffff; fill-opacity:1.0;  stroke:#ffffff; stroke-width:1.000000; stroke-opacity:1;  stroke-linecap:round; stroke-linejoin:round;fill-rule:evenodd;" d="M 163310000.000000,93490000.000000 163310000.000000,91790000.000000 165010000.000000,91790000.000000 165010000.000000,93490000.000000 Z"/> 
<circle cx="164160000.000000" cy="95180000.000000" r="850000.000000"/> 
<circle cx="164160000.000000" cy="97720000.000000" r="850000.000000"/> 
</g>
<g style="fill:#ffffff; fill-opacity:1.0;  stroke:#ffffff; stroke-width:1.000000; stroke-opacity:1;  stroke-linecap:round; stroke-linejoin:round;">
<path style="fill:#ffffff; fill-opacity:1.0;  stroke:#ffffff; stroke-width:1.000000; stroke-opacity:1;  stroke-linecap:round; stroke-linejoin:round;fill-rule:evenodd;" d="M 137910000.000000,93490000.000000 137910000.000000,91790000.000000 139610000.000000,91790000.000000 139610000.000000,93490000.000000 Z"/> 
<circle cx="138760000.000000" cy="95180000.000000" r="850000.000000"/> 
<circle cx="138760000.000000" cy="97720000.000000" r="850000.000000"/> 
</g>
</g> 
</mask><mask id="pads-mask-silkscreen"><rect x="124410000" y="68530000" width="51277381" height="50100000" fill="white"/><g style="fill:#000000; fill-opacity:0.0;  stroke:#000000; stroke-width:0.000000; stroke-opacity:1;  stroke-linecap:round; stroke-linejoin:round;">
<g style="fill:#000000; fill-opacity:1.0;  stroke:#000000; stroke-width:1.000000; stroke-opacity:1;  stroke-linecap:round; stroke-linejoin:round;">
<path style="fill:#000000; fill-opacity:1.0;  stroke:#000000; stroke-width:1.000000; stroke-opacity:1;  stroke-linecap:round; stroke-linejoin:round;fill-rule:evenodd;" d="M 163310000.000000,93490000.000000 163310000.000000,91790000.000000 165010000.000000,91790000.000000 165010000.000000,93490000.000000 Z"/> 
<circle cx="164160000.000000" cy="95180000.000000" r="850000.000000"/> 
<circle cx="164160000.000000" cy="97720000.000000" r="850000.000000"/> 
</g>
<g style="fill:#000000; fill-opacity:1.0;  stroke:#000000; stroke-width:1.000000; stroke-opacity:1;  stroke-linecap:round; stroke-linejoin:round;">
<path style="fill:#000000; fill-opacity:1.0;  stroke:#000000; stroke-width:1.000000; stroke-opacity:1;  stroke-linecap:round; stroke-linejoin:round;fill-rule:evenodd;" d="M 137910000.000000,93490000.000000 137910000.000000,91790000.000000 139610000.000000,91790000.000000 139610000.000000,93490000.000000 Z"/> 
<circle cx="138760000.000000" cy="95180000.000000" r="850000.000000"/> 
<circle cx="138760000.000000" cy="97720000.000000" r="850000.000000"/> 
</g>
</g> 
</mask><mask id="hole-mask"><g><rect x="124410000" y="68530000" fill="white" width="51277381" height="50100000"/><polyline stroke-linecap="round" stroke="black" stroke-width="1000000" points="0.0 0 0.0 0" transform="translate(164160000 92640000) rotate(-0.0)"/><polyline stroke-linecap="round" stroke="black" stroke-width="1000000" points="0.0 0 0.0 0" transform="translate(164160000 95180000) rotate(-0.0)"/><polyline stroke-linecap="round" stroke="black" stroke-width="1000000" points="0.0 0 0.0 0" transform="translate(164160000 97720000) rotate(-0.0)"/><polyline stroke-linecap="round" stroke="black" stroke-width="1000000" points="0.0 0 0.0 0" transform="translate(138760000 92640000) rotate(-0.0)"/><polyline stroke-linecap="round" stroke="black" stroke-width="1000000" points="0.0 0 0.0 0" transform="translate(138760000 95180000) rotate(-0.0)"/><polyline stroke-linecap="round" stroke="black" stroke-width="1000000" points="0.0 0 0.0 0" transform="translate(138760000 97720000) rotate(-0.0)"/></g></mask></defs><g transform="scale(-1,1)" id="boardContainer"><g id="substrate" clip-path="url(#cut-off)" mask="url(#hole-mask)"><g id="substrate-board" style="fill:#4ca06c; stroke:#4ca06c;"><path d=" M 124460000.0 118580000.0 L 124460000.0 68580000.0 L 174460000.0 68580000.0 L 174460000.0 118580000.0 L 124460000.0 118580000.0 " style="fill-rule: evenodd;"/><g style="fill-opacity: 0.0;stroke-width: 100000.000000;stroke-opacity: 1;stroke-linecap: round;stroke-linejoin: round">
<path d="M174460000 118580000 L124460000 118580000 "/>
<path d="M174460000 68580000 L174460000 118580000 "/>
<path d="M124460000 118580000 L124460000 68580000 "/>
<path d="M124460000 68580000 L174460000 68580000 "/>
</g> 
</g><g id="substrate-clad" style="fill:#9c6b28; stroke:#9c6b28;"><g style="fill-opacity: 0.0;stroke-width: 0.000000;stroke-opacity: 1;stroke-linecap: round;stroke-linejoin: round">
<g style="fill-opacity: 1.0;stroke-width: 1.000000;stroke-opacity: 1;stroke-linecap: round;stroke-linejoin: round">
<path style="fill-opacity: 1.0;stroke-width: 1.000000;stroke-opacity: 1;stroke-linecap: round;stroke-linejoin: round;fill-rule: evenodd" d="M 163310000.000000,93490000.000000 163310000.000000,91790000.000000 165010000.000000,91790000.000000 165010000.000000,93490000.000000 Z"/> 
<circle cx="164160000.000000" cy="95180000.000000" r="850000.000000"/> 
<circle cx="164160000.000000" cy="97720000.000000" r="850000.000000"/> 
</g>
<g style="fill-opacity: 1.0;stroke-width: 1.000000;stroke-opacity: 1;stroke-linecap: round;stroke-linejoin: round">
<path style="fill-opacity: 1.0;stroke-width: 1.000000;stroke-opacity: 1;stroke-linecap: round;stroke-linejoin: round;fill-rule: evenodd" d="M 137910000.000000,93490000.000000 137910000.000000,91790000.000000 139610000.000000,91790000.000000 139610000.000000,93490000.000000 Z"/> 
<circle cx="138760000.000000" cy="95180000.000000" r="850000.000000"/> 
<circle cx="138760000.000000" cy="97720000.000000" r="850000.000000"/> 
</g>
</g> 
</g><g id="substrate-copper" style="fill:#417e5a; stroke:#417e5a;"><g style="fill-opacity: 0.0;stroke-width: 0.000000;stroke-opacity: 1;stroke-linecap: round;stroke-linejoin: round">
<g style="fill-opacity: 1.0;stroke-width: 1.000000;stroke-opacity: 1;stroke-linecap: round;stroke-linejoin: round">
<path style="fill-opacity: 1.0;stroke-width: 1.000000;stroke-opacity: 1;stroke-linecap: round;stroke-linejoin: round;fill-rule: evenodd" d="M 163310000.000000,93490000.000000 163310000.000000,91790000.000000 165010000.000000,91790000.000000 165010000.000000,93490000.000000 Z"/> 
<circle cx="164160000.000000" cy="95180000.000000" r="850000.000000"/> 
<circle cx="164160000.000000" cy="97720000.000000" r="850000.000000"/> 
</g>
<g style="fill-opacity: 1.0;stroke-width: 1.000000;stroke-opacity: 1;stroke-linecap: round;stroke-linejoin: round">
<path style="fill-opacity: 1.0;stroke-width: 1.000000;stroke-opacity: 1;stroke-linecap: round;stroke-linejoin: round;fill-rule: evenodd" d="M 137910000.000000,93490000.000000 137910000.000000,91790000.000000 139610000.000000,91790000.000000 139610000.000000,93490000.000000 Z"/> 
<circle cx="138760000.000000" cy="95180000.000000" r="850000.000000"/> 
<circle cx="138760000.000000" cy="97720000.000000" r="850000.000000"/> 
</g>
</g> 
</g><g id="substrate-pads" style="fill:#b5ae30; stroke:#b5ae30;" mask="url(#pads-mask)"><g style="fill-opacity: 0.0;stroke-width: 0.000000;stroke-opacity: 1;stroke-linecap: round;stroke-linejoin: round">
<g style="fill-opacity: 1.0;stroke-width: 1.000000;stroke-opacity: 1;stroke-linecap: round;stroke-linejoin: round">
<path style="fill-opacity: 1.0;stroke-width: 1.000000;stroke-opacity: 1;stroke-linecap: round;stroke-linejoin: round;fill-rule: evenodd" d="M 163310000.000000,93490000.000000 163310000.000000,91790000.000000 165010000.000000,91790000.000000 165010000.000000,93490000.000000 Z"/> 
<circle cx="164160000.000000" cy="95180000.000000" r="850000.000000"/> 
<circle cx="164160000.000000" cy="97720000.000000" r="850000.000000"/> 
</g>
<g style="fill-opacity: 1.0;stroke-width: 1.000000;stroke-opacity: 1;stroke-linecap: round;stroke-linejoin: round">
<path style="fill-opacity: 1.0;stroke-width: 1.000000;stroke-opacity: 1;stroke-linecap: round;stroke-linejoin: round;fill-rule: evenodd" d="M 137910000.000000,93490000.000000 137910000.000000,91790000.000000 139610000.000000,91790000.000000 139610000.000000,93490000.000000 Z"/> 
<circle cx="138760000.000000" cy="95180000.000000" r="850000.000000"/> 
<circle cx="138760000.000000" cy="97720000.000000" r="850000.000000"/> 
</g>
</g> 
</g><g id="substrate-outline" style="fill:#000000; stroke:#000000; stroke-width: 150000"><g style="fill-opacity: 0.0;stroke-opacity: 1;stroke-linecap: round;stroke-linejoin: round">
<path d="M174460000 118580000 L124460000 118580000 "/>
<path d="M174460000 68580000 L174460000 118580000 "/>
<path d="M124460000 118580000 L124460000 68580000 "/>
<path d="M124460000 68580000 L174460000 68580000 "/>
</g> 
<path d="M -500000.0 0.0 A 500000.0 500000.0 0 1 1 500000.0 0.0 L 500000.0 0.0 A 500000.0 500000.0 0 1 1 -500000.0 0.0 Z" transform="translate(164160000 92640000) rotate(-0.0)"/><path d="M -500000.0 0.0 A 500000.0 500000.0 0 1 1 500000.0 0.0 L 500000.0 0.0 A 500000.0 500000.0 0 1 1 -500000.0 0.0 Z" transform="translate(164160000 95180000) rotate(-0.0)"/><path d="M -500000.0 0.0 A 500000.0 500000.0 0 1 1 500000.0 0.0 L 500000.0 0.0 A 500000.0 500000.0 0 1 1 -500000.0 0.0 Z" transform="translate(164160000 97720000) rotate(-0.0)"/><path d="M -500000.0 0.0 A 500000.0 500000.0 0 1 1 500000.0 0.0 L 500000.0 0.0 A 500000.0 500000.0 0 1 1 -500000.0 0.0 Z" transform="translate(138760000 92640000) rotate(-0.0)"/><path d="M -500000.0 0.0 A 500000.0 500000.0 0 1 1 500000.0 0.0 L 500000.0 0.0 A 500000.0 500000.0 0 1 1 -500000.0 0.0 Z" transform="translate(138760000 95180000) rotate(-0.0)"/><path d="M -500000.0 0.0 A 500000.0 500000.0 0 1 1 500000.0 0.0 L 500000.0 0.0 A 500000.0 500000.0 0 1 1 -500000.0 0.0 Z" transform="translate(138760000 97720000) rotate(-0.0)"/></g></g></g></svg>