<!DOCTYPE svg PUBLIC "-//W3C//DTD SVG 1.1//EN" "http://www.w3.org/Graphics/SVG/1.1/DTD/svg11.dtd">
<svg xmlns="http://www.w3.org/2000/svg" version="1.1" width="152.0mm" height="102.0mm" viewBox="-225700000.0 52260000.0 152000000.0 102000000.0">
            <title>Picture generated by PcbDraw </title>
            <desc>Picture generated by PcbDraw</desc>
        <defs><clipPath id="cut-off"><path d=" M 224700000.0 53260000.0 L 224700000.0 153260000.0 L 74700000.0 153260000.0 L 74700000.0 53260000.0 L 224700000.0 53260000.0 " style="fill-rule: evenodd;"/></clipPath><mask id="pads-mask"><g style="fill:#ffffff; fill-opacity:0.0;  stroke:#ffffff; stroke-width:0.000000; stroke-opacity:1;  stroke-linecap:round; stroke-linejoin:round;">
<g style="fill:#ffffff; fill-opacity:1.0;  stroke:#ffffff; stroke-width:1.000000; stroke-opacity:1;  stroke-linecap:round; stroke-linejoin:round;">
<path style="fill:#ffffff; fill-opacity:1.0;  stroke:#ffffff; stroke-width:1.000000; stroke-opacity:1;  stroke-linecap:round; stroke-linejoin:round;fill-rule:evenodd;" d="M 168462705.000000,81665000.000000 168462705.000000,79965000.000000 170162705.000000,79965000.000000 170162705.000000,81665000.000000 Z"/> 
<circle cx="169312705.000000" cy="83355000.000000" r="850000.000000"/> 
<circle cx="169312705.000000" cy="85895000.000000" r="850000.000000"/> 
<circle cx="169312705.000000" cy="88435000.000000" r="850000.000000"/> 
<circle cx="169312705.000000" cy="90975000.000000" r="850000.000000"/> 
<circle cx="169312705.000000" cy="93515000.000000" r="850000.000000"/> 
<circle cx="169312705.000000" cy="96055000.000000" r="850000.000000"/> 
<circle cx="169312705.000000" cy="98595000.000000" r="850000.000000"/> 
<circle cx="169312705.000000" cy="101135000.000000" r="850000.000000"/> 
<circle cx="169312705.000000" cy="103675000.000000" r="850000.000000"/> 
<circle cx="169312705.000000" cy="106215000.000000" r="850000.000000"/> 
<circle cx="169312705.000000" cy="108755000.000000" r="850000.000000"/> 
<circle cx="169312705.000000" cy="111295000.000000" r="850000.000000"/> 
<circle cx="169312705.000000" cy="113835000.000000" r="850000.000000"/> 
<circle cx="169312705.000000" cy="116375000.000000" r="850000.000000"/> 
<circle cx="169312705.000000" cy="118915000.000000" r="850000.000000"/> 
<circle cx="169312705.000000" cy="121455000.000000" r="850000.000000"/> 
<circle cx="169312705.000000" cy="123995000.000000" r="850000.000000"/> 
<circle cx="169312705.000000" cy="126535000.000000" r="850000.000000"/> 
<circle cx="169312705.000000" cy="129075000.000000" r="850000.000000"/> 
<circle cx="188342705.000000" cy="129070000.000000" r="850000.000000"/> 
<circle cx="188342705.000000" cy="126530000.000000" r="850000.000000"/> 
<circle cx="188342705.000000" cy="123990000.000000" r="850000.000000"/> 
<circle cx="188342705.000000" cy="121450000.000000" r="850000.000000"/> 
<circle cx="188342705.000000" cy="118910000.000000" r="850000.000000"/> 
<circle cx="188342705.000000" cy="116370000.000000" r="850000.000000"/> 
<circle cx="188342705.000000" cy="113830000.000000" r="850000.000000"/> 
<circle cx="188342705.000000" cy="111290000.000000" r="850000.000000"/> 
<circle cx="188342705.000000" cy="108750000.000000" r="850000.000000"/> 
<circle cx="188342705.000000" cy="106210000.000000" r="850000.000000"/> 
<circle cx="188342705.000000" cy="103670000.000000" r="850000.000000"/> 
<circle cx="188342705.000000" cy="101135000.000000" r="850000.000000"/> 
<circle cx="188342705.000000" cy="98595000.000000" r="850000.000000"/> 
<circle cx="188342705.000000" cy="96055000.000000" r="850000.000000"/> 
<circle cx="188342705.000000" cy="93515000.000000" r="850000.000000"/> 
<circle cx="188342705.000000" cy="90975000.000000" r="850000.000000"/> 
<circle cx="188342705.000000" cy="88435000.000000" r="850000.000000"/> 
<circle cx="188342705.000000" cy="85895000.000000" r="850000.000000"/> 
<circle cx="188342705.000000" cy="83355000.000000" r="850000.000000"/> 
<path style="fill:#ffffff; fill-opacity:1.0;  stroke:#ffffff; stroke-width:1.000000; stroke-opacity:1;  stroke-linecap:round; stroke-linejoin:round;fill-rule:evenodd;" d="M 187492705.000000,81665000.000000 187492705.000000,79965000.000000 189192705.000000,79965000.000000 189192705.000000,81665000.000000 Z"/> 
</g>
<g style="fill:#ffffff; fill-opacity:1.0;  stroke:#ffffff; stroke-width:1.000000; stroke-opacity:1;  stroke-linecap:round; stroke-linejoin:round;">
<path style="fill:#ffffff; fill-opacity:1.0;  stroke:#ffffff; stroke-width:1.000000; stroke-opacity:1;  stroke-linecap:round; stroke-linejoin:round;fill-rule:evenodd;" d="M 137800000.000000,81660000.000000 137800000.000000,79960000.000000 139500000.000000,79960000.000000 139500000.000000,81660000.000000 Z"/> 
<circle cx="138650000.000000" cy="83350000.000000" r="850000.000000"/> 
<circle cx="138650000.000000" cy="85890000.000000" r="850000.000000"/> 
<circle cx="138650000.000000" cy="88430000.000000" r="850000.000000"/> 
<circle cx="138650000.000000" cy="90970000.000000" r="850000.000000"/> 
<circle cx="138650000.000000" cy="93510000.000000" r="850000.000000"/> 
<circle cx="138650000.000000" cy="96050000.000000" r="850000.000000"/> 
<circle cx="138650000.000000" cy="98590000.000000" r="850000.000000"/> 
<circle cx="138650000.000000" cy="101130000.000000" r="850000.000000"/> 
<circle cx="138650000.000000" cy="103670000.000000" r="850000.000000"/> 
<circle cx="138650000.000000" cy="106210000.000000" r="850000.000000"/> 
<circle cx="138650000.000000" cy="108750000.000000" r="850000.000000"/> 
<circle cx="138650000.000000" cy="111290000.000000" r="850000.000000"/> 
<circle cx="138650000.000000" cy="113830000.000000" r="850000.000000"/> 
<circle cx="138650000.000000" cy="116370000.000000" r="850000.000000"/> 
<circle cx="138650000.000000" cy="118910000.000000" r="850000.000000"/> 
<circle cx="138650000.000000" cy="121450000.000000" r="850000.000000"/> 
<circle cx="138650000.000000" cy="123990000.000000" r="850000.000000"/> 
<circle cx="138650000.000000" cy="126530000.000000" r="850000.000000"/> 
<circle cx="138650000.000000" cy="129070000.000000" r="850000.000000"/> 
</g>
<g style="fill:#ffffff; fill-opacity:1.0;  stroke:#ffffff; stroke-width:1.000000; stroke-opacity:1;  stroke-linecap:round; stroke-linejoin:round;">
<path style="fill:#ffffff; fill-opacity:1.0;  stroke:#ffffff; stroke-width:1.000000; stroke-opacity:1;  stroke-linecap:round; stroke-linejoin:round;fill-rule:evenodd;" d="M 118770000.000000,81660000.000000 118770000.000000,79960000.000000 120470000.000000,79960000.000000 120470000.000000,81660000.000000 Z"/> 
<circle cx="119620000.000000" cy="83350000.000000" r="850000.000000"/> 
<circle cx="119620000.000000" cy="85890000.000000" r="850000.000000"/> 
<circle cx="119620000.000000" cy="88430000.000000" r="850000.000000"/> 
<circle cx="119620000.000000" cy="90970000.000000" r="850000.000000"/> 
<circle cx="119620000.000000" cy="93510000.000000" r="850000.000000"/> 
<circle cx="119620000.000000" cy="96050000.000000" r="850000.000000"/> 
<circle cx="119620000.000000" cy="98590000.000000" r="850000.000000"/> 
<circle cx="119620000.000000" cy="101130000.000000" r="850000.000000"/> 
<circle cx="119620000.000000" cy="103670000.000000" r="850000.000000"/> 
<circle cx="119620000.000000" cy="106210000.000000" r="850000.000000"/> 
<circle cx="119620000.000000" cy="108750000.000000" r="850000.000000"/> 
<circle cx="119620000.000000" cy="111290000.000000" r="850000.000000"/> 
<circle cx="119620000.000000" cy="113830000.000000" r="850000.000000"/> 
<circle cx="119620000.000000" cy="116370000.000000" r="850000.000000"/> 
<circle cx="119620000.000000" cy="118910000.000000" r="850000.000000"/> 
<circle cx="119620000.000000" cy="121450000.000000" r="850000.000000"/> 
<circle cx="119620000.000000" cy="123990000.000000" r="850000.000000"/> 
<circle cx="119620000.000000" cy="126530000.000000" r="850000.000000"/> 
<circle cx="119620000.000000" cy="129070000.000000" r="850000.000000"/> 
</g>
</g> 
</mask><mask id="pads-mask-silkscreen"><rect x="74650000" y="53210000" width="150100000" height="100100000" fill="white"/><g style="fill:#000000; fill-opacity:0.0;  stroke:#000000; stroke-width:0.000000; stroke-opacity:1;  stroke-linecap:round; stroke-linejoin:round;">
<g style="fill:#000000; fill-opacity:1.0;  stroke:#000000; stroke-width:1.000000; stroke-opacity:1;  stroke-linecap:round; stroke-linejoin:round;">
<path style="fill:#000000; fill-opacity:1.0;  stroke:#000000; stroke-width:1.000000; stroke-opacity:1;  stroke-linecap:round; stroke-linejoin:round;fill-rule:evenodd;" d="M 168462705.000000,81665000.000000 168462705.000000,79965000.000000 170162705.000000,79965000.000000 170162705.000000,81665000.000000 Z"/> 
<circle cx="169312705.000000" cy="83355000.000000" r="850000.000000"/> 
<circle cx="169312705.000000" cy="85895000.000000" r="850000.000000"/> 
<circle cx="169312705.000000" cy="88435000.000000" r="850000.000000"/> 
<circle cx="169312705.000000" cy="90975000.000000" r="850000.000000"/> 
<circle cx="169312705.000000" cy="93515000.000000" r="850000.000000"/> 
<circle cx="169312705.000000" cy="96055000.000000" r="850000.000000"/> 
<circle cx="169312705.000000" cy="98595000.000000" r="850000.000000"/> 
<circle cx="169312705.000000" cy="101135000.000000" r="850000.000000"/> 
<circle cx="169312705.000000" cy="103675000.000000" r="850000.000000"/> 
<circle cx="169312705.000000" cy="106215000.000000" r="850000.000000"/> 
<circle cx="169312705.000000" cy="108755000.000000" r="850000.000000"/> 
<circle cx="169312705.000000" cy="111295000.000000" r="850000.000000"/> 
<circle cx="169312705.000000" cy="113835000.000000" r="850000.000000"/> 
<circle cx="169312705.000000" cy="116375000.000000" r="850000.000000"/> 
<circle cx="169312705.000000" cy="118915000.000000" r="850000.000000"/> 
<circle cx="169312705.000000" cy="121455000.000000" r="850000.000000"/> 
<circle cx="169312705.000000" cy="123995000.000000" r="850000.000000"/> 
<circle cx="169312705.000000" cy="126535000.000000" r="850000.000000"/> 
<circle cx="169312705.000000" cy="129075000.000000" r="850000.000000"/> 
<circle cx="188342705.000000" cy="129070000.000000" r="850000.000000"/> 
<circle cx="188342705.000000" cy="126530000.000000" r="850000.000000"/> 
<circle cx="188342705.000000" cy="123990000.000000" r="850000.000000"/> 
<circle cx="188342705.000000" cy="121450000.000000" r="850000.000000"/> 
<circle cx="188342705.000000" cy="118910000.000000" r="850000.000000"/> 
<circle cx="188342705.000000" cy="116370000.000000" r="850000.000000"/> 
<circle cx="188342705.000000" cy="113830000.000000" r="850000.000000"/> 
<circle cx="188342705.000000" cy="111290000.000000" r="850000.000000"/> 
<circle cx="188342705.000000" cy="108750000.000000" r="850000.000000"/> 
<circle cx="188342705.000000" cy="106210000.000000" r="850000.000000"/> 
<circle cx="188342705.000000" cy="103670000.000000" r="850000.000000"/> 
<circle cx="188342705.000000" cy="101135000.000000" r="850000.000000"/> 
<circle cx="188342705.000000" cy="98595000.000000" r="850000.000000"/> 
<circle cx="188342705.000000" cy="96055000.000000" r="850000.000000"/> 
<circle cx="188342705.000000" cy="93515000.000000" r="850000.000000"/> 
<circle cx="188342705.000000" cy="90975000.000000" r="850000.000000"/> 
<circle cx="188342705.000000" cy="88435000.000000" r="850000.000000"/> 
<circle cx="188342705.000000" cy="85895000.000000" r="850000.000000"/> 
<circle cx="188342705.000000" cy="83355000.000000" r="850000.000000"/> 
<path style="fill:#000000; fill-opacity:1.0;  stroke:#000000; stroke-width:1.000000; stroke-opacity:1;  stroke-linecap:round; stroke-linejoin:round;fill-rule:evenodd;" d="M 187492705.000000,81665000.000000 187492705.000000,79965000.000000 189192705.000000,79965000.000000 189192705.000000,81665000.000000 Z"/> 
</g>
<g style="fill:#000000; fill-opacity:1.0;  stroke:#000000; stroke-width:1.000000; stroke-opacity:1;  stroke-linecap:round; stroke-linejoin:round;">
<path style="fill:#000000; fill-opacity:1.0;  stroke:#000000; stroke-width:1.000000; stroke-opacity:1;  stroke-linecap:round; stroke-linejoin:round;fill-rule:evenodd;" d="M 137800000.000000,81660000.000000 137800000.000000,79960000.000000 139500000.000000,79960000.000000 139500000.000000,81660000.000000 Z"/> 
<circle cx="138650000.000000" cy="83350000.000000" r="850000.000000"/> 
<circle cx="138650000.000000" cy="85890000.000000" r="850000.000000"/> 
<circle cx="138650000.000000" cy="88430000.000000" r="850000.000000"/> 
<circle cx="138650000.000000" cy="90970000.000000" r="850000.000000"/> 
<circle cx="138650000.000000" cy="93510000.000000" r="850000.000000"/> 
<circle cx="138650000.000000" cy="96050000.000000" r="850000.000000"/> 
<circle cx="138650000.000000" cy="98590000.000000" r="850000.000000"/> 
<circle cx="138650000.000000" cy="101130000.000000" r="850000.000000"/> 
<circle cx="138650000.000000" cy="103670000.000000" r="850000.000000"/> 
<circle cx="138650000.000000" cy="106210000.000000" r="850000.000000"/> 
<circle cx="138650000.000000" cy="108750000.000000" r="850000.000000"/> 
<circle cx="138650000.000000" cy="111290000.000000" r="850000.000000"/> 
<circle cx="138650000.000000" cy="113830000.000000" r="850000.000000"/> 
<circle cx="138650000.000000" cy="116370000.000000" r="850000.000000"/> 
<circle cx="138650000.000000" cy="118910000.000000" r="850000.000000"/> 
<circle cx="138650000.000000" cy="121450000.000000" r="850000.000000"/> 
<circle cx="138650000.000000" cy="123990000.000000" r="850000.000000"/> 
<circle cx="138650000.000000" cy="126530000.000000" r="850000.000000"/> 
<circle cx="138650000.000000" cy="129070000.000000" r="850000.000000"/> 
</g>
<g style="fill:#000000; fill-opacity:1.0;  stroke:#000000; stroke-width:1.000000; stroke-opacity:1;  stroke-linecap:round; stroke-linejoin:round;">
<path style="fill:#000000; fill-opacity:1.0;  stroke:#000000; stroke-width:1.000000; stroke-opacity:1;  stroke-linecap:round; stroke-linejoin:round;fill-rule:evenodd;" d="M 118770000.000000,81660000.000000 118770000.000000,79960000.000000 120470000.000000,79960000.000000 120470000.000000,81660000.000000 Z"/> 
<circle cx="119620000.000000" cy="83350000.000000" r="850000.000000"/> 
<circle cx="119620000.000000" cy="85890000.000000" r="850000.000000"/> 
<circle cx="119620000.000000" cy="88430000.000000" r="850000.000000"/> 
<circle cx="119620000.000000" cy="90970000.000000" r="850000.000000"/> 
<circle cx="119620000.000000" cy="93510000.000000" r="850000.000000"/> 
<circle cx="119620000.000000" cy="96050000.000000" r="850000.000000"/> 
<circle cx="119620000.000000" cy="98590000.000000" r="850000.000000"/> 
<circle cx="119620000.000000" cy="101130000.000000" r="850000.000000"/> 
<circle cx="119620000.000000" cy="103670000.000000" r="850000.000000"/> 
<circle cx="119620000.000000" cy="106210000.000000" r="850000.000000"/> 
<circle cx="119620000.000000" cy="108750000.000000" r="850000.000000"/> 
<circle cx="119620000.000000" cy="111290000.000000" r="850000.000000"/> 
<circle cx="119620000.000000" cy="113830000.000000" r="850000.000000"/> 
<circle cx="119620000.000000" cy="116370000.000000" r="850000.000000"/> 
<circle cx="119620000.000000" cy="118910000.000000" r="850000.000000"/> 
<circle cx="119620000.000000" cy="121450000.000000" r="850000.000000"/> 
<circle cx="119620000.000000" cy="123990000.000000" r="850000.000000"/> 
<circle cx="119620000.000000" cy="126530000.000000" r="850000.000000"/> 
<circle cx="119620000.000000" cy="129070000.000000" r="850000.000000"/> 
</g>
</g> 
</mask><mask id="hole-mask"><g><rect x="74650000" y="53210000" fill="white" width="150100000" height="100100000"/><polyline stroke-linecap="round" stroke="black" stroke-width="1000000" points="0.0 0 0.0 0" transform="translate(169312705 80815000) rotate(-0.0)"/><polyline stroke-linecap="round" stroke="black" stroke-width="1000000" points="0.0 0 0.0 0" transform="translate(169312705 83355000) rotate(-0.0)"/><polyline stroke-linecap="round" stroke="black" stroke-width="1000000" points="0.0 0 0.0 0" transform="translate(169312705 85895000) rotate(-0.0)"/><polyline stroke-linecap="round" stroke="black" stroke-width="1000000" points="0.0 0 0.0 0" transform="translate(169312705 88435000) rotate(-0.0)"/><polyline stroke-linecap="round" stroke="black" stroke-width="1000000" points="0.0 0 0.0 0" transform="translate(169312705 90975000) rotate(-0.0)"/><polyline stroke-linecap="round" stroke="black" stroke-width="1000000" points="0.0 0 0.0 0" transform="translate(169312705 93515000) rotate(-0.0)"/><polyline stroke-linecap="round" stroke="black" stroke-width="1000000" points="0.0 0 0.0 0" transform="translate(169312705 96055000) rotate(-0.0)"/><polyline stroke-linecap="round" stroke="black" stroke-width="1000000" points="0.0 0 0.0 0" transform="translate(169312705 98595000) rotate(-0.0)"/><polyline stroke-linecap="round" stroke="black" stroke-width="1000000" points="0.0 0 0.0 0" transform="translate(169312705 101135000) rotate(-0.0)"/><polyline stroke-linecap="round" stroke="black" stroke-width="1000000" points="0.0 0 0.0 0" transform="translate(169312705 103675000) rotate(-0.0)"/><polyline stroke-linecap="round" stroke="black" stroke-width="1000000" points="0.0 0 0.0 0" transform="translate(169312705 106215000) rotate(-0.0)"/><polyline stroke-linecap="round" stroke="black" stroke-width="1000000" points="0.0 0 0.0 0" transform="translate(169312705 108755000) rotate(-0.0)"/><polyline stroke-linecap="round" stroke="black" stroke-width="1000000" points="0.0 0 0.0 0" transform="translate(169312705 111295000) rotate(-0.0)"/><polyline stroke-linecap="round" stroke="black" stroke-width="1000000" points="0.0 0 0.0 0" transform="translate(169312705 113835000) rotate(-0.0)"/><polyline stroke-linecap="round" stroke="black" stroke-width="1000000" points="0.0 0 0.0 0" transform="translate(169312705 116375000) rotate(-0.0)"/><polyline stroke-linecap="round" stroke="black" stroke-width="1000000" points="0.0 0 0.0 0" transform="translate(169312705 118915000) rotate(-0.0)"/><polyline stroke-linecap="round" stroke="black" stroke-width="1000000" points="0.0 0 0.0 0" transform="translate(169312705 121455000) rotate(-0.0)"/><polyline stroke-linecap="round" stroke="black" stroke-width="1000000" points="0.0 0 0.0 0" transform="translate(169312705 123995000) rotate(-0.0)"/><polyline stroke-linecap="round" stroke="black" stroke-width="1000000" points="0.0 0 0.0 0" transform="translate(169312705 126535000) rotate(-0.0)"/><polyline stroke-linecap="round" stroke="black" stroke-width="1000000" points="0.0 0 0.0 0" transform="translate(169312705 129075000) rotate(-0.0)"/><polyline stroke-linecap="round" stroke="black" stroke-width="1000000" points="0.0 0 0.0 0" transform="translate(188342705 129070000) rotate(-0.0)"/><polyline stroke-linecap="round" stroke="black" stroke-width="1000000" points="0.0 0 0.0 0" transform="translate(188342705 126530000) rotate(-0.0)"/><polyline stroke-linecap="round" stroke="black" stroke-width="1000000" points="0.0 0 0.0 0" transform="translate(188342705 123990000) rotate(-0.0)"/><polyline stroke-linecap="round" stroke="black" stroke-width="1000000" points="0.0 0 0.0 0" transform="translate(188342705 121450000) rotate(-0.0)"/><polyline stroke-linecap="round" stroke="black" stroke-width="1000000" points="0.0 0 0.0 0" transform="translate(188342705 118910000) rotate(-0.0)"/><polyline stroke-linecap="round" stroke="black" stroke-width="1000000" points="0.0 0 0.0 0" transform="translate(188342705 116370000) rotate(-0.0)"/><polyline stroke-linecap="round" stroke="black" stroke-width="1000000" points="0.0 0 0.0 0" transform="translate(188342705 113830000) rotate(-0.0)"/><polyline stroke-linecap="round" stroke="black" stroke-width="1000000" points="0.0 0 0.0 0" transform="translate(188342705 111290000) rotate(-0.0)"/><polyline stroke-linecap="round" stroke="black" stroke-width="1000000" points="0.0 0 0.0 0" transform="translate(188342705 108750000) rotate(-0.0)"/><polyline stroke-linecap="round" stroke="black" stroke-width="1000000" points="0.0 0 0.0 0" transform="translate(188342705 106210000) rotate(-0.0)"/><polyline stroke-linecap="round" stroke="black" stroke-width="1000000" points="0.0 0 0.0 0" transform="translate(188342705 103670000) rotate(-0.0)"/><polyline stroke-linecap="round" stroke="black" stroke-width="1000000" points="0.0 0 0.0 0" transform="translate(188342705 101135000) rotate(-0.0)"/><polyline stroke-linecap="round" stroke="black" stroke-width="1000000" points="0.0 0 0.0 0" transform="translate(188342705 98595000) rotate(-0.0)"/><polyline stroke-linecap="round" stroke="black" stroke-width="1000000" points="0.0 0 0.0 0" transform="translate(188342705 96055000) rotate(-0.0)"/><polyline stroke-linecap="round" stroke="black" stroke-width="1000000" points="0.0 0 0.0 0" transform="translate(188342705 93515000) rotate(-0.0)"/><polyline stroke-linecap="round" stroke="black" stroke-width="1000000" points="0.0 0 0.0 0" transform="translate(188342705 90975000) rotate(-0.0)"/><polyline stroke-linecap="round" stroke="black" stroke-width="1000000" points="0.0 0 0.0 0" transform="translate(188342705 88435000) rotate(-0.0)"/><polyline stroke-linecap="round" stroke="black" stroke-width="1000000" points="0.0 0 0.0 0" transform="translate(188342705 85895000) rotate(-0.0)"/><polyline stroke-linecap="round" stroke="black" stroke-width="1000000" points="0.0 0 0.0 0" transform="translate(188342705 83355000) rotate(-0.0)"/><polyline stroke-linecap="round" stroke="black" stroke-width="1000000" points="0.0 0 0.0 0" transform="translate(188342705 80815000) rotate(-0.0)"/><polyline stroke-linecap="round" stroke="black" stroke-width="1000000" points="0.0 0 0.0 0" transform="translate(138650000 80810000) rotate(-0.0)"/><polyline stroke-linecap="round" stroke="black" stroke-width="1000000" points="0.0 0 0.0 0" transform="translate(138650000 83350000) rotate(-0.0)"/><polyline stroke-linecap="round" stroke="black" stroke-width="1000000" points="0.0 0 0.0 0" transform="translate(138650000 85890000) rotate(-0.0)"/><polyline stroke-linecap="round" stroke="black" stroke-width="1000000" points="0.0 0 0.0 0" transform="translate(138650000 88430000) rotate(-0.0)"/><polyline stroke-linecap="round" stroke="black" stroke-width="1000000" points="0.0 0 0.0 0" transform="translate(138650000 90970000) rotate(-0.0)"/><polyline stroke-linecap="round" stroke="black" stroke-width="1000000" points="0.0 0 0.0 0" transform="translate(138650000 93510000) rotate(-0.0)"/><polyline stroke-linecap="round" stroke="black" stroke-width="1000000" points="0.0 0 0.0 0" transform="translate(138650000 96050000) rotate(-0.0)"/><polyline stroke-linecap="round" stroke="black" stroke-width="1000000" points="0.0 0 0.0 0" transform="translate(138650000 98590000) rotate(-0.0)"/><polyline stroke-linecap="round" stroke="black" stroke-width="1000000" points="0.0 0 0.0 0" transform="translate(138650000 101130000) rotate(-0.0)"/><polyline stroke-linecap="round" stroke="black" stroke-width="1000000" points="0.0 0 0.0 0" transform="translate(138650000 103670000) rotate(-0.0)"/><polyline stroke-linecap="round" stroke="black" stroke-width="1000000" points="0.0 0 0.0 0" transform="translate(138650000 106210000) rotate(-0.0)"/><polyline stroke-linecap="round" stroke="black" stroke-width="1000000" points="0.0 0 0.0 0" transform="translate(138650000 108750000) rotate(-0.0)"/><polyline stroke-linecap="round" stroke="black" stroke-width="1000000" points="0.0 0 0.0 0" transform="translate(138650000 111290000) rotate(-0.0)"/><polyline stroke-linecap="round" stroke="black" stroke-width="1000000" points="0.0 0 0.0 0" transform="translate(138650000 113830000) rotate(-0.0)"/><polyline stroke-linecap="round" stroke="black" stroke-width="1000000" points="0.0 0 0.0 0" transform="translate(138650000 116370000) rotate(-0.0)"/><polyline stroke-linecap="round" stroke="black" stroke-width="1000000" points="0.0 0 0.0 0" transform="translate(138650000 118910000) rotate(-0.0)"/><polyline stroke-linecap="round" stroke="black" stroke-width="1000000" points="0.0 0 0.0 0" transform="translate(138650000 121450000) rotate(-0.0)"/><polyline stroke-linecap="round" stroke="black" stroke-width="1000000" points="0.0 0 0.0 0" transform="translate(138650000 123990000) rotate(-0.0)"/><polyline stroke-linecap="round" stroke="black" stroke-width="1000000" points="0.0 0 0.0 0" transform="translate(138650000 126530000) rotate(-0.0)"/><polyline stroke-linecap="round" stroke="black" stroke-width="1000000" points="0.0 0 0.0 0" transform="translate(138650000 129070000) rotate(-0.0)"/><polyline stroke-linecap="round" stroke="black" stroke-width="1000000" points="0.0 0 0.0 0" transform="translate(119620000 80810000) rotate(-0.0)"/><polyline stroke-linecap="round" stroke="black" stroke-width="1000000" points="0.0 0 0.0 0" transform="translate(119620000 83350000) rotate(-0.0)"/><polyline stroke-linecap="round" stroke="black" stroke-width="1000000" points="0.0 0 0.0 0" transform="translate(119620000 85890000) rotate(-0.0)"/><polyline stroke-linecap="round" stroke="black" stroke-width="1000000" points="0.0 0 0.0 0" transform="translate(119620000 88430000) rotate(-0.0)"/><polyline stroke-linecap="round" stroke="black" stroke-width="1000000" points="0.0 0 0.0 0" transform="translate(119620000 90970000) rotate(-0.0)"/><polyline stroke-linecap="round" stroke="black" stroke-width="1000000" points="0.0 0 0.0 0" transform="translate(119620000 93510000) rotate(-0.0)"/><polyline stroke-linecap="round" stroke="black" stroke-width="1000000" points="0.0 0 0.0 0" transform="translate(119620000 96050000) rotate(-0.0)"/><polyline stroke-linecap="round" stroke="black" stroke-width="1000000" points="0.0 0 0.0 0" transform="translate(119620000 98590000) rotate(-0.0)"/><polyline stroke-linecap="round" stroke="black" stroke-width="1000000" points="0.0 0 0.0 0" transform="translate(119620000 101130000) rotate(-0.0)"/><polyline stroke-linecap="round" stroke="black" stroke-width="1000000" points="0.0 0 0.0 0" transform="translate(119620000 103670000) rotate(-0.0)"/><polyline stroke-linecap="round" stroke="black" stroke-width="1000000" points="0.0 0 0.0 0" transform="translate(119620000 106210000) rotate(-0.0)"/><polyline stroke-linecap="round" stroke="black" stroke-width="1000000" points="0.0 0 0.0 0" transform="translate(119620000 108750000) rotate(-0.0)"/><polyline stroke-linecap="round" stroke="black" stroke-width="1000000" points="0.0 0 0.0 0" transform="translate(119620000 111290000) rotate(-0.0)"/><polyline stroke-linecap="round" stroke="black" stroke-width="1000000" points="0.0 0 0.0 0" transform="translate(119620000 113830000) rotate(-0.0)"/><polyline stroke-linecap="round" stroke="black" stroke-width="1000000" points="0.0 0 0.0 0" transform="translate(119620000 116370000) rotate(-0.0)"/><polyline stroke-linecap="round" stroke="black" stroke-width="1000000" points="0.0 0 0.0 0" transform="translate(119620000 118910000) rotate(-0.0)"/><polyline stroke-linecap="round" stroke="black" stroke-width="1000000" points="0.0 0 0.0 0" transform="translate(119620000 121450000) rotate(-0.0)"/><polyline stroke-linecap="round" stroke="black" stroke-width="1000000" points="0.0 0 0.0 0" transform="translate(119620000 123990000) rotate(-0.0)"/><polyline stroke-linecap="round" stroke="black" stroke-width="1000000" points="0.0 0 0.0 0" transform="translate(119620000 126530000) rotate(-0.0)"/><polyline stroke-linecap="round" stroke="black" stroke-width="1000000" points="0.0 0 0.0 0" transform="translate(119620000 129070000) rotate(-0.0)"/></g></mask></defs><g transform="scale(-1,1)" id="boardContainer"><g id="substrate" clip-path="url(#cut-off)" mask="url(#hole-mask)"><g id="substrate-board" style="fill:#4ca06c; stroke:#4ca06c;"><path d=" M 224700000.0 53260000.0 L 224700000.0 153260000.0 L 74700000.0 153260000.0 L 74700000.0 53260000.0 L 224700000.0 53260000.0 " style="fill-rule: evenodd;"/><g style="fill-opacity: 0.0;stroke-width: 100000.000000;stroke-opacity: 1;stroke-linecap: round;stroke-linejoin: round">
<path d="M74700000 53260000 L224700000 53260000 "/>
<path d="M74700000 153260000 L74700000 53260000 "/>
<path d="M224700000 53260000 L224700000 153260000 "/>
<path d="M224700000 153260000 L74700000 153260000 "/>
</g> 
</g><g id="substrate-clad" style="fill:#9c6b28; stroke:#9c6b28;"><g style="fill-opacity: 0.0;stroke-width: 0.000000;stroke-opacity: 1;stroke-linecap: round;stroke-linejoin: round">
<g style="fill-opacity: 1.0;stroke-width: 1.000000;stroke-opacity: 1;stroke-linecap: round;stroke-linejoin: round">
<path style="fill-opacity: 1.0;stroke-width: 1.000000;stroke-opacity: 1;stroke-linecap: round;stroke-linejoin: round;fill-rule: evenodd" d="M 168462705.000000,81665000.000000 168462705.000000,79965000.000000 170162705.000000,79965000.000000 170162705.000000,81665000.000000 Z"/> 
<circle cx="169312705.000000" cy="83355000.000000" r="850000.000000"/> 
<circle cx="169312705.000000" cy="85895000.000000" r="850000.000000"/> 
<circle cx="169312705.000000" cy="88435000.000000" r="850000.000000"/> 
<circle cx="169312705.000000" cy="90975000.000000" r="850000.000000"/> 
<circle cx="169312705.000000" cy="93515000.000000" r="850000.000000"/> 
<circle cx="169312705.000000" cy="96055000.000000" r="850000.000000"/> 
<circle cx="169312705.000000" cy="98595000.000000" r="850000.000000"/> 
<circle cx="169312705.000000" cy="101135000.000000" r="850000.000000"/> 
<circle cx="169312705.000000" cy="103675000.000000" r="850000.000000"/> 
<circle cx="169312705.000000" cy="106215000.000000" r="850000.000000"/> 
<circle cx="169312705.000000" cy="108755000.000000" r="850000.000000"/> 
<circle cx="169312705.000000" cy="111295000.000000" r="850000.000000"/> 
<circle cx="169312705.000000" cy="113835000.000000" r="850000.000000"/> 
<circle cx="169312705.000000" cy="116375000.000000" r="850000.000000"/> 
<circle cx="169312705.000000" cy="118915000.000000" r="850000.000000"/> 
<circle cx="169312705.000000" cy="121455000.000000" r="850000.000000"/> 
<circle cx="169312705.000000" cy="123995000.000000" r="850000.000000"/> 
<circle cx="169312705.000000" cy="126535000.000000" r="850000.000000"/> 
<circle cx="169312705.000000" cy="129075000.000000" r="850000.000000"/> 
<circle cx="188342705.000000" cy="129070000.000000" r="850000.000000"/> 
<circle cx="188342705.000000" cy="126530000.000000" r="850000.000000"/> 
<circle cx="188342705.000000" cy="123990000.000000" r="850000.000000"/> 
<circle cx="188342705.000000" cy="121450000.000000" r="850000.000000"/> 
<circle cx="188342705.000000" cy="118910000.000000" r="850000.000000"/> 
<circle cx="188342705.000000" cy="116370000.000000" r="850000.000000"/> 
<circle cx="188342705.000000" cy="113830000.000000" r="850000.000000"/> 
<circle cx="188342705.000000" cy="111290000.000000" r="850000.000000"/> 
<circle cx="188342705.000000" cy="108750000.000000" r="850000.000000"/> 
<circle cx="188342705.000000" cy="106210000.000000" r="850000.000000"/> 
<circle cx="188342705.000000" cy="103670000.000000" r="850000.000000"/> 
<circle cx="188342705.000000" cy="101135000.000000" r="850000.000000"/> 
<circle cx="188342705.000000" cy="98595000.000000" r="850000.000000"/> 
<circle cx="188342705.000000" cy="96055000.000000" r="850000.000000"/> 
<circle cx="188342705.000000" cy="93515000.000000" r="850000.000000"/> 
<circle cx="188342705.000000" cy="90975000.000000" r="850000.000000"/> 
<circle cx="188342705.000000" cy="88435000.000000" r="850000.000000"/> 
<circle cx="188342705.000000" cy="85895000.000000" r="850000.000000"/> 
<circle cx="188342705.000000" cy="83355000.000000" r="850000.000000"/> 
<path style="fill-opacity: 1.0;stroke-width: 1.000000;stroke-opacity: 1;stroke-linecap: round;stroke-linejoin: round;fill-rule: evenodd" d="M 187492705.000000,81665000.000000 187492705.000000,79965000.000000 189192705.000000,79965000.000000 189192705.000000,81665000.000000 Z"/> 
</g>
<g style="fill-opacity: 1.0;stroke-width: 1.000000;stroke-opacity: 1;stroke-linecap: round;stroke-linejoin: round">
<path style="fill-opacity: 1.0;stroke-width: 1.000000;stroke-opacity: 1;stroke-linecap: round;stroke-linejoin: round;fill-rule: evenodd" d="M 137800000.000000,81660000.000000 137800000.000000,79960000.000000 139500000.000000,79960000.000000 139500000.000000,81660000.000000 Z"/> 
<circle cx="138650000.000000" cy="83350000.000000" r="850000.000000"/> 
<circle cx="138650000.000000" cy="85890000.000000" r="850000.000000"/> 
<circle cx="138650000.000000" cy="88430000.000000" r="850000.000000"/> 
<circle cx="138650000.000000" cy="90970000.000000" r="850000.000000"/> 
<circle cx="138650000.000000" cy="93510000.000000" r="850000.000000"/> 
<circle cx="138650000.000000" cy="96050000.000000" r="850000.000000"/> 
<circle cx="138650000.000000" cy="98590000.000000" r="850000.000000"/> 
<circle cx="138650000.000000" cy="101130000.000000" r="850000.000000"/> 
<circle cx="138650000.000000" cy="103670000.000000" r="850000.000000"/> 
<circle cx="138650000.000000" cy="106210000.000000" r="850000.000000"/> 
<circle cx="138650000.000000" cy="108750000.000000" r="850000.000000"/> 
<circle cx="138650000.000000" cy="111290000.000000" r="850000.000000"/> 
<circle cx="138650000.000000" cy="113830000.000000" r="850000.000000"/> 
<circle cx="138650000.000000" cy="116370000.000000" r="850000.000000"/> 
<circle cx="138650000.000000" cy="118910000.000000" r="850000.000000"/> 
<circle cx="138650000.000000" cy="121450000.000000" r="850000.000000"/> 
<circle cx="138650000.000000" cy="123990000.000000" r="850000.000000"/> 
<circle cx="138650000.000000" cy="126530000.000000" r="850000.000000"/> 
<circle cx="138650000.000000" cy="129070000.000000" r="850000.000000"/> 
</g>
<g style="fill-opacity: 1.0;stroke-width: 1.000000;stroke-opacity: 1;stroke-linecap: round;stroke-linejoin: round">
<path style="fill-opacity: 1.0;stroke-width: 1.000000;stroke-opacity: 1;stroke-linecap: round;stroke-linejoin: round;fill-rule: evenodd" d="M 118770000.000000,81660000.000000 118770000.000000,79960000.000000 120470000.000000,79960000.000000 120470000.000000,81660000.000000 Z"/> 
<circle cx="119620000.000000" cy="83350000.000000" r="850000.000000"/> 
<circle cx="119620000.000000" cy="85890000.000000" r="850000.000000"/> 
<circle cx="119620000.000000" cy="88430000.000000" r="850000.000000"/> 
<circle cx="119620000.000000" cy="90970000.000000" r="850000.000000"/> 
<circle cx="119620000.000000" cy="93510000.000000" r="850000.000000"/> 
<circle cx="119620000.000000" cy="96050000.000000" r="850000.000000"/> 
<circle cx="119620000.000000" cy="98590000.000000" r="850000.000000"/> 
<circle cx="119620000.000000" cy="101130000.000000" r="850000.000000"/> 
<circle cx="119620000.000000" cy="103670000.000000" r="850000.000000"/> 
<circle cx="119620000.000000" cy="106210000.000000" r="850000.000000"/> 
<circle cx="119620000.000000" cy="108750000.000000" r="850000.000000"/> 
<circle cx="119620000.000000" cy="111290000.000000" r="850000.000000"/> 
<circle cx="119620000.000000" cy="113830000.000000" r="850000.000000"/> 
<circle cx="119620000.000000" cy="116370000.000000" r="850000.000000"/> 
<circle cx="119620000.000000" cy="118910000.000000" r="850000.000000"/> 
<circle cx="119620000.000000" cy="121450000.000000" r="850000.000000"/> 
<circle cx="119620000.000000" cy="123990000.000000" r="850000.000000"/> 
<circle cx="119620000.000000" cy="126530000.000000" r="850000.000000"/> 
<circle cx="119620000.000000" cy="129070000.000000" r="850000.000000"/> 
</g>
</g> 
</g><g id="substrate-copper" style="fill:#417e5a; stroke:#417e5a;"><g style="fill-opacity: 0.0;stroke-width: 0.000000;stroke-opacity: 1;stroke-linecap: round;stroke-linejoin: round">
<g style="fill-opacity: 1.0;stroke-width: 1.000000;stroke-opacity: 1;stroke-linecap: round;stroke-linejoin: round">
<path style="fill-opacity: 1.0;stroke-width: 1.000000;stroke-opacity: 1;stroke-linecap: round;stroke-linejoin: round;fill-rule: evenodd" d="M 168462705.000000,81665000.000000 168462705.000000,79965000.000000 170162705.000000,79965000.000000 170162705.000000,81665000.000000 Z"/> 
<circle cx="169312705.000000" cy="83355000.000000" r="850000.000000"/> 
<circle cx="169312705.000000" cy="85895000.000000" r="850000.000000"/> 
<circle cx="169312705.000000" cy="88435000.000000" r="850000.000000"/> 
<circle cx="169312705.000000" cy="90975000.000000" r="850000.000000"/> 
<circle cx="169312705.000000" cy="93515000.000000" r="850000.000000"/> 
<circle cx="169312705.000000" cy="96055000.000000" r="850000.000000"/> 
<circle cx="169312705.000000" cy="98595000.000000" r="850000.000000"/> 
<circle cx="169312705.000000" cy="101135000.000000" r="850000.000000"/> 
<circle cx="169312705.000000" cy="103675000.000000" r="850000.000000"/> 
<circle cx="169312705.000000" cy="106215000.000000" r="850000.000000"/> 
<circle cx="169312705.000000" cy="108755000.000000" r="850000.000000"/> 
<circle cx="169312705.000000" cy="111295000.000000" r="850000.000000"/> 
<circle cx="169312705.000000" cy="113835000.000000" r="850000.000000"/> 
<circle cx="169312705.000000" cy="116375000.000000" r="850000.000000"/> 
<circle cx="169312705.000000" cy="118915000.000000" r="850000.000000"/> 
<circle cx="169312705.000000" cy="121455000.000000" r="850000.000000"/> 
<circle cx="169312705.000000" cy="123995000.000000" r="850000.000000"/> 
<circle cx="169312705.000000" cy="126535000.000000" r="850000.000000"/> 
<circle cx="169312705.000000" cy="129075000.000000" r="850000.000000"/> 
<circle cx="188342705.000000" cy="129070000.000000" r="850000.000000"/> 
<circle cx="188342705.000000" cy="126530000.000000" r="850000.000000"/> 
<circle cx="188342705.000000" cy="123990000.000000" r="850000.000000"/> 
<circle cx="188342705.000000" cy="121450000.000000" r="850000.000000"/> 
<circle cx="188342705.000000" cy="118910000.000000" r="850000.000000"/> 
<circle cx="188342705.000000" cy="116370000.000000" r="850000.000000"/> 
<circle cx="188342705.000000" cy="113830000.000000" r="850000.000000"/> 
<circle cx="188342705.000000" cy="111290000.000000" r="850000.000000"/> 
<circle cx="188342705.000000" cy="108750000.000000" r="850000.000000"/> 
<circle cx="188342705.000000" cy="106210000.000000" r="850000.000000"/> 
<circle cx="188342705.000000" cy="103670000.000000" r="850000.000000"/> 
<circle cx="188342705.000000" cy="101135000.000000" r="850000.000000"/> 
<circle cx="188342705.000000" cy="98595000.000000" r="850000.000000"/> 
<circle cx="188342705.000000" cy="96055000.000000" r="850000.000000"/> 
<circle cx="188342705.000000" cy="93515000.000000" r="850000.000000"/> 
<circle cx="188342705.000000" cy="90975000.000000" r="850000.000000"/> 
<circle cx="188342705.000000" cy="88435000.000000" r="850000.000000"/> 
<circle cx="188342705.000000" cy="85895000.000000" r="850000.000000"/> 
<circle cx="188342705.000000" cy="83355000.000000" r="850000.000000"/> 
<path style="fill-opacity: 1.0;stroke-width: 1.000000;stroke-opacity: 1;stroke-linecap: round;stroke-linejoin: round;fill-rule: evenodd" d="M 187492705.000000,81665000.000000 187492705.000000,79965000.000000 189192705.000000,79965000.000000 189192705.000000,81665000.000000 Z"/> 
</g>
<g style="fill-opacity: 1.0;stroke-width: 1.000000;stroke-opacity: 1;stroke-linecap: round;stroke-linejoin: round">
<path style="fill-opacity: 1.0;stroke-width: 1.000000;stroke-opacity: 1;stroke-linecap: round;stroke-linejoin: round;fill-rule: evenodd" d="M 137800000.000000,81660000.000000 137800000.000000,79960000.000000 139500000.000000,79960000.000000 139500000.000000,81660000.000000 Z"/> 
<circle cx="138650000.000000" cy="83350000.000000" r="850000.000000"/> 
<circle cx="138650000.000000" cy="85890000.000000" r="850000.000000"/> 
<circle cx="138650000.000000" cy="88430000.000000" r="850000.000000"/> 
<circle cx="138650000.000000" cy="90970000.000000" r="850000.000000"/> 
<circle cx="138650000.000000" cy="93510000.000000" r="850000.000000"/> 
<circle cx="138650000.000000" cy="96050000.000000" r="850000.000000"/> 
<circle cx="138650000.000000" cy="98590000.000000" r="850000.000000"/> 
<circle cx="138650000.000000" cy="101130000.000000" r="850000.000000"/> 
<circle cx="138650000.000000" cy="103670000.000000" r="850000.000000"/> 
<circle cx="138650000.000000" cy="106210000.000000" r="850000.000000"/> 
<circle cx="138650000.000000" cy="108750000.000000" r="850000.000000"/> 
<circle cx="138650000.000000" cy="111290000.000000" r="850000.000000"/> 
<circle cx="138650000.000000" cy="113830000.000000" r="850000.000000"/> 
<circle cx="138650000.000000" cy="116370000.000000" r="850000.000000"/> 
<circle cx="138650000.000000" cy="118910000.000000" r="850000.000000"/> 
<circle cx="138650000.000000" cy="121450000.000000" r="850000.000000"/> 
<circle cx="138650000.000000" cy="123990000.000000" r="850000.000000"/> 
<circle cx="138650000.000000" cy="126530000.000000" r="850000.000000"/> 
<circle cx="138650000.000000" cy="129070000.000000" r="850000.000000"/> 
</g>
<g style="fill-opacity: 1.0;stroke-width: 1.000000;stroke-opacity: 1;stroke-linecap: round;stroke-linejoin: round">
<path style="fill-opacity: 1.0;stroke-width: 1.000000;stroke-opacity: 1;stroke-linecap: round;stroke-linejoin: round;fill-rule: evenodd" d="M 118770000.000000,81660000.000000 118770000.000000,79960000.000000 120470000.000000,79960000.000000 120470000.000000,81660000.000000 Z"/> 
<circle cx="119620000.000000" cy="83350000.000000" r="850000.000000"/> 
<circle cx="119620000.000000" cy="85890000.000000" r="850000.000000"/> 
<circle cx="119620000.000000" cy="88430000.000000" r="850000.000000"/> 
<circle cx="119620000.000000" cy="90970000.000000" r="850000.000000"/> 
<circle cx="119620000.000000" cy="93510000.000000" r="850000.000000"/> 
<circle cx="119620000.000000" cy="96050000.000000" r="850000.000000"/> 
<circle cx="119620000.000000" cy="98590000.000000" r="850000.000000"/> 
<circle cx="119620000.000000" cy="101130000.000000" r="850000.000000"/> 
<circle cx="119620000.000000" cy="103670000.000000" r="850000.000000"/> 
<circle cx="119620000.000000" cy="106210000.000000" r="850000.000000"/> 
<circle cx="119620000.000000" cy="108750000.000000" r="850000.000000"/> 
<circle cx="119620000.000000" cy="111290000.000000" r="850000.000000"/> 
<circle cx="119620000.000000" cy="113830000.000000" r="850000.000000"/> 
<circle cx="119620000.000000" cy="116370000.000000" r="850000.000000"/> 
<circle cx="119620000.000000" cy="118910000.000000" r="850000.000000"/> 
<circle cx="119620000.000000" cy="121450000.000000" r="850000.000000"/> 
<circle cx="119620000.000000" cy="123990000.000000" r="850000.000000"/> 
<circle cx="119620000.000000" cy="126530000.000000" r="850000.000000"/> 
<circle cx="119620000.000000" cy="129070000.000000" r="850000.000000"/> 
</g>
</g> 
</g><g id="substrate-pads" style="fill:#b5ae30; stroke:#b5ae30;" mask="url(#pads-mask)"><g style="fill-opacity: 0.0;stroke-width: 0.000000;stroke-opacity: 1;stroke-linecap: round;stroke-linejoin: round">
<g style="fill-opacity: 1.0;stroke-width: 1.000000;stroke-opacity: 1;stroke-linecap: round;stroke-linejoin: round">
<path style="fill-opacity: 1.0;stroke-width: 1.000000;stroke-opacity: 1;stroke-linecap: round;stroke-linejoin: round;fill-rule: evenodd" d="M 168462705.000000,81665000.000000 168462705.000000,79965000.000000 170162705.000000,79965000.000000 170162705.000000,81665000.000000 Z"/> 
<circle cx="169312705.000000" cy="83355000.000000" r="850000.000000"/> 
<circle cx="169312705.000000" cy="85895000.000000" r="850000.000000"/> 
<circle cx="169312705.000000" cy="88435000.000000" r="850000.000000"/> 
<circle cx="169312705.000000" cy="90975000.000000" r="850000.000000"/> 
<circle cx="169312705.000000" cy="93515000.000000" r="850000.000000"/> 
<circle cx="169312705.000000" cy="96055000.000000" r="850000.000000"/> 
<circle cx="169312705.000000" cy="98595000.000000" r="850000.000000"/> 
<circle cx="169312705.000000" cy="101135000.000000" r="850000.000000"/> 
<circle cx="169312705.000000" cy="103675000.000000" r="850000.000000"/> 
<circle cx="169312705.000000" cy="106215000.000000" r="850000.000000"/> 
<circle cx="169312705.000000" cy="108755000.000000" r="850000.000000"/> 
<circle cx="169312705.000000" cy="111295000.000000" r="850000.000000"/> 
<circle cx="169312705.000000" cy="113835000.000000" r="850000.000000"/> 
<circle cx="169312705.000000" cy="116375000.000000" r="850000.000000"/> 
<circle cx="169312705.000000" cy="118915000.000000" r="850000.000000"/> 
<circle cx="169312705.000000" cy="121455000.000000" r="850000.000000"/> 
<circle cx="169312705.000000" cy="123995000.000000" r="850000.000000"/> 
<circle cx="169312705.000000" cy="126535000.000000" r="850000.000000"/> 
<circle cx="169312705.000000" cy="129075000.000000" r="850000.000000"/> 
<circle cx="188342705.000000" cy="129070000.000000" r="850000.000000"/> 
<circle cx="188342705.000000" cy="126530000.000000" r="850000.000000"/> 
<circle cx="188342705.000000" cy="123990000.000000" r="850000.000000"/> 
<circle cx="188342705.000000" cy="121450000.000000" r="850000.000000"/> 
<circle cx="188342705.000000" cy="118910000.000000" r="850000.000000"/> 
<circle cx="188342705.000000" cy="116370000.000000" r="850000.000000"/> 
<circle cx="188342705.000000" cy="113830000.000000" r="850000.000000"/> 
<circle cx="188342705.000000" cy="111290000.000000" r="850000.000000"/> 
<circle cx="188342705.000000" cy="108750000.000000" r="850000.000000"/> 
<circle cx="188342705.000000" cy="106210000.000000" r="850000.000000"/> 
<circle cx="188342705.000000" cy="103670000.000000" r="850000.000000"/> 
<circle cx="188342705.000000" cy="101135000.000000" r="850000.000000"/> 
<circle cx="188342705.000000" cy="98595000.000000" r="850000.000000"/> 
<circle cx="188342705.000000" cy="96055000.000000" r="850000.000000"/> 
<circle cx="188342705.000000" cy="93515000.000000" r="850000.000000"/> 
<circle cx="188342705.000000" cy="90975000.000000" r="850000.000000"/> 
<circle cx="188342705.000000" cy="88435000.000000" r="850000.000000"/> 
<circle cx="188342705.000000" cy="85895000.000000" r="850000.000000"/> 
<circle cx="188342705.000000" cy="83355000.000000" r="850000.000000"/> 
<path style="fill-opacity: 1.0;stroke-width: 1.000000;stroke-opacity: 1;stroke-linecap: round;stroke-linejoin: round;fill-rule: evenodd" d="M 187492705.000000,81665000.000000 187492705.000000,79965000.000000 189192705.000000,79965000.000000 189192705.000000,81665000.000000 Z"/> 
</g>
<g style="fill-opacity: 1.0;stroke-width: 1.000000;stroke-opacity: 1;stroke-linecap: round;stroke-linejoin: round">
<path style="fill-opacity: 1.0;stroke-width: 1.000000;stroke-opacity: 1;stroke-linecap: round;stroke-linejoin: round;fill-rule: evenodd" d="M 137800000.000000,81660000.000000 137800000.000000,79960000.000000 139500000.000000,79960000.000000 139500000.000000,81660000.000000 Z"/> 
<circle cx="138650000.000000" cy="83350000.000000" r="850000.000000"/> 
<circle cx="138650000.000000" cy="85890000.000000" r="850000.000000"/> 
<circle cx="138650000.000000" cy="88430000.000000" r="850000.000000"/> 
<circle cx="138650000.000000" cy="90970000.000000" r="850000.000000"/> 
<circle cx="138650000.000000" cy="93510000.000000" r="850000.000000"/> 
<circle cx="138650000.000000" cy="96050000.000000" r="850000.000000"/> 
<circle cx="138650000.000000" cy="98590000.000000" r="850000.000000"/> 
<circle cx="138650000.000000" cy="101130000.000000" r="850000.000000"/> 
<circle cx="138650000.000000" cy="103670000.000000" r="850000.000000"/> 
<circle cx="138650000.000000" cy="106210000.000000" r="850000.000000"/> 
<circle cx="138650000.000000" cy="108750000.000000" r="850000.000000"/> 
<circle cx="138650000.000000" cy="111290000.000000" r="850000.000000"/> 
<circle cx="138650000.000000" cy="113830000.000000" r="850000.000000"/> 
<circle cx="138650000.000000" cy="116370000.000000" r="850000.000000"/> 
<circle cx="138650000.000000" cy="118910000.000000" r="850000.000000"/> 
<circle cx="138650000.000000" cy="121450000.000000" r="850000.000000"/> 
<circle cx="138650000.000000" cy="123990000.000000" r="850000.000000"/> 
<circle cx="138650000.000000" cy="126530000.000000" r="850000.000000"/> 
<circle cx="138650000.000000" cy="129070000.000000" r="850000.000000"/> 
</g>
<g style="fill-opacity: 1.0;stroke-width: 1.000000;stroke-opacity: 1;stroke-linecap: round;stroke-linejoin: round">
<path style="fill-opacity: 1.0;stroke-width: 1.000000;stroke-opacity: 1;stroke-linecap: round;stroke-linejoin: round;fill-rule: evenodd" d="M 118770000.000000,81660000.000000 118770000.000000,79960000.000000 120470000.000000,79960000.000000 120470000.000000,81660000.000000 Z"/> 
<circle cx="119620000.000000" cy="83350000.000000" r="850000.000000"/> 
<circle cx="119620000.000000" cy="85890000.000000" r="850000.000000"/> 
<circle cx="119620000.000000" cy="88430000.000000" r="850000.000000"/> 
<circle cx="119620000.000000" cy="90970000.000000" r="850000.000000"/> 
<circle cx="119620000.000000" cy="93510000.000000" r="850000.000000"/> 
<circle cx="119620000.000000" cy="96050000.000000" r="850000.000000"/> 
<circle cx="119620000.000000" cy="98590000.000000" r="850000.000000"/> 
<circle cx="119620000.000000" cy="101130000.000000" r="850000.000000"/> 
<circle cx="119620000.000000" cy="103670000.000000" r="850000.000000"/> 
<circle cx="119620000.000000" cy="106210000.000000" r="850000.000000"/> 
<circle cx="119620000.000000" cy="108750000.000000" r="850000.000000"/> 
<circle cx="119620000.000000" cy="111290000.000000" r="850000.000000"/> 
<circle cx="119620000.000000" cy="113830000.000000" r="850000.000000"/> 
<circle cx="119620000.000000" cy="116370000.000000" r="850000.000000"/> 
<circle cx="119620000.000000" cy="118910000.000000" r="850000.000000"/> 
<circle cx="119620000.000000" cy="121450000.000000" r="850000.000000"/> 
<circle cx="119620000.000000" cy="123990000.000000" r="850000.000000"/> 
<circle cx="119620000.000000" cy="126530000.000000" r="850000.000000"/> 
<circle cx="119620000.000000" cy="129070000.000000" r="850000.000000"/> 
</g>
</g> 
</g><g id="substrate-outline" style="fill:#000000; stroke:#000000; stroke-width: 150000"><g style="fill-opacity: 0.0;stroke-opacity: 1;stroke-linecap: round;stroke-linejoin: round">
<path d="M74700000 53260000 L224700000 53260000 "/>
<path d="M74700000 153260000 L74700000 53260000 "/>
<path d="M224700000 53260000 L224700000 153260000 "/>
<path d="M224700000 153260000 L74700000 153260000 "/>
</g> 
<path d="M -500000.0 0.0 A 500000.0 500000.0 0 1 1 500000.0 0.0 L 500000.0 0.0 A 500000.0 500000.0 0 1 1 -500000.0 0.0 Z" transform="translate(169312705 80815000) rotate(-0.0)"/><path d="M -500000.0 0.0 A 500000.0 500000.0 0 1 1 500000.0 0.0 L 500000.0 0.0 A 500000.0 500000.0 0 1 1 -500000.0 0.0 Z" transform="translate(169312705 83355000) rotate(-0.0)"/><path d="M -500000.0 0.0 A 500000.0 500000.0 0 1 1 500000.0 0.0 L 500000.0 0.0 A 500000.0 500000.0 0 1 1 -500000.0 0.0 Z" transform="translate(169312705 85895000) rotate(-0.0)"/><path d="M -500000.0 0.0 A 500000.0 500000.0 0 1 1 500000.0 0.0 L 500000.0 0.0 A 500000.0 500000.0 0 1 1 -500000.0 0.0 Z" transform="translate(169312705 88435000) rotate(-0.0)"/><path d="M -500000.0 0.0 A 500000.0 500000.0 0 1 1 500000.0 0.0 L 500000.0 0.0 A 500000.0 500000.0 0 1 1 -500000.0 0.0 Z" transform="translate(169312705 90975000) rotate(-0.0)"/><path d="M -500000.0 0.0 A 500000.0 500000.0 0 1 1 500000.0 0.0 L 500000.0 0.0 A 500000.0 500000.0 0 1 1 -500000.0 0.0 Z" transform="translate(169312705 93515000) rotate(-0.0)"/><path d="M -500000.0 0.0 A 500000.0 500000.0 0 1 1 500000.0 0.0 L 500000.0 0.0 A 500000.0 500000.0 0 1 1 -500000.0 0.0 Z" transform="translate(169312705 96055000) rotate(-0.0)"/><path d="M -500000.0 0.0 A 500000.0 500000.0 0 1 1 500000.0 0.0 L 500000.0 0.0 A 500000.0 500000.0 0 1 1 -500000.0 0.0 Z" transform="translate(169312705 98595000) rotate(-0.0)"/><path d="M -500000.0 0.0 A 500000.0 500000.0 0 1 1 500000.0 0.0 L 500000.0 0.0 A 500000.0 500000.0 0 1 1 -500000.0 0.0 Z" transform="translate(169312705 101135000) rotate(-0.0)"/><path d="M -500000.0 0.0 A 500000.0 500000.0 0 1 1 500000.0 0.0 L 500000.0 0.0 A 500000.0 500000.0 0 1 1 -500000.0 0.0 Z" transform="translate(169312705 103675000) rotate(-0.0)"/><path d="M -500000.0 0.0 A 500000.0 500000.0 0 1 1 500000.0 0.0 L 500000.0 0.0 A 500000.0 500000.0 0 1 1 -500000.0 0.0 Z" transform="translate(169312705 106215000) rotate(-0.0)"/><path d="M -500000.0 0.0 A 500000.0 500000.0 0 1 1 500000.0 0.0 L 500000.0 0.0 A 500000.0 500000.0 0 1 1 -500000.0 0.0 Z" transform="translate(169312705 108755000) rotate(-0.0)"/><path d="M -500000.0 0.0 A 500000.0 500000.0 0 1 1 500000.0 0.0 L 500000.0 0.0 A 500000.0 500000.0 0 1 1 -500000.0 0.0 Z" transform="translate(169312705 111295000) rotate(-0.0)"/><path d="M -500000.0 0.0 A 500000.0 500000.0 0 1 1 500000.0 0.0 L 500000.0 0.0 A 500000.0 500000.0 0 1 1 -500000.0 0.0 Z" transform="translate(169312705 113835000) rotate(-0.0)"/><path d="M -500000.0 0.0 A 500000.0 500000.0 0 1 1 500000.0 0.0 L 500000.0 0.0 A 500000.0 500000.0 0 1 1 -500000.0 0.0 Z" transform="translate(169312705 116375000) rotate(-0.0)"/><path d="M -500000.0 0.0 A 500000.0 500000.0 0 1 1 500000.0 0.0 L 500000.0 0.0 A 500000.0 500000.0 0 1 1 -500000.0 0.0 Z" transform="translate(169312705 118915000) rotate(-0.0)"/><path d="M -500000.0 0.0 A 500000.0 500000.0 0 1 1 500000.0 0.0 L 500000.0 0.0 A 500000.0 500000.0 0 1 1 -500000.0 0.0 Z" transform="translate(169312705 121455000) rotate(-0.0)"/><path d="M -500000.0 0.0 A 500000.0 500000.0 0 1 1 500000.0 0.0 L 500000.0 0.0 A 500000.0 500000.0 0 1 1 -500000.0 0.0 Z" transform="translate(169312705 123995000) rotate(-0.0)"/><path d="M -500000.0 0.0 A 500000.0 500000.0 0 1 1 500000.0 0.0 L 500000.0 0.0 A 500000.0 500000.0 0 1 1 -500000.0 0.0 Z" transform="translate(169312705 126535000) rotate(-0.0)"/><path d="M -500000.0 0.0 A 500000.0 500000.0 0 1 1 500000.0 0.0 L 500000.0 0.0 A 500000.0 500000.0 0 1 1 -500000.0 0.0 Z" transform="translate(169312705 129075000) rotate(-0.0)"/><path d="M -500000.0 0.0 A 500000.0 500000.0 0 1 1 500000.0 0.0 L 500000.0 0.0 A 500000.0 500000.0 0 1 1 -500000.0 0.0 Z" transform="translate(188342705 129070000) rotate(-0.0)"/><path d="M -500000.0 0.0 A 500000.0 500000.0 0 1 1 500000.0 0.0 L 500000.0 0.0 A 500000.0 500000.0 0 1 1 -500000.0 0.0 Z" transform="translate(188342705 126530000) rotate(-0.0)"/><path d="M -500000.0 0.0 A 500000.0 500000.0 0 1 1 500000.0 0.0 L 500000.0 0.0 A 500000.0 500000.0 0 1 1 -500000.0 0.0 Z" transform="translate(188342705 123990000) rotate(-0.0)"/><path d="M -500000.0 0.0 A 500000.0 500000.0 0 1 1 500000.0 0.0 L 500000.0 0.0 A 500000.0 500000.0 0 1 1 -500000.0 0.0 Z" transform="translate(188342705 121450000) rotate(-0.0)"/><path d="M -500000.0 0.0 A 500000.0 500000.0 0 1 1 500000.0 0.0 L 500000.0 0.0 A 500000.0 500000.0 0 1 1 -500000.0 0.0 Z" transform="translate(188342705 118910000) rotate(-0.0)"/><path d="M -500000.0 0.0 A 500000.0 500000.0 0 1 1 500000.0 0.0 L 500000.0 0.0 A 500000.0 500000.0 0 1 1 -500000.0 0.0 Z" transform="translate(188342705 116370000) rotate(-0.0)"/><path d="M -500000.0 0.0 A 500000.0 500000.0 0 1 1 500000.0 0.0 L 500000.0 0.0 A 500000.0 500000.0 0 1 1 -500000.0 0.0 Z" transform="translate(188342705 113830000) rotate(-0.0)"/><path d="M -500000.0 0.0 A 500000.0 500000.0 0 1 1 500000.0 0.0 L 500000.0 0.0 A 500000.0 500000.0 0 1 1 -500000.0 0.0 Z" transform="translate(188342705 111290000) rotate(-0.0)"/><path d="M -500000.0 0.0 A 500000.0 500000.0 0 1 1 500000.0 0.0 L 500000.0 0.0 A 500000.0 500000.0 0 1 1 -500000.0 0.0 Z" transform="translate(188342705 108750000) rotate(-0.0)"/><path d="M -500000.0 0.0 A 500000.0 500000.0 0 1 1 500000.0 0.0 L 500000.0 0.0 A 500000.0 500000.0 0 1 1 -500000.0 0.0 Z" transform="translate(188342705 106210000) rotate(-0.0)"/><path d="M -500000.0 0.0 A 500000.0 500000.0 0 1 1 500000.0 0.0 L 500000.0 0.0 A 500000.0 500000.0 0 1 1 -500000.0 0.0 Z" transform="translate(188342705 103670000) rotate(-0.0)"/><path d="M -500000.0 0.0 A 500000.0 500000.0 0 1 1 500000.0 0.0 L 500000.0 0.0 A 500000.0 500000.0 0 1 1 -500000.0 0.0 Z" transform="translate(188342705 101135000) rotate(-0.0)"/><path d="M -500000.0 0.0 A 500000.0 500000.0 0 1 1 500000.0 0.0 L 500000.0 0.0 A 500000.0 500000.0 0 1 1 -500000.0 0.0 Z" transform="translate(188342705 98595000) rotate(-0.0)"/><path d="M -500000.0 0.0 A 500000.0 500000.0 0 1 1 500000.0 0.0 L 500000.0 0.0 A 500000.0 500000.0 0 1 1 -500000.0 0.0 Z" transform="translate(188342705 96055000) rotate(-0.0)"/><path d="M -500000.0 0.0 A 500000.0 500000.0 0 1 1 500000.0 0.0 L 500000.0 0.0 A 500000.0 500000.0 0 1 1 -500000.0 0.0 Z" transform="translate(188342705 93515000) rotate(-0.0)"/><path d="M -500000.0 0.0 A 500000.0 500000.0 0 1 1 500000.0 0.0 L 500000.0 0.0 A 500000.0 500000.0 0 1 1 -500000.0 0.0 Z" transform="translate(188342705 90975000) rotate(-0.0)"/><path d="M -500000.0 0.0 A 500000.0 500000.0 0 1 1 500000.0 0.0 L 500000.0 0.0 A 500000.0 500000.0 0 1 1 -500000.0 0.0 Z" transform="translate(188342705 88435000) rotate(-0.0)"/><path d="M -500000.0 0.0 A 500000.0 500000.0 0 1 1 500000.0 0.0 L 500000.0 0.0 A 500000.0 500000.0 0 1 1 -500000.0 0.0 Z" transform="translate(188342705 85895000) rotate(-0.0)"/><path d="M -500000.0 0.0 A 500000.0 500000.0 0 1 1 500000.0 0.0 L 500000.0 0.0 A 500000.0 500000.0 0 1 1 -500000.0 0.0 Z" transform="translate(188342705 83355000) rotate(-0.0)"/><path d="M -500000.0 0.0 A 500000.0 500000.0 0 1 1 500000.0 0.0 L 500000.0 0.0 A 500000.0 500000.0 0 1 1 -500000.0 0.0 Z" transform="translate(188342705 80815000) rotate(-0.0)"/><path d="M -500000.0 0.0 A 500000.0 500000.0 0 1 1 500000.0 0.0 L 500000.0 0.0 A 500000.0 500000.0 0 1 1 -500000.0 0.0 Z" transform="translate(138650000 80810000) rotate(-0.0)"/><path d="M -500000.0 0.0 A 500000.0 500000.0 0 1 1 500000.0 0.0 L 500000.0 0.0 A 500000.0 500000.0 0 1 1 -500000.0 0.0 Z" transform="translate(138650000 83350000) rotate(-0.0)"/><path d="M -500000.0 0.0 A 500000.0 500000.0 0 1 1 500000.0 0.0 L 500000.0 0.0 A 500000.0 500000.0 0 1 1 -500000.0 0.0 Z" transform="translate(138650000 85890000) rotate(-0.0)"/><path d="M -500000.0 0.0 A 500000.0 500000.0 0 1 1 500000.0 0.0 L 500000.0 0.0 A 500000.0 500000.0 0 1 1 -500000.0 0.0 Z" transform="translate(138650000 88430000) rotate(-0.0)"/><path d="M -500000.0 0.0 A 500000.0 500000.0 0 1 1 500000.0 0.0 L 500000.0 0.0 A 500000.0 500000.0 0 1 1 -500000.0 0.0 Z" transform="translate(138650000 90970000) rotate(-0.0)"/><path d="M -500000.0 0.0 A 500000.0 500000.0 0 1 1 500000.0 0.0 L 500000.0 0.0 A 500000.0 500000.0 0 1 1 -500000.0 0.0 Z" transform="translate(138650000 93510000) rotate(-0.0)"/><path d="M -500000.0 0.0 A 500000.0 500000.0 0 1 1 500000.0 0.0 L 500000.0 0.0 A 500000.0 500000.0 0 1 1 -500000.0 0.0 Z" transform="translate(138650000 96050000) rotate(-0.0)"/><path d="M -500000.0 0.0 A 500000.0 500000.0 0 1 1 500000.0 0.0 L 500000.0 0.0 A 500000.0 500000.0 0 1 1 -500000.0 0.0 Z" transform="translate(138650000 98590000) rotate(-0.0)"/><path d="M -500000.0 0.0 A 500000.0 500000.0 0 1 1 500000.0 0.0 L 500000.0 0.0 A 500000.0 500000.0 0 1 1 -500000.0 0.0 Z" transform="translate(138650000 101130000) rotate(-0.0)"/><path d="M -500000.0 0.0 A 500000.0 500000.0 0 1 1 500000.0 0.0 L 500000.0 0.0 A 500000.0 500000.0 0 1 1 -500000.0 0.0 Z" transform="translate(138650000 103670000) rotate(-0.0)"/><path d="M -500000.0 0.0 A 500000.0 500000.0 0 1 1 500000.0 0.0 L 500000.0 0.0 A 500000.0 500000.0 0 1 1 -500000.0 0.0 Z" transform="translate(138650000 106210000) rotate(-0.0)"/><path d="M -500000.0 0.0 A 500000.0 500000.0 0 1 1 500000.0 0.0 L 500000.0 0.0 A 500000.0 500000.0 0 1 1 -500000.0 0.0 Z" transform="translate(138650000 108750000) rotate(-0.0)"/><path d="M -500000.0 0.0 A 500000.0 500000.0 0 1 1 500000.0 0.0 L 500000.0 0.0 A 500000.0 500000.0 0 1 1 -500000.0 0.0 Z" transform="translate(138650000 111290000) rotate(-0.0)"/><path d="M -500000.0 0.0 A 500000.0 500000.0 0 1 1 500000.0 0.0 L 500000.0 0.0 A 500000.0 500000.0 0 1 1 -500000.0 0.0 Z" transform="translate(138650000 113830000) rotate(-0.0)"/><path d="M -500000.0 0.0 A 500000.0 500000.0 0 1 1 500000.0 0.0 L 500000.0 0.0 A 500000.0 500000.0 0 1 1 -500000.0 0.0 Z" transform="translate(138650000 116370000) rotate(-0.0)"/><path d="M -500000.0 0.0 A 500000.0 500000.0 0 1 1 500000.0 0.0 L 500000.0 0.0 A 500000.0 500000.0 0 1 1 -500000.0 0.0 Z" transform="translate(138650000 118910000) rotate(-0.0)"/><path d="M -500000.0 0.0 A 500000.0 500000.0 0 1 1 500000.0 0.0 L 500000.0 0.0 A 500000.0 500000.0 0 1 1 -500000.0 0.0 Z" transform="translate(138650000 121450000) rotate(-0.0)"/><path d="M -500000.0 0.0 A 500000.0 500000.0 0 1 1 500000.0 0.0 L 500000.0 0.0 A 500000.0 500000.0 0 1 1 -500000.0 0.0 Z" transform="translate(138650000 123990000) rotate(-0.0)"/><path d="M -500000.0 0.0 A 500000.0 500000.0 0 1 1 500000.0 0.0 L 500000.0 0.0 A 500000.0 500000.0 0 1 1 -500000.0 0.0 Z" transform="translate(138650000 126530000) rotate(-0.0)"/><path d="M -500000.0 0.0 A 500000.0 500000.0 0 1 1 500000.0 0.0 L 500000.0 0.0 A 500000.0 500000.0 0 1 1 -500000.0 0.0 Z" transform="translate(138650000 129070000) rotate(-0.0)"/><path d="M -500000.0 0.0 A 500000.0 500000.0 0 1 1 500000.0 0.0 L 500000.0 0.0 A 500000.0 500000.0 0 1 1 -500000.0 0.0 Z" transform="translate(119620000 80810000) rotate(-0.0)"/><path d="M -500000.0 0.0 A 500000.0 500000.0 0 1 1 500000.0 0.0 L 500000.0 0.0 A 500000.0 500000.0 0 1 1 -500000.0 0.0 Z" transform="translate(119620000 83350000) rotate(-0.0)"/><path d="M -500000.0 0.0 A 500000.0 500000.0 0 1 1 500000.0 0.0 L 500000.0 0.0 A 500000.0 500000.0 0 1 1 -500000.0 0.0 Z" transform="translate(119620000 85890000) rotate(-0.0)"/><path d="M -500000.0 0.0 A 500000.0 500000.0 0 1 1 500000.0 0.0 L 500000.0 0.0 A 500000.0 500000.0 0 1 1 -500000.0 0.0 Z" transform="translate(119620000 88430000) rotate(-0.0)"/><path d="M -500000.0 0.0 A 500000.0 500000.0 0 1 1 500000.0 0.0 L 500000.0 0.0 A 500000.0 500000.0 0 1 1 -500000.0 0.0 Z" transform="translate(119620000 90970000) rotate(-0.0)"/><path d="M -500000.0 0.0 A 500000.0 500000.0 0 1 1 500000.0 0.0 L 500000.0 0.0 A 500000.0 500000.0 0 1 1 -500000.0 0.0 Z" transform="translate(119620000 93510000) rotate(-0.0)"/><path d="M -500000.0 0.0 A 500000.0 500000.0 0 1 1 500000.0 0.0 L 500000.0 0.0 A 500000.0 500000.0 0 1 1 -500000.0 0.0 Z" transform="translate(119620000 96050000) rotate(-0.0)"/><path d="M -500000.0 0.0 A 500000.0 500000.0 0 1 1 500000.0 0.0 L 500000.0 0.0 A 500000.0 500000.0 0 1 1 -500000.0 0.0 Z" transform="translate(119620000 98590000) rotate(-0.0)"/><path d="M -500000.0 0.0 A 500000.0 500000.0 0 1 1 500000.0 0.0 L 500000.0 0.0 A 500000.0 500000.0 0 1 1 -500000.0 0.0 Z" transform="translate(119620000 101130000) rotate(-0.0)"/><path d="M -500000.0 0.0 A 500000.0 500000.0 0 1 1 500000.0 0.0 L 500000.0 0.0 A 500000.0 500000.0 0 1 1 -500000.0 0.0 Z" transform="translate(119620000 103670000) rotate(-0.0)"/><path d="M -500000.0 0.0 A 500000.0 500000.0 0 1 1 500000.0 0.0 L 500000.0 0.0 A 500000.0 500000.0 0 1 1 -500000.0 0.0 Z" transform="translate(119620000 106210000) rotate(-0.0)"/><path d="M -500000.0 0.0 A 500000.0 500000.0 0 1 1 500000.0 0.0 L 500000.0 0.0 A 500000.0 500000.0 0 1 1 -500000.0 0.0 Z" transform="translate(119620000 108750000) rotate(-0.0)"/><path d="M -500000.0 0.0 A 500000.0 500000.0 0 1 1 500000.0 0.0 L 500000.0 0.0 A 500000.0 500000.0 0 1 1 -500000.0 0.0 Z" transform="translate(119620000 111290000) rotate(-0.0)"/><path d="M -500000.0 0.0 A 500000.0 500000.0 0 1 1 500000.0 0.0 L 500000.0 0.0 A 500000.0 500000.0 0 1 1 -500000.0 0.0 Z" transform="translate(119620000 113830000) rotate(-0.0)"/><path d="M -500000.0 0.0 A 500000.0 500000.0 0 1 1 500000.0 0.0 L 500000.0 0.0 A 500000.0 500000.0 0 1 1 -500000.0 0.0 Z" transform="translate(119620000 116370000) rotate(-0.0)"/><path d="M -500000.0 0.0 A 500000.0 500000.0 0 1 1 500000.0 0.0 L 500000.0 0.0 A 500000.0 500000.0 0 1 1 -500000.0 0.0 Z" transform="translate(119620000 118910000) rotate(-0.0)"/><path d="M -500000.0 0.0 A 500000.0 500000.0 0 1 1 500000.0 0.0 L 500000.0 0.0 A 500000.0 500000.0 0 1 1 -500000.0 0.0 Z" transform="translate(119620000 121450000) rotate(-0.0)"/><path d="M -500000.0 0.0 A 500000.0 500000.0 0 1 1 500000.0 0.0 L 500000.0 0.0 A 500000.0 500000.0 0 1 1 -500000.0 0.0 Z" transform="translate(119620000 123990000) rotate(-0.0)"/><path d="M -500000.0 0.0 A 500000.0 500000.0 0 1 1 500000.0 0.0 L 500000.0 0.0 A 500000.0 500000.0 0 1 1 -500000.0 0.0 Z" transform="translate(119620000 126530000) rotate(-0.0)"/><path d="M -500000.0 0.0 A 500000.0 500000.0 0 1 1 500000.0 0.0 L 500000.0 0.0 A 500000.0 500000.0 0 1 1 -500000.0 0.0 Z" transform="translate(119620000 129070000) rotate(-0.0)"/></g></g></g></svg>