<?xml version="1.0" standalone="no"?>
 <!DOCTYPE svg PUBLIC "-//W3C//DTD SVG 1.1//EN" 
 "http://www.w3.org/Graphics/SVG/1.1/DTD/svg11.dtd"> 
<svg
  xmlns:svg="http://www.w3.org/2000/svg"
  xmlns="http://www.w3.org/2000/svg"
  xmlns:xlink="http://www.w3.org/1999/xlink"
  version="1.1"
  width="29.700220cm" height="21.000720cm" viewBox="0 0 297002200 210007200">
<title>SVG Picture created as MODULE-CONN-RASP-PICO-2040-F_Fab.svg date 2022/10/14 09:59:28 </title>
  <desc>Picture generated by PCBNEW </desc>
<g style="fill:#000000; fill-opacity:1.000000;stroke:#000000; stroke-opacity:1.000000;
stroke-linecap:round; stroke-linejoin:round;"
 transform="translate(0 0) scale(1 1)">
</g>
<g style="fill:#000000; fill-opacity:0.0; 
stroke:#000000; stroke-width:0.000000; stroke-opacity:1; 
stroke-linecap:round; stroke-linejoin:round;">
</g>
<g style="fill:#000000; fill-opacity:0.0; 
stroke:#000000; stroke-width:21200.000000; stroke-opacity:1; 
stroke-linecap:round; stroke-linejoin:round;">
</g>
<g style="fill:#000000; fill-opacity:0.0; 
stroke:#000000; stroke-width:150000.000000; stroke-opacity:1; 
stroke-linecap:round; stroke-linejoin:round;">
<rect x="177002200.000000" y="166007200.000000" width="108000000.000000" height="32000000.000000" rx="0.000000" />
</g>
<g style="fill:#000000; fill-opacity:0.0; 
stroke:#000000; stroke-width:21200.000000; stroke-opacity:1; 
stroke-linecap:round; stroke-linejoin:round;">
</g>
<g style="fill:#000000; fill-opacity:0.0; 
stroke:#000000; stroke-width:150000.000000; stroke-opacity:1; 
stroke-linecap:round; stroke-linejoin:round;">
<rect x="10000000.000000" y="10000000.000000" width="277002200.000000" height="190007200.000000" rx="0.000000" />
</g>
<g style="fill:#000000; fill-opacity:0.0; 
stroke:#000000; stroke-width:21200.000000; stroke-opacity:1; 
stroke-linecap:round; stroke-linejoin:round;">
</g>
<g style="fill:#000000; fill-opacity:0.0; 
stroke:#000000; stroke-width:150000.000000; stroke-opacity:1; 
stroke-linecap:round; stroke-linejoin:round;">
<rect x="12000000.000000" y="12000000.000000" width="273002200.000000" height="186007200.000000" rx="0.000000" />
</g>
<g style="fill:#000000; fill-opacity:0.0; 
stroke:#000000; stroke-width:21200.000000; stroke-opacity:1; 
stroke-linecap:round; stroke-linejoin:round;">
</g>
<g style="fill:#000000; fill-opacity:0.0; 
stroke:#000000; stroke-width:150000.000000; stroke-opacity:1; 
stroke-linecap:round; stroke-linejoin:round;">
<path d="M60000000 12000000
L60000000 10000000
" />
</g>
<g style="fill:#000000; fill-opacity:0.0; 
stroke:#000000; stroke-width:21200.000000; stroke-opacity:1; 
stroke-linecap:round; stroke-linejoin:round;">
</g>
<g style="fill:#000000; fill-opacity:0.0; 
stroke:#000000; stroke-width:150000.000000; stroke-opacity:1; 
stroke-linecap:round; stroke-linejoin:round;">
<path d="M110000000 12000000
L110000000 10000000
" />
</g>
<g style="fill:#000000; fill-opacity:0.0; 
stroke:#000000; stroke-width:21200.000000; stroke-opacity:1; 
stroke-linecap:round; stroke-linejoin:round;">
</g>
<g style="fill:#000000; fill-opacity:0.0; 
stroke:#000000; stroke-width:150000.000000; stroke-opacity:1; 
stroke-linecap:round; stroke-linejoin:round;">
<path d="M160000000 12000000
L160000000 10000000
" />
</g>
<g style="fill:#000000; fill-opacity:0.0; 
stroke:#000000; stroke-width:21200.000000; stroke-opacity:1; 
stroke-linecap:round; stroke-linejoin:round;">
</g>
<g style="fill:#000000; fill-opacity:0.0; 
stroke:#000000; stroke-width:150000.000000; stroke-opacity:1; 
stroke-linecap:round; stroke-linejoin:round;">
<path d="M210000000 12000000
L210000000 10000000
" />
</g>
<g style="fill:#000000; fill-opacity:0.0; 
stroke:#000000; stroke-width:21200.000000; stroke-opacity:1; 
stroke-linecap:round; stroke-linejoin:round;">
</g>
<g style="fill:#000000; fill-opacity:0.0; 
stroke:#000000; stroke-width:150000.000000; stroke-opacity:1; 
stroke-linecap:round; stroke-linejoin:round;">
<path d="M260000000 12000000
L260000000 10000000
" />
</g>
<g style="fill:#000000; fill-opacity:0.0; 
stroke:#000000; stroke-width:21200.000000; stroke-opacity:1; 
stroke-linecap:round; stroke-linejoin:round;">
</g>
<g style="fill:#000000; fill-opacity:0.0; 
stroke:#000000; stroke-width:150000.000000; stroke-opacity:1; 
stroke-linecap:round; stroke-linejoin:round;">
<text x="35000000.000000" y="11650000.000000"
textLength="1388095.000000" font-size="1733333.000000" lengthAdjust="spacingAndGlyphs"
text-anchor="start" opacity="0">1</text>
<g class="stroked-text"><desc>1</desc>
<path d="M36065476 11588095
L35322619 11588095
" />
<path d="M35694047 11588095
L35694047 10288095
L35570238 10473809
L35446428 10597619
L35322619 10659523
" />
</g></g>
<g style="fill:#000000; fill-opacity:0.0; 
stroke:#000000; stroke-width:21200.000000; stroke-opacity:1; 
stroke-linecap:round; stroke-linejoin:round;">
</g>
<g style="fill:#000000; fill-opacity:0.0; 
stroke:#000000; stroke-width:150000.000000; stroke-opacity:1; 
stroke-linecap:round; stroke-linejoin:round;">
<text x="85000000.000000" y="11650000.000000"
textLength="1388095.000000" font-size="1733333.000000" lengthAdjust="spacingAndGlyphs"
text-anchor="start" opacity="0">2</text>
<g class="stroked-text"><desc>2</desc>
<path d="M85322619 10411904
L85384523 10350000
L85508333 10288095
L85817857 10288095
L85941666 10350000
L86003571 10411904
L86065476 10535714
L86065476 10659523
L86003571 10845238
L85260714 11588095
L86065476 11588095
" />
</g></g>
<g style="fill:#000000; fill-opacity:0.0; 
stroke:#000000; stroke-width:21200.000000; stroke-opacity:1; 
stroke-linecap:round; stroke-linejoin:round;">
</g>
<g style="fill:#000000; fill-opacity:0.0; 
stroke:#000000; stroke-width:150000.000000; stroke-opacity:1; 
stroke-linecap:round; stroke-linejoin:round;">
<text x="135000000.000000" y="11650000.000000"
textLength="1388095.000000" font-size="1733333.000000" lengthAdjust="spacingAndGlyphs"
text-anchor="start" opacity="0">3</text>
<g class="stroked-text"><desc>3</desc>
<path d="M135260714 10288095
L136065476 10288095
L135632142 10783333
L135817857 10783333
L135941666 10845238
L136003571 10907142
L136065476 11030952
L136065476 11340476
L136003571 11464285
L135941666 11526190
L135817857 11588095
L135446428 11588095
L135322619 11526190
L135260714 11464285
" />
</g></g>
<g style="fill:#000000; fill-opacity:0.0; 
stroke:#000000; stroke-width:21200.000000; stroke-opacity:1; 
stroke-linecap:round; stroke-linejoin:round;">
</g>
<g style="fill:#000000; fill-opacity:0.0; 
stroke:#000000; stroke-width:150000.000000; stroke-opacity:1; 
stroke-linecap:round; stroke-linejoin:round;">
<text x="185000000.000000" y="11650000.000000"
textLength="1388095.000000" font-size="1733333.000000" lengthAdjust="spacingAndGlyphs"
text-anchor="start" opacity="0">4</text>
<g class="stroked-text"><desc>4</desc>
<path d="M185941666 10721428
L185941666 11588095
" />
<path d="M185632142 10226190
L185322619 11154761
L186127380 11154761
" />
</g></g>
<g style="fill:#000000; fill-opacity:0.0; 
stroke:#000000; stroke-width:21200.000000; stroke-opacity:1; 
stroke-linecap:round; stroke-linejoin:round;">
</g>
<g style="fill:#000000; fill-opacity:0.0; 
stroke:#000000; stroke-width:150000.000000; stroke-opacity:1; 
stroke-linecap:round; stroke-linejoin:round;">
<text x="235000000.000000" y="11650000.000000"
textLength="1388095.000000" font-size="1733333.000000" lengthAdjust="spacingAndGlyphs"
text-anchor="start" opacity="0">5</text>
<g class="stroked-text"><desc>5</desc>
<path d="M236003571 10288095
L235384523 10288095
L235322619 10907142
L235384523 10845238
L235508333 10783333
L235817857 10783333
L235941666 10845238
L236003571 10907142
L236065476 11030952
L236065476 11340476
L236003571 11464285
L235941666 11526190
L235817857 11588095
L235508333 11588095
L235384523 11526190
L235322619 11464285
" />
</g></g>
<g style="fill:#000000; fill-opacity:0.0; 
stroke:#000000; stroke-width:21200.000000; stroke-opacity:1; 
stroke-linecap:round; stroke-linejoin:round;">
</g>
<g style="fill:#000000; fill-opacity:0.0; 
stroke:#000000; stroke-width:150000.000000; stroke-opacity:1; 
stroke-linecap:round; stroke-linejoin:round;">
<text x="285000000.000000" y="11650000.000000"
textLength="1388095.000000" font-size="1733333.000000" lengthAdjust="spacingAndGlyphs"
text-anchor="start" opacity="0">6</text>
<g class="stroked-text"><desc>6</desc>
<path d="M285941666 10288095
L285694047 10288095
L285570238 10350000
L285508333 10411904
L285384523 10597619
L285322619 10845238
L285322619 11340476
L285384523 11464285
L285446428 11526190
L285570238 11588095
L285817857 11588095
L285941666 11526190
L286003571 11464285
L286065476 11340476
L286065476 11030952
L286003571 10907142
L285941666 10845238
L285817857 10783333
L285570238 10783333
L285446428 10845238
L285384523 10907142
L285322619 11030952
" />
</g></g>
<g style="fill:#000000; fill-opacity:0.0; 
stroke:#000000; stroke-width:21200.000000; stroke-opacity:1; 
stroke-linecap:round; stroke-linejoin:round;">
</g>
<g style="fill:#000000; fill-opacity:0.0; 
stroke:#000000; stroke-width:150000.000000; stroke-opacity:1; 
stroke-linecap:round; stroke-linejoin:round;">
<path d="M60000000 198007200
L60000000 200007200
" />
</g>
<g style="fill:#000000; fill-opacity:0.0; 
stroke:#000000; stroke-width:21200.000000; stroke-opacity:1; 
stroke-linecap:round; stroke-linejoin:round;">
</g>
<g style="fill:#000000; fill-opacity:0.0; 
stroke:#000000; stroke-width:150000.000000; stroke-opacity:1; 
stroke-linecap:round; stroke-linejoin:round;">
<path d="M110000000 198007200
L110000000 200007200
" />
</g>
<g style="fill:#000000; fill-opacity:0.0; 
stroke:#000000; stroke-width:21200.000000; stroke-opacity:1; 
stroke-linecap:round; stroke-linejoin:round;">
</g>
<g style="fill:#000000; fill-opacity:0.0; 
stroke:#000000; stroke-width:150000.000000; stroke-opacity:1; 
stroke-linecap:round; stroke-linejoin:round;">
<path d="M160000000 198007200
L160000000 200007200
" />
</g>
<g style="fill:#000000; fill-opacity:0.0; 
stroke:#000000; stroke-width:21200.000000; stroke-opacity:1; 
stroke-linecap:round; stroke-linejoin:round;">
</g>
<g style="fill:#000000; fill-opacity:0.0; 
stroke:#000000; stroke-width:150000.000000; stroke-opacity:1; 
stroke-linecap:round; stroke-linejoin:round;">
<path d="M210000000 198007200
L210000000 200007200
" />
</g>
<g style="fill:#000000; fill-opacity:0.0; 
stroke:#000000; stroke-width:21200.000000; stroke-opacity:1; 
stroke-linecap:round; stroke-linejoin:round;">
</g>
<g style="fill:#000000; fill-opacity:0.0; 
stroke:#000000; stroke-width:150000.000000; stroke-opacity:1; 
stroke-linecap:round; stroke-linejoin:round;">
<path d="M260000000 198007200
L260000000 200007200
" />
</g>
<g style="fill:#000000; fill-opacity:0.0; 
stroke:#000000; stroke-width:21200.000000; stroke-opacity:1; 
stroke-linecap:round; stroke-linejoin:round;">
</g>
<g style="fill:#000000; fill-opacity:0.0; 
stroke:#000000; stroke-width:150000.000000; stroke-opacity:1; 
stroke-linecap:round; stroke-linejoin:round;">
<text x="35000000.000000" y="199657200.000000"
textLength="1388095.000000" font-size="1733333.000000" lengthAdjust="spacingAndGlyphs"
text-anchor="start" opacity="0">1</text>
<g class="stroked-text"><desc>1</desc>
<path d="M36065476 199595295
L35322619 199595295
" />
<path d="M35694047 199595295
L35694047 198295295
L35570238 198481009
L35446428 198604819
L35322619 198666723
" />
</g></g>
<g style="fill:#000000; fill-opacity:0.0; 
stroke:#000000; stroke-width:21200.000000; stroke-opacity:1; 
stroke-linecap:round; stroke-linejoin:round;">
</g>
<g style="fill:#000000; fill-opacity:0.0; 
stroke:#000000; stroke-width:150000.000000; stroke-opacity:1; 
stroke-linecap:round; stroke-linejoin:round;">
<text x="85000000.000000" y="199657200.000000"
textLength="1388095.000000" font-size="1733333.000000" lengthAdjust="spacingAndGlyphs"
text-anchor="start" opacity="0">2</text>
<g class="stroked-text"><desc>2</desc>
<path d="M85322619 198419104
L85384523 198357200
L85508333 198295295
L85817857 198295295
L85941666 198357200
L86003571 198419104
L86065476 198542914
L86065476 198666723
L86003571 198852438
L85260714 199595295
L86065476 199595295
" />
</g></g>
<g style="fill:#000000; fill-opacity:0.0; 
stroke:#000000; stroke-width:21200.000000; stroke-opacity:1; 
stroke-linecap:round; stroke-linejoin:round;">
</g>
<g style="fill:#000000; fill-opacity:0.0; 
stroke:#000000; stroke-width:150000.000000; stroke-opacity:1; 
stroke-linecap:round; stroke-linejoin:round;">
<text x="135000000.000000" y="199657200.000000"
textLength="1388095.000000" font-size="1733333.000000" lengthAdjust="spacingAndGlyphs"
text-anchor="start" opacity="0">3</text>
<g class="stroked-text"><desc>3</desc>
<path d="M135260714 198295295
L136065476 198295295
L135632142 198790533
L135817857 198790533
L135941666 198852438
L136003571 198914342
L136065476 199038152
L136065476 199347676
L136003571 199471485
L135941666 199533390
L135817857 199595295
L135446428 199595295
L135322619 199533390
L135260714 199471485
" />
</g></g>
<g style="fill:#000000; fill-opacity:0.0; 
stroke:#000000; stroke-width:21200.000000; stroke-opacity:1; 
stroke-linecap:round; stroke-linejoin:round;">
</g>
<g style="fill:#000000; fill-opacity:0.0; 
stroke:#000000; stroke-width:150000.000000; stroke-opacity:1; 
stroke-linecap:round; stroke-linejoin:round;">
<text x="185000000.000000" y="199657200.000000"
textLength="1388095.000000" font-size="1733333.000000" lengthAdjust="spacingAndGlyphs"
text-anchor="start" opacity="0">4</text>
<g class="stroked-text"><desc>4</desc>
<path d="M185941666 198728628
L185941666 199595295
" />
<path d="M185632142 198233390
L185322619 199161961
L186127380 199161961
" />
</g></g>
<g style="fill:#000000; fill-opacity:0.0; 
stroke:#000000; stroke-width:21200.000000; stroke-opacity:1; 
stroke-linecap:round; stroke-linejoin:round;">
</g>
<g style="fill:#000000; fill-opacity:0.0; 
stroke:#000000; stroke-width:150000.000000; stroke-opacity:1; 
stroke-linecap:round; stroke-linejoin:round;">
<text x="235000000.000000" y="199657200.000000"
textLength="1388095.000000" font-size="1733333.000000" lengthAdjust="spacingAndGlyphs"
text-anchor="start" opacity="0">5</text>
<g class="stroked-text"><desc>5</desc>
<path d="M236003571 198295295
L235384523 198295295
L235322619 198914342
L235384523 198852438
L235508333 198790533
L235817857 198790533
L235941666 198852438
L236003571 198914342
L236065476 199038152
L236065476 199347676
L236003571 199471485
L235941666 199533390
L235817857 199595295
L235508333 199595295
L235384523 199533390
L235322619 199471485
" />
</g></g>
<g style="fill:#000000; fill-opacity:0.0; 
stroke:#000000; stroke-width:21200.000000; stroke-opacity:1; 
stroke-linecap:round; stroke-linejoin:round;">
</g>
<g style="fill:#000000; fill-opacity:0.0; 
stroke:#000000; stroke-width:150000.000000; stroke-opacity:1; 
stroke-linecap:round; stroke-linejoin:round;">
<text x="285000000.000000" y="199657200.000000"
textLength="1388095.000000" font-size="1733333.000000" lengthAdjust="spacingAndGlyphs"
text-anchor="start" opacity="0">6</text>
<g class="stroked-text"><desc>6</desc>
<path d="M285941666 198295295
L285694047 198295295
L285570238 198357200
L285508333 198419104
L285384523 198604819
L285322619 198852438
L285322619 199347676
L285384523 199471485
L285446428 199533390
L285570238 199595295
L285817857 199595295
L285941666 199533390
L286003571 199471485
L286065476 199347676
L286065476 199038152
L286003571 198914342
L285941666 198852438
L285817857 198790533
L285570238 198790533
L285446428 198852438
L285384523 198914342
L285322619 199038152
" />
</g></g>
<g style="fill:#000000; fill-opacity:0.0; 
stroke:#000000; stroke-width:21200.000000; stroke-opacity:1; 
stroke-linecap:round; stroke-linejoin:round;">
</g>
<g style="fill:#000000; fill-opacity:0.0; 
stroke:#000000; stroke-width:150000.000000; stroke-opacity:1; 
stroke-linecap:round; stroke-linejoin:round;">
<path d="M10000000 60000000
L12000000 60000000
" />
</g>
<g style="fill:#000000; fill-opacity:0.0; 
stroke:#000000; stroke-width:21200.000000; stroke-opacity:1; 
stroke-linecap:round; stroke-linejoin:round;">
</g>
<g style="fill:#000000; fill-opacity:0.0; 
stroke:#000000; stroke-width:150000.000000; stroke-opacity:1; 
stroke-linecap:round; stroke-linejoin:round;">
<path d="M10000000 110000000
L12000000 110000000
" />
</g>
<g style="fill:#000000; fill-opacity:0.0; 
stroke:#000000; stroke-width:21200.000000; stroke-opacity:1; 
stroke-linecap:round; stroke-linejoin:round;">
</g>
<g style="fill:#000000; fill-opacity:0.0; 
stroke:#000000; stroke-width:150000.000000; stroke-opacity:1; 
stroke-linecap:round; stroke-linejoin:round;">
<path d="M10000000 160000000
L12000000 160000000
" />
</g>
<g style="fill:#000000; fill-opacity:0.0; 
stroke:#000000; stroke-width:21200.000000; stroke-opacity:1; 
stroke-linecap:round; stroke-linejoin:round;">
</g>
<g style="fill:#000000; fill-opacity:0.0; 
stroke:#000000; stroke-width:150000.000000; stroke-opacity:1; 
stroke-linecap:round; stroke-linejoin:round;">
<text x="11000000.000000" y="35650000.000000"
textLength="1264286.000000" font-size="1733333.000000" lengthAdjust="spacingAndGlyphs"
text-anchor="middle" opacity="0">A</text>
<g class="stroked-text"><desc>A</desc>
<path d="M10690476 35216666
L11309523 35216666
" />
<path d="M10566666 35588095
L11000000 34288095
L11433333 35588095
" />
</g></g>
<g style="fill:#000000; fill-opacity:0.0; 
stroke:#000000; stroke-width:21200.000000; stroke-opacity:1; 
stroke-linecap:round; stroke-linejoin:round;">
</g>
<g style="fill:#000000; fill-opacity:0.0; 
stroke:#000000; stroke-width:150000.000000; stroke-opacity:1; 
stroke-linecap:round; stroke-linejoin:round;">
<text x="11000000.000000" y="85650000.000000"
textLength="1450000.000000" font-size="1733333.000000" lengthAdjust="spacingAndGlyphs"
text-anchor="middle" opacity="0">B</text>
<g class="stroked-text"><desc>B</desc>
<path d="M11092857 84907142
L11278571 84969047
L11340476 85030952
L11402380 85154761
L11402380 85340476
L11340476 85464285
L11278571 85526190
L11154761 85588095
L10659523 85588095
L10659523 84288095
L11092857 84288095
L11216666 84350000
L11278571 84411904
L11340476 84535714
L11340476 84659523
L11278571 84783333
L11216666 84845238
L11092857 84907142
L10659523 84907142
" />
</g></g>
<g style="fill:#000000; fill-opacity:0.0; 
stroke:#000000; stroke-width:21200.000000; stroke-opacity:1; 
stroke-linecap:round; stroke-linejoin:round;">
</g>
<g style="fill:#000000; fill-opacity:0.0; 
stroke:#000000; stroke-width:150000.000000; stroke-opacity:1; 
stroke-linecap:round; stroke-linejoin:round;">
<text x="11000000.000000" y="135650000.000000"
textLength="1450000.000000" font-size="1733333.000000" lengthAdjust="spacingAndGlyphs"
text-anchor="middle" opacity="0">C</text>
<g class="stroked-text"><desc>C</desc>
<path d="M11402380 135464285
L11340476 135526190
L11154761 135588095
L11030952 135588095
L10845238 135526190
L10721428 135402380
L10659523 135278571
L10597619 135030952
L10597619 134845238
L10659523 134597619
L10721428 134473809
L10845238 134350000
L11030952 134288095
L11154761 134288095
L11340476 134350000
L11402380 134411904
" />
</g></g>
<g style="fill:#000000; fill-opacity:0.0; 
stroke:#000000; stroke-width:21200.000000; stroke-opacity:1; 
stroke-linecap:round; stroke-linejoin:round;">
</g>
<g style="fill:#000000; fill-opacity:0.0; 
stroke:#000000; stroke-width:150000.000000; stroke-opacity:1; 
stroke-linecap:round; stroke-linejoin:round;">
<text x="11000000.000000" y="185650000.000000"
textLength="1450000.000000" font-size="1733333.000000" lengthAdjust="spacingAndGlyphs"
text-anchor="middle" opacity="0">D</text>
<g class="stroked-text"><desc>D</desc>
<path d="M10659523 185588095
L10659523 184288095
L10969047 184288095
L11154761 184350000
L11278571 184473809
L11340476 184597619
L11402380 184845238
L11402380 185030952
L11340476 185278571
L11278571 185402380
L11154761 185526190
L10969047 185588095
L10659523 185588095
" />
</g></g>
<g style="fill:#000000; fill-opacity:0.0; 
stroke:#000000; stroke-width:21200.000000; stroke-opacity:1; 
stroke-linecap:round; stroke-linejoin:round;">
</g>
<g style="fill:#000000; fill-opacity:0.0; 
stroke:#000000; stroke-width:150000.000000; stroke-opacity:1; 
stroke-linecap:round; stroke-linejoin:round;">
<path d="M287002200 60000000
L285002200 60000000
" />
</g>
<g style="fill:#000000; fill-opacity:0.0; 
stroke:#000000; stroke-width:21200.000000; stroke-opacity:1; 
stroke-linecap:round; stroke-linejoin:round;">
</g>
<g style="fill:#000000; fill-opacity:0.0; 
stroke:#000000; stroke-width:150000.000000; stroke-opacity:1; 
stroke-linecap:round; stroke-linejoin:round;">
<path d="M287002200 110000000
L285002200 110000000
" />
</g>
<g style="fill:#000000; fill-opacity:0.0; 
stroke:#000000; stroke-width:21200.000000; stroke-opacity:1; 
stroke-linecap:round; stroke-linejoin:round;">
</g>
<g style="fill:#000000; fill-opacity:0.0; 
stroke:#000000; stroke-width:150000.000000; stroke-opacity:1; 
stroke-linecap:round; stroke-linejoin:round;">
<path d="M287002200 160000000
L285002200 160000000
" />
</g>
<g style="fill:#000000; fill-opacity:0.0; 
stroke:#000000; stroke-width:21200.000000; stroke-opacity:1; 
stroke-linecap:round; stroke-linejoin:round;">
</g>
<g style="fill:#000000; fill-opacity:0.0; 
stroke:#000000; stroke-width:150000.000000; stroke-opacity:1; 
stroke-linecap:round; stroke-linejoin:round;">
<text x="286002200.000000" y="35650000.000000"
textLength="1264286.000000" font-size="1733333.000000" lengthAdjust="spacingAndGlyphs"
text-anchor="middle" opacity="0">A</text>
<g class="stroked-text"><desc>A</desc>
<path d="M285692676 35216666
L286311723 35216666
" />
<path d="M285568866 35588095
L286002200 34288095
L286435533 35588095
" />
</g></g>
<g style="fill:#000000; fill-opacity:0.0; 
stroke:#000000; stroke-width:21200.000000; stroke-opacity:1; 
stroke-linecap:round; stroke-linejoin:round;">
</g>
<g style="fill:#000000; fill-opacity:0.0; 
stroke:#000000; stroke-width:150000.000000; stroke-opacity:1; 
stroke-linecap:round; stroke-linejoin:round;">
<text x="286002200.000000" y="85650000.000000"
textLength="1450000.000000" font-size="1733333.000000" lengthAdjust="spacingAndGlyphs"
text-anchor="middle" opacity="0">B</text>
<g class="stroked-text"><desc>B</desc>
<path d="M286095057 84907142
L286280771 84969047
L286342676 85030952
L286404580 85154761
L286404580 85340476
L286342676 85464285
L286280771 85526190
L286156961 85588095
L285661723 85588095
L285661723 84288095
L286095057 84288095
L286218866 84350000
L286280771 84411904
L286342676 84535714
L286342676 84659523
L286280771 84783333
L286218866 84845238
L286095057 84907142
L285661723 84907142
" />
</g></g>
<g style="fill:#000000; fill-opacity:0.0; 
stroke:#000000; stroke-width:21200.000000; stroke-opacity:1; 
stroke-linecap:round; stroke-linejoin:round;">
</g>
<g style="fill:#000000; fill-opacity:0.0; 
stroke:#000000; stroke-width:150000.000000; stroke-opacity:1; 
stroke-linecap:round; stroke-linejoin:round;">
<text x="286002200.000000" y="135650000.000000"
textLength="1450000.000000" font-size="1733333.000000" lengthAdjust="spacingAndGlyphs"
text-anchor="middle" opacity="0">C</text>
<g class="stroked-text"><desc>C</desc>
<path d="M286404580 135464285
L286342676 135526190
L286156961 135588095
L286033152 135588095
L285847438 135526190
L285723628 135402380
L285661723 135278571
L285599819 135030952
L285599819 134845238
L285661723 134597619
L285723628 134473809
L285847438 134350000
L286033152 134288095
L286156961 134288095
L286342676 134350000
L286404580 134411904
" />
</g></g>
<g style="fill:#000000; fill-opacity:0.0; 
stroke:#000000; stroke-width:21200.000000; stroke-opacity:1; 
stroke-linecap:round; stroke-linejoin:round;">
</g>
<g style="fill:#000000; fill-opacity:0.0; 
stroke:#000000; stroke-width:150000.000000; stroke-opacity:1; 
stroke-linecap:round; stroke-linejoin:round;">
<text x="286002200.000000" y="185650000.000000"
textLength="1450000.000000" font-size="1733333.000000" lengthAdjust="spacingAndGlyphs"
text-anchor="middle" opacity="0">D</text>
<g class="stroked-text"><desc>D</desc>
<path d="M285661723 185588095
L285661723 184288095
L285971247 184288095
L286156961 184350000
L286280771 184473809
L286342676 184597619
L286404580 184845238
L286404580 185030952
L286342676 185278571
L286280771 185402380
L286156961 185526190
L285971247 185588095
L285661723 185588095
" />
</g></g>
<g style="fill:#000000; fill-opacity:0.0; 
stroke:#000000; stroke-width:21200.000000; stroke-opacity:1; 
stroke-linecap:round; stroke-linejoin:round;">
</g>
<g style="fill:#000000; fill-opacity:0.0; 
stroke:#000000; stroke-width:150000.000000; stroke-opacity:1; 
stroke-linecap:round; stroke-linejoin:round;">
<text x="200002200.000000" y="193857200.000000"
textLength="7007143.000000" font-size="2000000.000000" lengthAdjust="spacingAndGlyphs"
text-anchor="start" opacity="0">Date: </text>
<g class="stroked-text"><desc>Date: </desc>
<path d="M200434342 193785771
L200434342 192285771
L200791485 192285771
L201005771 192357200
L201148628 192500057
L201220057 192642914
L201291485 192928628
L201291485 193142914
L201220057 193428628
L201148628 193571485
L201005771 193714342
L200791485 193785771
L200434342 193785771
" />
<path d="M202577200 193785771
L202577200 193000057
L202505771 192857200
L202362914 192785771
L202077200 192785771
L201934342 192857200
" />
<path d="M202577200 193714342
L202434342 193785771
L202077200 193785771
L201934342 193714342
L201862914 193571485
L201862914 193428628
L201934342 193285771
L202077200 193214342
L202434342 193214342
L202577200 193142914
" />
<path d="M203077200 192785771
L203648628 192785771
" />
<path d="M203291485 192285771
L203291485 193571485
L203362914 193714342
L203505771 193785771
L203648628 193785771
" />
<path d="M204720057 193714342
L204577200 193785771
L204291485 193785771
L204148628 193714342
L204077200 193571485
L204077200 193000057
L204148628 192857200
L204291485 192785771
L204577200 192785771
L204720057 192857200
L204791485 193000057
L204791485 193142914
L204077200 193285771
" />
<path d="M205434342 193642914
L205505771 193714342
L205434342 193785771
L205362914 193714342
L205434342 193642914
L205434342 193785771
" />
<path d="M205434342 192857200
L205505771 192928628
L205434342 193000057
L205362914 192928628
L205434342 192857200
L205434342 193000057
" />
</g></g>
<g style="fill:#000000; fill-opacity:0.0; 
stroke:#000000; stroke-width:21200.000000; stroke-opacity:1; 
stroke-linecap:round; stroke-linejoin:round;">
</g>
<g style="fill:#000000; fill-opacity:0.0; 
stroke:#000000; stroke-width:150000.000000; stroke-opacity:1; 
stroke-linecap:round; stroke-linejoin:round;">
<path d="M177002200 194507200
L285002200 194507200
" />
</g>
<g style="fill:#000000; fill-opacity:0.0; 
stroke:#000000; stroke-width:21200.000000; stroke-opacity:1; 
stroke-linecap:round; stroke-linejoin:round;">
</g>
<g style="fill:#000000; fill-opacity:0.0; 
stroke:#000000; stroke-width:150000.000000; stroke-opacity:1; 
stroke-linecap:round; stroke-linejoin:round;">
<text x="178002200.000000" y="196657200.000000"
textLength="33364286.000000" font-size="2000000.000000" lengthAdjust="spacingAndGlyphs"
text-anchor="start" opacity="0">KiCad E.D.A.  pcbnew (6.0.6)</text>
<g class="stroked-text"><desc>KiCad E.D.A.  pcbnew (6.0.6)</desc>
<path d="M178434342 196585771
L178434342 195085771
" />
<path d="M179291485 196585771
L178648628 195728628
" />
<path d="M179291485 195085771
L178434342 195942914
" />
<path d="M179934342 196585771
L179934342 195585771
" />
<path d="M179934342 195085771
L179862914 195157200
L179934342 195228628
L180005771 195157200
L179934342 195085771
L179934342 195228628
" />
<path d="M181505771 196442914
L181434342 196514342
L181220057 196585771
L181077200 196585771
L180862914 196514342
L180720057 196371485
L180648628 196228628
L180577200 195942914
L180577200 195728628
L180648628 195442914
L180720057 195300057
L180862914 195157200
L181077200 195085771
L181220057 195085771
L181434342 195157200
L181505771 195228628
" />
<path d="M182791485 196585771
L182791485 195800057
L182720057 195657200
L182577200 195585771
L182291485 195585771
L182148628 195657200
" />
<path d="M182791485 196514342
L182648628 196585771
L182291485 196585771
L182148628 196514342
L182077200 196371485
L182077200 196228628
L182148628 196085771
L182291485 196014342
L182648628 196014342
L182791485 195942914
" />
<path d="M184148628 196585771
L184148628 195085771
" />
<path d="M184148628 196514342
L184005771 196585771
L183720057 196585771
L183577200 196514342
L183505771 196442914
L183434342 196300057
L183434342 195871485
L183505771 195728628
L183577200 195657200
L183720057 195585771
L184005771 195585771
L184148628 195657200
" />
<path d="M186005771 195800057
L186505771 195800057
" />
<path d="M186720057 196585771
L186005771 196585771
L186005771 195085771
L186720057 195085771
" />
<path d="M187362914 196442914
L187434342 196514342
L187362914 196585771
L187291485 196514342
L187362914 196442914
L187362914 196585771
" />
<path d="M188077200 196585771
L188077200 195085771
L188434342 195085771
L188648628 195157200
L188791485 195300057
L188862914 195442914
L188934342 195728628
L188934342 195942914
L188862914 196228628
L188791485 196371485
L188648628 196514342
L188434342 196585771
L188077200 196585771
" />
<path d="M189577200 196442914
L189648628 196514342
L189577200 196585771
L189505771 196514342
L189577200 196442914
L189577200 196585771
" />
<path d="M190220057 196157200
L190934342 196157200
" />
<path d="M190077200 196585771
L190577200 195085771
L191077200 196585771
" />
<path d="M191577200 196442914
L191648628 196514342
L191577200 196585771
L191505771 196514342
L191577200 196442914
L191577200 196585771
" />
<path d="M194577200 195585771
L194577200 197085771
" />
<path d="M194577200 195657200
L194720057 195585771
L195005771 195585771
L195148628 195657200
L195220057 195728628
L195291485 195871485
L195291485 196300057
L195220057 196442914
L195148628 196514342
L195005771 196585771
L194720057 196585771
L194577200 196514342
" />
<path d="M196577200 196514342
L196434342 196585771
L196148628 196585771
L196005771 196514342
L195934342 196442914
L195862914 196300057
L195862914 195871485
L195934342 195728628
L196005771 195657200
L196148628 195585771
L196434342 195585771
L196577200 195657200
" />
<path d="M197220057 196585771
L197220057 195085771
" />
<path d="M197220057 195657200
L197362914 195585771
L197648628 195585771
L197791485 195657200
L197862914 195728628
L197934342 195871485
L197934342 196300057
L197862914 196442914
L197791485 196514342
L197648628 196585771
L197362914 196585771
L197220057 196514342
" />
<path d="M198577200 195585771
L198577200 196585771
" />
<path d="M198577200 195728628
L198648628 195657200
L198791485 195585771
L199005771 195585771
L199148628 195657200
L199220057 195800057
L199220057 196585771
" />
<path d="M200505771 196514342
L200362914 196585771
L200077200 196585771
L199934342 196514342
L199862914 196371485
L199862914 195800057
L199934342 195657200
L200077200 195585771
L200362914 195585771
L200505771 195657200
L200577200 195800057
L200577200 195942914
L199862914 196085771
" />
<path d="M201077200 195585771
L201362914 196585771
L201648628 195871485
L201934342 196585771
L202220057 195585771
" />
<path d="M204362914 197157200
L204291485 197085771
L204148628 196871485
L204077200 196728628
L204005771 196514342
L203934342 196157200
L203934342 195871485
L204005771 195514342
L204077200 195300057
L204148628 195157200
L204291485 194942914
L204362914 194871485
" />
<path d="M205577200 195085771
L205291485 195085771
L205148628 195157200
L205077200 195228628
L204934342 195442914
L204862914 195728628
L204862914 196300057
L204934342 196442914
L205005771 196514342
L205148628 196585771
L205434342 196585771
L205577200 196514342
L205648628 196442914
L205720057 196300057
L205720057 195942914
L205648628 195800057
L205577200 195728628
L205434342 195657200
L205148628 195657200
L205005771 195728628
L204934342 195800057
L204862914 195942914
" />
<path d="M206362914 196442914
L206434342 196514342
L206362914 196585771
L206291485 196514342
L206362914 196442914
L206362914 196585771
" />
<path d="M207362914 195085771
L207505771 195085771
L207648628 195157200
L207720057 195228628
L207791485 195371485
L207862914 195657200
L207862914 196014342
L207791485 196300057
L207720057 196442914
L207648628 196514342
L207505771 196585771
L207362914 196585771
L207220057 196514342
L207148628 196442914
L207077200 196300057
L207005771 196014342
L207005771 195657200
L207077200 195371485
L207148628 195228628
L207220057 195157200
L207362914 195085771
" />
<path d="M208505771 196442914
L208577200 196514342
L208505771 196585771
L208434342 196514342
L208505771 196442914
L208505771 196585771
" />
<path d="M209862914 195085771
L209577200 195085771
L209434342 195157200
L209362914 195228628
L209220057 195442914
L209148628 195728628
L209148628 196300057
L209220057 196442914
L209291485 196514342
L209434342 196585771
L209720057 196585771
L209862914 196514342
L209934342 196442914
L210005771 196300057
L210005771 195942914
L209934342 195800057
L209862914 195728628
L209720057 195657200
L209434342 195657200
L209291485 195728628
L209220057 195800057
L209148628 195942914
" />
<path d="M210505771 197157200
L210577200 197085771
L210720057 196871485
L210791485 196728628
L210862914 196514342
L210934342 196157200
L210934342 195871485
L210862914 195514342
L210791485 195300057
L210720057 195157200
L210577200 194942914
L210505771 194871485
" />
</g></g>
<g style="fill:#000000; fill-opacity:0.0; 
stroke:#000000; stroke-width:21200.000000; stroke-opacity:1; 
stroke-linecap:round; stroke-linejoin:round;">
</g>
<g style="fill:#000000; fill-opacity:0.0; 
stroke:#000000; stroke-width:150000.000000; stroke-opacity:1; 
stroke-linecap:round; stroke-linejoin:round;">
<path d="M177002200 191507200
L285002200 191507200
" />
</g>
<g style="fill:#000000; fill-opacity:0.0; 
stroke:#000000; stroke-width:21200.000000; stroke-opacity:1; 
stroke-linecap:round; stroke-linejoin:round;">
</g>
<g style="fill:#000000; fill-opacity:0.0; 
stroke:#000000; stroke-width:300000.000000; stroke-opacity:1; 
stroke-linecap:round; stroke-linejoin:round;">
<text x="263002200.000000" y="193857200.000000"
textLength="5935714.000000" font-size="2000000.000000" lengthAdjust="spacingAndGlyphs"
text-anchor="start" opacity="0">Rev: </text>
<g class="stroked-text"><desc>Rev: </desc>
<path d="M264411485 193785771
L263911485 193071485
" />
<path d="M263554342 193785771
L263554342 192285771
L264125771 192285771
L264268628 192357200
L264340057 192428628
L264411485 192571485
L264411485 192785771
L264340057 192928628
L264268628 193000057
L264125771 193071485
L263554342 193071485
" />
<path d="M265625771 193714342
L265482914 193785771
L265197200 193785771
L265054342 193714342
L264982914 193571485
L264982914 193000057
L265054342 192857200
L265197200 192785771
L265482914 192785771
L265625771 192857200
L265697200 193000057
L265697200 193142914
L264982914 193285771
" />
<path d="M266197200 192785771
L266554342 193785771
L266911485 192785771
" />
<path d="M267482914 193642914
L267554342 193714342
L267482914 193785771
L267411485 193714342
L267482914 193642914
L267482914 193785771
" />
<path d="M267482914 192857200
L267554342 192928628
L267482914 193000057
L267411485 192928628
L267482914 192857200
L267482914 193000057
" />
</g></g>
<g style="fill:#000000; fill-opacity:0.0; 
stroke:#000000; stroke-width:21200.000000; stroke-opacity:1; 
stroke-linecap:round; stroke-linejoin:round;">
</g>
<g style="fill:#000000; fill-opacity:0.0; 
stroke:#000000; stroke-width:150000.000000; stroke-opacity:1; 
stroke-linecap:round; stroke-linejoin:round;">
<text x="178002200.000000" y="193857200.000000"
textLength="9604286.000000" font-size="2000000.000000" lengthAdjust="spacingAndGlyphs"
text-anchor="start" opacity="0">Size: A4</text>
<g class="stroked-text"><desc>Size: A4</desc>
<path d="M178362914 193714342
L178577200 193785771
L178934342 193785771
L179077200 193714342
L179148628 193642914
L179220057 193500057
L179220057 193357200
L179148628 193214342
L179077200 193142914
L178934342 193071485
L178648628 193000057
L178505771 192928628
L178434342 192857200
L178362914 192714342
L178362914 192571485
L178434342 192428628
L178505771 192357200
L178648628 192285771
L179005771 192285771
L179220057 192357200
" />
<path d="M179862914 193785771
L179862914 192785771
" />
<path d="M179862914 192285771
L179791485 192357200
L179862914 192428628
L179934342 192357200
L179862914 192285771
L179862914 192428628
" />
<path d="M180434342 192785771
L181220057 192785771
L180434342 193785771
L181220057 193785771
" />
<path d="M182362914 193714342
L182220057 193785771
L181934342 193785771
L181791485 193714342
L181720057 193571485
L181720057 193000057
L181791485 192857200
L181934342 192785771
L182220057 192785771
L182362914 192857200
L182434342 193000057
L182434342 193142914
L181720057 193285771
" />
<path d="M183077200 193642914
L183148628 193714342
L183077200 193785771
L183005771 193714342
L183077200 193642914
L183077200 193785771
" />
<path d="M183077200 192857200
L183148628 192928628
L183077200 193000057
L183005771 192928628
L183077200 192857200
L183077200 193000057
" />
<path d="M184862914 193357200
L185577200 193357200
" />
<path d="M184720057 193785771
L185220057 192285771
L185720057 193785771
" />
<path d="M186862914 192785771
L186862914 193785771
" />
<path d="M186505771 192214342
L186148628 193285771
L187077200 193285771
" />
</g></g>
<g style="fill:#000000; fill-opacity:0.0; 
stroke:#000000; stroke-width:21200.000000; stroke-opacity:1; 
stroke-linecap:round; stroke-linejoin:round;">
</g>
<g style="fill:#000000; fill-opacity:0.0; 
stroke:#000000; stroke-width:150000.000000; stroke-opacity:1; 
stroke-linecap:round; stroke-linejoin:round;">
<text x="263002200.000000" y="196657200.000000"
textLength="8507143.000000" font-size="2000000.000000" lengthAdjust="spacingAndGlyphs"
text-anchor="start" opacity="0">Id: 1/1</text>
<g class="stroked-text"><desc>Id: 1/1</desc>
<path d="M263434342 196585771
L263434342 195085771
" />
<path d="M264791485 196585771
L264791485 195085771
" />
<path d="M264791485 196514342
L264648628 196585771
L264362914 196585771
L264220057 196514342
L264148628 196442914
L264077200 196300057
L264077200 195871485
L264148628 195728628
L264220057 195657200
L264362914 195585771
L264648628 195585771
L264791485 195657200
" />
<path d="M265505771 196442914
L265577200 196514342
L265505771 196585771
L265434342 196514342
L265505771 196442914
L265505771 196585771
" />
<path d="M265505771 195657200
L265577200 195728628
L265505771 195800057
L265434342 195728628
L265505771 195657200
L265505771 195800057
" />
<path d="M268148628 196585771
L267291485 196585771
" />
<path d="M267720057 196585771
L267720057 195085771
L267577200 195300057
L267434342 195442914
L267291485 195514342
" />
<path d="M269862914 195014342
L268577200 196942914
" />
<path d="M271148628 196585771
L270291485 196585771
" />
<path d="M270720057 196585771
L270720057 195085771
L270577200 195300057
L270434342 195442914
L270291485 195514342
" />
</g></g>
<g style="fill:#000000; fill-opacity:0.0; 
stroke:#000000; stroke-width:21200.000000; stroke-opacity:1; 
stroke-linecap:round; stroke-linejoin:round;">
</g>
<g style="fill:#000000; fill-opacity:0.0; 
stroke:#000000; stroke-width:150000.000000; stroke-opacity:1; 
stroke-linecap:round; stroke-linejoin:round;">
<path d="M177002200 187507200
L285002200 187507200
" />
</g>
<g style="fill:#000000; fill-opacity:0.0; 
stroke:#000000; stroke-width:21200.000000; stroke-opacity:1; 
stroke-linecap:round; stroke-linejoin:round;">
</g>
<g style="fill:#000000; fill-opacity:0.0; 
stroke:#000000; stroke-width:400000.000000; stroke-opacity:1; 
stroke-linecap:round; stroke-linejoin:round;">
<text x="178002200.000000" y="190307200.000000"
textLength="9409643.000000" font-size="2666666.000000" lengthAdjust="spacingAndGlyphs"
text-anchor="start" opacity="0">Title: </text>
<g class="stroked-text"><desc>Title: </desc>
<path d="M178714580 188211961
L179857438 188211961
" />
<path d="M179036009 190211961
L179286009 188211961
" />
<path d="M180274104 190211961
L180440771 188878628
" />
<path d="M180524104 188211961
L180416961 188307200
L180500295 188402438
L180607438 188307200
L180524104 188211961
L180500295 188402438
" />
<path d="M181107438 188878628
L181869342 188878628
" />
<path d="M181476485 188211961
L181262200 189926247
L181333628 190116723
L181512200 190211961
L181702676 190211961
" />
<path d="M182655057 190211961
L182476485 190116723
L182405057 189926247
L182619342 188211961
" />
<path d="M184190771 190116723
L183988390 190211961
L183607438 190211961
L183428866 190116723
L183357438 189926247
L183452676 189164342
L183571723 188973866
L183774104 188878628
L184155057 188878628
L184333628 188973866
L184405057 189164342
L184381247 189354819
L183405057 189545295
" />
<path d="M185155057 190021485
L185238390 190116723
L185131247 190211961
L185047914 190116723
L185155057 190021485
L185131247 190211961
" />
<path d="M185286009 188973866
L185369342 189069104
L185262200 189164342
L185178866 189069104
L185286009 188973866
L185262200 189164342
" />
</g></g>
<g style="fill:#000000; fill-opacity:0.0; 
stroke:#000000; stroke-width:21200.000000; stroke-opacity:1; 
stroke-linecap:round; stroke-linejoin:round;">
</g>
<g style="fill:#000000; fill-opacity:0.0; 
stroke:#000000; stroke-width:150000.000000; stroke-opacity:1; 
stroke-linecap:round; stroke-linejoin:round;">
<text x="178002200.000000" y="186457200.000000"
textLength="57520000.000000" font-size="2000000.000000" lengthAdjust="spacingAndGlyphs"
text-anchor="start" opacity="0">File: MODULE-CONN-RASP-PICO-2040.kicad_pcb</text>
<g class="stroked-text"><desc>File: MODULE-CONN-RASP-PICO-2040.kicad_pcb</desc>
<path d="M178934342 185600057
L178434342 185600057
" />
<path d="M178434342 186385771
L178434342 184885771
L179148628 184885771
" />
<path d="M179720057 186385771
L179720057 185385771
" />
<path d="M179720057 184885771
L179648628 184957200
L179720057 185028628
L179791485 184957200
L179720057 184885771
L179720057 185028628
" />
<path d="M180648628 186385771
L180505771 186314342
L180434342 186171485
L180434342 184885771
" />
<path d="M181791485 186314342
L181648628 186385771
L181362914 186385771
L181220057 186314342
L181148628 186171485
L181148628 185600057
L181220057 185457200
L181362914 185385771
L181648628 185385771
L181791485 185457200
L181862914 185600057
L181862914 185742914
L181148628 185885771
" />
<path d="M182505771 186242914
L182577200 186314342
L182505771 186385771
L182434342 186314342
L182505771 186242914
L182505771 186385771
" />
<path d="M182505771 185457200
L182577200 185528628
L182505771 185600057
L182434342 185528628
L182505771 185457200
L182505771 185600057
" />
<path d="M184362914 186385771
L184362914 184885771
L184862914 185957200
L185362914 184885771
L185362914 186385771
" />
<path d="M186362914 184885771
L186648628 184885771
L186791485 184957200
L186934342 185100057
L187005771 185385771
L187005771 185885771
L186934342 186171485
L186791485 186314342
L186648628 186385771
L186362914 186385771
L186220057 186314342
L186077200 186171485
L186005771 185885771
L186005771 185385771
L186077200 185100057
L186220057 184957200
L186362914 184885771
" />
<path d="M187648628 186385771
L187648628 184885771
L188005771 184885771
L188220057 184957200
L188362914 185100057
L188434342 185242914
L188505771 185528628
L188505771 185742914
L188434342 186028628
L188362914 186171485
L188220057 186314342
L188005771 186385771
L187648628 186385771
" />
<path d="M189148628 184885771
L189148628 186100057
L189220057 186242914
L189291485 186314342
L189434342 186385771
L189720057 186385771
L189862914 186314342
L189934342 186242914
L190005771 186100057
L190005771 184885771
" />
<path d="M191434342 186385771
L190720057 186385771
L190720057 184885771
" />
<path d="M191934342 185600057
L192434342 185600057
" />
<path d="M192648628 186385771
L191934342 186385771
L191934342 184885771
L192648628 184885771
" />
<path d="M193291485 185814342
L194434342 185814342
" />
<path d="M196005771 186242914
L195934342 186314342
L195720057 186385771
L195577200 186385771
L195362914 186314342
L195220057 186171485
L195148628 186028628
L195077200 185742914
L195077200 185528628
L195148628 185242914
L195220057 185100057
L195362914 184957200
L195577200 184885771
L195720057 184885771
L195934342 184957200
L196005771 185028628
" />
<path d="M196934342 184885771
L197220057 184885771
L197362914 184957200
L197505771 185100057
L197577200 185385771
L197577200 185885771
L197505771 186171485
L197362914 186314342
L197220057 186385771
L196934342 186385771
L196791485 186314342
L196648628 186171485
L196577200 185885771
L196577200 185385771
L196648628 185100057
L196791485 184957200
L196934342 184885771
" />
<path d="M198220057 186385771
L198220057 184885771
L199077200 186385771
L199077200 184885771
" />
<path d="M199791485 186385771
L199791485 184885771
L200648628 186385771
L200648628 184885771
" />
<path d="M201362914 185814342
L202505771 185814342
" />
<path d="M204077200 186385771
L203577200 185671485
" />
<path d="M203220057 186385771
L203220057 184885771
L203791485 184885771
L203934342 184957200
L204005771 185028628
L204077200 185171485
L204077200 185385771
L204005771 185528628
L203934342 185600057
L203791485 185671485
L203220057 185671485
" />
<path d="M204648628 185957200
L205362914 185957200
" />
<path d="M204505771 186385771
L205005771 184885771
L205505771 186385771
" />
<path d="M205934342 186314342
L206148628 186385771
L206505771 186385771
L206648628 186314342
L206720057 186242914
L206791485 186100057
L206791485 185957200
L206720057 185814342
L206648628 185742914
L206505771 185671485
L206220057 185600057
L206077200 185528628
L206005771 185457200
L205934342 185314342
L205934342 185171485
L206005771 185028628
L206077200 184957200
L206220057 184885771
L206577200 184885771
L206791485 184957200
" />
<path d="M207434342 186385771
L207434342 184885771
L208005771 184885771
L208148628 184957200
L208220057 185028628
L208291485 185171485
L208291485 185385771
L208220057 185528628
L208148628 185600057
L208005771 185671485
L207434342 185671485
" />
<path d="M208934342 185814342
L210077200 185814342
" />
<path d="M210791485 186385771
L210791485 184885771
L211362914 184885771
L211505771 184957200
L211577200 185028628
L211648628 185171485
L211648628 185385771
L211577200 185528628
L211505771 185600057
L211362914 185671485
L210791485 185671485
" />
<path d="M212291485 186385771
L212291485 184885771
" />
<path d="M213862914 186242914
L213791485 186314342
L213577200 186385771
L213434342 186385771
L213220057 186314342
L213077200 186171485
L213005771 186028628
L212934342 185742914
L212934342 185528628
L213005771 185242914
L213077200 185100057
L213220057 184957200
L213434342 184885771
L213577200 184885771
L213791485 184957200
L213862914 185028628
" />
<path d="M214791485 184885771
L215077200 184885771
L215220057 184957200
L215362914 185100057
L215434342 185385771
L215434342 185885771
L215362914 186171485
L215220057 186314342
L215077200 186385771
L214791485 186385771
L214648628 186314342
L214505771 186171485
L214434342 185885771
L214434342 185385771
L214505771 185100057
L214648628 184957200
L214791485 184885771
" />
<path d="M216077200 185814342
L217220057 185814342
" />
<path d="M217862914 185028628
L217934342 184957200
L218077200 184885771
L218434342 184885771
L218577200 184957200
L218648628 185028628
L218720057 185171485
L218720057 185314342
L218648628 185528628
L217791485 186385771
L218720057 186385771
" />
<path d="M219648628 184885771
L219791485 184885771
L219934342 184957200
L220005771 185028628
L220077200 185171485
L220148628 185457200
L220148628 185814342
L220077200 186100057
L220005771 186242914
L219934342 186314342
L219791485 186385771
L219648628 186385771
L219505771 186314342
L219434342 186242914
L219362914 186100057
L219291485 185814342
L219291485 185457200
L219362914 185171485
L219434342 185028628
L219505771 184957200
L219648628 184885771
" />
<path d="M221434342 185385771
L221434342 186385771
" />
<path d="M221077200 184814342
L220720057 185885771
L221648628 185885771
" />
<path d="M222505771 184885771
L222648628 184885771
L222791485 184957200
L222862914 185028628
L222934342 185171485
L223005771 185457200
L223005771 185814342
L222934342 186100057
L222862914 186242914
L222791485 186314342
L222648628 186385771
L222505771 186385771
L222362914 186314342
L222291485 186242914
L222220057 186100057
L222148628 185814342
L222148628 185457200
L222220057 185171485
L222291485 185028628
L222362914 184957200
L222505771 184885771
" />
<path d="M223648628 186242914
L223720057 186314342
L223648628 186385771
L223577200 186314342
L223648628 186242914
L223648628 186385771
" />
<path d="M224362914 186385771
L224362914 184885771
" />
<path d="M224505771 185814342
L224934342 186385771
" />
<path d="M224934342 185385771
L224362914 185957200
" />
<path d="M225577200 186385771
L225577200 185385771
" />
<path d="M225577200 184885771
L225505771 184957200
L225577200 185028628
L225648628 184957200
L225577200 184885771
L225577200 185028628
" />
<path d="M226934342 186314342
L226791485 186385771
L226505771 186385771
L226362914 186314342
L226291485 186242914
L226220057 186100057
L226220057 185671485
L226291485 185528628
L226362914 185457200
L226505771 185385771
L226791485 185385771
L226934342 185457200
" />
<path d="M228220057 186385771
L228220057 185600057
L228148628 185457200
L228005771 185385771
L227720057 185385771
L227577200 185457200
" />
<path d="M228220057 186314342
L228077200 186385771
L227720057 186385771
L227577200 186314342
L227505771 186171485
L227505771 186028628
L227577200 185885771
L227720057 185814342
L228077200 185814342
L228220057 185742914
" />
<path d="M229577200 186385771
L229577200 184885771
" />
<path d="M229577200 186314342
L229434342 186385771
L229148628 186385771
L229005771 186314342
L228934342 186242914
L228862914 186100057
L228862914 185671485
L228934342 185528628
L229005771 185457200
L229148628 185385771
L229434342 185385771
L229577200 185457200
" />
<path d="M229934342 186528628
L231077200 186528628
" />
<path d="M231434342 185385771
L231434342 186885771
" />
<path d="M231434342 185457200
L231577200 185385771
L231862914 185385771
L232005771 185457200
L232077200 185528628
L232148628 185671485
L232148628 186100057
L232077200 186242914
L232005771 186314342
L231862914 186385771
L231577200 186385771
L231434342 186314342
" />
<path d="M233434342 186314342
L233291485 186385771
L233005771 186385771
L232862914 186314342
L232791485 186242914
L232720057 186100057
L232720057 185671485
L232791485 185528628
L232862914 185457200
L233005771 185385771
L233291485 185385771
L233434342 185457200
" />
<path d="M234077200 186385771
L234077200 184885771
" />
<path d="M234077200 185457200
L234220057 185385771
L234505771 185385771
L234648628 185457200
L234720057 185528628
L234791485 185671485
L234791485 186100057
L234720057 186242914
L234648628 186314342
L234505771 186385771
L234220057 186385771
L234077200 186314342
" />
</g></g>
<g style="fill:#000000; fill-opacity:0.0; 
stroke:#000000; stroke-width:21200.000000; stroke-opacity:1; 
stroke-linecap:round; stroke-linejoin:round;">
</g>
<g style="fill:#000000; fill-opacity:0.0; 
stroke:#000000; stroke-width:150000.000000; stroke-opacity:1; 
stroke-linecap:round; stroke-linejoin:round;">
<path d="M177002200 181507200
L285002200 181507200
" />
</g>
<g style="fill:#000000; fill-opacity:0.0; 
stroke:#000000; stroke-width:21200.000000; stroke-opacity:1; 
stroke-linecap:round; stroke-linejoin:round;">
</g>
<g style="fill:#000000; fill-opacity:0.0; 
stroke:#000000; stroke-width:150000.000000; stroke-opacity:1; 
stroke-linecap:round; stroke-linejoin:round;">
<text x="178002200.000000" y="183757200.000000"
textLength="8221429.000000" font-size="2000000.000000" lengthAdjust="spacingAndGlyphs"
text-anchor="start" opacity="0">Sheet: </text>
<g class="stroked-text"><desc>Sheet: </desc>
<path d="M178362914 183614342
L178577200 183685771
L178934342 183685771
L179077200 183614342
L179148628 183542914
L179220057 183400057
L179220057 183257200
L179148628 183114342
L179077200 183042914
L178934342 182971485
L178648628 182900057
L178505771 182828628
L178434342 182757200
L178362914 182614342
L178362914 182471485
L178434342 182328628
L178505771 182257200
L178648628 182185771
L179005771 182185771
L179220057 182257200
" />
<path d="M179862914 183685771
L179862914 182185771
" />
<path d="M180505771 183685771
L180505771 182900057
L180434342 182757200
L180291485 182685771
L180077200 182685771
L179934342 182757200
L179862914 182828628
" />
<path d="M181791485 183614342
L181648628 183685771
L181362914 183685771
L181220057 183614342
L181148628 183471485
L181148628 182900057
L181220057 182757200
L181362914 182685771
L181648628 182685771
L181791485 182757200
L181862914 182900057
L181862914 183042914
L181148628 183185771
" />
<path d="M183077200 183614342
L182934342 183685771
L182648628 183685771
L182505771 183614342
L182434342 183471485
L182434342 182900057
L182505771 182757200
L182648628 182685771
L182934342 182685771
L183077200 182757200
L183148628 182900057
L183148628 183042914
L182434342 183185771
" />
<path d="M183577200 182685771
L184148628 182685771
" />
<path d="M183791485 182185771
L183791485 183471485
L183862914 183614342
L184005771 183685771
L184148628 183685771
" />
<path d="M184648628 183542914
L184720057 183614342
L184648628 183685771
L184577200 183614342
L184648628 183542914
L184648628 183685771
" />
<path d="M184648628 182757200
L184720057 182828628
L184648628 182900057
L184577200 182828628
L184648628 182757200
L184648628 182900057
" />
</g></g>
<g style="fill:#000000; fill-opacity:0.0; 
stroke:#000000; stroke-width:21200.000000; stroke-opacity:1; 
stroke-linecap:round; stroke-linejoin:round;">
</g>
<g style="fill:#000000; fill-opacity:0.0; 
stroke:#000000; stroke-width:300000.000000; stroke-opacity:1; 
stroke-linecap:round; stroke-linejoin:round;">
<text x="178002200.000000" y="180757200.000000"
textLength="150000.000000" font-size="2000000.000000" lengthAdjust="spacingAndGlyphs"
text-anchor="start" opacity="0"></text>
<g class="stroked-text"><desc></desc>
</g></g>
<g style="fill:#000000; fill-opacity:0.0; 
stroke:#000000; stroke-width:21200.000000; stroke-opacity:1; 
stroke-linecap:round; stroke-linejoin:round;">
</g>
<g style="fill:#000000; fill-opacity:0.0; 
stroke:#000000; stroke-width:150000.000000; stroke-opacity:1; 
stroke-linecap:round; stroke-linejoin:round;">
<text x="178002200.000000" y="177757200.000000"
textLength="300000.000000" font-size="2000000.000000" lengthAdjust="spacingAndGlyphs"
text-anchor="start" opacity="0"></text>
<g class="stroked-text"><desc></desc>
</g></g>
<g style="fill:#000000; fill-opacity:0.0; 
stroke:#000000; stroke-width:21200.000000; stroke-opacity:1; 
stroke-linecap:round; stroke-linejoin:round;">
</g>
<g style="fill:#000000; fill-opacity:0.0; 
stroke:#000000; stroke-width:150000.000000; stroke-opacity:1; 
stroke-linecap:round; stroke-linejoin:round;">
<text x="178002200.000000" y="174757200.000000"
textLength="150000.000000" font-size="2000000.000000" lengthAdjust="spacingAndGlyphs"
text-anchor="start" opacity="0"></text>
<g class="stroked-text"><desc></desc>
</g></g>
<g style="fill:#000000; fill-opacity:0.0; 
stroke:#000000; stroke-width:21200.000000; stroke-opacity:1; 
stroke-linecap:round; stroke-linejoin:round;">
</g>
<g style="fill:#000000; fill-opacity:0.0; 
stroke:#000000; stroke-width:150000.000000; stroke-opacity:1; 
stroke-linecap:round; stroke-linejoin:round;">
<text x="178002200.000000" y="171757200.000000"
textLength="150000.000000" font-size="2000000.000000" lengthAdjust="spacingAndGlyphs"
text-anchor="start" opacity="0"></text>
<g class="stroked-text"><desc></desc>
</g></g>
<g style="fill:#000000; fill-opacity:0.0; 
stroke:#000000; stroke-width:21200.000000; stroke-opacity:1; 
stroke-linecap:round; stroke-linejoin:round;">
</g>
<g style="fill:#000000; fill-opacity:0.0; 
stroke:#000000; stroke-width:150000.000000; stroke-opacity:1; 
stroke-linecap:round; stroke-linejoin:round;">
<text x="178002200.000000" y="168757200.000000"
textLength="150000.000000" font-size="2000000.000000" lengthAdjust="spacingAndGlyphs"
text-anchor="start" opacity="0"></text>
<g class="stroked-text"><desc></desc>
</g></g>
<g style="fill:#000000; fill-opacity:0.0; 
stroke:#000000; stroke-width:21200.000000; stroke-opacity:1; 
stroke-linecap:round; stroke-linejoin:round;">
</g>
<g style="fill:#000000; fill-opacity:0.0; 
stroke:#000000; stroke-width:150000.000000; stroke-opacity:1; 
stroke-linecap:round; stroke-linejoin:round;">
<path d="M197002200 191507200
L197002200 194507200
" />
</g>
<g style="fill:#000000; fill-opacity:0.0; 
stroke:#000000; stroke-width:21200.000000; stroke-opacity:1; 
stroke-linecap:round; stroke-linejoin:round;">
</g>
<g style="fill:#000000; fill-opacity:0.0; 
stroke:#000000; stroke-width:150000.000000; stroke-opacity:1; 
stroke-linecap:round; stroke-linejoin:round;">
<path d="M261002200 191507200
L261002200 198007200
" />
</g>
<g style="fill:#AFAFAF; fill-opacity:0.0; 
stroke:#AFAFAF; stroke-width:150000.000000; stroke-opacity:1; 
stroke-linecap:round; stroke-linejoin:round;">
<text x="179452705.000000" y="77730000.000000"
textLength="26340476.000000" font-size="1333333.000000" lengthAdjust="spacingAndGlyphs"
text-anchor="middle" opacity="0">MODULE-CONN-RASP-PICO-2040</text>
<g class="stroked-text"><desc>MODULE-CONN-RASP-PICO-2040</desc>
<path d="M166595562 77682380
L166595562 76682380
L166928895 77396666
L167262228 76682380
L167262228 77682380
" />
<path d="M167928895 76682380
L168119371 76682380
L168214609 76730000
L168309847 76825238
L168357466 77015714
L168357466 77349047
L168309847 77539523
L168214609 77634761
L168119371 77682380
L167928895 77682380
L167833657 77634761
L167738419 77539523
L167690800 77349047
L167690800 77015714
L167738419 76825238
L167833657 76730000
L167928895 76682380
" />
<path d="M168786038 77682380
L168786038 76682380
L169024133 76682380
L169166990 76730000
L169262228 76825238
L169309847 76920476
L169357466 77110952
L169357466 77253809
L169309847 77444285
L169262228 77539523
L169166990 77634761
L169024133 77682380
L168786038 77682380
" />
<path d="M169786038 76682380
L169786038 77491904
L169833657 77587142
L169881276 77634761
L169976514 77682380
L170166990 77682380
L170262228 77634761
L170309847 77587142
L170357466 77491904
L170357466 76682380
" />
<path d="M171309847 77682380
L170833657 77682380
L170833657 76682380
" />
<path d="M171643181 77158571
L171976514 77158571
" />
<path d="M172119371 77682380
L171643181 77682380
L171643181 76682380
L172119371 76682380
" />
<path d="M172547943 77301428
L173309847 77301428
" />
<path d="M174357466 77587142
L174309847 77634761
L174166990 77682380
L174071752 77682380
L173928895 77634761
L173833657 77539523
L173786038 77444285
L173738419 77253809
L173738419 77110952
L173786038 76920476
L173833657 76825238
L173928895 76730000
L174071752 76682380
L174166990 76682380
L174309847 76730000
L174357466 76777619
" />
<path d="M174976514 76682380
L175166990 76682380
L175262228 76730000
L175357466 76825238
L175405085 77015714
L175405085 77349047
L175357466 77539523
L175262228 77634761
L175166990 77682380
L174976514 77682380
L174881276 77634761
L174786038 77539523
L174738419 77349047
L174738419 77015714
L174786038 76825238
L174881276 76730000
L174976514 76682380
" />
<path d="M175833657 77682380
L175833657 76682380
L176405085 77682380
L176405085 76682380
" />
<path d="M176881276 77682380
L176881276 76682380
L177452705 77682380
L177452705 76682380
" />
<path d="M177928895 77301428
L178690800 77301428
" />
<path d="M179738419 77682380
L179405085 77206190
" />
<path d="M179166990 77682380
L179166990 76682380
L179547943 76682380
L179643181 76730000
L179690800 76777619
L179738419 76872857
L179738419 77015714
L179690800 77110952
L179643181 77158571
L179547943 77206190
L179166990 77206190
" />
<path d="M180119371 77396666
L180595562 77396666
" />
<path d="M180024133 77682380
L180357466 76682380
L180690800 77682380
" />
<path d="M180976514 77634761
L181119371 77682380
L181357466 77682380
L181452705 77634761
L181500324 77587142
L181547943 77491904
L181547943 77396666
L181500324 77301428
L181452705 77253809
L181357466 77206190
L181166990 77158571
L181071752 77110952
L181024133 77063333
L180976514 76968095
L180976514 76872857
L181024133 76777619
L181071752 76730000
L181166990 76682380
L181405085 76682380
L181547943 76730000
" />
<path d="M181976514 77682380
L181976514 76682380
L182357466 76682380
L182452705 76730000
L182500324 76777619
L182547943 76872857
L182547943 77015714
L182500324 77110952
L182452705 77158571
L182357466 77206190
L181976514 77206190
" />
<path d="M182976514 77301428
L183738419 77301428
" />
<path d="M184214609 77682380
L184214609 76682380
L184595562 76682380
L184690800 76730000
L184738419 76777619
L184786038 76872857
L184786038 77015714
L184738419 77110952
L184690800 77158571
L184595562 77206190
L184214609 77206190
" />
<path d="M185214609 77682380
L185214609 76682380
" />
<path d="M186262228 77587142
L186214609 77634761
L186071752 77682380
L185976514 77682380
L185833657 77634761
L185738419 77539523
L185690800 77444285
L185643181 77253809
L185643181 77110952
L185690800 76920476
L185738419 76825238
L185833657 76730000
L185976514 76682380
L186071752 76682380
L186214609 76730000
L186262228 76777619
" />
<path d="M186881276 76682380
L187071752 76682380
L187166990 76730000
L187262228 76825238
L187309847 77015714
L187309847 77349047
L187262228 77539523
L187166990 77634761
L187071752 77682380
L186881276 77682380
L186786038 77634761
L186690800 77539523
L186643181 77349047
L186643181 77015714
L186690800 76825238
L186786038 76730000
L186881276 76682380
" />
<path d="M187738419 77301428
L188500324 77301428
" />
<path d="M188928895 76777619
L188976514 76730000
L189071752 76682380
L189309847 76682380
L189405085 76730000
L189452705 76777619
L189500324 76872857
L189500324 76968095
L189452705 77110952
L188881276 77682380
L189500324 77682380
" />
<path d="M190119371 76682380
L190214609 76682380
L190309847 76730000
L190357466 76777619
L190405085 76872857
L190452705 77063333
L190452705 77301428
L190405085 77491904
L190357466 77587142
L190309847 77634761
L190214609 77682380
L190119371 77682380
L190024133 77634761
L189976514 77587142
L189928895 77491904
L189881276 77301428
L189881276 77063333
L189928895 76872857
L189976514 76777619
L190024133 76730000
L190119371 76682380
" />
<path d="M191309847 77015714
L191309847 77682380
" />
<path d="M191071752 76634761
L190833657 77349047
L191452705 77349047
" />
<path d="M192024133 76682380
L192119371 76682380
L192214609 76730000
L192262228 76777619
L192309847 76872857
L192357466 77063333
L192357466 77301428
L192309847 77491904
L192262228 77587142
L192214609 77634761
L192119371 77682380
L192024133 77682380
L191928895 77634761
L191881276 77587142
L191833657 77491904
L191786038 77301428
L191786038 77063333
L191833657 76872857
L191881276 76777619
L191928895 76730000
L192024133 76682380
" />
</g><g transform="rotate(-90.000000 169312705.000000 104945000.000000)">
<text x="169312705.000000" y="105445000.000000"
textLength="3147381.000000" font-size="1333333.000000" lengthAdjust="spacingAndGlyphs"
text-anchor="middle" opacity="0">U10</text>
</g>
<g class="stroked-text"><desc>U10</desc>
<path d="M168765085 106183095
L169574609 106183095
L169669847 106135476
L169717466 106087857
L169765085 105992619
L169765085 105802142
L169717466 105706904
L169669847 105659285
L169574609 105611666
L168765085 105611666
" />
<path d="M169765085 104611666
L169765085 105183095
" />
<path d="M169765085 104897380
L168765085 104897380
L168907943 104992619
L169003181 105087857
L169050800 105183095
" />
<path d="M168765085 103992619
L168765085 103897380
L168812705 103802142
L168860324 103754523
L168955562 103706904
L169146038 103659285
L169384133 103659285
L169574609 103706904
L169669847 103754523
L169717466 103802142
L169765085 103897380
L169765085 103992619
L169717466 104087857
L169669847 104135476
L169574609 104183095
L169384133 104230714
L169146038 104230714
L168955562 104183095
L168860324 104135476
L168812705 104087857
L168765085 103992619
" />
</g><g transform="rotate(-90.000000 188342705.000000 104940000.000000)">
<text x="188342705.000000" y="105440000.000000"
textLength="3147381.000000" font-size="1333333.000000" lengthAdjust="spacingAndGlyphs"
text-anchor="middle" opacity="0">U10</text>
</g>
<g class="stroked-text"><desc>U10</desc>
<path d="M187795085 106178095
L188604609 106178095
L188699847 106130476
L188747466 106082857
L188795085 105987619
L188795085 105797142
L188747466 105701904
L188699847 105654285
L188604609 105606666
L187795085 105606666
" />
<path d="M188795085 104606666
L188795085 105178095
" />
<path d="M188795085 104892380
L187795085 104892380
L187937943 104987619
L188033181 105082857
L188080800 105178095
" />
<path d="M187795085 103987619
L187795085 103892380
L187842705 103797142
L187890324 103749523
L187985562 103701904
L188176038 103654285
L188414133 103654285
L188604609 103701904
L188699847 103749523
L188747466 103797142
L188795085 103892380
L188795085 103987619
L188747466 104082857
L188699847 104130476
L188604609 104178095
L188414133 104225714
L188176038 104225714
L187985562 104178095
L187890324 104130476
L187842705 104082857
L187795085 103987619
" />
</g><text x="179452705.000000" y="79230000.000000"
textLength="3147381.000000" font-size="1333333.000000" lengthAdjust="spacingAndGlyphs"
text-anchor="middle" opacity="0">U10</text>
<g class="stroked-text"><desc>U10</desc>
<path d="M178214609 78182380
L178214609 78991904
L178262228 79087142
L178309847 79134761
L178405085 79182380
L178595562 79182380
L178690800 79134761
L178738419 79087142
L178786038 78991904
L178786038 78182380
" />
<path d="M179786038 79182380
L179214609 79182380
" />
<path d="M179500324 79182380
L179500324 78182380
L179405085 78325238
L179309847 78420476
L179214609 78468095
" />
<path d="M180405085 78182380
L180500324 78182380
L180595562 78230000
L180643181 78277619
L180690800 78372857
L180738419 78563333
L180738419 78801428
L180690800 78991904
L180643181 79087142
L180595562 79134761
L180500324 79182380
L180405085 79182380
L180309847 79134761
L180262228 79087142
L180214609 78991904
L180166990 78801428
L180166990 78563333
L180214609 78372857
L180262228 78277619
L180309847 78230000
L180405085 78182380
" />
</g><text x="138650000.000000" y="131900000.000000"
textLength="17575952.000000" font-size="1333333.000000" lengthAdjust="spacingAndGlyphs"
text-anchor="middle" opacity="0">HEAD-I01-X-PI20-01</text>
<g class="stroked-text"><desc>HEAD-I01-X-PI20-01</desc>
<path d="M130197619 131852380
L130197619 130852380
" />
<path d="M130197619 131328571
L130769047 131328571
" />
<path d="M130769047 131852380
L130769047 130852380
" />
<path d="M131245238 131328571
L131578571 131328571
" />
<path d="M131721428 131852380
L131245238 131852380
L131245238 130852380
L131721428 130852380
" />
<path d="M132102380 131566666
L132578571 131566666
" />
<path d="M132007142 131852380
L132340476 130852380
L132673809 131852380
" />
<path d="M133007142 131852380
L133007142 130852380
L133245238 130852380
L133388095 130900000
L133483333 130995238
L133530952 131090476
L133578571 131280952
L133578571 131423809
L133530952 131614285
L133483333 131709523
L133388095 131804761
L133245238 131852380
L133007142 131852380
" />
<path d="M134007142 131471428
L134769047 131471428
" />
<path d="M135245238 131852380
L135245238 130852380
" />
<path d="M135911904 130852380
L136007142 130852380
L136102380 130900000
L136150000 130947619
L136197619 131042857
L136245238 131233333
L136245238 131471428
L136197619 131661904
L136150000 131757142
L136102380 131804761
L136007142 131852380
L135911904 131852380
L135816666 131804761
L135769047 131757142
L135721428 131661904
L135673809 131471428
L135673809 131233333
L135721428 131042857
L135769047 130947619
L135816666 130900000
L135911904 130852380
" />
<path d="M137197619 131852380
L136626190 131852380
" />
<path d="M136911904 131852380
L136911904 130852380
L136816666 130995238
L136721428 131090476
L136626190 131138095
" />
<path d="M137626190 131471428
L138388095 131471428
" />
<path d="M138769047 130852380
L139435714 131852380
" />
<path d="M139435714 130852380
L138769047 131852380
" />
<path d="M139816666 131471428
L140578571 131471428
" />
<path d="M141054761 131852380
L141054761 130852380
L141435714 130852380
L141530952 130900000
L141578571 130947619
L141626190 131042857
L141626190 131185714
L141578571 131280952
L141530952 131328571
L141435714 131376190
L141054761 131376190
" />
<path d="M142054761 131852380
L142054761 130852380
" />
<path d="M142483333 130947619
L142530952 130900000
L142626190 130852380
L142864285 130852380
L142959523 130900000
L143007142 130947619
L143054761 131042857
L143054761 131138095
L143007142 131280952
L142435714 131852380
L143054761 131852380
" />
<path d="M143673809 130852380
L143769047 130852380
L143864285 130900000
L143911904 130947619
L143959523 131042857
L144007142 131233333
L144007142 131471428
L143959523 131661904
L143911904 131757142
L143864285 131804761
L143769047 131852380
L143673809 131852380
L143578571 131804761
L143530952 131757142
L143483333 131661904
L143435714 131471428
L143435714 131233333
L143483333 131042857
L143530952 130947619
L143578571 130900000
L143673809 130852380
" />
<path d="M144435714 131471428
L145197619 131471428
" />
<path d="M145864285 130852380
L145959523 130852380
L146054761 130900000
L146102380 130947619
L146150000 131042857
L146197619 131233333
L146197619 131471428
L146150000 131661904
L146102380 131757142
L146054761 131804761
L145959523 131852380
L145864285 131852380
L145769047 131804761
L145721428 131757142
L145673809 131661904
L145626190 131471428
L145626190 131233333
L145673809 131042857
L145721428 130947619
L145769047 130900000
L145864285 130852380
" />
<path d="M147150000 131852380
L146578571 131852380
" />
<path d="M146864285 131852380
L146864285 130852380
L146769047 130995238
L146673809 131090476
L146578571 131138095
" />
</g><g transform="rotate(-90.000000 138650000.000000 104940000.000000)">
<text x="138650000.000000" y="105440000.000000"
textLength="1909286.000000" font-size="1333333.000000" lengthAdjust="spacingAndGlyphs"
text-anchor="middle" opacity="0">J1</text>
</g>
<g class="stroked-text"><desc>J1</desc>
<path d="M138102380 105273333
L138816666 105273333
L138959523 105320952
L139054761 105416190
L139102380 105559047
L139102380 105654285
" />
<path d="M139102380 104273333
L139102380 104844761
" />
<path d="M139102380 104559047
L138102380 104559047
L138245238 104654285
L138340476 104749523
L138388095 104844761
" />
</g><text x="119620000.000000" y="131900000.000000"
textLength="17575952.000000" font-size="1333333.000000" lengthAdjust="spacingAndGlyphs"
text-anchor="middle" opacity="0">HEAD-I01-X-PI20-01</text>
<g class="stroked-text"><desc>HEAD-I01-X-PI20-01</desc>
<path d="M111167619 131852380
L111167619 130852380
" />
<path d="M111167619 131328571
L111739047 131328571
" />
<path d="M111739047 131852380
L111739047 130852380
" />
<path d="M112215238 131328571
L112548571 131328571
" />
<path d="M112691428 131852380
L112215238 131852380
L112215238 130852380
L112691428 130852380
" />
<path d="M113072380 131566666
L113548571 131566666
" />
<path d="M112977142 131852380
L113310476 130852380
L113643809 131852380
" />
<path d="M113977142 131852380
L113977142 130852380
L114215238 130852380
L114358095 130900000
L114453333 130995238
L114500952 131090476
L114548571 131280952
L114548571 131423809
L114500952 131614285
L114453333 131709523
L114358095 131804761
L114215238 131852380
L113977142 131852380
" />
<path d="M114977142 131471428
L115739047 131471428
" />
<path d="M116215238 131852380
L116215238 130852380
" />
<path d="M116881904 130852380
L116977142 130852380
L117072380 130900000
L117120000 130947619
L117167619 131042857
L117215238 131233333
L117215238 131471428
L117167619 131661904
L117120000 131757142
L117072380 131804761
L116977142 131852380
L116881904 131852380
L116786666 131804761
L116739047 131757142
L116691428 131661904
L116643809 131471428
L116643809 131233333
L116691428 131042857
L116739047 130947619
L116786666 130900000
L116881904 130852380
" />
<path d="M118167619 131852380
L117596190 131852380
" />
<path d="M117881904 131852380
L117881904 130852380
L117786666 130995238
L117691428 131090476
L117596190 131138095
" />
<path d="M118596190 131471428
L119358095 131471428
" />
<path d="M119739047 130852380
L120405714 131852380
" />
<path d="M120405714 130852380
L119739047 131852380
" />
<path d="M120786666 131471428
L121548571 131471428
" />
<path d="M122024761 131852380
L122024761 130852380
L122405714 130852380
L122500952 130900000
L122548571 130947619
L122596190 131042857
L122596190 131185714
L122548571 131280952
L122500952 131328571
L122405714 131376190
L122024761 131376190
" />
<path d="M123024761 131852380
L123024761 130852380
" />
<path d="M123453333 130947619
L123500952 130900000
L123596190 130852380
L123834285 130852380
L123929523 130900000
L123977142 130947619
L124024761 131042857
L124024761 131138095
L123977142 131280952
L123405714 131852380
L124024761 131852380
" />
<path d="M124643809 130852380
L124739047 130852380
L124834285 130900000
L124881904 130947619
L124929523 131042857
L124977142 131233333
L124977142 131471428
L124929523 131661904
L124881904 131757142
L124834285 131804761
L124739047 131852380
L124643809 131852380
L124548571 131804761
L124500952 131757142
L124453333 131661904
L124405714 131471428
L124405714 131233333
L124453333 131042857
L124500952 130947619
L124548571 130900000
L124643809 130852380
" />
<path d="M125405714 131471428
L126167619 131471428
" />
<path d="M126834285 130852380
L126929523 130852380
L127024761 130900000
L127072380 130947619
L127120000 131042857
L127167619 131233333
L127167619 131471428
L127120000 131661904
L127072380 131757142
L127024761 131804761
L126929523 131852380
L126834285 131852380
L126739047 131804761
L126691428 131757142
L126643809 131661904
L126596190 131471428
L126596190 131233333
L126643809 131042857
L126691428 130947619
L126739047 130900000
L126834285 130852380
" />
<path d="M128120000 131852380
L127548571 131852380
" />
<path d="M127834285 131852380
L127834285 130852380
L127739047 130995238
L127643809 131090476
L127548571 131138095
" />
</g><g transform="rotate(-90.000000 119620000.000000 104940000.000000)">
<text x="119620000.000000" y="105440000.000000"
textLength="1909286.000000" font-size="1333333.000000" lengthAdjust="spacingAndGlyphs"
text-anchor="middle" opacity="0">J2</text>
</g>
<g class="stroked-text"><desc>J2</desc>
<path d="M119072380 105273333
L119786666 105273333
L119929523 105320952
L120024761 105416190
L120072380 105559047
L120072380 105654285
" />
<path d="M119167619 104844761
L119120000 104797142
L119072380 104701904
L119072380 104463809
L119120000 104368571
L119167619 104320952
L119262857 104273333
L119358095 104273333
L119500952 104320952
L120072380 104892380
L120072380 104273333
" />
</g></g>
<g style="fill:#AFAFAF; fill-opacity:0.0; 
stroke:#AFAFAF; stroke-width:100000.000000; stroke-opacity:1; 
stroke-linecap:round; stroke-linejoin:round;">
<path d="M170582705 79545000
L170582705 130345000
" />
<path d="M187072705 130345000
L187072705 80180000
" />
<path d="M168042705 130345000
L168042705 80180000
" />
<path d="M189612705 130340000
L187072705 130340000
" />
<path d="M170582705 130345000
L168042705 130345000
" />
<path d="M168677705 79545000
L170582705 79545000
" />
<path d="M189612705 79545000
L189612705 130345000
" />
<path d="M187707705 79545000
L189612705 79545000
" />
<path d="M168042705 80180000
L168677705 79545000
" />
<path d="M187072705 80180000
L187707705 79545000
" />
<path d="M137380000 80175000
L138015000 79540000
" />
<path d="M138015000 79540000
L139920000 79540000
" />
<path d="M139920000 79540000
L139920000 130340000
" />
<path d="M139920000 130340000
L137380000 130340000
" />
<path d="M137380000 130340000
L137380000 80175000
" />
<path d="M118985000 79540000
L120890000 79540000
" />
<path d="M120890000 79540000
L120890000 130340000
" />
<path d="M118350000 130340000
L118350000 80175000
" />
<path d="M118350000 80175000
L118985000 79540000
" />
<path d="M120890000 130340000
L118350000 130340000
" />
<g >
</g>
<g >
</g>
<g >
</g>
<g >
</g>
<g >
</g>
<g >
</g>
<g >
</g>
</g>
<g style="fill:#000000; fill-opacity:0.0; 
stroke:#000000; stroke-width:100000.000000; stroke-opacity:1; 
stroke-linecap:round; stroke-linejoin:round;">
</g>
<g style="fill:#D0D2CD; fill-opacity:0.0; 
stroke:#D0D2CD; stroke-width:100000.000000; stroke-opacity:1; 
stroke-linecap:round; stroke-linejoin:round;">
<path d="M74700000 53260000
L224700000 53260000
" />
<path d="M74700000 153260000
L74700000 53260000
" />
<path d="M224700000 53260000
L224700000 153260000
" />
<path d="M224700000 153260000
L74700000 153260000
" />
<g >
</g>
<g >
</g>
<g >
</g>
<g >
</g>
<g >
</g>
<g >
</g>
<g >
</g>
</g> 
</svg>
