<!DOCTYPE svg PUBLIC "-//W3C//DTD SVG 1.1//EN" "http://www.w3.org/Graphics/SVG/1.1/DTD/svg11.dtd">
<svg xmlns="http://www.w3.org/2000/svg" version="1.1" width="32.0mm" height="68.35262mm" viewBox="-171000000.0 80147380.0 32000000.0 68352620.0">
            <title>Picture generated by PcbDraw </title>
            <desc>Picture generated by PcbDraw</desc>
        <defs><clipPath id="cut-off"><path d=" M 170000000.0 90000000.0 L 170000000.0 110000000.0 L 140000000.0 110000000.0 L 140000000.0 90000000.0 L 170000000.0 90000000.0  M 170000000.0 127500000.0 L 170000000.0 147500000.0 L 140000000.0 147500000.0 L 140000000.0 127500000.0 L 170000000.0 127500000.0 " style="fill-rule: evenodd;"/></clipPath><mask id="pads-mask"><g style="fill:#ffffff; fill-opacity:0.0;  stroke:#ffffff; stroke-width:0.000000; stroke-opacity:1;  stroke-linecap:round; stroke-linejoin:round;">
<g style="fill:#ffffff; fill-opacity:1.0;  stroke:#ffffff; stroke-width:1.000000; stroke-opacity:1;  stroke-linecap:round; stroke-linejoin:round;">
<path style="fill:#ffffff; fill-opacity:1.0;  stroke:#ffffff; stroke-width:1.000000; stroke-opacity:1;  stroke-linecap:round; stroke-linejoin:round;fill-rule:evenodd;" d="M 157960000.000000,91530000.000000 159660000.000000,91530000.000000 159660000.000000,93230000.000000 157960000.000000,93230000.000000 Z"/> 
<circle cx="156270000.000000" cy="92380000.000000" r="850000.000000"/> 
<circle cx="153730000.000000" cy="92380000.000000" r="850000.000000"/> 
<circle cx="151190000.000000" cy="92380000.000000" r="850000.000000"/> 
</g>
<g style="fill:#ffffff; fill-opacity:1.0;  stroke:#ffffff; stroke-width:1.000000; stroke-opacity:1;  stroke-linecap:round; stroke-linejoin:round;">
<circle cx="165000000.000000" cy="132500000.000000" r="1600000.000000"/> 
</g>
<g style="fill:#ffffff; fill-opacity:1.0;  stroke:#ffffff; stroke-width:1.000000; stroke-opacity:1;  stroke-linecap:round; stroke-linejoin:round;">
<circle cx="145000000.000000" cy="132500000.000000" r="1600000.000000"/> 
</g>
<g style="fill:#ffffff; fill-opacity:1.0;  stroke:#ffffff; stroke-width:1.000000; stroke-opacity:1;  stroke-linecap:round; stroke-linejoin:round;">
<path style="fill:#ffffff; fill-opacity:1.0;  stroke:#ffffff; stroke-width:1.000000; stroke-opacity:1;  stroke-linecap:round; stroke-linejoin:round;fill-rule:evenodd;" d="M 144420000.000000,145970000.000000 142720000.000000,145970000.000000 142720000.000000,144270000.000000 144420000.000000,144270000.000000 Z"/> 
<circle cx="146110000.000000" cy="145120000.000000" r="850000.000000"/> 
<circle cx="148650000.000000" cy="145120000.000000" r="850000.000000"/> 
<circle cx="151190000.000000" cy="145120000.000000" r="850000.000000"/> 
<circle cx="153730000.000000" cy="145120000.000000" r="850000.000000"/> 
<circle cx="156270000.000000" cy="145120000.000000" r="850000.000000"/> 
<circle cx="158810000.000000" cy="145120000.000000" r="850000.000000"/> 
<circle cx="161350000.000000" cy="145120000.000000" r="850000.000000"/> 
<circle cx="163890000.000000" cy="145120000.000000" r="850000.000000"/> 
<circle cx="166430000.000000" cy="145120000.000000" r="850000.000000"/> 
<path style="fill:#ffffff; fill-opacity:1.0;  stroke:#ffffff; stroke-width:1.000000; stroke-opacity:1;  stroke-linecap:round; stroke-linejoin:round;fill-rule:evenodd;" d="M 157960000.000000,129030000.000000 159660000.000000,129030000.000000 159660000.000000,130730000.000000 157960000.000000,130730000.000000 Z"/> 
<circle cx="156270000.000000" cy="129880000.000000" r="850000.000000"/> 
<circle cx="153730000.000000" cy="129880000.000000" r="850000.000000"/> 
<circle cx="151190000.000000" cy="129880000.000000" r="850000.000000"/> 
</g>
<g style="fill:#ffffff; fill-opacity:1.0;  stroke:#ffffff; stroke-width:1.000000; stroke-opacity:1;  stroke-linecap:round; stroke-linejoin:round;">
<circle cx="145000000.000000" cy="95000000.000000" r="1600000.000000"/> 
</g>
<g style="fill:#ffffff; fill-opacity:1.0;  stroke:#ffffff; stroke-width:1.000000; stroke-opacity:1;  stroke-linecap:round; stroke-linejoin:round;">
<path style="fill:#ffffff; fill-opacity:1.0;  stroke:#ffffff; stroke-width:1.000000; stroke-opacity:1;  stroke-linecap:round; stroke-linejoin:round;fill-rule:evenodd;" d="M 144420000.000000,108470000.000000 142720000.000000,108470000.000000 142720000.000000,106770000.000000 144420000.000000,106770000.000000 Z"/> 
<circle cx="146110000.000000" cy="107620000.000000" r="850000.000000"/> 
<circle cx="148650000.000000" cy="107620000.000000" r="850000.000000"/> 
<circle cx="151190000.000000" cy="107620000.000000" r="850000.000000"/> 
<circle cx="153730000.000000" cy="107620000.000000" r="850000.000000"/> 
<circle cx="156270000.000000" cy="107620000.000000" r="850000.000000"/> 
<circle cx="158810000.000000" cy="107620000.000000" r="850000.000000"/> 
<circle cx="161350000.000000" cy="107620000.000000" r="850000.000000"/> 
<circle cx="163890000.000000" cy="107620000.000000" r="850000.000000"/> 
<circle cx="166430000.000000" cy="107620000.000000" r="850000.000000"/> 
</g>
<g style="fill:#ffffff; fill-opacity:1.0;  stroke:#ffffff; stroke-width:1.000000; stroke-opacity:1;  stroke-linecap:round; stroke-linejoin:round;">
<circle cx="165000000.000000" cy="95000000.000000" r="1600000.000000"/> 
</g>
</g> 
</mask><mask id="pads-mask-silkscreen"><rect x="106901191" y="80702500" width="96197619" height="71715000" fill="white"/><g style="fill:#000000; fill-opacity:0.0;  stroke:#000000; stroke-width:0.000000; stroke-opacity:1;  stroke-linecap:round; stroke-linejoin:round;">
<g style="fill:#000000; fill-opacity:1.0;  stroke:#000000; stroke-width:1.000000; stroke-opacity:1;  stroke-linecap:round; stroke-linejoin:round;">
<path style="fill:#000000; fill-opacity:1.0;  stroke:#000000; stroke-width:1.000000; stroke-opacity:1;  stroke-linecap:round; stroke-linejoin:round;fill-rule:evenodd;" d="M 157960000.000000,91530000.000000 159660000.000000,91530000.000000 159660000.000000,93230000.000000 157960000.000000,93230000.000000 Z"/> 
<circle cx="156270000.000000" cy="92380000.000000" r="850000.000000"/> 
<circle cx="153730000.000000" cy="92380000.000000" r="850000.000000"/> 
<circle cx="151190000.000000" cy="92380000.000000" r="850000.000000"/> 
</g>
<g style="fill:#000000; fill-opacity:1.0;  stroke:#000000; stroke-width:1.000000; stroke-opacity:1;  stroke-linecap:round; stroke-linejoin:round;">
<circle cx="165000000.000000" cy="132500000.000000" r="1600000.000000"/> 
</g>
<g style="fill:#000000; fill-opacity:1.0;  stroke:#000000; stroke-width:1.000000; stroke-opacity:1;  stroke-linecap:round; stroke-linejoin:round;">
<circle cx="145000000.000000" cy="132500000.000000" r="1600000.000000"/> 
</g>
<g style="fill:#000000; fill-opacity:1.0;  stroke:#000000; stroke-width:1.000000; stroke-opacity:1;  stroke-linecap:round; stroke-linejoin:round;">
<path style="fill:#000000; fill-opacity:1.0;  stroke:#000000; stroke-width:1.000000; stroke-opacity:1;  stroke-linecap:round; stroke-linejoin:round;fill-rule:evenodd;" d="M 144420000.000000,145970000.000000 142720000.000000,145970000.000000 142720000.000000,144270000.000000 144420000.000000,144270000.000000 Z"/> 
<circle cx="146110000.000000" cy="145120000.000000" r="850000.000000"/> 
<circle cx="148650000.000000" cy="145120000.000000" r="850000.000000"/> 
<circle cx="151190000.000000" cy="145120000.000000" r="850000.000000"/> 
<circle cx="153730000.000000" cy="145120000.000000" r="850000.000000"/> 
<circle cx="156270000.000000" cy="145120000.000000" r="850000.000000"/> 
<circle cx="158810000.000000" cy="145120000.000000" r="850000.000000"/> 
<circle cx="161350000.000000" cy="145120000.000000" r="850000.000000"/> 
<circle cx="163890000.000000" cy="145120000.000000" r="850000.000000"/> 
<circle cx="166430000.000000" cy="145120000.000000" r="850000.000000"/> 
<path style="fill:#000000; fill-opacity:1.0;  stroke:#000000; stroke-width:1.000000; stroke-opacity:1;  stroke-linecap:round; stroke-linejoin:round;fill-rule:evenodd;" d="M 157960000.000000,129030000.000000 159660000.000000,129030000.000000 159660000.000000,130730000.000000 157960000.000000,130730000.000000 Z"/> 
<circle cx="156270000.000000" cy="129880000.000000" r="850000.000000"/> 
<circle cx="153730000.000000" cy="129880000.000000" r="850000.000000"/> 
<circle cx="151190000.000000" cy="129880000.000000" r="850000.000000"/> 
</g>
<g style="fill:#000000; fill-opacity:1.0;  stroke:#000000; stroke-width:1.000000; stroke-opacity:1;  stroke-linecap:round; stroke-linejoin:round;">
<circle cx="145000000.000000" cy="95000000.000000" r="1600000.000000"/> 
</g>
<g style="fill:#000000; fill-opacity:1.0;  stroke:#000000; stroke-width:1.000000; stroke-opacity:1;  stroke-linecap:round; stroke-linejoin:round;">
<path style="fill:#000000; fill-opacity:1.0;  stroke:#000000; stroke-width:1.000000; stroke-opacity:1;  stroke-linecap:round; stroke-linejoin:round;fill-rule:evenodd;" d="M 144420000.000000,108470000.000000 142720000.000000,108470000.000000 142720000.000000,106770000.000000 144420000.000000,106770000.000000 Z"/> 
<circle cx="146110000.000000" cy="107620000.000000" r="850000.000000"/> 
<circle cx="148650000.000000" cy="107620000.000000" r="850000.000000"/> 
<circle cx="151190000.000000" cy="107620000.000000" r="850000.000000"/> 
<circle cx="153730000.000000" cy="107620000.000000" r="850000.000000"/> 
<circle cx="156270000.000000" cy="107620000.000000" r="850000.000000"/> 
<circle cx="158810000.000000" cy="107620000.000000" r="850000.000000"/> 
<circle cx="161350000.000000" cy="107620000.000000" r="850000.000000"/> 
<circle cx="163890000.000000" cy="107620000.000000" r="850000.000000"/> 
<circle cx="166430000.000000" cy="107620000.000000" r="850000.000000"/> 
</g>
<g style="fill:#000000; fill-opacity:1.0;  stroke:#000000; stroke-width:1.000000; stroke-opacity:1;  stroke-linecap:round; stroke-linejoin:round;">
<circle cx="165000000.000000" cy="95000000.000000" r="1600000.000000"/> 
</g>
</g> 
</mask><mask id="hole-mask"><g><rect x="106901191" y="80702500" fill="white" width="96197619" height="71715000"/><polyline stroke-linecap="round" stroke="black" stroke-width="1000000" points="0.0 0 0.0 0" transform="translate(158810000 92380000) rotate(-270.0)"/><polyline stroke-linecap="round" stroke="black" stroke-width="1000000" points="0.0 0 0.0 0" transform="translate(156270000 92380000) rotate(-270.0)"/><polyline stroke-linecap="round" stroke="black" stroke-width="1000000" points="0.0 0 0.0 0" transform="translate(153730000 92380000) rotate(-270.0)"/><polyline stroke-linecap="round" stroke="black" stroke-width="1000000" points="0.0 0 0.0 0" transform="translate(151190000 92380000) rotate(-270.0)"/><polyline stroke-linecap="round" stroke="black" stroke-width="3200000" points="0.0 0 0.0 0" transform="translate(165000000 132500000) rotate(-0.0)"/><polyline stroke-linecap="round" stroke="black" stroke-width="3200000" points="0.0 0 0.0 0" transform="translate(145000000 132500000) rotate(-0.0)"/><polyline stroke-linecap="round" stroke="black" stroke-width="1000000" points="0.0 0 0.0 0" transform="translate(143570000 145120000) rotate(-90.0)"/><polyline stroke-linecap="round" stroke="black" stroke-width="1000000" points="0.0 0 0.0 0" transform="translate(146110000 145120000) rotate(-90.0)"/><polyline stroke-linecap="round" stroke="black" stroke-width="1000000" points="0.0 0 0.0 0" transform="translate(148650000 145120000) rotate(-90.0)"/><polyline stroke-linecap="round" stroke="black" stroke-width="1000000" points="0.0 0 0.0 0" transform="translate(151190000 145120000) rotate(-90.0)"/><polyline stroke-linecap="round" stroke="black" stroke-width="1000000" points="0.0 0 0.0 0" transform="translate(153730000 145120000) rotate(-90.0)"/><polyline stroke-linecap="round" stroke="black" stroke-width="1000000" points="0.0 0 0.0 0" transform="translate(156270000 145120000) rotate(-90.0)"/><polyline stroke-linecap="round" stroke="black" stroke-width="1000000" points="0.0 0 0.0 0" transform="translate(158810000 145120000) rotate(-90.0)"/><polyline stroke-linecap="round" stroke="black" stroke-width="1000000" points="0.0 0 0.0 0" transform="translate(161350000 145120000) rotate(-90.0)"/><polyline stroke-linecap="round" stroke="black" stroke-width="1000000" points="0.0 0 0.0 0" transform="translate(163890000 145120000) rotate(-90.0)"/><polyline stroke-linecap="round" stroke="black" stroke-width="1000000" points="0.0 0 0.0 0" transform="translate(166430000 145120000) rotate(-90.0)"/><polyline stroke-linecap="round" stroke="black" stroke-width="1000000" points="0.0 0 0.0 0" transform="translate(158810000 129880000) rotate(-270.0)"/><polyline stroke-linecap="round" stroke="black" stroke-width="1000000" points="0.0 0 0.0 0" transform="translate(156270000 129880000) rotate(-270.0)"/><polyline stroke-linecap="round" stroke="black" stroke-width="1000000" points="0.0 0 0.0 0" transform="translate(153730000 129880000) rotate(-270.0)"/><polyline stroke-linecap="round" stroke="black" stroke-width="1000000" points="0.0 0 0.0 0" transform="translate(151190000 129880000) rotate(-270.0)"/><polyline stroke-linecap="round" stroke="black" stroke-width="3200000" points="0.0 0 0.0 0" transform="translate(145000000 95000000) rotate(-0.0)"/><polyline stroke-linecap="round" stroke="black" stroke-width="1000000" points="0.0 0 0.0 0" transform="translate(143570000 107620000) rotate(-90.0)"/><polyline stroke-linecap="round" stroke="black" stroke-width="1000000" points="0.0 0 0.0 0" transform="translate(146110000 107620000) rotate(-90.0)"/><polyline stroke-linecap="round" stroke="black" stroke-width="1000000" points="0.0 0 0.0 0" transform="translate(148650000 107620000) rotate(-90.0)"/><polyline stroke-linecap="round" stroke="black" stroke-width="1000000" points="0.0 0 0.0 0" transform="translate(151190000 107620000) rotate(-90.0)"/><polyline stroke-linecap="round" stroke="black" stroke-width="1000000" points="0.0 0 0.0 0" transform="translate(153730000 107620000) rotate(-90.0)"/><polyline stroke-linecap="round" stroke="black" stroke-width="1000000" points="0.0 0 0.0 0" transform="translate(156270000 107620000) rotate(-90.0)"/><polyline stroke-linecap="round" stroke="black" stroke-width="1000000" points="0.0 0 0.0 0" transform="translate(158810000 107620000) rotate(-90.0)"/><polyline stroke-linecap="round" stroke="black" stroke-width="1000000" points="0.0 0 0.0 0" transform="translate(161350000 107620000) rotate(-90.0)"/><polyline stroke-linecap="round" stroke="black" stroke-width="1000000" points="0.0 0 0.0 0" transform="translate(163890000 107620000) rotate(-90.0)"/><polyline stroke-linecap="round" stroke="black" stroke-width="1000000" points="0.0 0 0.0 0" transform="translate(166430000 107620000) rotate(-90.0)"/><polyline stroke-linecap="round" stroke="black" stroke-width="3200000" points="0.0 0 0.0 0" transform="translate(165000000 95000000) rotate(-0.0)"/><polyline stroke-linecap="round" stroke="black" stroke-width="400000" points="0.0 0 0.0 0" transform="translate(163500000 102500000) rotate(0.0)"/><polyline stroke-linecap="round" stroke="black" stroke-width="400000" points="0.0 0 0.0 0" transform="translate(146500000 101500000) rotate(0.0)"/><polyline stroke-linecap="round" stroke="black" stroke-width="400000" points="0.0 0 0.0 0" transform="translate(163507500 139000000) rotate(0.0)"/><polyline stroke-linecap="round" stroke="black" stroke-width="400000" points="0.0 0 0.0 0" transform="translate(163500000 101500000) rotate(0.0)"/><polyline stroke-linecap="round" stroke="black" stroke-width="400000" points="0.0 0 0.0 0" transform="translate(146500000 102500000) rotate(0.0)"/><polyline stroke-linecap="round" stroke="black" stroke-width="400000" points="0.0 0 0.0 0" transform="translate(146507500 140000000) rotate(0.0)"/><polyline stroke-linecap="round" stroke="black" stroke-width="400000" points="0.0 0 0.0 0" transform="translate(148000000 102024614) rotate(0.0)"/><polyline stroke-linecap="round" stroke="black" stroke-width="400000" points="0.0 0 0.0 0" transform="translate(163507500 138000000) rotate(0.0)"/><polyline stroke-linecap="round" stroke="black" stroke-width="400000" points="0.0 0 0.0 0" transform="translate(148007500 139524614) rotate(0.0)"/><polyline stroke-linecap="round" stroke="black" stroke-width="400000" points="0.0 0 0.0 0" transform="translate(163500000 100500000) rotate(0.0)"/><polyline stroke-linecap="round" stroke="black" stroke-width="400000" points="0.0 0 0.0 0" transform="translate(146507500 139000000) rotate(0.0)"/><polyline stroke-linecap="round" stroke="black" stroke-width="400000" points="0.0 0 0.0 0" transform="translate(163507500 140000000) rotate(0.0)"/></g></mask></defs><g transform="scale(-1,1)" id="boardContainer"><g id="substrate" clip-path="url(#cut-off)" mask="url(#hole-mask)"><g id="substrate-board" style="fill:#4ca06c; stroke:#4ca06c;"><path d=" M 170000000.0 90000000.0 L 170000000.0 110000000.0 L 140000000.0 110000000.0 L 140000000.0 90000000.0 L 170000000.0 90000000.0  M 170000000.0 127500000.0 L 170000000.0 147500000.0 L 140000000.0 147500000.0 L 140000000.0 127500000.0 L 170000000.0 127500000.0 " style="fill-rule: evenodd;"/><g style="fill-opacity: 0.0;stroke-width: 100000.000000;stroke-opacity: 1;stroke-linecap: round;stroke-linejoin: round">
<path d="M140000000 90000000 L170000000 90000000 "/>
<path d="M170000000 110000000 L140000000 110000000 "/>
<path d="M170000000 90000000 L170000000 110000000 "/>
<path d="M140000000 110000000 L140000000 90000000 "/>
</g>
<g style="fill-opacity: 0.0;stroke-width: 250000.000000;stroke-opacity: 1;stroke-linecap: round;stroke-linejoin: round">
<text x="155000000.000000" y="82195000.000000" textLength="26380953.000000" font-size="1333333.000000" lengthAdjust="spacingAndGlyphs" text-anchor="middle" opacity="0">MODULE-CONN-BRBO-IBBC-SZ01</text>
<g class="stroked-text"><desc>MODULE-CONN-BRBO-IBBC-SZ01</desc>
<path d="M142047619 82147380 L142047619 81147380 L142380952 81861666 L142714285 81147380 L142714285 82147380 "/>
<path d="M143380952 81147380 L143571428 81147380 L143666666 81195000 L143761904 81290238 L143809523 81480714 L143809523 81814047 L143761904 82004523 L143666666 82099761 L143571428 82147380 L143380952 82147380 L143285714 82099761 L143190476 82004523 L143142857 81814047 L143142857 81480714 L143190476 81290238 L143285714 81195000 L143380952 81147380 "/>
<path d="M144238095 82147380 L144238095 81147380 L144476190 81147380 L144619047 81195000 L144714285 81290238 L144761904 81385476 L144809523 81575952 L144809523 81718809 L144761904 81909285 L144714285 82004523 L144619047 82099761 L144476190 82147380 L144238095 82147380 "/>
<path d="M145238095 81147380 L145238095 81956904 L145285714 82052142 L145333333 82099761 L145428571 82147380 L145619047 82147380 L145714285 82099761 L145761904 82052142 L145809523 81956904 L145809523 81147380 "/>
<path d="M146761904 82147380 L146285714 82147380 L146285714 81147380 "/>
<path d="M147095238 81623571 L147428571 81623571 "/>
<path d="M147571428 82147380 L147095238 82147380 L147095238 81147380 L147571428 81147380 "/>
<path d="M148000000 81766428 L148761904 81766428 "/>
<path d="M149809523 82052142 L149761904 82099761 L149619047 82147380 L149523809 82147380 L149380952 82099761 L149285714 82004523 L149238095 81909285 L149190476 81718809 L149190476 81575952 L149238095 81385476 L149285714 81290238 L149380952 81195000 L149523809 81147380 L149619047 81147380 L149761904 81195000 L149809523 81242619 "/>
<path d="M150428571 81147380 L150619047 81147380 L150714285 81195000 L150809523 81290238 L150857142 81480714 L150857142 81814047 L150809523 82004523 L150714285 82099761 L150619047 82147380 L150428571 82147380 L150333333 82099761 L150238095 82004523 L150190476 81814047 L150190476 81480714 L150238095 81290238 L150333333 81195000 L150428571 81147380 "/>
<path d="M151285714 82147380 L151285714 81147380 L151857142 82147380 L151857142 81147380 "/>
<path d="M152333333 82147380 L152333333 81147380 L152904761 82147380 L152904761 81147380 "/>
<path d="M153380952 81766428 L154142857 81766428 "/>
<path d="M154952380 81623571 L155095238 81671190 L155142857 81718809 L155190476 81814047 L155190476 81956904 L155142857 82052142 L155095238 82099761 L155000000 82147380 L154619047 82147380 L154619047 81147380 L154952380 81147380 L155047619 81195000 L155095238 81242619 L155142857 81337857 L155142857 81433095 L155095238 81528333 L155047619 81575952 L154952380 81623571 L154619047 81623571 "/>
<path d="M156190476 82147380 L155857142 81671190 "/>
<path d="M155619047 82147380 L155619047 81147380 L156000000 81147380 L156095238 81195000 L156142857 81242619 L156190476 81337857 L156190476 81480714 L156142857 81575952 L156095238 81623571 L156000000 81671190 L155619047 81671190 "/>
<path d="M156952380 81623571 L157095238 81671190 L157142857 81718809 L157190476 81814047 L157190476 81956904 L157142857 82052142 L157095238 82099761 L157000000 82147380 L156619047 82147380 L156619047 81147380 L156952380 81147380 L157047619 81195000 L157095238 81242619 L157142857 81337857 L157142857 81433095 L157095238 81528333 L157047619 81575952 L156952380 81623571 L156619047 81623571 "/>
<path d="M157809523 81147380 L158000000 81147380 L158095238 81195000 L158190476 81290238 L158238095 81480714 L158238095 81814047 L158190476 82004523 L158095238 82099761 L158000000 82147380 L157809523 82147380 L157714285 82099761 L157619047 82004523 L157571428 81814047 L157571428 81480714 L157619047 81290238 L157714285 81195000 L157809523 81147380 "/>
<path d="M158666666 81766428 L159428571 81766428 "/>
<path d="M159904761 82147380 L159904761 81147380 "/>
<path d="M160714285 81623571 L160857142 81671190 L160904761 81718809 L160952380 81814047 L160952380 81956904 L160904761 82052142 L160857142 82099761 L160761904 82147380 L160380952 82147380 L160380952 81147380 L160714285 81147380 L160809523 81195000 L160857142 81242619 L160904761 81337857 L160904761 81433095 L160857142 81528333 L160809523 81575952 L160714285 81623571 L160380952 81623571 "/>
<path d="M161714285 81623571 L161857142 81671190 L161904761 81718809 L161952380 81814047 L161952380 81956904 L161904761 82052142 L161857142 82099761 L161761904 82147380 L161380952 82147380 L161380952 81147380 L161714285 81147380 L161809523 81195000 L161857142 81242619 L161904761 81337857 L161904761 81433095 L161857142 81528333 L161809523 81575952 L161714285 81623571 L161380952 81623571 "/>
<path d="M162952380 82052142 L162904761 82099761 L162761904 82147380 L162666666 82147380 L162523809 82099761 L162428571 82004523 L162380952 81909285 L162333333 81718809 L162333333 81575952 L162380952 81385476 L162428571 81290238 L162523809 81195000 L162666666 81147380 L162761904 81147380 L162904761 81195000 L162952380 81242619 "/>
<path d="M163380952 81766428 L164142857 81766428 "/>
<path d="M164571428 82099761 L164714285 82147380 L164952380 82147380 L165047619 82099761 L165095238 82052142 L165142857 81956904 L165142857 81861666 L165095238 81766428 L165047619 81718809 L164952380 81671190 L164761904 81623571 L164666666 81575952 L164619047 81528333 L164571428 81433095 L164571428 81337857 L164619047 81242619 L164666666 81195000 L164761904 81147380 L165000000 81147380 L165142857 81195000 "/>
<path d="M165476190 81147380 L166142857 81147380 L165476190 82147380 L166142857 82147380 "/>
<path d="M166714285 81147380 L166809523 81147380 L166904761 81195000 L166952380 81242619 L167000000 81337857 L167047619 81528333 L167047619 81766428 L167000000 81956904 L166952380 82052142 L166904761 82099761 L166809523 82147380 L166714285 82147380 L166619047 82099761 L166571428 82052142 L166523809 81956904 L166476190 81766428 L166476190 81528333 L166523809 81337857 L166571428 81242619 L166619047 81195000 L166714285 81147380 "/>
<path d="M168000000 82147380 L167428571 82147380 "/>
<path d="M167714285 82147380 L167714285 81147380 L167619047 81290238 L167523809 81385476 L167428571 81433095 "/>
</g><text x="155000000.000000" y="83805000.000000" textLength="10658333.000000" font-size="1333333.000000" lengthAdjust="spacingAndGlyphs" text-anchor="middle" opacity="0">oom.lt/MCBI1</text>
<g class="stroked-text"><desc>oom.lt/MCBI1</desc>
<path d="M150214285 83757380 L150119047 83709761 L150071428 83662142 L150023809 83566904 L150023809 83281190 L150071428 83185952 L150119047 83138333 L150214285 83090714 L150357142 83090714 L150452380 83138333 L150500000 83185952 L150547619 83281190 L150547619 83566904 L150500000 83662142 L150452380 83709761 L150357142 83757380 L150214285 83757380 "/>
<path d="M151119047 83757380 L151023809 83709761 L150976190 83662142 L150928571 83566904 L150928571 83281190 L150976190 83185952 L151023809 83138333 L151119047 83090714 L151261904 83090714 L151357142 83138333 L151404761 83185952 L151452380 83281190 L151452380 83566904 L151404761 83662142 L151357142 83709761 L151261904 83757380 L151119047 83757380 "/>
<path d="M151880952 83757380 L151880952 83090714 "/>
<path d="M151880952 83185952 L151928571 83138333 L152023809 83090714 L152166666 83090714 L152261904 83138333 L152309523 83233571 L152309523 83757380 "/>
<path d="M152309523 83233571 L152357142 83138333 L152452380 83090714 L152595238 83090714 L152690476 83138333 L152738095 83233571 L152738095 83757380 "/>
<path d="M153214285 83662142 L153261904 83709761 L153214285 83757380 L153166666 83709761 L153214285 83662142 L153214285 83757380 "/>
<path d="M153833333 83757380 L153738095 83709761 L153690476 83614523 L153690476 82757380 "/>
<path d="M154071428 83090714 L154452380 83090714 "/>
<path d="M154214285 82757380 L154214285 83614523 L154261904 83709761 L154357142 83757380 L154452380 83757380 "/>
<path d="M155500000 82709761 L154642857 83995476 "/>
<path d="M155833333 83757380 L155833333 82757380 L156166666 83471666 L156500000 82757380 L156500000 83757380 "/>
<path d="M157547619 83662142 L157500000 83709761 L157357142 83757380 L157261904 83757380 L157119047 83709761 L157023809 83614523 L156976190 83519285 L156928571 83328809 L156928571 83185952 L156976190 82995476 L157023809 82900238 L157119047 82805000 L157261904 82757380 L157357142 82757380 L157500000 82805000 L157547619 82852619 "/>
<path d="M158309523 83233571 L158452380 83281190 L158500000 83328809 L158547619 83424047 L158547619 83566904 L158500000 83662142 L158452380 83709761 L158357142 83757380 L157976190 83757380 L157976190 82757380 L158309523 82757380 L158404761 82805000 L158452380 82852619 L158500000 82947857 L158500000 83043095 L158452380 83138333 L158404761 83185952 L158309523 83233571 L157976190 83233571 "/>
<path d="M158976190 83757380 L158976190 82757380 "/>
<path d="M159976190 83757380 L159404761 83757380 "/>
<path d="M159690476 83757380 L159690476 82757380 L159595238 82900238 L159500000 82995476 L159404761 83043095 "/>
</g></g>
<g style="fill-opacity: 0.0;stroke-width: 100000.000000;stroke-opacity: 1;stroke-linecap: round;stroke-linejoin: round">
<path d="M140000000 127500000 L170000000 127500000 "/>
<path d="M170000000 147500000 L140000000 147500000 "/>
<path d="M140000000 147500000 L140000000 127500000 "/>
<path d="M170000000 127500000 L170000000 147500000 "/>
</g> 
</g><g id="substrate-clad" style="fill:#9c6b28; stroke:#9c6b28;"><g style="fill-opacity: 0.0;stroke-width: 0.000000;stroke-opacity: 1;stroke-linecap: round;stroke-linejoin: round">
<g style="fill-opacity: 1.0;stroke-width: 1.000000;stroke-opacity: 1;stroke-linecap: round;stroke-linejoin: round">
<path style="fill-opacity: 1.0;stroke-width: 1.000000;stroke-opacity: 1;stroke-linecap: round;stroke-linejoin: round;fill-rule: evenodd" d="M 157960000.000000,91530000.000000 159660000.000000,91530000.000000 159660000.000000,93230000.000000 157960000.000000,93230000.000000 Z"/> 
<circle cx="156270000.000000" cy="92380000.000000" r="850000.000000"/> 
<circle cx="153730000.000000" cy="92380000.000000" r="850000.000000"/> 
<circle cx="151190000.000000" cy="92380000.000000" r="850000.000000"/> 
</g>
<g style="fill-opacity: 1.0;stroke-width: 1.000000;stroke-opacity: 1;stroke-linecap: round;stroke-linejoin: round">
<circle cx="165000000.000000" cy="132500000.000000" r="1600000.000000"/> 
</g>
<g style="fill-opacity: 1.0;stroke-width: 1.000000;stroke-opacity: 1;stroke-linecap: round;stroke-linejoin: round">
<circle cx="145000000.000000" cy="132500000.000000" r="1600000.000000"/> 
</g>
<g style="fill-opacity: 1.0;stroke-width: 1.000000;stroke-opacity: 1;stroke-linecap: round;stroke-linejoin: round">
<path style="fill-opacity: 1.0;stroke-width: 1.000000;stroke-opacity: 1;stroke-linecap: round;stroke-linejoin: round;fill-rule: evenodd" d="M 144420000.000000,145970000.000000 142720000.000000,145970000.000000 142720000.000000,144270000.000000 144420000.000000,144270000.000000 Z"/> 
<circle cx="146110000.000000" cy="145120000.000000" r="850000.000000"/> 
<circle cx="148650000.000000" cy="145120000.000000" r="850000.000000"/> 
<circle cx="151190000.000000" cy="145120000.000000" r="850000.000000"/> 
<circle cx="153730000.000000" cy="145120000.000000" r="850000.000000"/> 
<circle cx="156270000.000000" cy="145120000.000000" r="850000.000000"/> 
<circle cx="158810000.000000" cy="145120000.000000" r="850000.000000"/> 
<circle cx="161350000.000000" cy="145120000.000000" r="850000.000000"/> 
<circle cx="163890000.000000" cy="145120000.000000" r="850000.000000"/> 
<circle cx="166430000.000000" cy="145120000.000000" r="850000.000000"/> 
<path style="fill-opacity: 1.0;stroke-width: 1.000000;stroke-opacity: 1;stroke-linecap: round;stroke-linejoin: round;fill-rule: evenodd" d="M 157960000.000000,129030000.000000 159660000.000000,129030000.000000 159660000.000000,130730000.000000 157960000.000000,130730000.000000 Z"/> 
<circle cx="156270000.000000" cy="129880000.000000" r="850000.000000"/> 
<circle cx="153730000.000000" cy="129880000.000000" r="850000.000000"/> 
<circle cx="151190000.000000" cy="129880000.000000" r="850000.000000"/> 
</g>
<g style="fill-opacity: 1.0;stroke-width: 1.000000;stroke-opacity: 1;stroke-linecap: round;stroke-linejoin: round">
<circle cx="145000000.000000" cy="95000000.000000" r="1600000.000000"/> 
</g>
<g style="fill-opacity: 1.0;stroke-width: 1.000000;stroke-opacity: 1;stroke-linecap: round;stroke-linejoin: round">
<path style="fill-opacity: 1.0;stroke-width: 1.000000;stroke-opacity: 1;stroke-linecap: round;stroke-linejoin: round;fill-rule: evenodd" d="M 144420000.000000,108470000.000000 142720000.000000,108470000.000000 142720000.000000,106770000.000000 144420000.000000,106770000.000000 Z"/> 
<circle cx="146110000.000000" cy="107620000.000000" r="850000.000000"/> 
<circle cx="148650000.000000" cy="107620000.000000" r="850000.000000"/> 
<circle cx="151190000.000000" cy="107620000.000000" r="850000.000000"/> 
<circle cx="153730000.000000" cy="107620000.000000" r="850000.000000"/> 
<circle cx="156270000.000000" cy="107620000.000000" r="850000.000000"/> 
<circle cx="158810000.000000" cy="107620000.000000" r="850000.000000"/> 
<circle cx="161350000.000000" cy="107620000.000000" r="850000.000000"/> 
<circle cx="163890000.000000" cy="107620000.000000" r="850000.000000"/> 
<circle cx="166430000.000000" cy="107620000.000000" r="850000.000000"/> 
</g>
<g style="fill-opacity: 1.0;stroke-width: 1.000000;stroke-opacity: 1;stroke-linecap: round;stroke-linejoin: round">
<circle cx="165000000.000000" cy="95000000.000000" r="1600000.000000"/> 
</g>
</g> 
</g><g id="substrate-copper" style="fill:#417e5a; stroke:#417e5a;"><g style="fill-opacity: 0.0;stroke-width: 0.000000;stroke-opacity: 1;stroke-linecap: round;stroke-linejoin: round">
<g style="fill-opacity: 1.0;stroke-width: 1.000000;stroke-opacity: 1;stroke-linecap: round;stroke-linejoin: round">
<path style="fill-opacity: 1.0;stroke-width: 1.000000;stroke-opacity: 1;stroke-linecap: round;stroke-linejoin: round;fill-rule: evenodd" d="M 157960000.000000,91530000.000000 159660000.000000,91530000.000000 159660000.000000,93230000.000000 157960000.000000,93230000.000000 Z"/> 
<circle cx="156270000.000000" cy="92380000.000000" r="850000.000000"/> 
<circle cx="153730000.000000" cy="92380000.000000" r="850000.000000"/> 
<circle cx="151190000.000000" cy="92380000.000000" r="850000.000000"/> 
</g>
<g style="fill-opacity: 1.0;stroke-width: 1.000000;stroke-opacity: 1;stroke-linecap: round;stroke-linejoin: round">
<path style="fill-opacity: 1.0;stroke-width: 1.000000;stroke-opacity: 1;stroke-linecap: round;stroke-linejoin: round;fill-rule: evenodd" d="M 144420000.000000,145970000.000000 142720000.000000,145970000.000000 142720000.000000,144270000.000000 144420000.000000,144270000.000000 Z"/> 
<circle cx="146110000.000000" cy="145120000.000000" r="850000.000000"/> 
<circle cx="148650000.000000" cy="145120000.000000" r="850000.000000"/> 
<circle cx="151190000.000000" cy="145120000.000000" r="850000.000000"/> 
<circle cx="153730000.000000" cy="145120000.000000" r="850000.000000"/> 
<circle cx="156270000.000000" cy="145120000.000000" r="850000.000000"/> 
<circle cx="158810000.000000" cy="145120000.000000" r="850000.000000"/> 
<circle cx="161350000.000000" cy="145120000.000000" r="850000.000000"/> 
<circle cx="163890000.000000" cy="145120000.000000" r="850000.000000"/> 
<circle cx="166430000.000000" cy="145120000.000000" r="850000.000000"/> 
<path style="fill-opacity: 1.0;stroke-width: 1.000000;stroke-opacity: 1;stroke-linecap: round;stroke-linejoin: round;fill-rule: evenodd" d="M 157960000.000000,129030000.000000 159660000.000000,129030000.000000 159660000.000000,130730000.000000 157960000.000000,130730000.000000 Z"/> 
<circle cx="156270000.000000" cy="129880000.000000" r="850000.000000"/> 
<circle cx="153730000.000000" cy="129880000.000000" r="850000.000000"/> 
<circle cx="151190000.000000" cy="129880000.000000" r="850000.000000"/> 
</g>
<g style="fill-opacity: 1.0;stroke-width: 1.000000;stroke-opacity: 1;stroke-linecap: round;stroke-linejoin: round">
<path style="fill-opacity: 1.0;stroke-width: 1.000000;stroke-opacity: 1;stroke-linecap: round;stroke-linejoin: round;fill-rule: evenodd" d="M 144420000.000000,108470000.000000 142720000.000000,108470000.000000 142720000.000000,106770000.000000 144420000.000000,106770000.000000 Z"/> 
<circle cx="146110000.000000" cy="107620000.000000" r="850000.000000"/> 
<circle cx="148650000.000000" cy="107620000.000000" r="850000.000000"/> 
<circle cx="151190000.000000" cy="107620000.000000" r="850000.000000"/> 
<circle cx="153730000.000000" cy="107620000.000000" r="850000.000000"/> 
<circle cx="156270000.000000" cy="107620000.000000" r="850000.000000"/> 
<circle cx="158810000.000000" cy="107620000.000000" r="850000.000000"/> 
<circle cx="161350000.000000" cy="107620000.000000" r="850000.000000"/> 
<circle cx="163890000.000000" cy="107620000.000000" r="850000.000000"/> 
<circle cx="166430000.000000" cy="107620000.000000" r="850000.000000"/> 
</g>
<g style="fill-opacity: 1.0;stroke-width: 1.000000;stroke-opacity: 1;stroke-linecap: round;stroke-linejoin: round">
<circle cx="163500000.000000" cy="102500000.000000" r="400000.000000"/> 
</g>
<g style="fill-opacity: 1.0;stroke-width: 1.000000;stroke-opacity: 1;stroke-linecap: round;stroke-linejoin: round">
<circle cx="146500000.000000" cy="101500000.000000" r="400000.000000"/> 
</g>
<g style="fill-opacity: 1.0;stroke-width: 1.000000;stroke-opacity: 1;stroke-linecap: round;stroke-linejoin: round">
<circle cx="163507500.000000" cy="139000000.000000" r="400000.000000"/> 
</g>
<g style="fill-opacity: 1.0;stroke-width: 1.000000;stroke-opacity: 1;stroke-linecap: round;stroke-linejoin: round">
<circle cx="163500000.000000" cy="101500000.000000" r="400000.000000"/> 
</g>
<g style="fill-opacity: 1.0;stroke-width: 1.000000;stroke-opacity: 1;stroke-linecap: round;stroke-linejoin: round">
<circle cx="146500000.000000" cy="102500000.000000" r="400000.000000"/> 
</g>
<g style="fill-opacity: 1.0;stroke-width: 1.000000;stroke-opacity: 1;stroke-linecap: round;stroke-linejoin: round">
<circle cx="146507500.000000" cy="140000000.000000" r="400000.000000"/> 
</g>
<g style="fill-opacity: 1.0;stroke-width: 1.000000;stroke-opacity: 1;stroke-linecap: round;stroke-linejoin: round">
<circle cx="148000000.000000" cy="102024614.000000" r="400000.000000"/> 
</g>
<g style="fill-opacity: 1.0;stroke-width: 1.000000;stroke-opacity: 1;stroke-linecap: round;stroke-linejoin: round">
<circle cx="163507500.000000" cy="138000000.000000" r="400000.000000"/> 
</g>
<g style="fill-opacity: 1.0;stroke-width: 1.000000;stroke-opacity: 1;stroke-linecap: round;stroke-linejoin: round">
<circle cx="148007500.000000" cy="139524614.000000" r="400000.000000"/> 
</g>
<g style="fill-opacity: 1.0;stroke-width: 1.000000;stroke-opacity: 1;stroke-linecap: round;stroke-linejoin: round">
<circle cx="163500000.000000" cy="100500000.000000" r="400000.000000"/> 
</g>
<g style="fill-opacity: 1.0;stroke-width: 1.000000;stroke-opacity: 1;stroke-linecap: round;stroke-linejoin: round">
<circle cx="146507500.000000" cy="139000000.000000" r="400000.000000"/> 
</g>
<g style="fill-opacity: 1.0;stroke-width: 1.000000;stroke-opacity: 1;stroke-linecap: round;stroke-linejoin: round">
<circle cx="163507500.000000" cy="140000000.000000" r="400000.000000"/> 
</g>
<g style="fill-opacity: 0.0;stroke-width: 250000.000000;stroke-opacity: 1;stroke-linecap: round;stroke-linejoin: round">
<path d="M162000000 101500000 L163000000 102500000 "/>
<path d="M153730000 107620000 L153730000 101730000 "/>
<path d="M146500000 101500000 L146475386 101500000 "/>
<path d="M153730000 101730000 L153500000 101500000 "/>
<path d="M150135718 101500000 L153500000 101500000 "/>
<path d="M146199897 103224511 L147974134 103224511 "/>
<path d="M145500000 102524614 L146199897 103224511 "/>
<path d="M148000000 103198645 L148486301 103198645 "/>
<path d="M145500000 102475386 L145500000 102524614 "/>
<path d="M147974134 103224511 L148000000 103198645 "/>
<path d="M150067859 101617087 L150067859 101567859 "/>
<path d="M150067859 101567859 L150135718 101500000 "/>
<path d="M148486301 103198645 L150067859 101617087 "/>
<path d="M153500000 101500000 L162000000 101500000 "/>
<path d="M146475386 101500000 L145500000 102475386 "/>
<path d="M163000000 102500000 L163500000 102500000 "/>
<path d="M146500000 102500000 L146749125 102749125 "/>
<path d="M161871782 139500000 L156507500 139500000 "/>
<path d="M163507500 139000000 L163532114 139000000 "/>
<path d="M156277500 139730000 L156277500 145120000 "/>
<path d="M156270000 102230000 L156270000 107620000 "/>
<path d="M163088793 103224511 L161864282 102000000 "/>
<path d="M164500000 102475386 L164500000 102524614 "/>
<path d="M162507500 138500000 L163007500 139000000 "/>
<path d="M163007500 139000000 L163507500 139000000 "/>
<path d="M161864282 102000000 L156500000 102000000 "/>
<path d="M164507500 140024614 L163807603 140724511 "/>
<path d="M149007500 139549228 L149007500 139500000 "/>
<path d="M163807603 140724511 L163096293 140724511 "/>
<path d="M148300103 102749125 L149000000 102049228 "/>
<path d="M163500000 101500000 L163524614 101500000 "/>
<path d="M163532114 139000000 L164507500 139975386 "/>
<path d="M164500000 102524614 L163800103 103224511 "/>
<path d="M163096293 140724511 L161871782 139500000 "/>
<path d="M150000000 101000000 L162500000 101000000 "/>
<path d="M156500000 102000000 L156270000 102230000 "/>
<path d="M156507500 139500000 L156277500 139730000 "/>
<path d="M146756625 140249125 L148307603 140249125 "/>
<path d="M146507500 140000000 L146756625 140249125 "/>
<path d="M146749125 102749125 L148300103 102749125 "/>
<path d="M150007500 138500000 L162507500 138500000 "/>
<path d="M163000000 101500000 L163500000 101500000 "/>
<path d="M163524614 101500000 L164500000 102475386 "/>
<path d="M149000000 102000000 L150000000 101000000 "/>
<path d="M148307603 140249125 L149007500 139549228 "/>
<path d="M149007500 139500000 L150007500 138500000 "/>
<path d="M162500000 101000000 L163000000 101500000 "/>
<path d="M149000000 102049228 L149000000 102000000 "/>
<path d="M163800103 103224511 L163088793 103224511 "/>
<path d="M158817500 140190000 L159007500 140000000 "/>
<path d="M163993801 141174031 L165007500 140160332 "/>
<path d="M163986301 103674031 L165000000 102660332 "/>
<path d="M162910095 141174031 L163993801 141174031 "/>
<path d="M159007500 140000000 L161736064 140000000 "/>
<path d="M163532114 138000000 L163507500 138000000 "/>
<path d="M159000000 102500000 L161728564 102500000 "/>
<path d="M163524614 100500000 L163500000 100500000 "/>
<path d="M148000000 102024614 L149524614 100500000 "/>
<path d="M162902595 103674031 L163986301 103674031 "/>
<path d="M165007500 139475386 L163532114 138000000 "/>
<path d="M148007500 139524614 L149532114 138000000 "/>
<path d="M165000000 102660332 L165000000 101975386 "/>
<path d="M161728564 102500000 L162902595 103674031 "/>
<path d="M165000000 101975386 L163524614 100500000 "/>
<path d="M158817500 145120000 L158817500 140190000 "/>
<path d="M161736064 140000000 L162910095 141174031 "/>
<path d="M158810000 102690000 L159000000 102500000 "/>
<path d="M149524614 100500000 L163500000 100500000 "/>
<path d="M158810000 107620000 L158810000 102690000 "/>
<path d="M149532114 138000000 L163507500 138000000 "/>
<path d="M148493801 140698645 L150075359 139117087 "/>
<path d="M153737500 139230000 L153507500 139000000 "/>
<path d="M150075359 139067859 L150143218 139000000 "/>
<path d="M150075359 139117087 L150075359 139067859 "/>
<path d="M146207397 140724511 L147981634 140724511 "/>
<path d="M146482886 139000000 L145507500 139975386 "/>
<path d="M162007500 139000000 L163007500 140000000 "/>
<path d="M146507500 139000000 L146482886 139000000 "/>
<path d="M153507500 139000000 L162007500 139000000 "/>
<path d="M153737500 145120000 L153737500 139230000 "/>
<path d="M150143218 139000000 L153507500 139000000 "/>
<path d="M163007500 140000000 L163507500 140000000 "/>
<path d="M145507500 140024614 L146207397 140724511 "/>
<path d="M148007500 140698645 L148493801 140698645 "/>
<path d="M147981634 140724511 L148007500 140698645 "/>
</g>
</g> 
</g><g id="substrate-pads" style="fill:#b5ae30; stroke:#b5ae30;" mask="url(#pads-mask)"><g style="fill-opacity: 0.0;stroke-width: 0.000000;stroke-opacity: 1;stroke-linecap: round;stroke-linejoin: round">
<g style="fill-opacity: 1.0;stroke-width: 1.000000;stroke-opacity: 1;stroke-linecap: round;stroke-linejoin: round">
<path style="fill-opacity: 1.0;stroke-width: 1.000000;stroke-opacity: 1;stroke-linecap: round;stroke-linejoin: round;fill-rule: evenodd" d="M 157960000.000000,91530000.000000 159660000.000000,91530000.000000 159660000.000000,93230000.000000 157960000.000000,93230000.000000 Z"/> 
<circle cx="156270000.000000" cy="92380000.000000" r="850000.000000"/> 
<circle cx="153730000.000000" cy="92380000.000000" r="850000.000000"/> 
<circle cx="151190000.000000" cy="92380000.000000" r="850000.000000"/> 
</g>
<g style="fill-opacity: 1.0;stroke-width: 1.000000;stroke-opacity: 1;stroke-linecap: round;stroke-linejoin: round">
<path style="fill-opacity: 1.0;stroke-width: 1.000000;stroke-opacity: 1;stroke-linecap: round;stroke-linejoin: round;fill-rule: evenodd" d="M 144420000.000000,145970000.000000 142720000.000000,145970000.000000 142720000.000000,144270000.000000 144420000.000000,144270000.000000 Z"/> 
<circle cx="146110000.000000" cy="145120000.000000" r="850000.000000"/> 
<circle cx="148650000.000000" cy="145120000.000000" r="850000.000000"/> 
<circle cx="151190000.000000" cy="145120000.000000" r="850000.000000"/> 
<circle cx="153730000.000000" cy="145120000.000000" r="850000.000000"/> 
<circle cx="156270000.000000" cy="145120000.000000" r="850000.000000"/> 
<circle cx="158810000.000000" cy="145120000.000000" r="850000.000000"/> 
<circle cx="161350000.000000" cy="145120000.000000" r="850000.000000"/> 
<circle cx="163890000.000000" cy="145120000.000000" r="850000.000000"/> 
<circle cx="166430000.000000" cy="145120000.000000" r="850000.000000"/> 
<path style="fill-opacity: 1.0;stroke-width: 1.000000;stroke-opacity: 1;stroke-linecap: round;stroke-linejoin: round;fill-rule: evenodd" d="M 157960000.000000,129030000.000000 159660000.000000,129030000.000000 159660000.000000,130730000.000000 157960000.000000,130730000.000000 Z"/> 
<circle cx="156270000.000000" cy="129880000.000000" r="850000.000000"/> 
<circle cx="153730000.000000" cy="129880000.000000" r="850000.000000"/> 
<circle cx="151190000.000000" cy="129880000.000000" r="850000.000000"/> 
</g>
<g style="fill-opacity: 1.0;stroke-width: 1.000000;stroke-opacity: 1;stroke-linecap: round;stroke-linejoin: round">
<path style="fill-opacity: 1.0;stroke-width: 1.000000;stroke-opacity: 1;stroke-linecap: round;stroke-linejoin: round;fill-rule: evenodd" d="M 144420000.000000,108470000.000000 142720000.000000,108470000.000000 142720000.000000,106770000.000000 144420000.000000,106770000.000000 Z"/> 
<circle cx="146110000.000000" cy="107620000.000000" r="850000.000000"/> 
<circle cx="148650000.000000" cy="107620000.000000" r="850000.000000"/> 
<circle cx="151190000.000000" cy="107620000.000000" r="850000.000000"/> 
<circle cx="153730000.000000" cy="107620000.000000" r="850000.000000"/> 
<circle cx="156270000.000000" cy="107620000.000000" r="850000.000000"/> 
<circle cx="158810000.000000" cy="107620000.000000" r="850000.000000"/> 
<circle cx="161350000.000000" cy="107620000.000000" r="850000.000000"/> 
<circle cx="163890000.000000" cy="107620000.000000" r="850000.000000"/> 
<circle cx="166430000.000000" cy="107620000.000000" r="850000.000000"/> 
</g>
<g style="fill-opacity: 1.0;stroke-width: 1.000000;stroke-opacity: 1;stroke-linecap: round;stroke-linejoin: round">
<circle cx="163500000.000000" cy="102500000.000000" r="400000.000000"/> 
</g>
<g style="fill-opacity: 1.0;stroke-width: 1.000000;stroke-opacity: 1;stroke-linecap: round;stroke-linejoin: round">
<circle cx="146500000.000000" cy="101500000.000000" r="400000.000000"/> 
</g>
<g style="fill-opacity: 1.0;stroke-width: 1.000000;stroke-opacity: 1;stroke-linecap: round;stroke-linejoin: round">
<circle cx="163507500.000000" cy="139000000.000000" r="400000.000000"/> 
</g>
<g style="fill-opacity: 1.0;stroke-width: 1.000000;stroke-opacity: 1;stroke-linecap: round;stroke-linejoin: round">
<circle cx="163500000.000000" cy="101500000.000000" r="400000.000000"/> 
</g>
<g style="fill-opacity: 1.0;stroke-width: 1.000000;stroke-opacity: 1;stroke-linecap: round;stroke-linejoin: round">
<circle cx="146500000.000000" cy="102500000.000000" r="400000.000000"/> 
</g>
<g style="fill-opacity: 1.0;stroke-width: 1.000000;stroke-opacity: 1;stroke-linecap: round;stroke-linejoin: round">
<circle cx="146507500.000000" cy="140000000.000000" r="400000.000000"/> 
</g>
<g style="fill-opacity: 1.0;stroke-width: 1.000000;stroke-opacity: 1;stroke-linecap: round;stroke-linejoin: round">
<circle cx="148000000.000000" cy="102024614.000000" r="400000.000000"/> 
</g>
<g style="fill-opacity: 1.0;stroke-width: 1.000000;stroke-opacity: 1;stroke-linecap: round;stroke-linejoin: round">
<circle cx="163507500.000000" cy="138000000.000000" r="400000.000000"/> 
</g>
<g style="fill-opacity: 1.0;stroke-width: 1.000000;stroke-opacity: 1;stroke-linecap: round;stroke-linejoin: round">
<circle cx="148007500.000000" cy="139524614.000000" r="400000.000000"/> 
</g>
<g style="fill-opacity: 1.0;stroke-width: 1.000000;stroke-opacity: 1;stroke-linecap: round;stroke-linejoin: round">
<circle cx="163500000.000000" cy="100500000.000000" r="400000.000000"/> 
</g>
<g style="fill-opacity: 1.0;stroke-width: 1.000000;stroke-opacity: 1;stroke-linecap: round;stroke-linejoin: round">
<circle cx="146507500.000000" cy="139000000.000000" r="400000.000000"/> 
</g>
<g style="fill-opacity: 1.0;stroke-width: 1.000000;stroke-opacity: 1;stroke-linecap: round;stroke-linejoin: round">
<circle cx="163507500.000000" cy="140000000.000000" r="400000.000000"/> 
</g>
<g style="fill-opacity: 0.0;stroke-width: 250000.000000;stroke-opacity: 1;stroke-linecap: round;stroke-linejoin: round">
<path d="M162000000 101500000 L163000000 102500000 "/>
<path d="M153730000 107620000 L153730000 101730000 "/>
<path d="M146500000 101500000 L146475386 101500000 "/>
<path d="M153730000 101730000 L153500000 101500000 "/>
<path d="M150135718 101500000 L153500000 101500000 "/>
<path d="M146199897 103224511 L147974134 103224511 "/>
<path d="M145500000 102524614 L146199897 103224511 "/>
<path d="M148000000 103198645 L148486301 103198645 "/>
<path d="M145500000 102475386 L145500000 102524614 "/>
<path d="M147974134 103224511 L148000000 103198645 "/>
<path d="M150067859 101617087 L150067859 101567859 "/>
<path d="M150067859 101567859 L150135718 101500000 "/>
<path d="M148486301 103198645 L150067859 101617087 "/>
<path d="M153500000 101500000 L162000000 101500000 "/>
<path d="M146475386 101500000 L145500000 102475386 "/>
<path d="M163000000 102500000 L163500000 102500000 "/>
<path d="M146500000 102500000 L146749125 102749125 "/>
<path d="M161871782 139500000 L156507500 139500000 "/>
<path d="M163507500 139000000 L163532114 139000000 "/>
<path d="M156277500 139730000 L156277500 145120000 "/>
<path d="M156270000 102230000 L156270000 107620000 "/>
<path d="M163088793 103224511 L161864282 102000000 "/>
<path d="M164500000 102475386 L164500000 102524614 "/>
<path d="M162507500 138500000 L163007500 139000000 "/>
<path d="M163007500 139000000 L163507500 139000000 "/>
<path d="M161864282 102000000 L156500000 102000000 "/>
<path d="M164507500 140024614 L163807603 140724511 "/>
<path d="M149007500 139549228 L149007500 139500000 "/>
<path d="M163807603 140724511 L163096293 140724511 "/>
<path d="M148300103 102749125 L149000000 102049228 "/>
<path d="M163500000 101500000 L163524614 101500000 "/>
<path d="M163532114 139000000 L164507500 139975386 "/>
<path d="M164500000 102524614 L163800103 103224511 "/>
<path d="M163096293 140724511 L161871782 139500000 "/>
<path d="M150000000 101000000 L162500000 101000000 "/>
<path d="M156500000 102000000 L156270000 102230000 "/>
<path d="M156507500 139500000 L156277500 139730000 "/>
<path d="M146756625 140249125 L148307603 140249125 "/>
<path d="M146507500 140000000 L146756625 140249125 "/>
<path d="M146749125 102749125 L148300103 102749125 "/>
<path d="M150007500 138500000 L162507500 138500000 "/>
<path d="M163000000 101500000 L163500000 101500000 "/>
<path d="M163524614 101500000 L164500000 102475386 "/>
<path d="M149000000 102000000 L150000000 101000000 "/>
<path d="M148307603 140249125 L149007500 139549228 "/>
<path d="M149007500 139500000 L150007500 138500000 "/>
<path d="M162500000 101000000 L163000000 101500000 "/>
<path d="M149000000 102049228 L149000000 102000000 "/>
<path d="M163800103 103224511 L163088793 103224511 "/>
<path d="M158817500 140190000 L159007500 140000000 "/>
<path d="M163993801 141174031 L165007500 140160332 "/>
<path d="M163986301 103674031 L165000000 102660332 "/>
<path d="M162910095 141174031 L163993801 141174031 "/>
<path d="M159007500 140000000 L161736064 140000000 "/>
<path d="M163532114 138000000 L163507500 138000000 "/>
<path d="M159000000 102500000 L161728564 102500000 "/>
<path d="M163524614 100500000 L163500000 100500000 "/>
<path d="M148000000 102024614 L149524614 100500000 "/>
<path d="M162902595 103674031 L163986301 103674031 "/>
<path d="M165007500 139475386 L163532114 138000000 "/>
<path d="M148007500 139524614 L149532114 138000000 "/>
<path d="M165000000 102660332 L165000000 101975386 "/>
<path d="M161728564 102500000 L162902595 103674031 "/>
<path d="M165000000 101975386 L163524614 100500000 "/>
<path d="M158817500 145120000 L158817500 140190000 "/>
<path d="M161736064 140000000 L162910095 141174031 "/>
<path d="M158810000 102690000 L159000000 102500000 "/>
<path d="M149524614 100500000 L163500000 100500000 "/>
<path d="M158810000 107620000 L158810000 102690000 "/>
<path d="M149532114 138000000 L163507500 138000000 "/>
<path d="M148493801 140698645 L150075359 139117087 "/>
<path d="M153737500 139230000 L153507500 139000000 "/>
<path d="M150075359 139067859 L150143218 139000000 "/>
<path d="M150075359 139117087 L150075359 139067859 "/>
<path d="M146207397 140724511 L147981634 140724511 "/>
<path d="M146482886 139000000 L145507500 139975386 "/>
<path d="M162007500 139000000 L163007500 140000000 "/>
<path d="M146507500 139000000 L146482886 139000000 "/>
<path d="M153507500 139000000 L162007500 139000000 "/>
<path d="M153737500 145120000 L153737500 139230000 "/>
<path d="M150143218 139000000 L153507500 139000000 "/>
<path d="M163007500 140000000 L163507500 140000000 "/>
<path d="M145507500 140024614 L146207397 140724511 "/>
<path d="M148007500 140698645 L148493801 140698645 "/>
<path d="M147981634 140724511 L148007500 140698645 "/>
</g>
</g> 
</g><g id="substrate-outline" style="fill:#000000; stroke:#000000; stroke-width: 150000"><g style="fill-opacity: 0.0;stroke-opacity: 1;stroke-linecap: round;stroke-linejoin: round">
<path d="M140000000 90000000 L170000000 90000000 "/>
<path d="M170000000 110000000 L140000000 110000000 "/>
<path d="M170000000 90000000 L170000000 110000000 "/>
<path d="M140000000 110000000 L140000000 90000000 "/>
</g>
<g style="fill-opacity: 0.0;stroke-opacity: 1;stroke-linecap: round;stroke-linejoin: round">
<text x="155000000.000000" y="82195000.000000" textLength="26705952.000000" font-size="1333333.000000" lengthAdjust="spacingAndGlyphs" text-anchor="middle" opacity="0">MODULE-CONN-BRBO-IBBC-SZ01</text>
<g class="stroked-text"><desc>MODULE-CONN-BRBO-IBBC-SZ01</desc>
<path d="M142047619 82147380 L142047619 81147380 L142380952 81861666 L142714285 81147380 L142714285 82147380 "/>
<path d="M143380952 81147380 L143571428 81147380 L143666666 81195000 L143761904 81290238 L143809523 81480714 L143809523 81814047 L143761904 82004523 L143666666 82099761 L143571428 82147380 L143380952 82147380 L143285714 82099761 L143190476 82004523 L143142857 81814047 L143142857 81480714 L143190476 81290238 L143285714 81195000 L143380952 81147380 "/>
<path d="M144238095 82147380 L144238095 81147380 L144476190 81147380 L144619047 81195000 L144714285 81290238 L144761904 81385476 L144809523 81575952 L144809523 81718809 L144761904 81909285 L144714285 82004523 L144619047 82099761 L144476190 82147380 L144238095 82147380 "/>
<path d="M145238095 81147380 L145238095 81956904 L145285714 82052142 L145333333 82099761 L145428571 82147380 L145619047 82147380 L145714285 82099761 L145761904 82052142 L145809523 81956904 L145809523 81147380 "/>
<path d="M146761904 82147380 L146285714 82147380 L146285714 81147380 "/>
<path d="M147095238 81623571 L147428571 81623571 "/>
<path d="M147571428 82147380 L147095238 82147380 L147095238 81147380 L147571428 81147380 "/>
<path d="M148000000 81766428 L148761904 81766428 "/>
<path d="M149809523 82052142 L149761904 82099761 L149619047 82147380 L149523809 82147380 L149380952 82099761 L149285714 82004523 L149238095 81909285 L149190476 81718809 L149190476 81575952 L149238095 81385476 L149285714 81290238 L149380952 81195000 L149523809 81147380 L149619047 81147380 L149761904 81195000 L149809523 81242619 "/>
<path d="M150428571 81147380 L150619047 81147380 L150714285 81195000 L150809523 81290238 L150857142 81480714 L150857142 81814047 L150809523 82004523 L150714285 82099761 L150619047 82147380 L150428571 82147380 L150333333 82099761 L150238095 82004523 L150190476 81814047 L150190476 81480714 L150238095 81290238 L150333333 81195000 L150428571 81147380 "/>
<path d="M151285714 82147380 L151285714 81147380 L151857142 82147380 L151857142 81147380 "/>
<path d="M152333333 82147380 L152333333 81147380 L152904761 82147380 L152904761 81147380 "/>
<path d="M153380952 81766428 L154142857 81766428 "/>
<path d="M154952380 81623571 L155095238 81671190 L155142857 81718809 L155190476 81814047 L155190476 81956904 L155142857 82052142 L155095238 82099761 L155000000 82147380 L154619047 82147380 L154619047 81147380 L154952380 81147380 L155047619 81195000 L155095238 81242619 L155142857 81337857 L155142857 81433095 L155095238 81528333 L155047619 81575952 L154952380 81623571 L154619047 81623571 "/>
<path d="M156190476 82147380 L155857142 81671190 "/>
<path d="M155619047 82147380 L155619047 81147380 L156000000 81147380 L156095238 81195000 L156142857 81242619 L156190476 81337857 L156190476 81480714 L156142857 81575952 L156095238 81623571 L156000000 81671190 L155619047 81671190 "/>
<path d="M156952380 81623571 L157095238 81671190 L157142857 81718809 L157190476 81814047 L157190476 81956904 L157142857 82052142 L157095238 82099761 L157000000 82147380 L156619047 82147380 L156619047 81147380 L156952380 81147380 L157047619 81195000 L157095238 81242619 L157142857 81337857 L157142857 81433095 L157095238 81528333 L157047619 81575952 L156952380 81623571 L156619047 81623571 "/>
<path d="M157809523 81147380 L158000000 81147380 L158095238 81195000 L158190476 81290238 L158238095 81480714 L158238095 81814047 L158190476 82004523 L158095238 82099761 L158000000 82147380 L157809523 82147380 L157714285 82099761 L157619047 82004523 L157571428 81814047 L157571428 81480714 L157619047 81290238 L157714285 81195000 L157809523 81147380 "/>
<path d="M158666666 81766428 L159428571 81766428 "/>
<path d="M159904761 82147380 L159904761 81147380 "/>
<path d="M160714285 81623571 L160857142 81671190 L160904761 81718809 L160952380 81814047 L160952380 81956904 L160904761 82052142 L160857142 82099761 L160761904 82147380 L160380952 82147380 L160380952 81147380 L160714285 81147380 L160809523 81195000 L160857142 81242619 L160904761 81337857 L160904761 81433095 L160857142 81528333 L160809523 81575952 L160714285 81623571 L160380952 81623571 "/>
<path d="M161714285 81623571 L161857142 81671190 L161904761 81718809 L161952380 81814047 L161952380 81956904 L161904761 82052142 L161857142 82099761 L161761904 82147380 L161380952 82147380 L161380952 81147380 L161714285 81147380 L161809523 81195000 L161857142 81242619 L161904761 81337857 L161904761 81433095 L161857142 81528333 L161809523 81575952 L161714285 81623571 L161380952 81623571 "/>
<path d="M162952380 82052142 L162904761 82099761 L162761904 82147380 L162666666 82147380 L162523809 82099761 L162428571 82004523 L162380952 81909285 L162333333 81718809 L162333333 81575952 L162380952 81385476 L162428571 81290238 L162523809 81195000 L162666666 81147380 L162761904 81147380 L162904761 81195000 L162952380 81242619 "/>
<path d="M163380952 81766428 L164142857 81766428 "/>
<path d="M164571428 82099761 L164714285 82147380 L164952380 82147380 L165047619 82099761 L165095238 82052142 L165142857 81956904 L165142857 81861666 L165095238 81766428 L165047619 81718809 L164952380 81671190 L164761904 81623571 L164666666 81575952 L164619047 81528333 L164571428 81433095 L164571428 81337857 L164619047 81242619 L164666666 81195000 L164761904 81147380 L165000000 81147380 L165142857 81195000 "/>
<path d="M165476190 81147380 L166142857 81147380 L165476190 82147380 L166142857 82147380 "/>
<path d="M166714285 81147380 L166809523 81147380 L166904761 81195000 L166952380 81242619 L167000000 81337857 L167047619 81528333 L167047619 81766428 L167000000 81956904 L166952380 82052142 L166904761 82099761 L166809523 82147380 L166714285 82147380 L166619047 82099761 L166571428 82052142 L166523809 81956904 L166476190 81766428 L166476190 81528333 L166523809 81337857 L166571428 81242619 L166619047 81195000 L166714285 81147380 "/>
<path d="M168000000 82147380 L167428571 82147380 "/>
<path d="M167714285 82147380 L167714285 81147380 L167619047 81290238 L167523809 81385476 L167428571 81433095 "/>
</g><text x="155000000.000000" y="83805000.000000" textLength="10658333.000000" font-size="1333333.000000" lengthAdjust="spacingAndGlyphs" text-anchor="middle" opacity="0">oom.lt/MCBI1</text>
<g class="stroked-text"><desc>oom.lt/MCBI1</desc>
<path d="M150214285 83757380 L150119047 83709761 L150071428 83662142 L150023809 83566904 L150023809 83281190 L150071428 83185952 L150119047 83138333 L150214285 83090714 L150357142 83090714 L150452380 83138333 L150500000 83185952 L150547619 83281190 L150547619 83566904 L150500000 83662142 L150452380 83709761 L150357142 83757380 L150214285 83757380 "/>
<path d="M151119047 83757380 L151023809 83709761 L150976190 83662142 L150928571 83566904 L150928571 83281190 L150976190 83185952 L151023809 83138333 L151119047 83090714 L151261904 83090714 L151357142 83138333 L151404761 83185952 L151452380 83281190 L151452380 83566904 L151404761 83662142 L151357142 83709761 L151261904 83757380 L151119047 83757380 "/>
<path d="M151880952 83757380 L151880952 83090714 "/>
<path d="M151880952 83185952 L151928571 83138333 L152023809 83090714 L152166666 83090714 L152261904 83138333 L152309523 83233571 L152309523 83757380 "/>
<path d="M152309523 83233571 L152357142 83138333 L152452380 83090714 L152595238 83090714 L152690476 83138333 L152738095 83233571 L152738095 83757380 "/>
<path d="M153214285 83662142 L153261904 83709761 L153214285 83757380 L153166666 83709761 L153214285 83662142 L153214285 83757380 "/>
<path d="M153833333 83757380 L153738095 83709761 L153690476 83614523 L153690476 82757380 "/>
<path d="M154071428 83090714 L154452380 83090714 "/>
<path d="M154214285 82757380 L154214285 83614523 L154261904 83709761 L154357142 83757380 L154452380 83757380 "/>
<path d="M155500000 82709761 L154642857 83995476 "/>
<path d="M155833333 83757380 L155833333 82757380 L156166666 83471666 L156500000 82757380 L156500000 83757380 "/>
<path d="M157547619 83662142 L157500000 83709761 L157357142 83757380 L157261904 83757380 L157119047 83709761 L157023809 83614523 L156976190 83519285 L156928571 83328809 L156928571 83185952 L156976190 82995476 L157023809 82900238 L157119047 82805000 L157261904 82757380 L157357142 82757380 L157500000 82805000 L157547619 82852619 "/>
<path d="M158309523 83233571 L158452380 83281190 L158500000 83328809 L158547619 83424047 L158547619 83566904 L158500000 83662142 L158452380 83709761 L158357142 83757380 L157976190 83757380 L157976190 82757380 L158309523 82757380 L158404761 82805000 L158452380 82852619 L158500000 82947857 L158500000 83043095 L158452380 83138333 L158404761 83185952 L158309523 83233571 L157976190 83233571 "/>
<path d="M158976190 83757380 L158976190 82757380 "/>
<path d="M159976190 83757380 L159404761 83757380 "/>
<path d="M159690476 83757380 L159690476 82757380 L159595238 82900238 L159500000 82995476 L159404761 83043095 "/>
</g></g>
<g style="fill-opacity: 0.0;stroke-opacity: 1;stroke-linecap: round;stroke-linejoin: round">
<path d="M140000000 127500000 L170000000 127500000 "/>
<path d="M170000000 147500000 L140000000 147500000 "/>
<path d="M140000000 147500000 L140000000 127500000 "/>
<path d="M170000000 127500000 L170000000 147500000 "/>
</g> 
<path d="M -500000.0 0.0 A 500000.0 500000.0 0 1 1 500000.0 0.0 L 500000.0 0.0 A 500000.0 500000.0 0 1 1 -500000.0 0.0 Z" transform="translate(158810000 92380000) rotate(-270.0)"/><path d="M -500000.0 0.0 A 500000.0 500000.0 0 1 1 500000.0 0.0 L 500000.0 0.0 A 500000.0 500000.0 0 1 1 -500000.0 0.0 Z" transform="translate(156270000 92380000) rotate(-270.0)"/><path d="M -500000.0 0.0 A 500000.0 500000.0 0 1 1 500000.0 0.0 L 500000.0 0.0 A 500000.0 500000.0 0 1 1 -500000.0 0.0 Z" transform="translate(153730000 92380000) rotate(-270.0)"/><path d="M -500000.0 0.0 A 500000.0 500000.0 0 1 1 500000.0 0.0 L 500000.0 0.0 A 500000.0 500000.0 0 1 1 -500000.0 0.0 Z" transform="translate(151190000 92380000) rotate(-270.0)"/><path d="M -1600000.0 0.0 A 1600000.0 1600000.0 0 1 1 1600000.0 0.0 L 1600000.0 0.0 A 1600000.0 1600000.0 0 1 1 -1600000.0 0.0 Z" transform="translate(165000000 132500000) rotate(-0.0)"/><path d="M -1600000.0 0.0 A 1600000.0 1600000.0 0 1 1 1600000.0 0.0 L 1600000.0 0.0 A 1600000.0 1600000.0 0 1 1 -1600000.0 0.0 Z" transform="translate(145000000 132500000) rotate(-0.0)"/><path d="M -500000.0 0.0 A 500000.0 500000.0 0 1 1 500000.0 0.0 L 500000.0 0.0 A 500000.0 500000.0 0 1 1 -500000.0 0.0 Z" transform="translate(143570000 145120000) rotate(-90.0)"/><path d="M -500000.0 0.0 A 500000.0 500000.0 0 1 1 500000.0 0.0 L 500000.0 0.0 A 500000.0 500000.0 0 1 1 -500000.0 0.0 Z" transform="translate(146110000 145120000) rotate(-90.0)"/><path d="M -500000.0 0.0 A 500000.0 500000.0 0 1 1 500000.0 0.0 L 500000.0 0.0 A 500000.0 500000.0 0 1 1 -500000.0 0.0 Z" transform="translate(148650000 145120000) rotate(-90.0)"/><path d="M -500000.0 0.0 A 500000.0 500000.0 0 1 1 500000.0 0.0 L 500000.0 0.0 A 500000.0 500000.0 0 1 1 -500000.0 0.0 Z" transform="translate(151190000 145120000) rotate(-90.0)"/><path d="M -500000.0 0.0 A 500000.0 500000.0 0 1 1 500000.0 0.0 L 500000.0 0.0 A 500000.0 500000.0 0 1 1 -500000.0 0.0 Z" transform="translate(153730000 145120000) rotate(-90.0)"/><path d="M -500000.0 0.0 A 500000.0 500000.0 0 1 1 500000.0 0.0 L 500000.0 0.0 A 500000.0 500000.0 0 1 1 -500000.0 0.0 Z" transform="translate(156270000 145120000) rotate(-90.0)"/><path d="M -500000.0 0.0 A 500000.0 500000.0 0 1 1 500000.0 0.0 L 500000.0 0.0 A 500000.0 500000.0 0 1 1 -500000.0 0.0 Z" transform="translate(158810000 145120000) rotate(-90.0)"/><path d="M -500000.0 0.0 A 500000.0 500000.0 0 1 1 500000.0 0.0 L 500000.0 0.0 A 500000.0 500000.0 0 1 1 -500000.0 0.0 Z" transform="translate(161350000 145120000) rotate(-90.0)"/><path d="M -500000.0 0.0 A 500000.0 500000.0 0 1 1 500000.0 0.0 L 500000.0 0.0 A 500000.0 500000.0 0 1 1 -500000.0 0.0 Z" transform="translate(163890000 145120000) rotate(-90.0)"/><path d="M -500000.0 0.0 A 500000.0 500000.0 0 1 1 500000.0 0.0 L 500000.0 0.0 A 500000.0 500000.0 0 1 1 -500000.0 0.0 Z" transform="translate(166430000 145120000) rotate(-90.0)"/><path d="M -500000.0 0.0 A 500000.0 500000.0 0 1 1 500000.0 0.0 L 500000.0 0.0 A 500000.0 500000.0 0 1 1 -500000.0 0.0 Z" transform="translate(158810000 129880000) rotate(-270.0)"/><path d="M -500000.0 0.0 A 500000.0 500000.0 0 1 1 500000.0 0.0 L 500000.0 0.0 A 500000.0 500000.0 0 1 1 -500000.0 0.0 Z" transform="translate(156270000 129880000) rotate(-270.0)"/><path d="M -500000.0 0.0 A 500000.0 500000.0 0 1 1 500000.0 0.0 L 500000.0 0.0 A 500000.0 500000.0 0 1 1 -500000.0 0.0 Z" transform="translate(153730000 129880000) rotate(-270.0)"/><path d="M -500000.0 0.0 A 500000.0 500000.0 0 1 1 500000.0 0.0 L 500000.0 0.0 A 500000.0 500000.0 0 1 1 -500000.0 0.0 Z" transform="translate(151190000 129880000) rotate(-270.0)"/><path d="M -1600000.0 0.0 A 1600000.0 1600000.0 0 1 1 1600000.0 0.0 L 1600000.0 0.0 A 1600000.0 1600000.0 0 1 1 -1600000.0 0.0 Z" transform="translate(145000000 95000000) rotate(-0.0)"/><path d="M -500000.0 0.0 A 500000.0 500000.0 0 1 1 500000.0 0.0 L 500000.0 0.0 A 500000.0 500000.0 0 1 1 -500000.0 0.0 Z" transform="translate(143570000 107620000) rotate(-90.0)"/><path d="M -500000.0 0.0 A 500000.0 500000.0 0 1 1 500000.0 0.0 L 500000.0 0.0 A 500000.0 500000.0 0 1 1 -500000.0 0.0 Z" transform="translate(146110000 107620000) rotate(-90.0)"/><path d="M -500000.0 0.0 A 500000.0 500000.0 0 1 1 500000.0 0.0 L 500000.0 0.0 A 500000.0 500000.0 0 1 1 -500000.0 0.0 Z" transform="translate(148650000 107620000) rotate(-90.0)"/><path d="M -500000.0 0.0 A 500000.0 500000.0 0 1 1 500000.0 0.0 L 500000.0 0.0 A 500000.0 500000.0 0 1 1 -500000.0 0.0 Z" transform="translate(151190000 107620000) rotate(-90.0)"/><path d="M -500000.0 0.0 A 500000.0 500000.0 0 1 1 500000.0 0.0 L 500000.0 0.0 A 500000.0 500000.0 0 1 1 -500000.0 0.0 Z" transform="translate(153730000 107620000) rotate(-90.0)"/><path d="M -500000.0 0.0 A 500000.0 500000.0 0 1 1 500000.0 0.0 L 500000.0 0.0 A 500000.0 500000.0 0 1 1 -500000.0 0.0 Z" transform="translate(156270000 107620000) rotate(-90.0)"/><path d="M -500000.0 0.0 A 500000.0 500000.0 0 1 1 500000.0 0.0 L 500000.0 0.0 A 500000.0 500000.0 0 1 1 -500000.0 0.0 Z" transform="translate(158810000 107620000) rotate(-90.0)"/><path d="M -500000.0 0.0 A 500000.0 500000.0 0 1 1 500000.0 0.0 L 500000.0 0.0 A 500000.0 500000.0 0 1 1 -500000.0 0.0 Z" transform="translate(161350000 107620000) rotate(-90.0)"/><path d="M -500000.0 0.0 A 500000.0 500000.0 0 1 1 500000.0 0.0 L 500000.0 0.0 A 500000.0 500000.0 0 1 1 -500000.0 0.0 Z" transform="translate(163890000 107620000) rotate(-90.0)"/><path d="M -500000.0 0.0 A 500000.0 500000.0 0 1 1 500000.0 0.0 L 500000.0 0.0 A 500000.0 500000.0 0 1 1 -500000.0 0.0 Z" transform="translate(166430000 107620000) rotate(-90.0)"/><path d="M -1600000.0 0.0 A 1600000.0 1600000.0 0 1 1 1600000.0 0.0 L 1600000.0 0.0 A 1600000.0 1600000.0 0 1 1 -1600000.0 0.0 Z" transform="translate(165000000 95000000) rotate(-0.0)"/><path d="M -200000.0 0.0 A 200000.0 200000.0 0 1 1 200000.0 0.0 L 200000.0 0.0 A 200000.0 200000.0 0 1 1 -200000.0 0.0 Z" transform="translate(163500000 102500000) rotate(0.0)"/><path d="M -200000.0 0.0 A 200000.0 200000.0 0 1 1 200000.0 0.0 L 200000.0 0.0 A 200000.0 200000.0 0 1 1 -200000.0 0.0 Z" transform="translate(146500000 101500000) rotate(0.0)"/><path d="M -200000.0 0.0 A 200000.0 200000.0 0 1 1 200000.0 0.0 L 200000.0 0.0 A 200000.0 200000.0 0 1 1 -200000.0 0.0 Z" transform="translate(163507500 139000000) rotate(0.0)"/><path d="M -200000.0 0.0 A 200000.0 200000.0 0 1 1 200000.0 0.0 L 200000.0 0.0 A 200000.0 200000.0 0 1 1 -200000.0 0.0 Z" transform="translate(163500000 101500000) rotate(0.0)"/><path d="M -200000.0 0.0 A 200000.0 200000.0 0 1 1 200000.0 0.0 L 200000.0 0.0 A 200000.0 200000.0 0 1 1 -200000.0 0.0 Z" transform="translate(146500000 102500000) rotate(0.0)"/><path d="M -200000.0 0.0 A 200000.0 200000.0 0 1 1 200000.0 0.0 L 200000.0 0.0 A 200000.0 200000.0 0 1 1 -200000.0 0.0 Z" transform="translate(146507500 140000000) rotate(0.0)"/><path d="M -200000.0 0.0 A 200000.0 200000.0 0 1 1 200000.0 0.0 L 200000.0 0.0 A 200000.0 200000.0 0 1 1 -200000.0 0.0 Z" transform="translate(148000000 102024614) rotate(0.0)"/><path d="M -200000.0 0.0 A 200000.0 200000.0 0 1 1 200000.0 0.0 L 200000.0 0.0 A 200000.0 200000.0 0 1 1 -200000.0 0.0 Z" transform="translate(163507500 138000000) rotate(0.0)"/><path d="M -200000.0 0.0 A 200000.0 200000.0 0 1 1 200000.0 0.0 L 200000.0 0.0 A 200000.0 200000.0 0 1 1 -200000.0 0.0 Z" transform="translate(148007500 139524614) rotate(0.0)"/><path d="M -200000.0 0.0 A 200000.0 200000.0 0 1 1 200000.0 0.0 L 200000.0 0.0 A 200000.0 200000.0 0 1 1 -200000.0 0.0 Z" transform="translate(163500000 100500000) rotate(0.0)"/><path d="M -200000.0 0.0 A 200000.0 200000.0 0 1 1 200000.0 0.0 L 200000.0 0.0 A 200000.0 200000.0 0 1 1 -200000.0 0.0 Z" transform="translate(146507500 139000000) rotate(0.0)"/><path d="M -200000.0 0.0 A 200000.0 200000.0 0 1 1 200000.0 0.0 L 200000.0 0.0 A 200000.0 200000.0 0 1 1 -200000.0 0.0 Z" transform="translate(163507500 140000000) rotate(0.0)"/></g></g></g></svg>